<svg width="357" height="357" viewBox="0 0 357 357" fill="none" xmlns="http://www.w3.org/2000/svg">
<rect x="75.7" y="0.7" width="204.6" height="253.6" rx="29.3" fill="#E4F2F2" stroke="#323A45" stroke-width="1.4"/>
<rect x="91.7" y="17.7" width="172.6" height="219.6" rx="19.3" fill="white" stroke="#323A45" stroke-width="1.4"/>
<mask id="mask0" mask-type="alpha" maskUnits="userSpaceOnUse" x="0" y="0" width="357" height="357">
<circle cx="178.5" cy="178.5" r="178.5" fill="white"/>
</mask>
<g mask="url(#mask0)">
<circle cx="178.5" cy="178.5" r="178.5" fill="#F3F3F4"/>
<rect x="166.7" y="245.7" width="24.6" height="124.6" fill="#B5CBD2" stroke="#323A45" stroke-width="1.4"/>
<path d="M75.7 55.8C75.7 43.6714 75.7011 34.6355 76.5187 27.6016C77.3346 20.5828 78.9554 15.6471 82.1334 11.6804C83.4776 10.0025 85.0025 8.47764 86.6804 7.13339C90.6471 3.95544 95.5828 2.33456 102.602 1.5187C109.635 0.701107 118.671 0.7 130.8 0.7H225.2C237.329 0.7 246.365 0.701107 253.398 1.5187C260.417 2.33456 265.353 3.95544 269.32 7.13339C270.998 8.47764 272.522 10.0025 273.867 11.6804C277.045 15.6471 278.665 20.5828 279.481 27.6016C280.299 34.6355 280.3 43.6714 280.3 55.8V167.58C280.3 186.572 280.299 200.755 279.015 211.803C277.732 222.836 275.178 230.652 270.134 236.949C268.01 239.6 265.6 242.01 262.949 244.134C256.652 249.178 248.836 251.732 237.803 253.015C226.755 254.299 212.572 254.3 193.58 254.3H162.42C143.428 254.3 129.245 254.299 118.197 253.015C107.164 251.732 99.3476 249.178 93.0513 244.134C90.3998 242.01 87.9903 239.6 85.8661 236.949C80.8218 230.652 78.2677 222.836 76.9853 211.803C75.7011 200.755 75.7 186.572 75.7 167.58V55.8Z" fill="#88BCCC" stroke="#323A45" stroke-width="1.4"/>
<path d="M91.7 54.2C91.7 46.1087 91.7011 40.1006 92.2442 35.428C92.7856 30.7704 93.8576 27.5292 95.9377 24.9328C96.8232 23.8276 97.8276 22.8232 98.9328 21.9377C101.529 19.8576 104.77 18.7856 109.428 18.2442C114.101 17.7011 120.109 17.7 128.2 17.7H227.8C235.891 17.7 241.899 17.7011 246.572 18.2442C251.23 18.7856 254.471 19.8576 257.067 21.9377C258.172 22.8232 259.177 23.8276 260.062 24.9328C262.142 27.5292 263.214 30.7704 263.756 35.428C264.299 40.1006 264.3 46.1087 264.3 54.2V163.6C264.3 179.766 264.299 191.83 263.207 201.225C262.117 210.605 259.947 217.235 255.671 222.572C253.868 224.823 251.823 226.868 249.572 228.671C244.235 232.947 237.605 235.117 228.225 236.207C218.83 237.299 206.766 237.3 190.6 237.3H165.4C149.234 237.3 137.17 237.299 127.775 236.207C118.395 235.117 111.765 232.947 106.428 228.671C104.177 226.868 102.132 224.823 100.329 222.572C96.0533 217.235 93.8835 210.605 92.7932 201.225C91.7011 191.83 91.7 179.766 91.7 163.6V54.2Z" fill="#E4F2F2" stroke="#323A45" stroke-width="1.4"/>
<rect x="101" y="28" width="156" height="86" rx="14" fill="#323A45"/>
<circle cx="178" cy="71" r="22" fill="#0C8547"/>
<path d="M167.704 72.5L174.204 79L179.204 74L181.704 71.5L182.954 70.25L184.204 69L189.204 64" stroke="white" stroke-width="3.5" stroke-linecap="round" stroke-linejoin="round"/>
<path d="M213.825 233.421L213.215 233.516L213.215 233.516L213.215 233.516L213.214 233.517L213.209 233.517L213.185 233.521C213.163 233.524 213.13 233.529 213.086 233.535C212.998 233.547 212.866 233.565 212.697 233.585C212.359 233.625 211.871 233.675 211.278 233.716C210.089 233.797 208.488 233.838 206.825 233.681C205.155 233.523 203.464 233.169 202.071 232.487C200.688 231.809 199.634 230.828 199.139 229.413C198.46 227.474 198.703 225.88 199.421 224.549C200.154 223.19 201.407 222.063 202.808 221.157C204.203 220.254 205.698 219.602 206.852 219.173C207.428 218.96 207.914 218.804 208.255 218.702C208.425 218.65 208.558 218.613 208.648 218.588C208.693 218.576 208.727 218.567 208.75 218.561L208.774 218.555L208.779 218.554L208.78 218.554L208.78 218.553L208.78 218.553L208.868 218.532L208.948 218.488L262.507 189.074L290.836 205.511C301.114 215.965 307.149 222.602 319.439 238.203C326.082 247.038 330.102 253.045 338.499 266.463L338.529 266.511L338.567 266.554C340.617 268.885 343.351 270.626 348.573 273.741L348.575 273.742C355.852 278.051 367.161 282.661 406.54 296.621L372.317 345.053C352.537 335.115 341.222 329.669 320.755 323.845L320.74 323.841L320.726 323.837C316.39 322.803 313.13 322.138 309.799 321.719C304.23 321.018 298.797 319.514 294.256 316.379C286.556 311.061 281.751 307.24 276.713 301.966L276.707 301.961L276.702 301.955C270.225 295.481 265.883 291.704 258.155 286.019C256.683 284.936 255.016 283.922 253.08 283.597C250.284 283.128 246.195 282.945 242.098 282.828C240.951 282.795 239.803 282.768 238.679 282.741C235.76 282.67 233.003 282.604 230.85 282.461C229.329 282.361 227.827 282.02 226.309 281.595C223.271 280.744 220.986 279.983 219.768 277.497C218.865 275.655 218.675 274.206 218.837 273.077C218.999 271.949 219.522 271.074 220.166 270.396C220.815 269.712 221.582 269.237 222.197 268.93C222.502 268.778 222.765 268.671 222.949 268.602C223.041 268.568 223.112 268.544 223.159 268.528C223.183 268.52 223.2 268.515 223.21 268.512L223.221 268.509L223.221 268.509L223.221 268.509L223.222 268.508L223.222 268.508L223.893 268.315L223.699 267.642L220.511 256.593L220.328 255.959L219.685 256.104L219.685 256.104L219.685 256.104L219.682 256.104L219.667 256.108C219.653 256.111 219.631 256.115 219.6 256.121C219.54 256.133 219.449 256.151 219.33 256.171C219.093 256.211 218.748 256.263 218.324 256.305C217.474 256.39 216.321 256.438 215.094 256.294C212.629 256.006 210.014 254.973 208.798 252.081C208.032 250.26 208.085 248.776 208.541 247.561C209.005 246.327 209.913 245.302 210.966 244.475C212.017 243.65 213.177 243.05 214.083 242.655C214.534 242.459 214.918 242.315 215.186 242.221C215.321 242.174 215.426 242.14 215.496 242.117C215.532 242.106 215.558 242.098 215.575 242.093L215.593 242.088L215.597 242.087L215.597 242.087L215.597 242.086L215.598 242.086L216.27 241.893L216.075 241.22L213.996 234.014L213.825 233.421Z" fill="#985D4D" stroke="#323A45" stroke-width="1.4"/>
<path d="M186.457 129.553C184.804 123.823 188.109 117.836 193.84 116.183L246.684 100.935C252.415 99.2818 258.402 102.587 260.055 108.318L298.589 241.87C300.243 247.601 296.938 253.587 291.207 255.241L238.362 270.488C232.632 272.142 226.645 268.836 224.992 263.105L186.457 129.553Z" fill="#046B99" stroke="#323A45" stroke-width="6.4"/>
<path d="M239.406 128.145L239.761 127.541L239.406 128.145C240.339 128.692 241.598 128.429 242.27 127.594C242.988 126.704 242.809 125.441 241.799 124.848C235.967 121.426 229.731 120.501 224.07 122.136C218.404 123.772 213.674 127.868 210.678 133.848C210.153 134.897 210.697 136.052 211.781 136.408C212.798 136.742 213.999 136.283 214.484 135.315C217.056 130.181 220.899 127.045 225.135 125.822C229.375 124.598 234.366 125.187 239.406 128.145ZM219.2 138.472C221.066 134.674 223.831 132.427 226.816 131.565C229.806 130.702 233.396 131.118 237.097 133.329C238.026 133.884 239.286 133.628 239.965 132.799C240.688 131.915 240.522 130.649 239.516 130.048C235.033 127.37 230.187 126.598 225.751 127.879C221.31 129.161 217.66 132.392 215.381 137.033C214.863 138.086 215.419 139.236 216.505 139.584C217.524 139.911 218.723 139.444 219.2 138.472ZM223.861 141.475C225.036 139.085 226.731 137.75 228.479 137.246C230.232 136.739 232.416 136.958 234.753 138.354C235.682 138.909 236.942 138.653 237.62 137.824C238.343 136.94 238.178 135.674 237.172 135.073C234.053 133.21 230.613 132.635 227.414 133.559C224.211 134.484 221.63 136.802 220.042 140.037C219.524 141.09 220.08 142.239 221.166 142.587C222.185 142.914 223.384 142.448 223.861 141.475ZM228.522 144.479C229.005 143.496 229.631 143.074 230.142 142.926C230.658 142.777 231.436 142.798 232.408 143.379C233.337 143.934 234.597 143.678 235.276 142.849C235.999 141.964 235.834 140.699 234.827 140.098C233.073 139.05 231.039 138.673 229.078 139.24C227.111 139.807 225.6 141.213 224.703 143.04C224.185 144.094 224.741 145.243 225.827 145.591C226.846 145.918 228.045 145.451 228.522 144.479Z" fill="white" stroke="#323A45" stroke-width="1.4" stroke-linecap="round" stroke-linejoin="round"/>
<rect x="207.947" y="162.591" width="53.6" height="30.6" rx="3.3" transform="rotate(-16.0946 207.947 162.591)" fill="#88BCCC" stroke="#323A45" stroke-width="1.4"/>
<rect x="217.281" y="175.822" width="21" height="3" rx="1.5" transform="rotate(-16.0946 217.281 175.822)" fill="#323A45"/>
<rect x="218.944" y="181.587" width="35" height="3" rx="1.5" transform="rotate(-16.0946 218.944 181.587)" fill="#323A45"/>
<path d="M185.785 129.747C184.024 123.645 187.544 117.271 193.646 115.51L246.49 100.263C252.593 98.502 258.967 102.022 260.728 108.124L299.262 241.676C301.023 247.778 297.503 254.152 291.401 255.913L238.556 271.161C232.454 272.921 226.08 269.402 224.319 263.299L185.785 129.747Z" stroke="#575C65" stroke-width="5"/>
<path d="M183.501 128.325C181.771 122.329 185.229 116.065 191.225 114.335L247.913 97.9789C253.909 96.2488 260.173 99.7071 261.903 105.703L301.546 243.098C303.276 249.095 299.818 255.358 293.821 257.088L237.134 273.444C231.138 275.175 224.874 271.716 223.144 265.72L183.501 128.325Z" stroke="#323A45" stroke-width="1.4"/>
<path d="M292.232 258.796L292.032 255.6C291.979 254.758 291.4 254.04 290.591 253.798C285.665 252.327 283.419 251.367 280.256 249.762C259.658 255.363 250.983 255.737 250.174 245.965C250.012 244.012 251.156 242.23 252.796 241.158C257.812 237.877 262.204 234.489 269.728 229.41C273.373 226.95 277.813 225.688 282.046 226.878C286.518 228.136 290.695 230.122 295.877 232.048C297.382 232.607 298.842 231.209 298.396 229.666L297.781 227.533L291.266 204.954L312.971 231.476L318.508 274.112L306.906 302.439C297.131 286.276 293.315 276.853 292.232 258.796Z" fill="#985D4D"/>
<path d="M291.266 204.954L297.781 227.533L298.396 229.666C298.842 231.209 297.382 232.607 295.877 232.048C290.695 230.122 286.518 228.136 282.046 226.878C277.813 225.688 273.373 226.95 269.728 229.41C262.204 234.489 257.812 237.877 252.796 241.158C251.156 242.23 250.012 244.012 250.174 245.965C250.983 255.737 259.658 255.363 280.256 249.762C283.419 251.367 285.665 252.327 290.591 253.798C291.4 254.04 291.979 254.758 292.032 255.6L292.232 258.796C293.315 276.853 297.131 286.276 306.906 302.439" stroke="#323A45" stroke-width="1.4"/>
<path d="M255.384 251.596C259.953 250.69 262.649 248.855 266.369 245.623C267.16 244.935 267.47 243.852 267.181 242.853L265.852 238.244C265.379 236.608 263.525 235.808 262.013 236.605C260.774 237.259 259.68 237.846 258.592 238.429C256.721 239.432 254.869 240.424 252.333 241.731C251.399 242.212 250.588 243.008 250.214 244.064C249.675 245.585 249.531 246.853 249.878 247.993C250.225 249.131 251.025 250.015 252.095 250.845C253.034 251.574 254.244 251.822 255.384 251.596Z" fill="#E6B8AB" stroke="#323A45" stroke-width="1.4"/>
<path d="M232.108 273.022C233.162 276.674 231.24 280.349 227.94 281.302C224.581 282.271 220.558 280.246 219.521 276.653C218.901 274.502 218.731 272.973 219.292 271.727C219.849 270.493 221.218 269.34 224.221 268.218C227.354 267.047 231.039 269.316 232.108 273.022Z" fill="#985D4D" stroke="#323A45" stroke-width="1.4"/>
<path d="M114.757 189.751C119.088 190.767 122.955 191.069 125.081 193.253C125.938 194.133 126.337 195.426 126.251 196.651C126.131 198.366 125.153 199.886 123.808 200.959C121.361 202.911 118.236 203.868 113.638 205.411C122.634 207.771 126.738 209.353 127.859 213.865C127.722 218.034 126.257 220.109 122.124 220.772C121.555 220.863 121.337 221.602 121.798 221.948C123.044 222.882 124.171 223.747 125.119 224.892C125.496 225.347 125.743 225.895 125.857 226.474C126.597 230.238 125.176 231.754 120.816 233.162C120.356 233.311 120.211 233.902 120.532 234.264C121.605 235.475 122.202 236.691 122.331 238.032C122.38 238.539 122.284 239.055 122.05 239.508C119.91 243.653 113.412 242.434 108.775 238.689C108.434 238.414 107.979 238.317 107.558 238.44C104.357 239.373 102.431 239.355 99.5783 239.165C98.9937 239.126 98.4008 239.21 97.8766 239.472C96.6185 240.1 96.0051 240.727 95.2966 241.636C95.0296 241.979 94.8653 242.395 94.8093 242.826C92.5612 260.089 90.0032 269.699 84.1745 286.392L84.7883 301.268C83.4565 309.538 81.7558 313.986 76.4387 321.487C70.5662 332.237 68.5264 338.146 65.2228 348.646L15.4793 368.847L11.8501 352.703C25.4407 328.552 30.7589 316.322 33.7734 298.014C35.2404 279.163 34.8279 268.069 31.5983 247.679L29.1783 224.052C28.9582 221.903 29.8623 219.798 31.5429 218.441C41.2471 210.601 54.6773 198.403 60.2301 192.132C63.5287 189.231 65.9609 187.178 68.1723 185.711C71.3815 183.582 75.429 183.85 79.152 184.835C88.3267 187.262 97.0765 188.112 110.875 189.113C112.183 189.208 113.48 189.451 114.757 189.751Z" fill="#CD9F78" stroke="#323A45" stroke-width="1.4"/>
<path d="M89.8621 203.812C85.2698 203.873 82.7629 203.987 79.4178 204.272C78.3991 204.358 77.4677 204.87 76.81 205.652C73.6228 209.446 71.1562 211.357 66.9239 214.098C66.7674 214.199 66.6007 214.291 66.4295 214.365C62.5627 216.037 60.2672 215.331 56.2729 214.397" stroke="#323A45" stroke-width="1.4"/>
<path d="M84.9557 214.315L80.3941 215.718L66.9321 223.731" stroke="#323A45" stroke-width="1.4"/>
<path d="M121.418 221.054C116.045 220.789 113.069 220.111 107.944 217.406" stroke="#323A45" stroke-width="1.4"/>
<path d="M120.396 233.549V233.549C115.657 233.042 111.046 231.694 106.78 229.568L102.76 227.565" stroke="#323A45" stroke-width="1.4"/>
<rect x="-0.210983" y="0.967205" width="95.1074" height="60.2162" rx="5.56643" transform="matrix(-0.841563 0.540159 0.540159 0.841563 145.051 121.559)" fill="#046B99" stroke="#323A45" stroke-width="1.4"/>
<rect x="-0.210983" y="0.967205" width="28.0522" height="4.23979" rx="2.1199" transform="matrix(-0.841563 0.540159 0.540159 0.841563 142.039 133.958)" fill="white" stroke="#323A45" stroke-width="1.4"/>
<rect x="-0.210983" y="0.967205" width="46.8515" height="4.23979" rx="2.1199" transform="matrix(-0.841563 0.540159 0.540159 0.841563 162.347 165.6)" fill="white" stroke="#323A45" stroke-width="1.4"/>
<path d="M153.042 149.276L154.501 151.549L154.62 151.735L154.879 152.138L154.998 152.324L156.363 154.45L156.482 154.635L156.741 155.039L156.86 155.224L157.561 156.317C158.211 157.33 157.919 158.682 156.906 159.333L155.06 160.517L154.209 161.063L153.965 161.22L153.64 161.428L149.414 164.141L149.089 164.35L148.845 164.507L147.994 165.053L146.214 166.195C145.2 166.846 143.849 166.548 143.199 165.535L142.498 164.443L142.378 164.257L142.12 163.854L142 163.668L140.636 161.542L140.517 161.357L140.258 160.953L140.139 160.768L138.679 158.494L138.56 158.308L138.301 157.905L138.182 157.719L137.576 156.774C136.926 155.762 137.218 154.409 138.231 153.759L139.877 152.703L140.729 152.156L140.974 151.999L141.297 151.791L145.792 148.906L146.117 148.698L146.361 148.541L147.212 147.994L148.923 146.896C149.937 146.246 151.288 146.543 151.938 147.556L152.544 148.501L152.664 148.686L152.922 149.09L153.042 149.276Z" fill="white" stroke="#323A45" stroke-width="1.4"/>
<path d="M115.697 199.024C116.112 195.922 116.267 188.959 110.033 186.118C103.885 183.316 98.3586 189.225 96.4817 191.57C96.0105 192.158 95.6291 192.81 95.2848 193.481C89.6724 204.42 86.3906 211.105 80.7088 224.575C77.4099 230.767 75.4229 233.904 72.5545 237.828C71.8013 238.859 70.3888 239.139 69.2783 238.509C63.1449 235.033 57.0761 232.195 47.6082 227.65L76.5018 305.108C81.9195 292.313 84.4816 285.759 88.2142 275.165C91.7883 261.928 93.5053 254.214 95.4753 239.705C103.876 225.603 108.059 217.115 114.785 201.991C115.208 201.039 115.559 200.057 115.697 199.024Z" fill="#CD9F78"/>
<path d="M76.5018 305.108C81.9195 292.313 84.4816 285.759 88.2142 275.165C91.7883 261.928 93.5053 254.214 95.4753 239.705C103.876 225.603 108.059 217.115 114.785 201.991C115.208 201.039 115.559 200.057 115.697 199.024C116.112 195.922 116.267 188.959 110.033 186.118C103.885 183.316 98.3586 189.225 96.4817 191.57C96.0105 192.158 95.6291 192.81 95.2848 193.481C89.6724 204.42 86.3906 211.105 80.7088 224.575C77.4099 230.767 75.4229 233.904 72.5545 237.828C71.8013 238.859 70.3888 239.139 69.2783 238.509C63.1449 235.033 57.0761 232.195 47.6082 227.65" stroke="#323A45" stroke-width="1.4"/>
<path d="M113.982 196.31C114.773 191.15 111.646 187.194 107.476 186.933C104.576 186.751 102.206 189.061 100.801 191.604C99.5582 193.854 98.8427 196.127 98.4818 199.572C98.3894 200.453 98.6399 201.34 99.1825 202.041C101.162 204.596 102.907 206.042 106.276 206.924C107.568 207.263 108.931 206.752 109.727 205.68C112.132 202.444 112.873 200.092 113.982 196.31Z" fill="#E7B8AB" stroke="#323A45" stroke-width="1.4"/>
<path d="M60.2294 192.132C54.6766 198.403 41.2465 210.601 31.5422 218.44C29.8616 219.798 28.9575 221.903 29.1776 224.052L31.5976 247.678C32.3696 252.552 32.9806 256.895 33.4434 260.94" stroke="#323A45" stroke-width="1.4"/>
<path d="M47.6082 227.65C57.0761 232.195 63.1449 235.033 69.2783 238.509C70.3888 239.139 71.8013 238.859 72.5545 237.828C75.4229 233.904 77.4099 230.767 80.7088 224.575C86.3906 211.105 89.6724 204.42 95.2848 193.481C95.6291 192.81 96.0105 192.158 96.4817 191.57C98.3586 189.225 103.885 183.316 110.033 186.118C116.267 188.959 116.112 195.922 115.697 199.024C115.559 200.057 115.208 201.039 114.785 201.991C108.059 217.115 103.876 225.603 95.4753 239.705C93.5053 254.214 91.7883 261.928 88.2142 275.165C87.3611 277.587 86.5692 279.797 85.7904 281.919" stroke="#323A45" stroke-width="1.4"/>
</g>
</svg>
