<svg width="74" height="53" viewBox="0 0 74 53" fill="none" xmlns="http://www.w3.org/2000/svg">
<path d="M33.1699 28.7147C33.6247 28.5631 34.0889 28.4589 34.5532 28.3641C35.1567 28.2409 35.7162 28.1482 36.1733 28.2409C36.827 28.3736 37.2912 28.8378 37.4239 29.5484C37.5091 29.9937 37.3954 30.42 37.1207 30.7611C36.6348 31.1295 36.3244 31.3016 35.6806 31.5285C34.79 31.7559 33.8805 31.9264 32.9994 32.1917C32.6678 32.2864 32.3457 32.3433 32.0425 32.3433C31.3414 32.3433 30.7351 32.0591 30.214 31.3959C30.0719 31.2159 29.8634 31.0832 29.5603 30.8179C29.5603 32.0306 29.5129 33.0918 29.5887 34.1339C29.5981 34.3613 29.9771 34.655 30.2519 34.7592C31.6351 35.3182 33.0089 35.9151 34.4395 36.3225C35.5764 36.6541 36.1638 37.4215 36.6186 38.3689C37.367 39.9322 38.0776 41.5049 38.7692 43.0871C39.2998 44.3092 38.8829 45.4841 37.7934 46.0146C37.4712 46.1757 37.1396 46.2515 36.8175 46.2515C36.0122 46.2515 35.2637 45.7778 34.8374 44.8967C34.231 43.6555 33.71 42.367 33.0847 41.1354C32.8762 40.728 32.5541 40.2638 32.1657 40.1027C31.0856 39.6385 29.9487 39.3258 28.6602 38.8995C28.8118 39.7048 28.935 40.349 29.0676 40.9838C29.3329 42.2533 29.4087 43.485 29.0107 44.7735C28.4707 46.4978 28.0917 48.26 27.637 50.0033C27.3054 51.2823 26.4622 52.0402 25.4579 52.0402C25.2589 52.0402 25.0505 52.0118 24.8421 51.955C24.6715 51.8981 24.52 51.8413 24.3778 51.7655C24.2263 51.6897 24.0936 51.6044 23.9799 51.5002C23.3546 50.9507 23.1462 50.0506 23.4304 48.9516C23.7336 47.7768 23.9231 46.5546 24.3684 45.4367C25.4769 42.6797 24.3399 40.1216 23.8473 37.5067C23.6104 36.2656 23.2409 35.0434 23.1083 33.7928C22.9757 32.5612 23.0799 31.3106 23.0799 30.0032C21.5356 30.5242 21.2892 30.8558 21.3082 32.2391C21.3271 33.2718 21.384 34.3139 21.3745 35.3561C21.3745 36.5783 20.7113 37.3931 19.8018 37.3931H19.7734C18.6554 37.3741 18.0585 36.692 18.0491 35.394C18.0301 33.8023 18.0491 32.2012 18.0017 30.6095C17.9733 29.6905 18.3049 29.0368 19.0628 28.4967C20.7397 27.3125 22.3409 26.0334 24.0273 24.8776C24.681 24.4228 25.4958 24.1954 25.979 23.9775L27.4001 24.1102C29.3691 24.527 30.3424 26.5598 31.8056 28.3073C32.1088 28.601 32.3836 28.7905 32.7341 28.7905C32.8668 28.7905 33.0089 28.7715 33.1699 28.7147Z" fill="#323A45"/>
<path d="M36 6.52976C36 4.35671 37.2351 2.39587 39.3233 1.81597C42.3384 0.978704 47.4726 0 55 0C62.5274 0 67.6616 0.978704 70.6767 1.81597C72.7649 2.39587 74 4.35671 74 6.52976V41.8566C74 45.0487 71.4197 47.6364 68.2368 47.6364H41.7632C38.5803 47.6364 36 45.0487 36 41.8566V6.52976Z" fill="#323A45"/>
<path d="M42 47.5H49V48.5C49 50.433 47.433 52 45.5 52C43.567 52 42 50.433 42 48.5V47.5Z" fill="#323A45"/>
<path d="M61 47.5H68V48.5C68 50.433 66.433 52 64.5 52C62.567 52 61 50.433 61 48.5V47.5Z" fill="#323A45"/>
<rect x="44" y="5" width="22" height="3" rx="1.5" fill="white"/>
<rect x="39.4043" y="12.5" width="31.2957" height="20" rx="2.36555" fill="white" stroke="#323A45"/>
<rect x="54.3203" y="14.5" width="2" height="16" rx="1" fill="#323A45"/>
<rect x="43" y="37" width="5.5" height="5.5" rx="2.75" fill="white"/>
<rect x="62" y="37" width="5.5" height="5.5" rx="2.75" fill="white"/>
<circle cx="27" cy="20" r="4" fill="#323A45"/>
<line x1="13.75" y1="24.25" x2="4.25" y2="24.25" stroke="#323A45" stroke-width="2.5" stroke-linecap="round" stroke-linejoin="round"/>
<line x1="13.75" y1="44.25" x2="4.25" y2="44.25" stroke="#323A45" stroke-width="2.5" stroke-linecap="round" stroke-linejoin="round"/>
<line x1="10.75" y1="34.25" x2="1.25" y2="34.25" stroke="#323A45" stroke-width="2.5" stroke-linecap="round" stroke-linejoin="round"/>
</svg>
