<svg width="791" height="459" viewBox="0 0 791 459" fill="none" xmlns="http://www.w3.org/2000/svg">
<mask id="mask0" mask-type="alpha" maskUnits="userSpaceOnUse" x="0" y="0" width="791" height="459">
<rect width="791" height="459" fill="#F3F3F4"/>
</mask>
<g mask="url(#mask0)">
<circle cx="396.5" cy="391.5" r="391.5" fill="#C3E1EA"/>
<mask id="mask1" mask-type="alpha" maskUnits="userSpaceOnUse" x="5" y="0" width="783" height="783">
<path d="M788 391.5C788 607.719 612.719 783 396.5 783C180.281 783 5 607.719 5 391.5C5 175.281 180.281 0 396.5 0C494.852 0 584.733 36.2667 653.5 96.1565C715.51 64.5 727.5 136.5 715.51 164.5C761.152 228.527 788 306.878 788 391.5Z" fill="#EDE3D4"/>
</mask>
<g mask="url(#mask1)">
<path d="M475 185.374C475 181.421 477.887 178.06 481.795 177.465L593.795 160.402C598.638 159.665 603 163.413 603 168.311V539.681C603 544.222 599.225 547.853 594.688 547.675L482.688 543.3C478.394 543.133 475 539.603 475 535.306V185.374Z" fill="#E6F6FB"/>
<line x1="528" y1="170" x2="528" y2="499" stroke="#C3E1EA" stroke-width="6"/>
<path d="M385 88L604.5 34.5L642.5 42.5L385 95V88Z" fill="#DCEEF3"/>
<mask id="mask2" mask-type="alpha" maskUnits="userSpaceOnUse" x="552" y="27" width="56" height="106">
<path fill-rule="evenodd" clip-rule="evenodd" d="M573.754 27V71.3122C558.341 86.7252 546.785 119.478 554.492 129.111C559.277 133.896 565.012 133.145 573.583 132.023H573.583L573.754 132.001C582.902 130.804 585.317 130.074 593.983 127.184C605.449 122.347 606.505 119.14 607.474 110.808C606.514 97.3216 599.495 84.0723 584.35 71.3122V27H573.754ZM563.891 121.198C568.22 108.613 571.317 101.075 580.609 91.4514C581.116 90.926 581.909 90.7863 582.56 91.117C591.308 95.5576 594.678 100.958 598.803 112.735C599.654 117.427 598.002 119.004 592.06 120.441C581.637 123.247 575.347 123.95 565.409 123.458C564.277 123.402 563.522 122.27 563.891 121.198Z" fill="#C4C4C4"/>
</mask>
<g mask="url(#mask2)">
<rect x="531.372" y="13.5137" width="96.3309" height="132.937" fill="#DCEEF3"/>
<path d="M580.934 89.6149C565.286 85.9326 558.434 108.644 558.696 126.639C558.715 127.975 559.913 128.965 561.236 128.781C570.547 127.489 575.682 126.182 582 122.5L580.934 89.6149Z" fill="#A7CFDB"/>
</g>
<mask id="mask3" mask-type="alpha" maskUnits="userSpaceOnUse" x="454" y="73" width="48" height="92">
<path fill-rule="evenodd" clip-rule="evenodd" d="M472.613 73.8934V111.875C459.403 125.086 449.497 153.16 456.103 161.417C460.205 165.518 465.121 164.875 472.467 163.913L472.613 163.894C480.455 162.868 482.525 162.243 489.953 159.766C499.781 155.619 500.686 152.871 501.516 145.729C500.694 134.169 494.677 122.813 481.696 111.875V73.8934H472.613ZM464.159 154.634C467.87 143.847 470.525 137.386 478.489 129.137C478.924 128.687 479.604 128.567 480.162 128.851C487.66 132.657 490.548 137.286 494.084 147.38C494.814 151.402 493.398 152.754 488.304 153.986C479.371 156.391 473.979 156.993 465.461 156.572C464.491 156.524 463.843 155.553 464.159 154.634Z" fill="#C4C4C4"/>
</mask>
<g mask="url(#mask3)">
<rect x="436.286" y="62.3337" width="82.5694" height="113.946" fill="#DCEEF3"/>
<path d="M478.768 127.563C465.404 124.419 459.526 143.732 459.705 159.13C459.719 160.334 460.841 161.195 462.021 160.95L479.596 157.289L478.768 127.563Z" fill="#A7CFDB"/>
</g>
<path d="M224 0H392C407.474 107.272 439.455 203.349 552.5 461H224V0Z" fill="#DBEFF4"/>
<path d="M435.443 10.3207C440.57 18.2596 443.873 20.8963 450.427 23V427.893H435.443V10.3207Z" fill="#C3E1EA"/>
<path d="M435.442 -176C440.57 -168.061 443.873 -165.424 450.427 -163.321V241.573H435.442V-176Z" fill="#DCEEF3"/>
<line x1="436.019" y1="123.59" x2="436.019" y2="216.956" stroke="#97C7D5" stroke-width="1.15266"/>
<path d="M451.003 40L451.003 228.483" stroke="#97C7D5" stroke-width="1.15266"/>
<line x1="451.003" y1="336.833" x2="451.003" y2="464.779" stroke="#97C7D5" stroke-width="1.15266"/>
<line x1="451.003" y1="175.46" x2="451.003" y2="303.406" stroke="#97C7D5" stroke-width="1.15266"/>
<line x1="436.019" y1="89.0103" x2="436.019" y2="98.2316" stroke="#97C7D5" stroke-width="1.15266"/>
<line x1="436.019" y1="39.0103" x2="436.019" y2="78.2303" stroke="#97C7D5" stroke-width="1.15266"/>
<line x1="436.019" y1="101.69" x2="436.019" y2="121.285" stroke="#97C7D5" stroke-width="1.15266"/>
<line x1="436.019" y1="380.634" x2="436.019" y2="474" stroke="#97C7D5" stroke-width="1.15266"/>
<line x1="436.019" y1="275.742" x2="436.019" y2="369.108" stroke="#97C7D5" stroke-width="1.15266"/>
<path d="M415.841 149.142C419.854 147.108 422.222 146.375 427.256 145.5C433 145.236 436.5 143.694 454 147.341C465.751 149.79 467.277 150.774 474.456 155.399L474.719 155.568C476.445 156.681 477.5 158.594 477.5 160.647V276.738C477.5 279.817 475.17 282.396 472.107 282.707L466.432 283.285C465.469 283.382 464.504 283.128 463.715 282.569L462.684 281.839C461.919 281.297 460.988 281.041 460.053 281.116L447.3 282.134C446.156 282.225 445.106 282.804 444.417 283.723L444.009 284.268C443.338 285.163 442.324 285.736 441.212 285.849L439.817 285.991L427.256 287.269C421.581 285.915 418.352 284.93 414.871 281.308C414.294 280.708 414 279.894 414 279.061V152.177C414 150.9 414.701 149.72 415.841 149.142Z" fill="#626973"/>
<mask id="mask4" mask-type="alpha" maskUnits="userSpaceOnUse" x="414" y="144" width="64" height="144">
<path d="M415.841 149.142C419.854 147.108 422.222 146.375 427.256 145.5C433 145.236 436.5 143.694 454 147.341C465.751 149.79 467.277 150.774 474.456 155.399L474.719 155.568C476.445 156.681 477.5 158.594 477.5 160.647V276.738C477.5 279.817 475.17 282.396 472.107 282.707L466.432 283.285C465.469 283.382 464.504 283.128 463.715 282.569L462.684 281.839C461.919 281.297 460.988 281.041 460.053 281.116L447.3 282.134C446.156 282.225 445.106 282.804 444.417 283.723L444.009 284.268C443.338 285.163 442.324 285.736 441.212 285.849L439.817 285.991L427.256 287.269C421.581 285.915 418.352 284.93 414.871 281.308C414.294 280.708 414 279.894 414 279.061V152.177C414 150.9 414.701 149.72 415.841 149.142Z" fill="#626973"/>
</mask>
<g mask="url(#mask4)">
<rect x="409" y="141" width="18" height="151" fill="#323A45"/>
<path d="M456.243 256.423C456.307 256.708 456.473 256.953 456.653 257.13C456.833 257.309 457.077 257.469 457.355 257.537C457.45 257.56 457.549 257.577 457.639 257.585C457.7 257.591 457.844 257.604 457.981 257.569L457.983 257.569C457.984 257.568 457.986 257.568 457.989 257.567C457.992 257.567 457.995 257.566 457.998 257.566C458.002 257.565 458.008 257.564 458.014 257.564C458.023 257.562 458.032 257.561 458.038 257.561C458.041 257.561 458.043 257.561 458.044 257.561C458.453 257.56 458.758 257.287 458.963 257.053C459.189 256.796 459.43 256.426 459.702 255.953C460.624 254.349 461.202 252.708 461.49 250.874L461.49 250.874C461.651 249.848 461.612 247.804 461.415 246.702L461.415 246.702C461.101 244.943 460.464 243.254 459.534 241.715L459.534 241.715C459.413 241.516 459.28 241.316 459.162 241.152C459.103 241.07 459.044 240.993 458.99 240.928C458.945 240.873 458.875 240.793 458.797 240.731L458.797 240.731C458.534 240.523 458.193 240.441 457.908 240.424C457.617 240.407 457.278 240.451 456.99 240.603L456.99 240.603C456.763 240.723 456.579 240.912 456.452 241.096C456.332 241.271 456.205 241.527 456.205 241.808C456.205 241.924 456.241 242.023 456.248 242.041C456.248 242.042 456.248 242.043 456.248 242.043C456.262 242.082 456.278 242.121 456.294 242.155C456.325 242.226 456.366 242.311 456.413 242.401C456.507 242.584 456.634 242.815 456.772 243.053C457.972 245.113 458.442 246.8 458.441 248.985C458.44 251.248 457.904 253.101 456.65 255.141L457.109 255.424L456.65 255.141C456.493 255.396 456.37 255.605 456.299 255.784C456.21 256.01 456.196 256.21 456.243 256.423ZM456.243 256.423L456.814 256.296L456.244 256.423C456.243 256.423 456.243 256.423 456.243 256.423ZM455.746 253.722C455.044 255.107 454.552 255.535 453.857 255.364C453.389 255.249 453.052 254.766 453.187 254.404C453.22 254.316 453.441 253.913 453.677 253.507L455.146 242.337C454.806 242.074 454.367 241.999 453.998 242.027C453.634 242.055 453.202 242.196 452.918 242.533L452.918 242.533C452.833 242.634 452.727 242.77 452.658 242.937C452.58 243.126 452.562 243.32 452.597 243.52C452.628 243.701 452.7 243.875 452.781 244.04C452.863 244.21 452.974 244.407 453.108 244.637C453.866 245.943 454.154 246.803 454.312 248.204C454.499 249.876 454.116 251.592 453.171 253.212L453.171 253.212C453.051 253.419 452.934 253.626 452.842 253.794C452.762 253.94 452.673 254.106 452.639 254.198L452.639 254.199C452.482 254.617 452.62 255.031 452.816 255.312C453.017 255.6 453.335 255.839 453.717 255.933C453.964 255.994 454.222 256.008 454.486 255.943C454.748 255.879 454.979 255.746 455.183 255.568C455.573 255.229 455.914 254.687 456.268 253.987M455.746 253.722L456.268 253.987C456.268 253.987 456.268 253.987 456.268 253.987M455.746 253.722L456.268 253.987M455.746 253.722C457.115 251.018 457.28 248.063 456.214 245.31C455.892 244.478 455.057 243.009 454.788 242.801C454.401 242.501 453.663 242.558 453.367 242.91L456.268 253.987M456.268 253.987C457.71 251.139 457.888 248.011 456.76 245.098L456.268 253.987ZM449.899 254.285L449.898 254.285C449.463 254.12 449.058 253.732 448.934 253.259C448.934 253.259 448.934 253.259 448.934 253.258L449.501 253.111L449.899 254.285ZM449.899 254.285C450.115 254.367 450.426 254.407 450.657 254.38M449.899 254.285L449.414 246.175M449.414 246.175L449.414 246.175C449.278 245.942 449.163 245.737 449.08 245.556C448.999 245.379 448.927 245.182 448.913 244.973C448.88 244.451 449.215 244.146 449.461 243.952L449.461 243.951C449.586 243.852 449.733 243.745 449.927 243.682C450.114 243.62 450.298 243.614 450.464 243.614C450.832 243.614 451.175 243.698 451.497 243.962C451.781 244.194 452.013 244.538 452.254 244.954L452.254 244.954C453.034 246.305 453.362 247.503 453.359 249.016L453.359 249.016C453.355 250.571 453.043 251.663 452.212 253.079L452.212 253.079C451.988 253.461 451.782 253.773 451.543 253.991C451.268 254.241 450.978 254.344 450.657 254.38M449.414 246.175C449.985 247.149 450.252 248.088 450.246 249.014C450.239 249.94 449.958 250.895 449.369 251.897L449.414 246.175ZM450.657 254.38L450.59 253.799L450.657 254.38C450.657 254.38 450.657 254.38 450.657 254.38ZM446.413 252.776L446.414 252.776C446.794 252.908 447.186 252.902 447.558 252.749C447.918 252.601 448.22 252.332 448.474 252.001C449.849 250.214 449.848 247.798 448.48 245.998C448.253 245.7 448.011 245.442 447.716 245.281C447.396 245.106 447.07 245.072 446.738 245.124C446.323 245.19 445.96 245.412 445.722 245.706C445.488 245.995 445.324 246.429 445.482 246.88L445.483 246.881C445.522 246.992 445.598 247.125 445.657 247.223C445.726 247.336 445.81 247.464 445.894 247.581L445.894 247.581C446.1 247.866 446.195 248.042 446.248 248.213C446.302 248.386 446.328 248.598 446.327 248.978C446.327 249.359 446.302 249.57 446.247 249.744C446.194 249.915 446.099 250.09 445.892 250.376C445.719 250.616 445.569 250.845 445.489 251.074C445.393 251.345 445.4 251.595 445.484 251.84L445.484 251.841C445.56 252.065 445.706 252.261 445.851 252.406C445.995 252.551 446.19 252.698 446.413 252.776Z" fill="white" stroke="#323A45" stroke-width="1.17158"/>
<path d="M453.764 233.503L453.746 233.502L453.727 233.503C444.769 233.665 437.349 240.371 437.502 248.8C437.655 257.228 445.314 263.66 454.272 263.498C463.247 263.335 469.653 257.194 469.5 248.782C469.348 240.386 462.758 234.014 453.764 233.503ZM440.502 248.745C440.384 242.273 446.157 236.658 453.745 236.503C461.276 237.489 466.383 242.352 466.501 248.836C466.56 252.108 465.375 254.98 463.248 257.053C461.12 259.128 458.023 260.429 454.217 260.498C446.611 260.636 440.619 255.228 440.502 248.745Z" fill="white" stroke="black"/>
<mask id="mask5" mask-type="alpha" maskUnits="userSpaceOnUse" x="440" y="168" width="26" height="36">
<path d="M440 170.202C440 169.021 441.017 168.098 442.191 168.211L464.191 170.326C465.217 170.425 466 171.287 466 172.317V202C466 203.105 465.105 204 464 204H442C440.895 204 440 203.105 440 202V170.202Z" fill="black"/>
</mask>
<g mask="url(#mask5)">
<rect x="425" y="156" width="55" height="59" fill="#323A45"/>
<ellipse cx="452.71" cy="186.322" rx="13.3163" ry="14.9725" transform="rotate(1.52697 452.71 186.322)" fill="#0C8547"/>
<path d="M447.443 187.658L451.253 191.415L458.74 182.347" stroke="white" stroke-width="2" stroke-linecap="round" stroke-linejoin="round"/>
<path d="M442.144 168.708L464.144 170.824C464.913 170.898 465.5 171.544 465.5 172.317V202C465.5 202.828 464.828 203.5 464 203.5H442C441.172 203.5 440.5 202.828 440.5 202V170.202C440.5 169.316 441.262 168.624 442.144 168.708Z" stroke="#323A45"/>
</g>
<rect x="427.5" y="144.5" width="6" height="148" fill="#ED9F2E" stroke="#323A45"/>
<rect x="472.5" y="147.5" width="6" height="148" fill="#ED9F2E" stroke="#323A45"/>
</g>
<path d="M427.256 145.5V287.269M427.256 145.5C422.222 146.375 419.854 147.108 415.841 149.142C414.701 149.72 414 150.9 414 152.177V279.061C414 279.894 414.294 280.708 414.871 281.308C418.352 284.93 421.581 285.915 427.256 287.269M427.256 145.5C433 145.236 436.5 143.694 454 147.341C465.893 149.82 467.313 150.797 474.719 155.568C476.445 156.681 477.5 158.594 477.5 160.647V276.738C477.5 279.817 475.17 282.396 472.107 282.707L466.432 283.284C465.469 283.382 464.504 283.128 463.715 282.569L462.684 281.839C461.919 281.297 460.988 281.041 460.053 281.116L447.3 282.134C446.156 282.225 445.106 282.804 444.417 283.723L444.009 284.268C443.338 285.163 442.324 285.736 441.212 285.849L439.817 285.991L427.256 287.269" stroke="#323A45" stroke-width="1.15266"/>
<path d="M661.364 229.059C661.725 209.403 660.377 198.43 655.601 178.918L709.776 151.831L729.372 195.055L661.364 229.059Z" fill="#222830" stroke="#323A45" stroke-width="1.15266"/>
<path d="M793.461 536V456.188L800.941 409.009C807.004 383.501 809.026 365.037 808.557 344.625C807.959 318.581 801.834 292.895 791.674 268.93C790.084 265.181 788.392 261.31 786.485 257.018L786.477 257L786.468 256.982C783.267 250.776 781.639 245.98 780.267 241.937C779.715 240.31 779.204 238.805 778.649 237.38C777.686 234.906 776.592 232.694 774.915 230.583C773.463 228.755 771.592 227.025 769.028 225.264C781.009 221.615 788.077 217.508 791.377 213.304C793.11 211.096 793.821 208.839 793.619 206.615C793.418 204.405 792.323 202.321 790.617 200.428C787.219 196.656 781.265 193.492 774.339 191.377C768.439 189.575 761.772 188.516 755.25 188.506C757.58 187.016 759.179 184.832 760.091 182.305C761.367 178.771 761.299 174.579 760.074 170.644C757.688 162.978 750.825 156.082 740.517 156.829C741.985 141.826 742.353 130.439 740.387 120.46C738.379 110.267 733.946 101.585 725.867 92.0219C717.666 82.3154 702.501 77.3863 687.567 77.3093C672.637 77.2324 657.658 82.0051 649.869 92.0443C644.075 99.5122 639.739 105.447 637.136 111.651C634.529 117.864 633.672 124.313 634.733 132.805C634.17 136.655 633.098 138.543 631.817 140.241C631.528 140.625 631.222 141.005 630.903 141.401C629.779 142.798 628.504 144.382 627.311 146.926L627.294 146.963L627.281 147.001C626.687 148.782 626.343 150.983 627 152.787C627.336 153.711 627.934 154.527 628.873 155.103C629.756 155.645 630.896 155.948 632.317 155.978C632.687 156.255 632.928 156.458 633.114 156.686C633.306 156.922 633.461 157.214 633.592 157.703C634.091 165.609 635.529 169.529 638.247 176.294C638.409 176.697 638.571 177.111 638.736 177.532C639.253 178.849 639.796 180.234 640.428 181.546C641.266 183.285 642.287 184.96 643.682 186.277C645.088 187.605 646.856 188.554 649.148 188.857C651.413 189.156 654.149 188.819 657.504 187.659C659.635 187.294 661.229 187.085 662.731 187.135C664.105 187.181 665.425 187.445 667.014 188.037V201.017C646.493 214.163 634.951 221.701 621.641 237.84L621.632 237.852L621.622 237.864C615.479 246.027 612.293 251.259 607.271 259.503C606.868 260.165 606.453 260.846 606.024 261.55L606.014 261.565L606.006 261.58C599.924 272.8 598.779 281.949 597.243 294.233C596.919 296.818 596.579 299.541 596.171 302.452C591.98 305.669 589.524 308.722 587.975 312.298C586.536 315.623 585.9 319.361 585.327 324C571.165 312.825 562.477 306.015 539.063 288.475C536.14 285.51 534.747 283.524 532.962 279.074C532.993 277.453 532.909 276.068 532.323 274.586C531.73 273.088 530.649 271.55 528.789 269.561C526.296 265.349 525.213 263.698 523.613 261.513C522.583 259.975 521.655 258.794 520.464 257.763C519.279 256.737 517.862 255.885 515.882 254.96L508.43 250.374C508.429 250.374 508.428 250.373 508.427 250.373C506.489 249.151 504.923 248.361 503.323 247.977C501.71 247.59 500.117 247.629 498.145 247.973L497.788 248.035L497.636 248.364L490.816 263.14C489.555 263.871 489.059 265.087 489.145 266.282C489.221 267.351 489.759 268.408 490.594 269.121C490.384 270.501 490.527 271.745 491.041 272.842C491.592 274.019 492.539 274.961 493.788 275.708C495.868 277.996 497.146 279.529 499.957 283.566C501.073 286.298 502.249 288.418 504.04 290.415C505.819 292.4 508.179 294.232 511.618 296.429C514.29 299.97 516.23 302.107 520.449 305.865L516.678 312.867C516.677 312.869 516.677 312.87 516.676 312.871C515.06 315.783 515.593 319.242 518.181 323.281C520.767 327.316 525.488 332.077 532.567 337.748C546.691 349.064 570.398 364.154 605.922 384.493V456.134V507.5V508.094L606.509 508.184L792.665 536.684L793.461 536.806V536Z" fill="#CA9667" stroke="#323A45" stroke-width="1.3832"/>
<mask id="mask6" mask-type="alpha" maskUnits="userSpaceOnUse" x="489" y="78" width="319" height="433">
<path d="M634.278 157.594C634.766 165.437 636.174 169.28 638.889 176.036C636.583 185.258 642.347 192.75 657.331 186.987C661.656 186.244 664.009 186.091 667.705 187.563V201.395C646.985 214.668 635.477 222.15 622.175 238.28C615.562 247.067 612.393 252.436 606.614 261.91C599.287 275.425 599.211 285.842 596.816 302.829C588.298 309.285 587.102 314.864 585.866 325.306C571.116 313.666 562.575 306.952 538.607 288.997C535.567 285.918 534.12 283.847 532.267 279.2C532.343 275.889 531.969 273.961 528.233 269.978C525.714 265.721 524.641 264.087 523.046 261.91C521.01 258.867 519.488 257.403 515.554 255.57L508.061 250.959C504.226 248.541 502.097 247.986 498.264 248.654L491.348 263.639C489.042 264.792 489.618 267.673 491.348 268.826C490.771 271.708 491.816 273.758 494.229 275.165C496.384 277.532 497.68 279.081 500.569 283.234C502.781 288.675 505.143 291.486 512.096 295.913C514.86 299.586 516.8 301.714 521.317 305.711L517.283 313.203C511.519 323.577 535.181 343.214 606.614 384.092V456.134V499.5L792.769 511V456.134L800.262 408.875C806.318 383.401 808.333 364.991 807.866 344.641C807.27 318.694 801.167 293.094 791.037 269.2C789.45 265.455 787.759 261.588 785.853 257.299C776.834 239.815 780.09 233.093 767.411 225.025C818.704 210.04 781.819 187.563 751.85 189.292C767.411 184.681 760.495 155.288 739.747 157.594C742.817 126.776 741.377 111.452 725.338 92.4682C709.3 73.4841 665.618 72.873 650.415 92.4682C638.817 107.418 633.299 115.938 635.431 132.811C631.137 138.735 628.613 142.016 625.633 148.372C624.48 151.83 626.786 155.288 632.549 155.288C633.486 155.977 633.973 156.394 634.278 157.594Z" fill="#C4C4C4"/>
</mask>
<g mask="url(#mask6)">
<path d="M711.126 135.117C709.36 138.975 708.579 141.501 705.754 144.279C701.54 148.424 692.634 152.094 690.502 146.58C689.818 144.812 690.259 142.193 691.531 138.575" stroke="#7C6148" stroke-width="1.15266"/>
<path d="M641.77 165.41C645.802 167.391 651.75 163.481 652.718 159.323" stroke="#222830" stroke-width="2.30533" stroke-linecap="round" stroke-linejoin="round"/>
<path d="M642.922 120.132C646.943 119.635 649.39 119.908 653.873 121.285" stroke="#222830" stroke-width="2.30533"/>
<circle cx="646.38" cy="133.964" r="4.61066" fill="#222830"/>
<mask id="path-45-outside-1" maskUnits="userSpaceOnUse" x="514.452" y="183.834" width="295" height="303" fill="black">
<rect fill="white" x="514.452" y="183.834" width="295" height="303"/>
<path fill-rule="evenodd" clip-rule="evenodd" d="M757.28 185.834H757.035L738.016 192.174C737.186 196.45 737.089 198.848 738.016 203.124C729.395 206.933 727.041 210.386 723.608 216.956C720.586 226.611 718.505 231.421 714.387 238.857C706.023 240.596 702.97 248.281 697.988 260.822C697.698 261.552 697.402 262.299 697.097 263.062C678.078 260.181 670.16 253.775 664.5 244C664.5 244 667.204 213.805 666.447 202.201C646.514 214.977 635.205 222.479 622.175 238.28C616.053 246.415 612.882 251.621 607.859 259.866C607.457 260.527 607.043 261.207 606.614 261.91C600.598 273.006 599.471 282.014 597.934 294.284C597.599 296.959 597.245 299.789 596.816 302.829C588.297 309.285 587.101 314.864 585.866 325.306C571.693 314.121 563.252 307.484 541.347 291.052C537.476 300.053 535.423 305.838 532.842 320.119C527.821 313.253 525.184 310.252 520.92 306.448L517.282 313.203C511.519 323.577 535.181 343.214 606.614 384.092V456.134V467.771L788.169 484.95L792.769 456.134L800.261 408.874C806.318 383.401 808.333 364.991 807.866 344.641C807.27 318.694 801.167 293.094 791.037 269.2C789.45 265.455 787.759 261.588 785.853 257.299C782.627 251.044 780.971 246.167 779.595 242.112C777.124 234.833 775.554 230.207 767.41 225.025C818.704 210.04 781.819 187.563 751.849 189.292C754.136 188.615 755.937 187.402 757.28 185.834Z"/>
</mask>
<g filter="url(#filter0_i)">
<path fill-rule="evenodd" clip-rule="evenodd" d="M757.28 185.834H757.035L738.016 192.174C737.186 196.45 737.089 198.848 738.016 203.124C729.395 206.933 727.041 210.386 723.608 216.956C720.586 226.611 718.505 231.421 714.387 238.857C706.023 240.596 702.97 248.281 697.988 260.822C697.698 261.552 697.402 262.299 697.097 263.062C678.078 260.181 670.16 253.775 664.5 244C664.5 244 667.204 213.805 666.447 202.201C646.514 214.977 635.205 222.479 622.175 238.28C616.053 246.415 612.882 251.621 607.859 259.866C607.457 260.527 607.043 261.207 606.614 261.91C600.598 273.006 599.471 282.014 597.934 294.284C597.599 296.959 597.245 299.789 596.816 302.829C588.297 309.285 587.101 314.864 585.866 325.306C571.693 314.121 563.252 307.484 541.347 291.052C537.476 300.053 535.423 305.838 532.842 320.119C527.821 313.253 525.184 310.252 520.92 306.448L517.282 313.203C511.519 323.577 535.181 343.214 606.614 384.092V456.134V467.771L788.169 484.95L792.769 456.134L800.261 408.874C806.318 383.401 808.333 364.991 807.866 344.641C807.27 318.694 801.167 293.094 791.037 269.2C789.45 265.455 787.759 261.588 785.853 257.299C782.627 251.044 780.971 246.167 779.595 242.112C777.124 234.833 775.554 230.207 767.41 225.025C818.704 210.04 781.819 187.563 751.849 189.292C754.136 188.615 755.937 187.402 757.28 185.834Z" fill="#9ACAD8"/>
</g>
<path d="M532.597 319.598L522.799 324.209L523.29 325.252L533.088 320.641L532.597 319.598ZM757.035 185.834V184.681H756.848L756.671 184.741L757.035 185.834ZM757.28 185.834L758.155 186.584L759.785 184.681H757.28V185.834ZM738.016 192.174L737.652 191.08L737.013 191.293L736.885 191.954L738.016 192.174ZM738.016 203.124L738.482 204.178L739.342 203.798L739.143 202.88L738.016 203.124ZM723.608 216.956L722.587 216.422L722.539 216.513L722.508 216.612L723.608 216.956ZM714.387 238.857L714.622 239.985L715.139 239.877L715.395 239.415L714.387 238.857ZM697.988 260.822L696.917 260.396L696.917 260.396L697.988 260.822ZM697.097 263.062L696.924 264.202L697.828 264.339L698.167 263.49L697.097 263.062ZM664.5 244L663.352 243.897L663.32 244.261L663.503 244.578L664.5 244ZM666.447 202.201L667.597 202.126L667.47 200.176L665.825 201.231L666.447 202.201ZM622.175 238.28L621.286 237.547L621.269 237.566L621.254 237.587L622.175 238.28ZM607.859 259.866L606.875 259.267L606.875 259.267L607.859 259.866ZM606.614 261.91L605.63 261.309L605.615 261.335L605.601 261.36L606.614 261.91ZM597.934 294.284L599.078 294.427L599.078 294.427L597.934 294.284ZM596.816 302.829L597.512 303.748L597.891 303.461L597.958 302.99L596.816 302.829ZM585.866 325.306L585.152 326.211L586.769 327.487L587.011 325.442L585.866 325.306ZM541.347 291.052L542.039 290.13L540.867 289.251L540.288 290.596L541.347 291.052ZM532.842 320.119L531.912 320.8L533.499 322.97L533.977 320.324L532.842 320.119ZM520.92 306.448L521.687 305.588L520.597 304.616L519.905 305.902L520.92 306.448ZM517.282 313.203L518.29 313.763L518.294 313.756L518.297 313.75L517.282 313.203ZM606.614 384.092H607.767V383.424L607.186 383.092L606.614 384.092ZM606.614 467.771H605.461V468.82L606.505 468.918L606.614 467.771ZM788.169 484.95L788.061 486.098L789.137 486.2L789.308 485.132L788.169 484.95ZM792.769 456.134L793.907 456.315L793.908 456.314L792.769 456.134ZM800.261 408.874L799.14 408.608L799.13 408.651L799.123 408.694L800.261 408.874ZM807.866 344.641L806.713 344.667L806.713 344.667L807.866 344.641ZM791.037 269.2L789.976 269.65L789.976 269.65L791.037 269.2ZM785.853 257.299L786.906 256.831L786.893 256.8L786.878 256.771L785.853 257.299ZM779.595 242.112L780.686 241.742L780.686 241.742L779.595 242.112ZM767.41 225.025L767.087 223.918L764.646 224.631L766.792 225.997L767.41 225.025ZM751.849 189.292L751.522 188.187L751.916 190.443L751.849 189.292ZM757.035 186.987H757.28V184.681H757.035V186.987ZM738.381 193.267L757.4 186.928L756.671 184.741L737.652 191.08L738.381 193.267ZM739.143 202.88C738.254 198.783 738.341 196.546 739.148 192.393L736.885 191.954C736.03 196.355 735.924 198.913 736.89 203.368L739.143 202.88ZM724.63 217.49C726.342 214.212 727.724 211.838 729.694 209.807C731.652 207.788 734.254 206.046 738.482 204.178L737.551 202.07C733.157 204.011 730.271 205.9 728.039 208.202C725.818 210.493 724.307 213.13 722.587 216.422L724.63 217.49ZM715.395 239.415C719.555 231.905 721.665 227.023 724.708 217.3L722.508 216.612C719.508 226.199 717.456 230.936 713.379 238.298L715.395 239.415ZM699.06 261.247C701.567 254.936 703.53 250.007 705.883 246.421C708.194 242.899 710.813 240.777 714.622 239.985L714.152 237.728C709.597 238.675 706.508 241.266 703.956 245.156C701.445 248.983 699.392 254.167 696.917 260.396L699.06 261.247ZM698.167 263.49C698.473 262.726 698.77 261.978 699.06 261.247L696.917 260.396C696.627 261.127 696.331 261.873 696.026 262.635L698.167 263.49ZM663.503 244.578C666.401 249.584 669.915 253.786 675.175 257.092C680.418 260.388 687.32 262.747 696.924 264.202L697.27 261.923C687.855 260.496 681.288 258.212 676.402 255.141C671.534 252.08 668.259 248.191 665.498 243.423L663.503 244.578ZM665.297 202.276C665.67 207.99 665.189 218.364 664.607 227.378C664.317 231.87 664.003 236.001 663.762 239.009C663.641 240.512 663.539 241.735 663.467 242.582C663.43 243.005 663.402 243.334 663.382 243.558C663.373 243.669 663.365 243.754 663.36 243.811C663.357 243.84 663.356 243.861 663.354 243.876C663.354 243.883 663.353 243.888 663.353 243.892C663.353 243.894 663.353 243.895 663.352 243.896C663.352 243.896 663.352 243.897 663.352 243.897C663.352 243.897 663.352 243.897 664.5 244C665.648 244.103 665.649 244.103 665.649 244.102C665.649 244.102 665.649 244.102 665.649 244.101C665.649 244.1 665.649 244.099 665.649 244.097C665.649 244.093 665.65 244.088 665.651 244.08C665.652 244.066 665.654 244.044 665.656 244.015C665.661 243.957 665.669 243.871 665.679 243.759C665.699 243.534 665.727 243.203 665.764 242.778C665.836 241.928 665.939 240.701 666.06 239.193C666.302 236.177 666.617 232.033 666.908 227.526C667.488 218.541 667.981 208.016 667.597 202.126L665.297 202.276ZM665.825 201.231C645.885 214.011 634.44 221.595 621.286 237.547L623.064 239.013C635.97 223.364 647.142 215.944 667.069 203.171L665.825 201.231ZM621.254 237.587C615.096 245.77 611.9 251.017 606.875 259.267L608.844 260.466C613.863 252.225 617.01 247.06 623.096 238.973L621.254 237.587ZM606.875 259.267C606.472 259.927 606.058 260.607 605.63 261.309L607.598 262.51C608.027 261.807 608.441 261.126 608.844 260.466L606.875 259.267ZM605.601 261.36C599.471 272.668 598.326 281.874 596.79 294.141L599.078 294.427C600.615 282.153 601.726 273.345 607.627 262.459L605.601 261.36ZM596.79 294.141C596.455 296.817 596.102 299.638 595.675 302.668L597.958 302.99C598.388 299.94 598.743 297.101 599.078 294.427L596.79 294.141ZM596.12 301.911C591.742 305.228 589.167 308.385 587.552 312.115C585.958 315.797 585.338 319.962 584.721 325.171L587.011 325.442C587.63 320.208 588.225 316.363 589.668 313.031C591.089 309.747 593.372 306.886 597.512 303.748L596.12 301.911ZM586.58 324.401C572.401 313.212 563.953 306.569 542.039 290.13L540.655 291.974C562.551 308.399 570.984 315.03 585.152 326.211L586.58 324.401ZM533.977 320.324C536.541 306.131 538.569 300.43 542.406 291.507L540.288 290.596C536.384 299.675 534.304 305.544 531.708 319.914L533.977 320.324ZM520.152 307.308C524.336 311.041 526.92 313.973 531.912 320.8L533.773 319.439C528.722 312.533 526.031 309.464 521.687 305.588L520.152 307.308ZM519.905 305.902L516.268 312.657L518.297 313.75L521.935 306.995L519.905 305.902ZM516.275 312.643C514.539 315.768 515.16 319.421 517.793 323.53C520.42 327.629 525.188 332.428 532.279 338.108C546.479 349.485 570.322 364.652 606.041 385.093L607.186 383.092C571.473 362.654 547.768 347.564 533.72 336.309C526.686 330.674 522.155 326.064 519.734 322.286C517.319 318.517 517.144 315.825 518.29 313.763L516.275 312.643ZM605.461 384.092V456.134H607.767V384.092H605.461ZM605.461 456.134V467.771H607.767V456.134H605.461ZM788.278 483.803L606.722 466.623L606.505 468.918L788.061 486.098L788.278 483.803ZM789.308 485.132L793.907 456.315L791.631 455.952L787.031 484.769L789.308 485.132ZM793.908 456.314L801.4 409.055L799.123 408.694L791.631 455.953L793.908 456.314ZM801.383 409.141C807.458 383.588 809.488 365.079 809.018 344.614L806.713 344.667C807.178 364.903 805.178 383.214 799.14 408.608L801.383 409.141ZM809.018 344.614C808.418 318.505 802.278 292.762 792.098 268.75L789.976 269.65C800.056 293.427 806.121 318.883 806.713 344.667L809.018 344.614ZM792.098 268.75C790.507 264.997 788.814 261.124 786.906 256.831L784.8 257.767C786.704 262.053 788.392 265.913 789.976 269.65L792.098 268.75ZM786.878 256.771C783.692 250.596 782.059 245.787 780.686 241.742L778.503 242.483C779.883 246.547 781.561 251.492 784.829 257.827L786.878 256.771ZM780.686 241.742C779.46 238.13 778.41 235.016 776.604 232.165C774.776 229.28 772.213 226.715 768.029 224.052L766.792 225.997C770.751 228.517 773.045 230.856 774.656 233.399C776.289 235.976 777.259 238.816 778.503 242.483L780.686 241.742ZM767.734 226.131C780.598 222.373 788.216 218.077 791.74 213.588C793.531 211.306 794.293 208.934 794.078 206.573C793.865 204.235 792.71 202.062 790.96 200.119C787.481 196.258 781.435 193.062 774.474 190.936C767.483 188.801 759.422 187.7 751.783 188.141L751.916 190.443C759.262 190.019 767.05 191.079 773.801 193.141C780.581 195.212 786.17 198.247 789.247 201.662C790.775 203.358 791.628 205.083 791.782 206.782C791.934 208.458 791.421 210.26 789.926 212.165C786.876 216.051 779.87 220.184 767.087 223.918L767.734 226.131ZM752.177 190.397C754.673 189.657 756.666 188.323 758.155 186.584L756.405 185.084C755.208 186.481 753.598 187.572 751.522 188.187L752.177 190.397Z" fill="#323A45" mask="url(#path-45-outside-1)"/>
<path d="M532.5 319C528 322 528.97 324 524 324C519.029 324 515 323.747 515 318.5C515 313.253 519.5 306.5 521.5 306.5C525 309.5 528 314.5 532.5 319Z" fill="#74B6C9"/>
<path d="M714.963 149.465C704.623 164.459 702.58 171.697 667.127 186.927V193.843C681.733 190.32 693.948 187.345 714.963 167.908V149.465Z" fill="#B5865C"/>
<mask id="mask7" mask-type="alpha" maskUnits="userSpaceOnUse" x="508" y="185" width="323" height="304">
<path d="M666.551 244.62C672.21 254.395 678.077 260.181 697.096 263.063C702.632 249.197 705.535 240.697 714.386 238.857C718.505 231.421 720.586 226.611 723.608 216.956C727.04 210.386 729.395 206.933 738.016 203.124C737.088 198.848 737.185 196.45 738.016 192.174L757.035 185.834H808.905L830.805 488.985L562.811 463.626L508.06 314.932L520.739 306.287C525.11 310.169 527.75 313.156 532.842 320.119C535.453 305.666 537.525 299.915 541.487 290.726L586.441 208.311L661.94 204.853C670.585 176.036 666.551 244.62 666.551 244.62Z" fill="#046B99"/>
</mask>
<g mask="url(#mask7)">
<path d="M532.266 319.543C527.326 323.86 524.325 325.521 517.281 323.001" stroke="#323A45" stroke-width="1.15266"/>
<path d="M663.64 282.089C663.047 266.134 662.902 259.778 665 245.5L673 253.5L715.074 251.613C705.734 333.859 706.987 379.104 706.502 460.168H660.211C662.487 390.616 666.763 351.596 663.64 282.089Z" fill="#222830" stroke="#323A45" stroke-width="1.15266"/>
<path d="M713.81 385.245C713.81 393.88 707.32 400.806 699.402 400.806C691.484 400.806 684.994 393.88 684.994 385.245C684.994 376.61 691.484 369.684 699.402 369.684C707.32 369.684 713.81 376.61 713.81 385.245Z" fill="#74B6C9" stroke="#323A45" stroke-width="1.15266"/>
</g>
<mask id="path-53-outside-2" maskUnits="userSpaceOnUse" x="646.109" y="65.1096" width="140" height="132" fill="black">
<rect fill="white" x="646.109" y="65.1096" width="140" height="132"/>
<path d="M691.334 124.167C663.1 113.84 655.474 105.103 648.109 87.2813L689.605 67.1096L773.75 70.5676L784.7 173.731C765.203 178.318 751.849 192.75 738.593 193.326C731.109 194.66 726.806 196.752 718.422 195.055C704.581 190.192 702.773 185.202 706.319 173.731C709.657 164.721 711.046 159.263 712.176 151.401C712.52 149.008 712.555 146.583 712.402 144.17L712.39 143.978C711.928 136.713 711.421 128.732 706.444 122.919C702.926 118.81 697.986 125.171 692.62 124.492C692.224 124.442 691.797 124.335 691.334 124.167Z"/>
</mask>
<path d="M691.334 124.167C663.1 113.84 655.474 105.103 648.109 87.2813L689.605 67.1096L773.75 70.5676L784.7 173.731C765.203 178.318 751.849 192.75 738.593 193.326C731.109 194.66 726.806 196.752 718.422 195.055C704.581 190.192 702.773 185.202 706.319 173.731C709.657 164.721 711.046 159.263 712.176 151.401C712.52 149.008 712.555 146.583 712.402 144.17L712.39 143.978C711.928 136.713 711.421 128.732 706.444 122.919C702.926 118.81 697.986 125.171 692.62 124.492C692.224 124.442 691.797 124.335 691.334 124.167Z" fill="#222830"/>
<path d="M648.109 87.2813L647.605 86.2446L646.63 86.7189L647.044 87.7215L648.109 87.2813ZM691.334 124.167L690.938 125.249L690.939 125.249L691.334 124.167ZM692.62 124.492L692.765 123.348L692.765 123.348L692.62 124.492ZM706.444 122.919L705.568 123.668L705.568 123.668L706.444 122.919ZM712.39 143.978L711.239 144.051L711.239 144.051L712.39 143.978ZM712.402 144.17L711.251 144.243L711.251 144.243L712.402 144.17ZM712.176 151.401L713.317 151.565L713.317 151.565L712.176 151.401ZM706.319 173.731L705.238 173.331L705.227 173.36L705.218 173.391L706.319 173.731ZM718.422 195.055L718.04 196.143L718.115 196.169L718.193 196.185L718.422 195.055ZM738.593 193.326L738.543 192.175L738.467 192.178L738.391 192.192L738.593 193.326ZM784.7 173.731L784.964 174.853L785.954 174.62L785.846 173.609L784.7 173.731ZM773.75 70.5676L774.896 70.446L774.791 69.4568L773.797 69.4159L773.75 70.5676ZM689.605 67.1096L689.653 65.958L689.362 65.946L689.101 66.073L689.605 67.1096ZM647.044 87.7215C650.756 96.7033 654.585 103.524 661.126 109.393C667.645 115.241 676.772 120.068 690.938 125.249L691.73 123.084C677.663 117.939 668.86 113.234 662.666 107.677C656.494 102.14 652.828 95.6813 649.175 86.841L647.044 87.7215ZM690.939 125.249C691.469 125.443 691.981 125.573 692.475 125.635L692.765 123.348C692.468 123.311 692.125 123.228 691.729 123.084L690.939 125.249ZM705.568 123.668C710.252 129.138 710.772 136.699 711.239 144.051L713.54 143.905C713.084 136.727 712.591 128.325 707.32 122.169L705.568 123.668ZM711.239 144.051L711.251 144.243L713.552 144.097L713.54 143.905L711.239 144.051ZM711.035 151.237C709.918 159.009 708.552 164.388 705.238 173.331L707.4 174.132C710.763 165.055 712.174 159.517 713.317 151.565L711.035 151.237ZM705.218 173.391C703.438 179.148 702.857 183.674 704.832 187.41C706.793 191.121 711.097 193.703 718.04 196.143L718.804 193.968C711.906 191.544 708.386 189.2 706.87 186.332C705.367 183.489 705.654 179.786 707.42 174.071L705.218 173.391ZM718.193 196.185C726.862 197.939 731.536 195.755 738.796 194.461L738.391 192.192C730.683 193.565 726.75 195.564 718.65 193.926L718.193 196.185ZM738.644 194.478C745.607 194.175 752.519 190.245 759.879 186.033C767.332 181.768 775.404 177.102 784.964 174.853L784.436 172.609C774.499 174.947 766.145 179.791 758.734 184.032C751.229 188.327 744.835 191.901 738.543 192.175L738.644 194.478ZM785.846 173.609L774.896 70.446L772.604 70.6893L783.554 173.853L785.846 173.609ZM773.797 69.4159L689.653 65.958L689.558 68.2613L773.702 71.7193L773.797 69.4159ZM689.101 66.073L647.605 86.2446L648.613 88.3179L690.109 68.1463L689.101 66.073ZM711.251 144.243C711.401 146.598 711.365 148.941 711.035 151.237L713.317 151.565C713.675 149.075 713.709 146.568 713.552 144.097L711.251 144.243ZM692.475 125.635C694.062 125.836 695.567 125.51 696.923 125.045C698.244 124.592 699.584 123.942 700.674 123.481C701.84 122.988 702.77 122.685 703.563 122.679C704.263 122.674 704.908 122.897 705.568 123.668L707.32 122.169C706.221 120.886 704.93 120.364 703.546 120.374C702.256 120.384 700.956 120.859 699.776 121.358C698.52 121.889 697.4 122.445 696.175 122.865C694.985 123.273 693.861 123.487 692.765 123.348L692.475 125.635Z" fill="#323A45" mask="url(#path-53-outside-2)"/>
<path d="M626.247 382.569L626.3 382.708L626.413 382.803C630.34 386.126 637.309 387.267 644.226 386.32C651.161 385.371 658.239 382.299 662.397 376.954L662.536 376.775L662.516 376.549L657.905 324.103L657.902 324.07L657.895 324.037L653.923 304.743C656.444 302.125 657.218 299.538 656.443 296.904C655.676 294.297 653.424 291.774 650.281 289.192C647.836 285.147 643.161 282.923 637.689 282.07C632.166 281.209 625.728 281.725 619.657 283.252C613.587 284.778 607.833 287.328 603.691 290.579C599.603 293.788 596.987 297.766 597.382 302.176C595.685 306.738 595.342 309.754 596.129 311.956C596.909 314.14 598.745 315.371 600.968 316.499L626.247 382.569Z" stroke="#323A45" stroke-width="1.15266"/>
<mask id="mask8" mask-type="alpha" maskUnits="userSpaceOnUse" x="596" y="282" width="66" height="105">
<path d="M626.785 382.363L601.426 316.085C596.816 313.78 594.51 311.474 597.969 302.253C596.24 285.539 640.617 274.013 649.839 289.574C656.178 294.761 658.483 299.371 653.296 304.558L657.331 324.154L661.942 376.6C653.873 386.974 634.278 388.703 626.785 382.363Z" fill="#C4C4C4"/>
</mask>
<g mask="url(#mask8)">
<path d="M626.785 382.363L601.426 316.085C596.816 313.78 594.51 311.474 597.969 302.253C596.24 285.539 640.617 274.013 649.839 289.574C656.178 294.761 658.483 299.371 653.296 304.558L657.331 324.154L661.942 376.6C653.873 386.974 634.278 388.703 626.785 382.363Z" fill="white"/>
<path d="M657.905 324.103L657.902 324.07L657.896 324.038L655.879 314.24L655.718 313.46L655.027 313.856C639.998 322.473 624.188 327.023 604.375 324.734L603.419 324.623L603.773 325.518L623.728 375.985L623.856 376.308L624.202 376.346C637.152 377.755 648.263 377.766 661.55 369.013L661.837 368.823L661.807 368.481L657.905 324.103Z" fill="#62A7C6" stroke="#323A45" stroke-width="1.15266"/>
<path d="M662.268 289.981C663.108 295.141 659.611 300.67 652.9 305.432C646.223 310.17 636.52 314.025 625.373 315.839C614.226 317.653 603.802 317.075 595.967 314.699C588.092 312.31 583.022 308.176 582.182 303.015C581.342 297.855 584.839 292.326 591.551 287.564C598.227 282.826 607.93 278.972 619.077 277.157C630.224 275.343 640.649 275.921 648.483 278.297C656.358 280.686 661.428 284.82 662.268 289.981Z" fill="#323A45" stroke="#323A45" stroke-width="1.15266"/>
<path d="M662.131 274.99C663.123 279.365 660.213 284.756 653.385 289.988C646.687 295.121 636.73 299.661 625.099 302.298C613.467 304.936 602.526 305.134 594.269 303.393C585.851 301.617 580.901 298.009 579.909 293.634C578.917 289.26 581.827 283.869 588.656 278.636C595.354 273.503 605.31 268.964 616.942 266.326C628.574 263.689 639.514 263.49 647.771 265.232C656.189 267.007 661.139 270.616 662.131 274.99Z" fill="#323A45" stroke="#515A66" stroke-width="3.45799"/>
</g>
<path d="M763.952 372.498C761.079 341.478 758.403 324.663 751.273 295.913" stroke="#323A45" stroke-width="1.15266"/>
<path d="M655.613 313.322L657.792 323.672C646.983 325.271 640.495 326.961 635.937 329.303C622.173 325.685 615.891 324.797 610.134 324.157C607.403 323.854 605.415 324.752 604.539 326.154C604.101 326.854 603.959 327.665 604.165 328.444C604.216 328.638 604.288 328.827 604.38 329.008C603.854 329.01 603.366 329.118 602.934 329.343C602.006 329.824 601.479 330.765 601.357 331.947C601.121 334.228 602.346 337.623 605.438 341.613C605.222 343.711 605.459 345.418 606.228 347.133C607.004 348.866 608.309 350.577 610.145 352.694C611.202 355.476 612.405 357.987 614.66 360.288C616.937 362.612 620.247 364.681 625.463 366.644C635.865 370.559 654.015 374.11 687.144 378.314C688.339 378.839 689.72 379.403 691.058 379.95C691.872 380.282 692.67 380.608 693.4 380.915C691.947 383.561 690.976 385.751 690.314 388.021C689.606 390.45 689.257 392.945 689.03 396.155L689.006 396.487L689.283 396.674C717.154 415.401 751.156 421.808 808.74 432.658C810.467 432.984 812.216 433.313 813.985 433.647L814.669 433.776V433.081V411.18V411.095L814.644 411.013L805.423 380.468L805.316 380.116L804.952 380.064C792.101 378.235 781.888 376.315 771.031 373.098C760.413 369.951 749.164 365.559 734.22 358.785L734.21 358.781L734.2 358.776L705.96 347.25L705.922 347.234L705.882 347.224C700.583 345.893 697.229 344.747 694.9 343.458C692.601 342.186 691.289 340.766 690.095 338.835L690.07 338.795L690.038 338.759C685.62 333.716 682.948 330.844 675.601 325.465C673.181 322.373 670.886 320.107 667.936 318.147C664.975 316.18 661.377 314.536 656.38 312.664L655.397 312.296L655.613 313.322Z" fill="#9ACAD8" stroke="#323A45" stroke-width="1.15266"/>
<mask id="mask9" mask-type="alpha" maskUnits="userSpaceOnUse" x="601" y="313" width="214" height="121">
<path d="M687.299 377.753C620.923 369.334 614.871 363.564 610.647 352.394C606.91 348.094 605.538 345.687 606.036 341.444C599.697 333.375 601.426 328.188 606.036 329.917C603.155 328.188 604.884 324.154 610.071 324.73C615.827 325.37 622.117 326.258 636.006 329.917C640.564 327.526 647.155 325.801 658.483 324.154L656.177 313.203C666.145 316.938 670.376 319.705 675.196 325.883C682.549 331.261 685.193 334.103 689.605 339.138C692.081 343.143 695.127 345.116 705.742 347.783L733.982 359.31C748.939 366.09 760.215 370.493 770.867 373.65C781.762 376.879 792.006 378.804 804.871 380.634L814.092 411.18V433.081C753.259 421.605 718.19 415.402 689.605 396.195C690.057 389.816 690.983 386.395 694.215 380.634C692.136 379.744 689.449 378.7 687.299 377.753Z" fill="#046B99"/>
</mask>
<g mask="url(#mask9)">
<path d="M595.663 298.219H595.087V298.795V401.382V402.283L595.904 401.906L640.858 381.158L641.066 381.062L641.152 380.849C641.228 380.658 641.418 380.449 641.832 380.257C642.245 380.064 642.827 379.915 643.581 379.817C645.086 379.623 647.143 379.649 649.596 379.828C653.799 380.135 659.055 380.88 664.471 381.648C665.37 381.775 666.274 381.904 667.178 382.03C673.507 382.918 679.855 383.744 684.729 383.829C687.161 383.872 689.274 383.732 690.85 383.301C692.4 382.877 693.633 382.11 693.911 380.75C697.362 363.854 699.632 339.883 702.283 298.832L702.323 298.219H701.708H595.663Z" fill="#CA9667" stroke="#323A45" stroke-width="1.15266"/>
<path d="M604.308 328.764C612.377 340.291 626.292 341.139 649.838 339.715" stroke="#323A45" stroke-width="1.15266"/>
<path d="M604.308 340.867C616.657 349.456 626.926 351.783 643.498 352.394M609.495 352.394C614.693 357.872 624.53 360.375 643.498 364.497" stroke="#323A45" stroke-width="1.15266"/>
</g>
</g>
<path d="M490.77 268.826C492.989 268.648 494.675 268.2 496.533 267.097M496.533 267.097C499.194 265.518 498.069 263.958 496.533 261.91C499.268 264.16 501.357 265.866 504.026 267.673M496.533 267.097C499.541 267.022 500.022 269.402 499.415 271.131C498.695 273.18 496.698 274.888 494.804 276.895" stroke="#323A45" stroke-width="1.15266"/>
<path d="M468.536 227.436L465.542 243.902C465.462 244.34 465.642 244.785 466.004 245.045L494.435 265.43C495.133 265.93 496.113 265.519 496.246 264.671L498.732 248.762C498.797 248.341 498.625 247.918 498.284 247.662L470.361 226.72C469.676 226.206 468.689 226.593 468.536 227.436Z" fill="#046B99" stroke="#323A45" stroke-width="1.15266"/>
<path d="M470.897 242L488.635 254.926" stroke="#9ACAD8" stroke-width="2" stroke-linecap="round" stroke-linejoin="round"/>
<path d="M471.884 234.044C471.935 233.582 472.469 233.352 472.84 233.63L475.726 235.794C475.896 235.922 475.986 236.13 475.962 236.341L475.616 239.456C475.565 239.918 475.031 240.148 474.66 239.87L471.774 237.706C471.604 237.578 471.514 237.37 471.538 237.159L471.884 234.044Z" fill="#9ACAD8"/>
<path d="M511.518 257.876C518.621 261.063 522.446 263.268 528.231 269.979L520.739 290.726L520.637 290.687C517.17 289.357 516.117 288.953 514.976 284.387C512.67 277.471 508.636 277.471 510.941 268.25C507.566 263.772 505.388 262.094 501.144 260.181C497.905 258.827 496.141 257.217 493.651 252.689C491.346 249.807 493.651 246.349 497.686 248.654C500.753 250.084 502.508 251.096 505.754 253.841C508.057 255.008 509.336 255.784 511.518 257.876Z" fill="#CA9667"/>
<path d="M528.231 269.979L528.773 270.174L528.888 269.857L528.668 269.602L528.231 269.979ZM511.518 257.876L511.119 258.292L511.191 258.361L511.282 258.401L511.518 257.876ZM505.754 253.841L505.382 254.281L505.434 254.325L505.494 254.355L505.754 253.841ZM497.686 248.654L497.4 249.155L497.421 249.167L497.442 249.177L497.686 248.654ZM493.651 252.689L494.156 252.411L494.133 252.367L494.101 252.329L493.651 252.689ZM501.144 260.181L501.381 259.655L501.373 259.652L501.366 259.649L501.144 260.181ZM510.941 268.25L511.501 268.389C511.543 268.22 511.506 268.042 511.402 267.903L510.941 268.25ZM514.976 284.387L515.535 284.247L515.529 284.226L515.522 284.205L514.976 284.387ZM520.637 290.687L520.844 290.149L520.844 290.149L520.637 290.687ZM520.739 290.726L520.533 291.265L521.081 291.475L521.281 290.922L520.739 290.726ZM528.668 269.602C525.754 266.222 523.316 263.957 520.698 262.133C518.085 260.312 515.312 258.946 511.754 257.35L511.282 258.401C514.827 259.992 517.518 261.323 520.039 263.079C522.556 264.832 524.924 267.025 527.795 270.355L528.668 269.602ZM511.917 257.46C509.685 255.32 508.355 254.513 506.015 253.327L505.494 254.355C507.758 255.503 508.987 256.248 511.119 258.292L511.917 257.46ZM506.127 253.401C502.838 250.619 501.039 249.581 497.929 248.132L497.442 249.177C500.468 250.587 502.179 251.572 505.382 254.281L506.127 253.401ZM497.972 248.154C495.819 246.924 493.892 247.124 492.851 248.354C491.833 249.558 491.928 251.457 493.201 253.049L494.101 252.329C493.07 251.039 493.165 249.768 493.731 249.099C494.275 248.455 495.518 248.079 497.4 249.155L497.972 248.154ZM493.146 252.966C494.402 255.251 495.497 256.841 496.712 258.036C497.936 259.24 499.256 260.016 500.922 260.713L501.366 259.649C499.792 258.991 498.611 258.286 497.521 257.214C496.422 256.134 495.39 254.655 494.156 252.411L493.146 252.966ZM500.907 260.706C503.004 261.652 504.561 262.525 506.005 263.7C507.451 264.878 508.807 266.376 510.481 268.596L511.402 267.903C509.7 265.645 508.28 264.066 506.732 262.806C505.182 261.545 503.528 260.623 501.381 259.655L500.907 260.706ZM510.382 268.11C509.206 272.816 509.628 275.269 510.714 277.44C511.23 278.473 511.915 279.469 512.554 280.54C513.206 281.633 513.87 282.891 514.429 284.569L515.522 284.205C514.929 282.424 514.224 281.089 513.543 279.949C512.85 278.786 512.237 277.91 511.745 276.925C510.813 275.062 510.372 272.905 511.501 268.389L510.382 268.11ZM514.417 284.527C514.991 286.825 515.569 288.202 516.527 289.158C517.471 290.101 518.734 290.574 520.431 291.226L520.844 290.149C519.073 289.47 518.076 289.076 517.342 288.343C516.621 287.623 516.102 286.515 515.535 284.247L514.417 284.527ZM520.431 291.226L520.533 291.265L520.946 290.188L520.844 290.149L520.431 291.226ZM521.281 290.922L528.773 270.174L527.689 269.783L520.197 290.531L521.281 290.922Z" fill="#323A45"/>
<path d="M528.232 270.555L519.587 294.184" stroke="#CA9667" stroke-width="1.729"/>
</g>
<path d="M691.136 124.708L691.136 124.708C691.632 124.889 692.102 125.007 692.547 125.064C694.98 125.372 697.303 124.34 699.3 123.453L699.367 123.423C700.783 122.794 702.015 122.253 703.134 122.129C703.679 122.069 704.175 122.111 704.636 122.282C705.095 122.453 705.553 122.765 706.005 123.294C710.836 128.935 711.35 136.706 711.814 144.015L711.826 144.207C711.977 146.59 711.942 148.974 711.605 151.319C710.481 159.136 709.104 164.555 705.778 173.531L705.772 173.546L705.767 173.561C703.979 179.347 699.217 202.939 696.632 225.678C695.339 237.051 694.586 248.244 695.028 256.911C695.249 261.241 695.769 264.975 696.686 267.796C697.565 270.496 698.856 272.506 700.744 273.27C704.039 278.528 708.934 280.141 712.976 280.435C715.015 280.583 716.845 280.398 718.165 280.177C718.826 280.066 719.361 279.945 719.733 279.852C719.919 279.805 720.064 279.765 720.164 279.737C720.214 279.722 720.253 279.711 720.28 279.703L720.311 279.693L720.32 279.69L720.323 279.69L720.324 279.689C720.324 279.689 720.325 279.689 720.156 279.161L720.325 279.689L720.332 279.687C739.571 273.274 748.323 259.411 752.253 247.186C754.216 241.078 754.978 235.374 755.251 231.198C755.387 229.109 755.401 227.4 755.38 226.211C755.37 225.616 755.351 225.152 755.335 224.834C755.327 224.676 755.319 224.554 755.313 224.471C755.311 224.438 755.309 224.412 755.308 224.392C756.225 214.009 756.224 204.925 755.995 198.433C755.879 195.182 755.707 192.58 755.562 190.789C755.49 189.893 755.425 189.201 755.379 188.731C755.355 188.496 755.336 188.317 755.323 188.197C755.316 188.136 755.311 188.09 755.308 188.06L755.306 188.046C755.301 180.439 753.455 173.319 751.469 167.854C748.914 160.826 747.258 153.394 747.317 145.956C747.41 134.193 745.52 124.852 741.847 116.377C738.177 107.909 732.739 100.335 725.778 92.0962C717.608 82.4255 702.482 77.5014 687.566 77.4246C672.654 77.3478 657.717 82.116 649.96 92.1149L650.414 92.4675L649.96 92.1149L649.947 92.1311L649.73 92.4113L649.882 92.7316C653.334 100.001 657.28 105.683 663.574 110.71C669.854 115.725 678.442 120.065 691.136 124.708Z" fill="#323A45" stroke="#323A45" stroke-width="1.15266"/>
<mask id="mask10" mask-type="alpha" maskUnits="userSpaceOnUse" x="-325" y="-254" width="780" height="713">
<path d="M-325 -254V459H455C394.105 277.872 363.363 145.838 347.309 -36.5C341.613 -101.189 301.689 -172.209 299 -254H-325Z" fill="#DCEEF3"/>
</mask>
<g mask="url(#mask10)">
<path d="M217 320V346.5" stroke="#222830"/>
<circle cx="396.5" cy="391.5" r="391.5" fill="#EDE3D4"/>
<mask id="mask11" mask-type="alpha" maskUnits="userSpaceOnUse" x="5" y="0" width="783" height="783">
<circle cx="396.5" cy="391.5" r="391.5" fill="#C3E1EA"/>
</mask>
<g mask="url(#mask11)">
<rect x="215" y="87" width="180" height="146" rx="8" fill="#FAF5EE"/>
<path d="M237.5 259.5H432L445 277H219L237.5 259.5Z" fill="#FAF5EE"/>
<rect x="268" y="266" width="9" height="120" fill="#FAF5EE"/>
<rect x="219" y="277" width="314" height="6" fill="#DECFB7"/>
<rect x="214" y="162" width="6" height="194" transform="rotate(-90 214 162)" fill="#EDE3D4"/>
<rect x="309" y="71" width="6" height="164" fill="#EDE3D4"/>
<path d="M107.244 138H168.744V243H98.7436C94.8182 201.831 97.4655 178.857 107.244 138Z" fill="#222830" stroke="#222830"/>
<path d="M112.506 172.582L114.951 187.253C105.115 193.425 100.099 198.261 91.6964 207.589C75.5249 215.05 64.9607 222.062 59.2698 231.675C53.5697 241.304 52.8169 253.439 55.9892 270.99C50.7113 294.698 50.1143 316.2 52.4992 366.012V393.5V442V442.5H52.9992H277.999H278.499V442V367V366.93L278.48 366.863L276.606 360.304C278.785 359.443 280.245 358.405 281.068 357.142C281.957 355.777 282.047 354.234 281.633 352.572C281.222 350.925 280.306 349.118 279.126 347.162C278.188 345.609 277.066 343.934 275.868 342.147C275.578 341.714 275.283 341.275 274.986 340.829C274.488 335.197 273.227 330.815 268.758 326.935C264.349 323.108 256.855 319.804 244.035 316.133C247.308 280.876 248.564 260.952 246.498 225.471L246.499 225.471L246.497 225.457C246.354 223.788 246.238 222.22 246.129 220.746C245.953 218.381 245.796 216.256 245.574 214.341C245.212 211.22 244.673 208.579 243.577 206.226C241.371 201.49 236.974 198.052 227.698 194.041L227.679 194.033L227.66 194.026C214.822 189.674 205.838 189.389 189.18 190.487C182.344 184.219 178.355 181.833 171.319 178.597L164.394 169.693L164.234 169.488L163.975 169.501L112.975 172.001L112.414 172.028L112.506 172.582Z" fill="#CA9667" stroke="#222830"/>
<mask id="mask12" mask-type="alpha" maskUnits="userSpaceOnUse" x="51" y="170" width="231" height="272">
<path d="M52.9992 366V393.5V442H277.999V367L275.999 360C285.499 356.5 280.729 350.349 274.499 341C273.528 329.736 269.619 323.932 243.499 316.5C246.799 280.998 248.07 261.084 245.999 225.5C244.499 208 245.999 202.5 227.499 194.5C214.698 190.16 205.768 189.887 188.999 191C182.073 184.629 178.116 182.268 170.999 179L163.999 170L112.999 172.5L115.499 187.5C105.502 193.74 100.507 198.551 91.9992 208C59.5738 222.943 50.1271 235.87 56.4992 271C51.2163 294.679 50.6105 316.115 52.9992 366Z" fill="#C4C4C4"/>
</mask>
<g mask="url(#mask12)">
<path d="M155.5 222.5C123.348 232.75 99 234 97 218L64 279L56.5 399H169L155.5 222.5Z" fill="#222830" stroke="#222830"/>
<g filter="url(#filter1_i)">
<path d="M75.5 276C67.2844 325.758 70.6595 349.826 72 395L37.5 414L30 318L45.5 229.5L65.5 213.5L114.5 186C114.5 186 115.48 188.609 116 191C116.628 193.887 114.5 199 114.5 199C105.377 209.458 102.938 215.581 96.5 227C85.5334 244.632 81.2557 255.531 75.5 276Z" fill="#9ACAD8"/>
</g>
<path d="M75.5 276C67.2844 325.758 70.6595 349.826 72 395L37.5 414L30 318L45.5 229.5L65.5 213.5L114.5 186C114.5 186 115.48 188.609 116 191C116.628 193.887 114.5 199 114.5 199C105.377 209.458 102.938 215.581 96.5 227C85.5334 244.632 81.2557 255.531 75.5 276Z" stroke="#222830"/>
<g filter="url(#filter2_i)">
<path fill-rule="evenodd" clip-rule="evenodd" d="M170.331 178.141C152.409 212.861 146.023 238.391 140.999 289.5C138.216 322.445 137.99 340.656 140.999 372.5L277.999 396.307V367L275.999 360C285.006 356.682 281.186 350.981 275.456 342.43C275.142 341.962 274.823 341.485 274.499 341C273.528 329.736 269.618 323.932 243.499 316.5C246.799 280.998 248.07 261.084 245.999 225.5C245.855 223.815 245.738 222.242 245.629 220.767C244.603 206.918 244.218 201.73 227.499 194.5C214.697 190.16 205.768 189.887 188.999 191C182.073 184.629 178.116 182.268 170.999 179L170.331 178.141Z" fill="#9ACAD8"/>
</g>
<path d="M170.331 178.141L170.725 177.834L170.245 177.216L169.886 177.911L170.331 178.141ZM140.999 289.5L140.501 289.451L140.501 289.458L140.999 289.5ZM140.999 372.5L140.501 372.547L140.537 372.927L140.914 372.993L140.999 372.5ZM277.999 396.307L277.914 396.799L278.499 396.901V396.307H277.999ZM277.999 367H278.499V366.93L278.48 366.863L277.999 367ZM275.999 360L275.826 359.531L275.391 359.691L275.518 360.137L275.999 360ZM275.456 342.43L275.04 342.709L275.04 342.709L275.456 342.43ZM274.499 341L274.001 341.043L274.012 341.171L274.083 341.277L274.499 341ZM243.499 316.5L243.001 316.454L242.963 316.867L243.362 316.981L243.499 316.5ZM245.999 225.5L246.499 225.471L246.497 225.457L245.999 225.5ZM245.629 220.767L245.13 220.803L245.13 220.803L245.629 220.767ZM227.499 194.5L227.698 194.041L227.679 194.033L227.66 194.026L227.499 194.5ZM188.999 191L188.661 191.368L188.818 191.513L189.032 191.499L188.999 191ZM170.999 179L170.604 179.307L170.679 179.403L170.79 179.454L170.999 179ZM169.886 177.911C151.927 212.705 145.53 238.302 140.502 289.451L141.497 289.549C146.517 238.479 152.892 213.016 170.775 178.37L169.886 177.911ZM140.501 289.458C137.715 322.428 137.489 340.669 140.501 372.547L141.497 372.453C138.491 340.643 138.716 322.463 141.497 289.542L140.501 289.458ZM140.914 372.993L277.914 396.799L278.085 395.814L141.085 372.007L140.914 372.993ZM278.499 396.307V367H277.499V396.307H278.499ZM278.48 366.863L276.48 359.863L275.518 360.137L277.518 367.137L278.48 366.863ZM276.172 360.469C278.468 359.623 280.023 358.599 280.925 357.35C281.842 356.08 282.037 354.642 281.745 353.085C281.457 351.547 280.69 349.871 279.659 348.068C278.625 346.261 277.301 344.285 275.871 342.152L275.04 342.709C276.476 344.851 277.778 346.794 278.791 348.564C279.805 350.339 280.505 351.898 280.762 353.269C281.016 354.622 280.836 355.765 280.114 356.765C279.378 357.784 278.034 358.717 275.826 359.531L276.172 360.469ZM275.871 342.152C275.557 341.684 275.238 341.208 274.915 340.723L274.083 341.277C274.407 341.763 274.727 342.241 275.04 342.709L275.871 342.152ZM274.997 340.957C274.506 335.263 273.261 330.845 268.758 326.935C264.303 323.069 256.699 319.736 243.636 316.019L243.362 316.981C256.418 320.696 263.829 323.982 268.102 327.691C272.326 331.358 273.521 335.473 274.001 341.043L274.997 340.957ZM243.997 316.546C247.298 281.032 248.572 261.09 246.498 225.471L245.5 225.529C247.569 261.078 246.3 280.964 243.001 316.454L243.997 316.546ZM246.497 225.457C246.353 223.776 246.237 222.205 246.127 220.73L245.13 220.803C245.24 222.278 245.356 223.855 245.501 225.543L246.497 225.457ZM246.127 220.73C245.617 213.843 245.265 208.951 242.88 204.898C240.481 200.822 236.078 197.665 227.698 194.041L227.301 194.959C235.639 198.565 239.788 201.616 242.018 205.405C244.261 209.215 244.614 213.841 245.13 220.803L246.127 220.73ZM227.66 194.026C214.767 189.655 205.762 189.386 188.966 190.501L189.032 191.499C205.775 190.388 214.628 190.664 227.339 194.974L227.66 194.026ZM189.338 190.632C182.369 184.222 178.368 181.833 171.208 178.546L170.79 179.454C177.865 182.703 181.776 185.036 188.661 191.368L189.338 190.632ZM171.394 178.693L170.725 177.834L169.936 178.448L170.604 179.307L171.394 178.693Z" fill="#222830"/>
<path d="M209 249C203.831 301.537 199.133 328.837 189.5 376" stroke="#222830"/>
<path d="M185.503 368.942L185.5 368.971V369V398.5V399.1L186.09 398.992L292.59 379.492L293 379.417V379V344.5V344.355L292.923 344.233L271.423 310.233L271.235 309.936L270.892 310.012L243.965 315.996C237.95 315.506 234.522 315.239 228.438 316.004C223.813 316.582 220.47 317.567 218.15 319.976C215.851 322.363 214.641 326.058 214.016 331.821C212.787 333.627 211.973 335.951 211.372 339.609C210.769 343.28 210.376 348.339 210.017 355.638L197.413 360.001C192.902 360.051 190.065 360.677 188.28 362.154C186.466 363.655 185.851 365.94 185.503 368.942Z" fill="#CA9667" stroke="#222830"/>
<path d="M244.502 341C243.615 344.086 243.62 345.716 244.002 348.5" stroke="#7C6148"/>
<path d="M255.001 333C251.014 336.385 249.514 339.325 250.001 349" stroke="#7C6148"/>
<path d="M249.5 329C244.186 333.228 242.075 336.073 239 341.5" stroke="#7C6148"/>
<path d="M252.5 351C254.374 352.452 255.448 353.437 257.5 356" stroke="#7C6148"/>
<path d="M259.5 336C254.94 338.856 252.883 341.092 250 346" stroke="#7C6148"/>
<path d="M227 347C238.699 345.621 245.121 345.166 253.5 351.5C254.091 358.017 255.861 357.193 248 363.5L227 365V347Z" fill="#B5865C"/>
<g filter="url(#filter3_d)">
<ellipse cx="137" cy="132.5" rx="44" ry="50.5" fill="#CA9667"/>
</g>
<path d="M245 367.5L244.6 367.2L244.543 367.276L244.518 367.368L245 367.5ZM242 378.5L241.518 378.368L241.317 379.105L242.072 378.995L242 378.5ZM262.5 375.5L262.572 375.995L262.638 375.985L262.7 375.958L262.5 375.5ZM269.5 369.5L269.954 369.709L269.964 369.688L269.971 369.666L269.5 369.5ZM253.743 355.976L253.243 355.994L253.743 355.976ZM253.78 354.114L253.281 354.08L253.78 354.114ZM235.043 347.498C238.758 347.177 241.641 347.014 244.285 347.453C246.909 347.888 249.319 348.921 252.058 351.038L252.669 350.246C249.816 348.041 247.255 346.932 244.449 346.466C241.665 346.004 238.663 346.181 234.957 346.502L235.043 347.498ZM253.281 354.08C253.233 354.785 253.222 355.401 253.243 355.994L254.242 355.959C254.223 355.403 254.233 354.823 254.279 354.148L253.281 354.08ZM251.628 359.577C248.871 361.706 247.139 363.821 244.6 367.2L245.4 367.8C247.929 364.435 249.594 362.411 252.239 360.368L251.628 359.577ZM244.518 367.368L241.518 378.368L242.482 378.632L245.482 367.632L244.518 367.368ZM242.072 378.995L262.572 375.995L262.428 375.005L241.928 378.005L242.072 378.995ZM262.7 375.958C264.847 375.023 266.331 374.2 267.445 373.232C268.57 372.255 269.291 371.154 269.954 369.709L269.046 369.291C268.421 370.651 267.775 371.621 266.789 372.477C265.791 373.344 264.418 374.119 262.3 375.042L262.7 375.958ZM269.971 369.666L272.971 361.166L272.029 360.834L269.029 369.334L269.971 369.666ZM272.99 361.098C274.622 352.969 275.001 346.504 274.5 334.978L273.5 335.022C273.999 346.496 273.621 352.875 272.01 360.902L272.99 361.098ZM272.556 361.497C275.6 361.151 277.271 360.515 280.17 359.47L279.83 358.53C276.929 359.576 275.358 360.172 272.444 360.503L272.556 361.497ZM253.243 355.994C253.293 357.397 252.715 358.737 251.628 359.577L252.239 360.368C253.604 359.314 254.303 357.653 254.242 355.959L253.243 355.994ZM252.058 351.038C252.948 351.726 253.364 352.881 253.281 354.08L254.279 354.148C254.379 352.696 253.881 351.183 252.669 350.246L252.058 351.038Z" fill="#222830"/>
<path d="M245 367.5L244.6 367.2L244.543 367.276L244.518 367.368L245 367.5ZM242 378.5L241.518 378.368L241.317 379.105L242.072 378.995L242 378.5ZM253.743 355.976L254.242 355.959L253.743 355.976ZM251.933 359.972L251.628 359.577L251.933 359.972ZM252.363 350.642L252.058 351.038L252.363 350.642ZM253.78 354.114L254.279 354.148L253.78 354.114ZM235.043 347.498C238.758 347.177 241.641 347.014 244.285 347.453C246.909 347.888 249.319 348.921 252.058 351.038L252.669 350.246C249.816 348.041 247.255 346.932 244.449 346.466C241.665 346.004 238.663 346.181 234.957 346.502L235.043 347.498ZM253.281 354.08C253.233 354.785 253.222 355.401 253.243 355.994L254.242 355.959C254.223 355.403 254.233 354.823 254.279 354.148L253.281 354.08ZM251.628 359.577C248.871 361.706 247.139 363.821 244.6 367.2L245.4 367.8C247.929 364.435 249.594 362.411 252.239 360.368L251.628 359.577ZM244.518 367.368L241.518 378.368L242.482 378.632L245.482 367.632L244.518 367.368ZM242.072 378.995L262.572 375.995L262.428 375.005L241.928 378.005L242.072 378.995ZM253.243 355.994C253.293 357.397 252.715 358.737 251.628 359.577L252.239 360.368C253.604 359.314 254.303 357.653 254.242 355.959L253.243 355.994ZM252.058 351.038C252.948 351.726 253.364 352.881 253.281 354.08L254.279 354.148C254.379 352.696 253.881 351.183 252.669 350.246L252.058 351.038Z" fill="#7C6148"/>
</g>
<path d="M153.5 238C138.5 229 140.779 189.26 159.5 159L120.5 67H153.5C173 96 194.086 135.356 191.5 183.5C180.5 235 178 243.5 153.5 238Z" fill="#323A45" stroke="#222830"/>
<mask id="mask13" mask-type="alpha" maskUnits="userSpaceOnUse" x="-14" y="362" width="472" height="172">
<rect x="-13.5" y="362.5" width="471" height="171" fill="#9ACAD8" stroke="#222830"/>
</mask>
<g mask="url(#mask13)">
<rect x="-13.5" y="362.5" width="471" height="171" fill="#FAF5EE" stroke="#222830"/>
<path d="M497.5 341.5C405.593 398.254 327.609 426.584 -2 452L-82 513L568.5 561L497.5 341.5Z" fill="#EDE3D4"/>
</g>
<path d="M259.5 410.086V428.627C259.5 430.241 258.192 431.549 256.577 431.549H182.423C180.808 431.549 179.5 430.241 179.5 428.627V410.209C179.5 409.979 179.527 409.749 179.581 409.525L186.271 381.739C186.587 380.425 187.761 379.5 189.112 379.5H251.967C253.396 379.5 254.615 380.533 254.85 381.942L259.46 409.606C259.487 409.764 259.5 409.925 259.5 410.086Z" fill="#626973" stroke="#222830"/>
<path d="M203.057 386.915H237.084C237.912 386.915 238.631 387.486 238.819 388.292L241.747 400.842C242.008 401.959 241.16 403.028 240.012 403.028H200.129C198.981 403.028 198.133 401.959 198.394 400.842L201.322 388.292C201.51 387.486 202.229 386.915 203.057 386.915Z" fill="#222830" stroke="#222830"/>
<path d="M224.26 390.024C223.935 390.07 223.605 390.261 223.536 390.444C223.491 390.562 223.546 390.645 223.891 390.974C225.285 392.304 225.891 393.528 225.891 395.014C225.891 396.449 225.354 397.566 224.022 398.905C223.736 399.193 223.502 399.46 223.502 399.498C223.502 399.641 223.743 399.847 224.005 399.928C224.364 400.039 224.965 400.019 225.253 399.885C225.364 399.834 225.652 399.601 225.892 399.368C226.846 398.445 227.499 397.432 227.822 396.377C228.021 395.725 228.061 394.488 227.902 393.89C227.607 392.788 227.018 391.805 226.073 390.842C225.502 390.259 225.144 390.02 224.844 390.02C224.784 390.02 224.686 390.012 224.627 390.003C224.567 389.995 224.402 390.004 224.26 390.024ZM220.38 391.025C219.881 391.097 219.521 391.399 219.665 391.625C219.7 391.68 219.935 391.932 220.187 392.186C221.255 393.26 221.699 394.411 221.482 395.541C221.303 396.47 220.965 397.056 220.115 397.913C219.545 398.488 219.518 398.577 219.85 398.809C220.165 399.029 220.952 399.064 221.366 398.877C221.652 398.748 222.544 397.83 222.888 397.31C224.026 395.589 223.853 393.742 222.393 392.052C221.646 391.186 221.121 390.919 220.38 391.025ZM216.378 392.04C216.07 392.109 215.804 392.27 215.732 392.432C215.688 392.531 215.764 392.64 216.13 393.005C217.474 394.348 217.488 395.641 216.174 396.952C215.597 397.528 215.584 397.643 216.072 397.87C216.313 397.982 216.416 398.002 216.754 398.002C217.321 398.002 217.616 397.861 218.123 397.347C218.903 396.557 219.222 395.872 219.22 394.993C219.217 394.091 218.918 393.471 218.085 392.638C217.608 392.161 217.372 392.035 216.894 392.003C216.748 391.993 216.516 392.01 216.378 392.04ZM212.644 392.986C212.4 393.036 212.121 393.2 212.038 393.343C211.945 393.502 212.021 393.628 212.388 393.926C212.86 394.308 212.969 394.514 212.969 395.014C212.969 395.514 212.86 395.719 212.388 396.101C212.228 396.231 212.067 396.387 212.031 396.447C211.879 396.699 212.305 397.008 212.877 397.061C213.362 397.106 213.695 396.999 214.142 396.656C215.433 395.662 215.433 394.334 214.141 393.348C213.685 393 213.177 392.877 212.644 392.986Z" fill="white"/>
<path d="M183.563 408.592H255.437C257.681 408.592 259.5 410.411 259.5 412.655V465.775H179.5V412.655C179.5 410.411 181.319 408.592 183.563 408.592Z" fill="#222830" stroke="#222830"/>
<path d="M244.868 349.705L201.604 351.846C199.778 351.937 198.245 353.254 197.881 355.045L193.028 378.94C192.507 381.503 194.545 383.867 197.156 383.731L245.648 381.201C247.797 381.089 249.473 379.295 249.439 377.143L249.066 353.636C249.03 351.375 247.127 349.593 244.868 349.705Z" fill="#046B99" stroke="#222830"/>
<path d="M212.847 358.055C212.866 357.53 213.287 357.11 213.811 357.092L219.377 356.897C219.929 356.878 220.392 357.31 220.411 357.862L220.585 362.859C220.605 363.411 220.173 363.874 219.621 363.893L213.698 364.1C213.118 364.12 212.643 363.644 212.664 363.064L212.847 358.055Z" fill="#9ACAD8"/>
<line x1="205.791" y1="359.189" x2="204.189" y2="375.209" stroke="#9ACAD8" stroke-width="4" stroke-linecap="round" stroke-linejoin="round"/>
<path d="M216.501 353.5V333L236.501 320.5C239.454 327.874 238.665 331.146 234.501 336V350.5C234.501 360.5 215.502 365.5 216.501 353.5Z" fill="#CA9667"/>
<path d="M216.501 333V353.5C215.502 365.5 234.501 360.5 234.501 350.5V336C238.665 331.146 239.454 327.874 236.501 320.5" stroke="#222830"/>
<path d="M219.498 349.545L219.498 349.545L219.498 349.542C219.612 348.18 220.198 347.249 221.004 346.641C221.823 346.024 222.902 345.717 224.013 345.687C225.124 345.658 226.224 345.908 227.061 346.355C227.906 346.806 228.411 347.413 228.505 348.071L228.505 348.071L228.506 348.077C229.027 351.399 229.225 353.613 228.917 355.022C228.767 355.706 228.507 356.152 228.145 356.448C227.787 356.74 227.272 356.932 226.518 356.997C223.898 356.603 222.03 356.922 220.822 357.129C220.507 357.183 220.237 357.229 220.01 357.253C219.731 357.282 219.561 357.274 219.452 357.243C219.369 357.22 219.315 357.184 219.261 357.096C219.194 356.987 219.122 356.789 219.073 356.433C219.024 356.086 219.001 355.628 219 355.023L219.498 349.545Z" fill="#EDC39D" stroke="#222830"/>
</g>
<ellipse cx="137" cy="132.5" rx="44" ry="50.5" fill="#CA9667" stroke="#222830"/>
<path d="M120.15 118.845C124.994 117.1 127.848 117.144 133.133 118.165" stroke="black" stroke-width="1.5"/>
<path d="M151.142 118.143C156.272 117.71 159.017 118.491 163.858 120.846" stroke="black" stroke-width="1.5"/>
<path d="M101 122C113.5 117.5 123.5 108.5 129.5 92C136.306 101.83 154.639 116.423 172.981 125.97C174.277 126.644 175.779 126.738 177.225 126.53C186.246 125.232 178.137 135.668 187 138C191.444 117.354 188.5 107.064 171 87C161.697 76.9067 150.5 75.5 138.5 75.5C103 77.5 90.8921 105.936 87.0008 125C83.1094 144.064 79.9998 165.5 89.501 184.5C88.1008 193.692 81.0016 205.5 83.5014 209.5C86 211 86.5094 211.26 92.0001 207.5C97.7162 201.829 100.249 197.76 103 188.5C101.152 163.311 99.5235 147.189 101 122Z" fill="#323A45" stroke="#222830"/>
<ellipse cx="126.11" cy="129.611" rx="4.11" ry="4.61066" fill="#222830"/>
<ellipse cx="157.11" cy="129.611" rx="4.11" ry="4.61066" fill="#222830"/>
<path d="M141.5 125.5V136C150.316 146.174 146 150.5 139 151.5" stroke="#7C6148" stroke-width="1.5"/>
<path d="M134.963 163.345C141.669 167.1 146.195 166.242 151.893 161.558" stroke="#222830" stroke-width="2"/>
<path d="M113.5 175.202C120.299 180.141 128.359 183 137 183C147.86 183 157.801 178.484 165.475 171" stroke="#B5865C"/>
<path d="M165.475 171C160.613 175.742 154.84 179.293 148.5 181.258" stroke="#222830"/>
</g>
<mask id="path-127-outside-3" maskUnits="userSpaceOnUse" x="275" y="288" width="73" height="102" fill="black">
<rect fill="white" x="275" y="288" width="73" height="102"/>
<path fill-rule="evenodd" clip-rule="evenodd" d="M345.587 303.51C346.263 302.159 346.601 299.795 341.872 299.795C341.867 299.403 341.864 299.026 341.86 298.663C341.828 295.504 341.807 293.416 341.279 291.909C341.229 291.765 341.129 291.647 340.989 291.586C338.113 290.32 324.642 290 311.811 290V290C299.076 290.005 285.802 290.331 282.949 291.586C282.81 291.647 282.71 291.765 282.659 291.909C282.131 293.416 282.11 295.504 282.078 298.664C282.075 299.026 282.071 299.403 282.066 299.795C277.338 299.795 277.676 302.159 278.351 303.51C277.223 304.334 277.11 304.996 277 306.213L280.04 306.55L288.822 384.911C295.746 387.666 300.883 388.277 311.811 388.288V388.288C311.839 388.288 311.867 388.288 311.895 388.288C311.972 388.288 312.049 388.288 312.127 388.288V388.288C323.056 388.277 328.192 387.666 335.117 384.911L343.899 306.55L346.938 306.212C346.829 304.996 346.715 304.334 345.587 303.51Z"/>
</mask>
<g filter="url(#filter4_i)">
<path fill-rule="evenodd" clip-rule="evenodd" d="M345.587 303.51C346.263 302.159 346.601 299.795 341.872 299.795C341.867 299.403 341.864 299.026 341.86 298.663C341.828 295.504 341.807 293.416 341.279 291.909C341.229 291.765 341.129 291.647 340.989 291.586C338.113 290.32 324.642 290 311.811 290V290C299.076 290.005 285.802 290.331 282.949 291.586C282.81 291.647 282.71 291.765 282.659 291.909C282.131 293.416 282.11 295.504 282.078 298.664C282.075 299.026 282.071 299.403 282.066 299.795C277.338 299.795 277.676 302.159 278.351 303.51C277.223 304.334 277.11 304.996 277 306.213L280.04 306.55L288.822 384.911C295.746 387.666 300.883 388.277 311.811 388.288V388.288C311.839 388.288 311.867 388.288 311.895 388.288C311.972 388.288 312.049 388.288 312.127 388.288V388.288C323.056 388.277 328.192 387.666 335.117 384.911L343.899 306.55L346.938 306.212C346.829 304.996 346.715 304.334 345.587 303.51Z" fill="white"/>
</g>
<path d="M341.872 299.795L340.872 299.807C340.878 300.355 341.324 300.795 341.872 300.795V299.795ZM345.587 303.51L344.693 303.063C344.474 303.5 344.603 304.031 344.998 304.318L345.587 303.51ZM341.86 298.663L340.86 298.673L340.86 298.673L341.86 298.663ZM341.279 291.909L340.335 292.24L340.335 292.24L341.279 291.909ZM340.989 291.586L341.392 290.67L341.392 290.67L340.989 291.586ZM311.811 290V289C311.259 289 310.811 289.447 310.811 290H311.811ZM311.811 290L311.812 291.001C312.364 291 312.812 290.553 312.812 290H311.811ZM282.949 291.586L282.546 290.67L282.546 290.67L282.949 291.586ZM282.659 291.909L283.603 292.24L283.603 292.24L282.659 291.909ZM282.078 298.664L281.078 298.653L281.078 298.653L282.078 298.664ZM282.066 299.795V300.796C282.614 300.796 283.06 300.355 283.067 299.807L282.066 299.795ZM278.351 303.51L278.941 304.319C279.335 304.031 279.464 303.5 279.246 303.063L278.351 303.51ZM277 306.213L276.004 306.123C275.955 306.665 276.348 307.147 276.89 307.207L277 306.213ZM280.04 306.55L281.034 306.439C280.982 305.974 280.615 305.608 280.15 305.556L280.04 306.55ZM288.822 384.911L287.827 385.022C287.869 385.389 288.109 385.704 288.452 385.84L288.822 384.911ZM311.811 388.288H312.812C312.812 387.736 312.365 387.288 311.812 387.288L311.811 388.288ZM311.811 388.288H310.811C310.811 388.841 311.259 389.289 311.811 389.289V388.288ZM311.895 388.288L311.896 387.288H311.895V388.288ZM312.127 388.288V389.289C312.68 389.289 313.127 388.841 313.127 388.288H312.127ZM312.127 388.288L312.126 387.288C311.574 387.288 311.127 387.736 311.127 388.288H312.127ZM335.117 384.911L335.487 385.84C335.83 385.704 336.07 385.389 336.111 385.022L335.117 384.911ZM343.899 306.55L343.788 305.556C343.323 305.608 342.956 305.974 342.904 306.439L343.899 306.55ZM346.938 306.212L347.049 307.207C347.59 307.147 347.984 306.665 347.935 306.123L346.938 306.212ZM341.872 300.795C344.153 300.795 344.739 301.376 344.882 301.632C345.05 301.935 344.997 302.454 344.693 303.063L346.482 303.958C346.853 303.216 347.307 301.877 346.631 300.66C345.929 299.396 344.319 298.795 341.872 298.795V300.795ZM340.86 298.673C340.863 299.036 340.867 299.414 340.872 299.807L342.872 299.783C342.868 299.392 342.864 299.016 342.86 298.653L340.86 298.673ZM340.335 292.24C340.555 292.869 340.685 293.664 340.758 294.734C340.831 295.805 340.844 297.084 340.86 298.673L342.86 298.653C342.845 297.084 342.832 295.739 342.754 294.599C342.676 293.459 342.531 292.456 342.223 291.578L340.335 292.24ZM340.586 292.501C340.441 292.438 340.364 292.324 340.335 292.24L342.223 291.578C342.093 291.206 341.816 290.856 341.392 290.67L340.586 292.501ZM311.811 291C318.221 291 324.779 291.081 330.088 291.318C332.744 291.436 335.074 291.594 336.91 291.798C338.794 292.008 340.027 292.255 340.586 292.501L341.392 290.67C340.513 290.283 338.983 290.016 337.132 289.81C335.232 289.598 332.853 289.438 330.178 289.319C324.825 289.08 318.232 289 311.811 289V291ZM312.812 290V290H310.811V290H312.812ZM311.811 289C305.438 289.002 298.918 289.085 293.629 289.325C290.986 289.445 288.636 289.605 286.76 289.815C284.931 290.02 283.419 290.286 282.546 290.67L283.352 292.501C283.906 292.258 285.123 292.012 286.983 291.803C288.796 291.6 291.096 291.443 293.72 291.324C298.965 291.086 305.45 291.003 311.812 291.001L311.811 289ZM282.546 290.67C282.122 290.856 281.846 291.206 281.715 291.578L283.603 292.24C283.574 292.324 283.497 292.438 283.352 292.501L282.546 290.67ZM281.715 291.578C281.407 292.456 281.262 293.459 281.185 294.599C281.107 295.739 281.094 297.084 281.078 298.653L283.079 298.674C283.095 297.084 283.108 295.805 283.181 294.735C283.254 293.664 283.383 292.869 283.603 292.24L281.715 291.578ZM281.078 298.653C281.074 299.016 281.071 299.392 281.066 299.783L283.067 299.807C283.071 299.414 283.075 299.036 283.079 298.674L281.078 298.653ZM282.066 298.795C279.619 298.795 278.01 299.396 277.308 300.66C276.632 301.877 277.085 303.216 277.456 303.958L279.246 303.063C278.941 302.454 278.888 301.935 279.057 301.632C279.199 301.376 279.785 300.796 282.066 300.796V298.795ZM277.761 302.702C277.101 303.184 276.651 303.685 276.376 304.315C276.12 304.904 276.057 305.531 276.004 306.123L277.996 306.302C278.053 305.677 278.102 305.365 278.211 305.113C278.303 304.902 278.473 304.66 278.941 304.319L277.761 302.702ZM276.89 307.207L279.929 307.545L280.15 305.556L277.11 305.218L276.89 307.207ZM279.046 306.662L287.827 385.022L289.816 384.799L281.034 306.439L279.046 306.662ZM288.452 385.84C295.548 388.663 300.83 389.277 311.81 389.289L311.812 387.288C300.935 387.276 295.945 386.668 289.191 383.981L288.452 385.84ZM312.812 388.288V388.288H310.811V388.288H312.812ZM311.895 387.288C311.881 387.288 311.867 387.288 311.853 387.288C311.839 387.288 311.825 387.288 311.811 387.288V389.289C311.825 389.289 311.839 389.289 311.853 389.289C311.867 389.289 311.881 389.289 311.895 389.289V387.288ZM311.894 389.289C311.971 389.289 312.049 389.289 312.127 389.289V387.288C312.05 387.288 311.972 387.288 311.896 387.288L311.894 389.289ZM313.127 388.288V388.288H311.127V388.288H313.127ZM334.747 383.981C327.993 386.668 323.003 387.276 312.126 387.288L312.128 389.288C323.108 389.277 328.391 388.663 335.487 385.84L334.747 383.981ZM342.904 306.439L334.123 384.799L336.111 385.022L344.893 306.662L342.904 306.439ZM346.828 305.218L343.788 305.556L344.009 307.545L347.049 307.207L346.828 305.218ZM344.998 304.318C345.466 304.66 345.636 304.902 345.727 305.113C345.837 305.364 345.886 305.677 345.942 306.302L347.935 306.123C347.881 305.531 347.819 304.904 347.562 304.315C347.288 303.685 346.837 303.184 346.177 302.702L344.998 304.318Z" fill="#323A45" mask="url(#path-127-outside-3)"/>
<mask id="mask14" mask-type="alpha" maskUnits="userSpaceOnUse" x="277" y="290" width="70" height="99">
<path fill-rule="evenodd" clip-rule="evenodd" d="M345.587 303.51C346.263 302.159 346.601 299.795 341.872 299.795C341.867 299.403 341.864 299.026 341.86 298.663C341.828 295.504 341.807 293.416 341.279 291.909C341.229 291.765 341.129 291.647 340.989 291.586C338.113 290.32 324.642 290 311.811 290V290C299.076 290.005 285.802 290.331 282.949 291.586C282.81 291.647 282.71 291.765 282.659 291.909C282.131 293.416 282.11 295.504 282.078 298.664C282.075 299.026 282.071 299.403 282.066 299.795C277.338 299.795 277.676 302.159 278.351 303.51C277.223 304.334 277.11 304.996 277 306.213L280.04 306.55L288.822 384.911C295.746 387.666 300.883 388.277 311.811 388.288V388.288C311.837 388.288 311.862 388.288 311.887 388.288C311.967 388.288 312.047 388.288 312.127 388.288V388.288C323.056 388.277 328.192 387.666 335.117 384.911L343.899 306.55L346.938 306.212C346.829 304.996 346.715 304.334 345.587 303.51Z" fill="#C4C4C4"/>
</mask>
<g mask="url(#mask14)">
<rect x="277" y="290" width="70.2541" height="17.2258" fill="#323A45"/>
<path d="M277.001 299.795C304.42 298.949 319.833 298.956 347.255 299.795V303.51H277.001V299.795Z" fill="#515A66"/>
</g>
<g filter="url(#filter5_i)">
<path d="M281.054 319.047H343.202L338.474 360.254C317.895 364.165 306.362 363.932 285.783 360.254L281.054 319.047Z" fill="#62A7C6"/>
</g>
<path d="M281.054 318.547C280.912 318.547 280.776 318.608 280.681 318.714C280.586 318.821 280.541 318.963 280.557 319.104L285.286 360.311C285.311 360.531 285.478 360.708 285.695 360.746C306.328 364.434 317.922 364.669 338.567 360.745C338.782 360.705 338.946 360.529 338.971 360.311L343.699 319.104C343.716 318.963 343.671 318.821 343.576 318.714C343.481 318.608 343.345 318.547 343.202 318.547H281.054Z" stroke="#323A45" stroke-width="1.00043" stroke-linecap="round" stroke-linejoin="round"/>
</g>
<defs>
<filter id="filter0_i" x="515.298" y="184.681" width="293.785" height="301.518" filterUnits="userSpaceOnUse" color-interpolation-filters="sRGB">
<feFlood flood-opacity="0" result="BackgroundImageFix"/>
<feBlend mode="normal" in="SourceGraphic" in2="BackgroundImageFix" result="shape"/>
<feColorMatrix in="SourceAlpha" type="matrix" values="0 0 0 0 0 0 0 0 0 0 0 0 0 0 0 0 0 0 127 0" result="hardAlpha"/>
<feOffset dx="-34.5799" dy="-11.5266"/>
<feComposite in2="hardAlpha" operator="arithmetic" k2="-1" k3="1"/>
<feColorMatrix type="matrix" values="0 0 0 0 0.456094 0 0 0 0 0.712666 0 0 0 0 0.7875 0 0 0 1 0"/>
<feBlend mode="normal" in2="shape" result="effect1_innerShadow"/>
</filter>
<filter id="filter1_i" x="29.4966" y="185.279" width="87.119" height="229.533" filterUnits="userSpaceOnUse" color-interpolation-filters="sRGB">
<feFlood flood-opacity="0" result="BackgroundImageFix"/>
<feBlend mode="normal" in="SourceGraphic" in2="BackgroundImageFix" result="shape"/>
<feColorMatrix in="SourceAlpha" type="matrix" values="0 0 0 0 0 0 0 0 0 0 0 0 0 0 0 0 0 0 127 0" result="hardAlpha"/>
<feOffset dx="-6" dy="4"/>
<feComposite in2="hardAlpha" operator="arithmetic" k2="-1" k3="1"/>
<feColorMatrix type="matrix" values="0 0 0 0 0.454902 0 0 0 0 0.713726 0 0 0 0 0.788235 0 0 0 1 0"/>
<feBlend mode="normal" in2="shape" result="effect1_innerShadow"/>
</filter>
<filter id="filter2_i" x="138.326" y="177.216" width="143.544" height="219.685" filterUnits="userSpaceOnUse" color-interpolation-filters="sRGB">
<feFlood flood-opacity="0" result="BackgroundImageFix"/>
<feBlend mode="normal" in="SourceGraphic" in2="BackgroundImageFix" result="shape"/>
<feColorMatrix in="SourceAlpha" type="matrix" values="0 0 0 0 0 0 0 0 0 0 0 0 0 0 0 0 0 0 127 0" result="hardAlpha"/>
<feOffset dx="-10" dy="4"/>
<feComposite in2="hardAlpha" operator="arithmetic" k2="-1" k3="1"/>
<feColorMatrix type="matrix" values="0 0 0 0 0.454902 0 0 0 0 0.713726 0 0 0 0 0.788235 0 0 0 1 0"/>
<feBlend mode="normal" in2="shape" result="effect1_innerShadow"/>
</filter>
<filter id="filter3_d" x="93" y="82" width="88" height="109" filterUnits="userSpaceOnUse" color-interpolation-filters="sRGB">
<feFlood flood-opacity="0" result="BackgroundImageFix"/>
<feColorMatrix in="SourceAlpha" type="matrix" values="0 0 0 0 0 0 0 0 0 0 0 0 0 0 0 0 0 0 127 0"/>
<feOffset dy="8"/>
<feColorMatrix type="matrix" values="0 0 0 0 0.709804 0 0 0 0 0.52549 0 0 0 0 0.360784 0 0 0 1 0"/>
<feBlend mode="normal" in2="BackgroundImageFix" result="effect1_dropShadow"/>
<feBlend mode="normal" in="SourceGraphic" in2="effect1_dropShadow" result="shape"/>
</filter>
<filter id="filter4_i" x="276" y="289" width="71.9394" height="100.289" filterUnits="userSpaceOnUse" color-interpolation-filters="sRGB">
<feFlood flood-opacity="0" result="BackgroundImageFix"/>
<feBlend mode="normal" in="SourceGraphic" in2="BackgroundImageFix" result="shape"/>
<feColorMatrix in="SourceAlpha" type="matrix" values="0 0 0 0 0 0 0 0 0 0 0 0 0 0 0 0 0 0 127 0" result="hardAlpha"/>
<feOffset dx="-10.2494" dy="-2.04988"/>
<feComposite in2="hardAlpha" operator="arithmetic" k2="-1" k3="1"/>
<feColorMatrix type="matrix" values="0 0 0 0 0 0 0 0 0 0 0 0 0 0 0 0 0 0 0.08 0"/>
<feBlend mode="normal" in2="shape" result="effect1_innerShadow"/>
</filter>
<filter id="filter5_i" x="280.054" y="318.047" width="64.1487" height="46.0543" filterUnits="userSpaceOnUse" color-interpolation-filters="sRGB">
<feFlood flood-opacity="0" result="BackgroundImageFix"/>
<feBlend mode="normal" in="SourceGraphic" in2="BackgroundImageFix" result="shape"/>
<feColorMatrix in="SourceAlpha" type="matrix" values="0 0 0 0 0 0 0 0 0 0 0 0 0 0 0 0 0 0 127 0" result="hardAlpha"/>
<feOffset dx="-10.2494"/>
<feComposite in2="hardAlpha" operator="arithmetic" k2="-1" k3="1"/>
<feColorMatrix type="matrix" values="0 0 0 0 0 0 0 0 0 0 0 0 0 0 0 0 0 0 0.07 0"/>
<feBlend mode="normal" in2="shape" result="effect1_innerShadow"/>
</filter>
</defs>
</svg>
