<svg width="783" height="459" viewBox="0 0 783 459" fill="none" xmlns="http://www.w3.org/2000/svg">
<mask id="mask0" mask-type="alpha" maskUnits="userSpaceOnUse" x="0" y="0" width="783" height="459">
<path fill-rule="evenodd" clip-rule="evenodd" d="M777.203 459H5.79729C1.98646 437.072 0 414.518 0 391.5C0 175.281 175.281 0 391.5 0C607.719 0 783 175.281 783 391.5C783 414.518 781.014 437.072 777.203 459Z" fill="#F3F3F4"/>
</mask>
<g mask="url(#mask0)">
<circle cx="391.5" cy="391.5" r="391.5" fill="#EDE3D4"/>
<circle cx="391.5" cy="391.5" r="391.5" fill="#C3E1EA"/>
<mask id="mask1" mask-type="alpha" maskUnits="userSpaceOnUse" x="0" y="0" width="783" height="783">
<path d="M783 391.5C783 607.719 607.719 783 391.5 783C175.281 783 0 607.719 0 391.5C0 175.281 175.281 0 391.5 0C489.852 0 579.733 36.2667 648.5 96.1565C710.51 64.5 722.5 136.5 710.51 164.5C756.152 228.527 783 306.878 783 391.5Z" fill="#EDE3D4"/>
</mask>
<g mask="url(#mask1)">
<path d="M470 185.374C470 181.421 472.887 178.06 476.795 177.465L588.795 160.402C593.638 159.665 598 163.413 598 168.311V539.681C598 544.222 594.225 547.853 589.688 547.675L477.688 543.3C473.394 543.133 470 539.603 470 535.306V185.374Z" fill="#E6F6FB"/>
<line x1="523" y1="170" x2="523" y2="499" stroke="#C3E1EA" stroke-width="6"/>
<path d="M380 88L599.5 34.5L637.5 42.5L380 95V88Z" fill="#DCEEF3"/>
<mask id="mask2" mask-type="alpha" maskUnits="userSpaceOnUse" x="547" y="27" width="56" height="106">
<path fill-rule="evenodd" clip-rule="evenodd" d="M568.754 27V71.3122C553.341 86.7252 541.785 119.478 549.492 129.111C554.277 133.896 560.012 133.145 568.583 132.023H568.583L568.754 132.001C577.902 130.804 580.317 130.074 588.983 127.184C600.449 122.347 601.505 119.14 602.474 110.808C601.514 97.3216 594.495 84.0723 579.35 71.3122V27H568.754ZM558.891 121.198C563.22 108.613 566.317 101.075 575.609 91.4514C576.116 90.926 576.909 90.7863 577.56 91.117C586.308 95.5576 589.678 100.958 593.803 112.735C594.654 117.427 593.002 119.004 587.06 120.441C576.637 123.247 570.347 123.95 560.409 123.458C559.277 123.402 558.522 122.27 558.891 121.198Z" fill="#C4C4C4"/>
</mask>
<g mask="url(#mask2)">
<rect x="526.372" y="13.5137" width="96.3309" height="132.937" fill="#DCEEF3"/>
<path d="M575.934 89.6149C560.286 85.9325 553.434 108.644 553.696 126.639C553.715 127.975 554.913 128.965 556.236 128.781C565.547 127.489 570.682 126.182 577 122.5L575.934 89.6149Z" fill="#A7CFDB"/>
</g>
<mask id="mask3" mask-type="alpha" maskUnits="userSpaceOnUse" x="449" y="73" width="48" height="92">
<path fill-rule="evenodd" clip-rule="evenodd" d="M467.613 73.8936V111.875C454.403 125.087 444.497 153.16 451.103 161.417C455.205 165.518 460.121 164.875 467.467 163.913L467.613 163.894C475.455 162.868 477.525 162.243 484.953 159.766C494.781 155.62 495.686 152.871 496.516 145.729C495.694 134.169 489.677 122.813 476.696 111.875V73.8936H467.613ZM459.159 154.634C462.87 143.847 465.525 137.386 473.489 129.138C473.924 128.687 474.604 128.568 475.162 128.851C482.66 132.657 485.548 137.286 489.084 147.38C489.814 151.402 488.398 152.754 483.304 153.986C474.371 156.391 468.979 156.993 460.461 156.572C459.491 156.524 458.843 155.553 459.159 154.634Z" fill="#C4C4C4"/>
</mask>
<g mask="url(#mask3)">
<rect x="431.286" y="62.3337" width="82.5694" height="113.946" fill="#DCEEF3"/>
<path d="M473.768 127.564C460.404 124.419 454.526 143.732 454.705 159.13C454.719 160.334 455.841 161.195 457.021 160.95L474.596 157.289L473.768 127.564Z" fill="#A7CFDB"/>
</g>
<path d="M219 0H387C402.474 107.272 434.455 203.349 547.5 461H219V0Z" fill="#DBEFF4"/>
<path d="M-330 -254V459H450C376.575 146.941 356.02 0.991409 330.077 -254H-330Z" fill="#FAF5EE"/>
<path d="M430.443 10.3208C435.57 18.2597 438.873 20.8964 445.427 23.0001V427.893H430.443V10.3208Z" fill="#C3E1EA"/>
<path d="M430.442 -176C435.57 -168.061 438.873 -165.424 445.427 -163.321V241.573H430.442V-176Z" fill="#DCEEF3"/>
<line x1="431.019" y1="123.59" x2="431.019" y2="216.956" stroke="#97C7D5" stroke-width="1.15266"/>
<path d="M446.003 40L446.003 228.483" stroke="#97C7D5" stroke-width="1.15266"/>
<line x1="446.003" y1="336.833" x2="446.003" y2="464.779" stroke="#97C7D5" stroke-width="1.15266"/>
<line x1="446.003" y1="175.46" x2="446.003" y2="303.406" stroke="#97C7D5" stroke-width="1.15266"/>
<line x1="431.019" y1="89.0103" x2="431.019" y2="98.2316" stroke="#97C7D5" stroke-width="1.15266"/>
<line x1="431.019" y1="39.0103" x2="431.019" y2="78.2303" stroke="#97C7D5" stroke-width="1.15266"/>
<line x1="431.019" y1="101.689" x2="431.019" y2="121.285" stroke="#97C7D5" stroke-width="1.15266"/>
<line x1="431.019" y1="380.634" x2="431.019" y2="474" stroke="#97C7D5" stroke-width="1.15266"/>
<line x1="431.019" y1="275.742" x2="431.019" y2="369.107" stroke="#97C7D5" stroke-width="1.15266"/>
<path d="M410.841 149.142C414.854 147.108 417.222 146.375 422.256 145.5C428 145.236 431.5 143.694 449 147.341C460.751 149.79 462.277 150.774 469.456 155.399L469.719 155.568C471.445 156.681 472.5 158.594 472.5 160.647V276.738C472.5 279.817 470.17 282.396 467.107 282.707L461.432 283.285C460.469 283.382 459.504 283.128 458.715 282.569L457.684 281.839C456.919 281.297 455.988 281.041 455.053 281.116L442.3 282.134C441.156 282.225 440.106 282.804 439.417 283.723L439.009 284.268C438.338 285.163 437.324 285.736 436.212 285.849L434.817 285.991L422.256 287.269C416.581 285.915 413.352 284.93 409.871 281.308C409.294 280.708 409 279.894 409 279.061V152.177C409 150.9 409.701 149.72 410.841 149.142Z" fill="#626973"/>
<mask id="mask4" mask-type="alpha" maskUnits="userSpaceOnUse" x="409" y="144" width="64" height="144">
<path d="M410.841 149.142C414.854 147.108 417.222 146.375 422.256 145.5C428 145.236 431.5 143.694 449 147.341C460.751 149.79 462.277 150.774 469.456 155.399L469.719 155.568C471.445 156.681 472.5 158.594 472.5 160.647V276.738C472.5 279.817 470.17 282.396 467.107 282.707L461.432 283.285C460.469 283.382 459.504 283.128 458.715 282.569L457.684 281.839C456.919 281.297 455.988 281.041 455.053 281.116L442.3 282.134C441.156 282.225 440.106 282.804 439.417 283.723L439.009 284.268C438.338 285.163 437.324 285.736 436.212 285.849L434.817 285.991L422.256 287.269C416.581 285.915 413.352 284.93 409.871 281.308C409.294 280.708 409 279.894 409 279.061V152.177C409 150.9 409.701 149.72 410.841 149.142Z" fill="#626973"/>
</mask>
<g mask="url(#mask4)">
<rect x="404" y="141" width="18" height="151" fill="#323A45"/>
<mask id="path-30-outside-1" maskUnits="userSpaceOnUse" x="438.999" y="238.999" width="19.0109" height="20.0104" fill="black">
<rect fill="white" x="438.999" y="238.999" width="19.0109" height="20.0104"/>
<path d="M452.494 256.968C452.189 256.894 451.88 256.588 451.815 256.296C451.773 256.106 451.825 255.974 452.149 255.448C453.457 253.321 454.026 251.362 454.027 248.985C454.028 246.688 453.526 244.901 452.278 242.758C452.01 242.298 451.791 241.87 451.791 241.809C451.791 241.581 452.018 241.25 452.263 241.121C452.6 240.943 453.164 240.977 453.434 241.19C453.537 241.272 453.807 241.645 454.032 242.018C454.925 243.496 455.537 245.117 455.839 246.805C456.025 247.849 456.061 249.828 455.911 250.783C455.634 252.547 455.081 254.12 454.194 255.66C453.659 256.592 453.323 256.975 453.041 256.975C452.985 256.975 452.893 256.987 452.838 257.001C452.781 257.015 452.627 257.001 452.494 256.968ZM448.857 255.364C448.389 255.249 448.052 254.766 448.187 254.404C448.22 254.316 448.441 253.913 448.677 253.507C449.68 251.789 450.097 249.947 449.894 248.139C449.727 246.652 449.411 245.715 448.615 244.343C448.08 243.423 448.056 243.28 448.367 242.91C448.663 242.558 449.401 242.501 449.788 242.801C450.057 243.008 450.892 244.478 451.214 245.31C452.28 248.063 452.115 251.018 450.746 253.722C450.044 255.107 449.552 255.535 448.857 255.364ZM445.106 253.738C444.817 253.628 444.569 253.37 444.501 253.111C444.46 252.953 444.531 252.778 444.874 252.193C446.136 250.046 446.15 247.977 444.919 245.879C444.379 244.957 444.367 244.774 444.825 244.41C445.051 244.231 445.147 244.2 445.464 244.2C445.996 244.2 446.272 244.425 446.747 245.247C447.477 246.512 447.776 247.609 447.773 249.014C447.769 250.458 447.489 251.45 446.707 252.783C446.259 253.546 446.038 253.747 445.59 253.798C445.453 253.814 445.236 253.787 445.106 253.738ZM441.606 252.222C441.377 252.142 441.116 251.88 441.038 251.652C440.952 251.397 441.023 251.195 441.367 250.719C441.81 250.107 441.913 249.779 441.913 248.979C441.914 248.179 441.811 247.85 441.369 247.238C441.219 247.03 441.069 246.782 441.035 246.685C440.893 246.282 441.292 245.787 441.829 245.703C442.283 245.631 442.596 245.802 443.014 246.352C444.223 247.943 444.222 250.068 443.01 251.644C442.583 252.2 442.106 252.397 441.606 252.222Z"/>
</mask>
<path d="M452.494 256.968C452.189 256.894 451.88 256.588 451.815 256.296C451.773 256.106 451.825 255.974 452.149 255.448C453.457 253.321 454.026 251.362 454.027 248.985C454.028 246.688 453.526 244.901 452.278 242.758C452.01 242.298 451.791 241.87 451.791 241.809C451.791 241.581 452.018 241.25 452.263 241.121C452.6 240.943 453.164 240.977 453.434 241.19C453.537 241.272 453.807 241.645 454.032 242.018C454.925 243.496 455.537 245.117 455.839 246.805C456.025 247.849 456.061 249.828 455.911 250.783C455.634 252.547 455.081 254.12 454.194 255.66C453.659 256.592 453.323 256.975 453.041 256.975C452.985 256.975 452.893 256.987 452.838 257.001C452.781 257.015 452.627 257.001 452.494 256.968ZM448.857 255.364C448.389 255.249 448.052 254.766 448.187 254.404C448.22 254.316 448.441 253.913 448.677 253.507C449.68 251.789 450.097 249.947 449.894 248.139C449.727 246.652 449.411 245.715 448.615 244.343C448.08 243.423 448.056 243.28 448.367 242.91C448.663 242.558 449.401 242.501 449.788 242.801C450.057 243.008 450.892 244.478 451.214 245.31C452.28 248.063 452.115 251.018 450.746 253.722C450.044 255.107 449.552 255.535 448.857 255.364ZM445.106 253.738C444.817 253.628 444.569 253.37 444.501 253.111C444.46 252.953 444.531 252.778 444.874 252.193C446.136 250.046 446.15 247.977 444.919 245.879C444.379 244.957 444.367 244.774 444.825 244.41C445.051 244.231 445.147 244.2 445.464 244.2C445.996 244.2 446.272 244.425 446.747 245.247C447.477 246.512 447.776 247.609 447.773 249.014C447.769 250.458 447.489 251.45 446.707 252.783C446.259 253.546 446.038 253.747 445.59 253.798C445.453 253.814 445.236 253.787 445.106 253.738ZM441.606 252.222C441.377 252.142 441.116 251.88 441.038 251.652C440.952 251.397 441.023 251.195 441.367 250.719C441.81 250.107 441.913 249.779 441.913 248.979C441.914 248.179 441.811 247.85 441.369 247.238C441.219 247.03 441.069 246.782 441.035 246.685C440.893 246.282 441.292 245.787 441.829 245.703C442.283 245.631 442.596 245.802 443.014 246.352C444.223 247.943 444.222 250.068 443.01 251.644C442.583 252.2 442.106 252.397 441.606 252.222Z" fill="white"/>
<path d="M452.494 256.968C452.189 256.894 451.88 256.588 451.815 256.296C451.773 256.106 451.825 255.974 452.149 255.448C453.457 253.321 454.026 251.362 454.027 248.985C454.028 246.688 453.526 244.901 452.278 242.758C452.01 242.298 451.791 241.87 451.791 241.809C451.791 241.581 452.018 241.25 452.263 241.121C452.6 240.943 453.164 240.977 453.434 241.19C453.537 241.272 453.807 241.645 454.032 242.018C454.925 243.496 455.537 245.117 455.839 246.805C456.025 247.849 456.061 249.828 455.911 250.783C455.634 252.547 455.081 254.12 454.194 255.66C453.659 256.592 453.323 256.975 453.041 256.975C452.985 256.975 452.893 256.987 452.838 257.001C452.781 257.015 452.627 257.001 452.494 256.968ZM448.857 255.364C448.389 255.249 448.052 254.766 448.187 254.404C448.22 254.316 448.441 253.913 448.677 253.507C449.68 251.789 450.097 249.947 449.894 248.139C449.727 246.652 449.411 245.715 448.615 244.343C448.08 243.423 448.056 243.28 448.367 242.91C448.663 242.558 449.401 242.501 449.788 242.801C450.057 243.008 450.892 244.478 451.214 245.31C452.28 248.063 452.115 251.018 450.746 253.722C450.044 255.107 449.552 255.535 448.857 255.364ZM445.106 253.738C444.817 253.628 444.569 253.37 444.501 253.111C444.46 252.953 444.531 252.778 444.874 252.193C446.136 250.046 446.15 247.977 444.919 245.879C444.379 244.957 444.367 244.774 444.825 244.41C445.051 244.231 445.147 244.2 445.464 244.2C445.996 244.2 446.272 244.425 446.747 245.247C447.477 246.512 447.776 247.609 447.773 249.014C447.769 250.458 447.489 251.45 446.707 252.783C446.259 253.546 446.038 253.747 445.59 253.798C445.453 253.814 445.236 253.787 445.106 253.738ZM441.606 252.222C441.377 252.142 441.116 251.88 441.038 251.652C440.952 251.397 441.023 251.195 441.367 250.719C441.81 250.107 441.913 249.779 441.913 248.979C441.914 248.179 441.811 247.85 441.369 247.238C441.219 247.03 441.069 246.782 441.035 246.685C440.893 246.282 441.292 245.787 441.829 245.703C442.283 245.631 442.596 245.802 443.014 246.352C444.223 247.943 444.222 250.068 443.01 251.644C442.583 252.2 442.106 252.397 441.606 252.222Z" stroke="#323A45" stroke-width="2.34316" mask="url(#path-30-outside-1)"/>
<mask id="path-31-outside-2" maskUnits="userSpaceOnUse" x="431.721" y="232.712" width="33.5575" height="31.5942" fill="black">
<rect fill="white" x="431.721" y="232.712" width="33.5575" height="31.5942"/>
<path fill-rule="evenodd" clip-rule="evenodd" d="M448.773 236.002C440.94 236.144 434.878 241.948 435.002 248.754C435.125 255.56 441.394 261.14 449.227 260.998C457.059 260.856 462.125 255.633 462.001 248.827C461.877 242.021 456.501 237 448.773 236.002ZM433.002 248.791C432.855 240.687 440.003 234.161 448.736 234.002C457.501 234.5 463.853 240.687 464.001 248.791C464.148 256.894 457.996 262.839 449.263 262.998C440.529 263.156 433.149 256.894 433.002 248.791Z"/>
</mask>
<path fill-rule="evenodd" clip-rule="evenodd" d="M448.773 236.002C440.94 236.144 434.878 241.948 435.002 248.754C435.125 255.56 441.394 261.14 449.227 260.998C457.059 260.856 462.125 255.633 462.001 248.827C461.877 242.021 456.501 237 448.773 236.002ZM433.002 248.791C432.855 240.687 440.003 234.161 448.736 234.002C457.501 234.5 463.853 240.687 464.001 248.791C464.148 256.894 457.996 262.839 449.263 262.998C440.529 263.156 433.149 256.894 433.002 248.791Z" fill="white"/>
<path fill-rule="evenodd" clip-rule="evenodd" d="M448.773 236.002C440.94 236.144 434.878 241.948 435.002 248.754C435.125 255.56 441.394 261.14 449.227 260.998C457.059 260.856 462.125 255.633 462.001 248.827C461.877 242.021 456.501 237 448.773 236.002ZM433.002 248.791C432.855 240.687 440.003 234.161 448.736 234.002C457.501 234.5 463.853 240.687 464.001 248.791C464.148 256.894 457.996 262.839 449.263 262.998C440.529 263.156 433.149 256.894 433.002 248.791Z" stroke="#222830" stroke-width="2" mask="url(#path-31-outside-2)"/>
<mask id="mask5" mask-type="alpha" maskUnits="userSpaceOnUse" x="435" y="168" width="26" height="36">
<path d="M435 170.202C435 169.021 436.017 168.098 437.191 168.211L459.191 170.326C460.217 170.425 461 171.286 461 172.317V202C461 203.105 460.105 204 459 204H437C435.895 204 435 203.105 435 202V170.202Z" fill="black"/>
</mask>
<g mask="url(#mask5)">
<rect x="420" y="156" width="55" height="59" fill="#323A45"/>
<ellipse cx="447.71" cy="186.322" rx="13.3163" ry="14.9725" transform="rotate(1.52697 447.71 186.322)" fill="#0C8547"/>
<path d="M442.443 187.658L446.253 191.415L453.74 182.347" stroke="white" stroke-width="2" stroke-linecap="round" stroke-linejoin="round"/>
<mask id="path-36-inside-3" fill="white">
<path d="M435 170.202C435 169.021 436.017 168.098 437.191 168.211L459.191 170.326C460.217 170.425 461 171.286 461 172.317V202C461 203.105 460.105 204 459 204H437C435.895 204 435 203.105 435 202V170.202Z"/>
</mask>
<path d="M435 170.202C435 169.021 436.017 168.098 437.191 168.211L459.191 170.326C460.217 170.425 461 171.286 461 172.317V202C461 203.105 460.105 204 459 204H437C435.895 204 435 203.105 435 202V170.202Z" stroke="#323A45" stroke-width="2" mask="url(#path-36-inside-3)"/>
</g>
<rect x="422.5" y="144.5" width="6" height="148" fill="#ED9F2E" stroke="#323A45"/>
<rect x="467.5" y="147.5" width="6" height="148" fill="#ED9F2E" stroke="#323A45"/>
</g>
<path d="M422.256 145.5V287.269M422.256 145.5C417.222 146.375 414.854 147.108 410.841 149.142C409.701 149.72 409 150.9 409 152.177V279.061C409 279.894 409.294 280.708 409.871 281.308C413.352 284.93 416.581 285.915 422.256 287.269M422.256 145.5C428 145.236 431.5 143.694 449 147.341C460.893 149.82 462.313 150.797 469.719 155.568C471.445 156.681 472.5 158.594 472.5 160.647V276.738C472.5 279.817 470.17 282.396 467.107 282.707L461.432 283.284C460.469 283.382 459.504 283.128 458.715 282.569L457.684 281.839C456.919 281.297 455.988 281.041 455.053 281.116L442.3 282.134C441.156 282.225 440.106 282.804 439.417 283.723L439.009 284.268C438.338 285.163 437.324 285.736 436.212 285.849L434.817 285.991L422.256 287.269" stroke="#323A45" stroke-width="1.15266"/>
<path d="M656.364 229.059C656.725 209.403 655.377 198.43 650.601 178.918L704.776 151.831L724.372 195.055L656.364 229.059Z" fill="#222830" stroke="#323A45" stroke-width="1.15266"/>
<mask id="path-41-outside-4" maskUnits="userSpaceOnUse" x="482.827" y="76" width="322" height="462" fill="black">
<rect fill="white" x="482.827" y="76" width="322" height="462"/>
<path d="M629.278 157.594C629.766 165.437 631.174 169.28 633.888 176.036C636.603 182.792 639.074 191.597 652.331 186.987C656.656 186.244 659.009 186.091 662.705 187.563V201.395C641.984 214.668 630.477 222.15 617.175 238.28C610.562 247.067 607.393 252.436 601.614 261.91C594.287 275.425 594.211 285.842 591.816 302.829C583.297 309.285 582.101 314.864 580.866 325.306C566.116 313.666 557.575 306.952 533.607 288.997C530.567 285.918 529.12 283.847 527.267 279.2C527.343 275.889 526.969 273.961 523.233 269.978C520.714 265.721 519.641 264.087 518.046 261.91C516.01 258.867 514.488 257.403 510.553 255.57L503.061 250.959C499.226 248.541 497.096 247.986 493.263 248.654L486.347 263.639C484.042 264.791 484.618 267.673 486.347 268.826C485.771 271.707 486.815 273.758 489.229 275.165C491.384 277.532 492.68 279.081 495.569 283.234C497.781 288.675 500.143 291.486 507.095 295.913C509.86 299.586 511.8 301.714 516.317 305.711L512.282 313.203C506.519 323.577 530.181 343.214 601.614 384.092V456.134V507.5L787.769 536V456.134L795.261 408.874C801.318 383.401 803.333 364.991 802.866 344.641C802.27 318.694 796.167 293.094 786.037 269.2C784.45 265.455 782.759 261.588 780.853 257.299C771.834 239.815 775.09 233.093 762.41 225.025C813.704 210.04 776.819 187.563 746.849 189.292C762.41 184.681 755.494 155.288 734.747 157.594C737.817 126.776 736.377 111.452 720.338 92.4682C704.3 73.484 660.618 72.873 645.415 92.4682C633.817 107.418 628.298 115.938 630.431 132.811C629.278 140.88 625.917 140.863 622.937 147.22C621.784 150.678 621.786 155.288 627.549 155.288C628.486 155.977 628.973 156.394 629.278 157.594Z"/>
</mask>
<path d="M629.278 157.594C629.766 165.437 631.174 169.28 633.888 176.036C636.603 182.792 639.074 191.597 652.331 186.987C656.656 186.244 659.009 186.091 662.705 187.563V201.395C641.984 214.668 630.477 222.15 617.175 238.28C610.562 247.067 607.393 252.436 601.614 261.91C594.287 275.425 594.211 285.842 591.816 302.829C583.297 309.285 582.101 314.864 580.866 325.306C566.116 313.666 557.575 306.952 533.607 288.997C530.567 285.918 529.12 283.847 527.267 279.2C527.343 275.889 526.969 273.961 523.233 269.978C520.714 265.721 519.641 264.087 518.046 261.91C516.01 258.867 514.488 257.403 510.553 255.57L503.061 250.959C499.226 248.541 497.096 247.986 493.263 248.654L486.347 263.639C484.042 264.791 484.618 267.673 486.347 268.826C485.771 271.707 486.815 273.758 489.229 275.165C491.384 277.532 492.68 279.081 495.569 283.234C497.781 288.675 500.143 291.486 507.095 295.913C509.86 299.586 511.8 301.714 516.317 305.711L512.282 313.203C506.519 323.577 530.181 343.214 601.614 384.092V456.134V507.5L787.769 536V456.134L795.261 408.874C801.318 383.401 803.333 364.991 802.866 344.641C802.27 318.694 796.167 293.094 786.037 269.2C784.45 265.455 782.759 261.588 780.853 257.299C771.834 239.815 775.09 233.093 762.41 225.025C813.704 210.04 776.819 187.563 746.849 189.292C762.41 184.681 755.494 155.288 734.747 157.594C737.817 126.776 736.377 111.452 720.338 92.4682C704.3 73.484 660.618 72.873 645.415 92.4682C633.817 107.418 628.298 115.938 630.431 132.811C629.278 140.88 625.917 140.863 622.937 147.22C621.784 150.678 621.786 155.288 627.549 155.288C628.486 155.977 628.973 156.394 629.278 157.594Z" fill="#CA9667"/>
<path d="M629.278 157.594C629.766 165.437 631.174 169.28 633.888 176.036C636.603 182.792 639.074 191.597 652.331 186.987C656.656 186.244 659.009 186.091 662.705 187.563V201.395C641.984 214.668 630.477 222.15 617.175 238.28C610.562 247.067 607.393 252.436 601.614 261.91C594.287 275.425 594.211 285.842 591.816 302.829C583.297 309.285 582.101 314.864 580.866 325.306C566.116 313.666 557.575 306.952 533.607 288.997C530.567 285.918 529.12 283.847 527.267 279.2C527.343 275.889 526.969 273.961 523.233 269.978C520.714 265.721 519.641 264.087 518.046 261.91C516.01 258.867 514.488 257.403 510.553 255.57L503.061 250.959C499.226 248.541 497.096 247.986 493.263 248.654L486.347 263.639C484.042 264.791 484.618 267.673 486.347 268.826C485.771 271.707 486.815 273.758 489.229 275.165C491.384 277.532 492.68 279.081 495.569 283.234C497.781 288.675 500.143 291.486 507.095 295.913C509.86 299.586 511.8 301.714 516.317 305.711L512.282 313.203C506.519 323.577 530.181 343.214 601.614 384.092V456.134V507.5L787.769 536V456.134L795.261 408.874C801.318 383.401 803.333 364.991 802.866 344.641C802.27 318.694 796.167 293.094 786.037 269.2C784.45 265.455 782.759 261.588 780.853 257.299C771.834 239.815 775.09 233.093 762.41 225.025C813.704 210.04 776.819 187.563 746.849 189.292C762.41 184.681 755.494 155.288 734.747 157.594C737.817 126.776 736.377 111.452 720.338 92.4682C704.3 73.484 660.618 72.873 645.415 92.4682C633.817 107.418 628.298 115.938 630.431 132.811C629.278 140.88 625.917 140.863 622.937 147.22C621.784 150.678 621.786 155.288 627.549 155.288C628.486 155.977 628.973 156.394 629.278 157.594Z" stroke="#323A45" stroke-width="2.76639" mask="url(#path-41-outside-4)"/>
<mask id="mask6" mask-type="alpha" maskUnits="userSpaceOnUse" x="484" y="78" width="319" height="433">
<path d="M629.278 157.594C629.766 165.437 631.174 169.28 633.888 176.036C631.583 185.258 637.346 192.75 652.331 186.987C656.656 186.244 659.009 186.091 662.705 187.563V201.395C641.984 214.668 630.477 222.15 617.175 238.28C610.562 247.067 607.393 252.436 601.614 261.91C594.287 275.425 594.211 285.842 591.816 302.829C583.297 309.285 582.101 314.864 580.866 325.306C566.116 313.666 557.575 306.952 533.607 288.997C530.567 285.918 529.12 283.847 527.267 279.2C527.343 275.889 526.969 273.961 523.233 269.978C520.714 265.721 519.641 264.087 518.046 261.91C516.01 258.867 514.488 257.403 510.553 255.57L503.061 250.959C499.226 248.541 497.096 247.986 493.263 248.654L486.347 263.639C484.042 264.791 484.618 267.673 486.347 268.826C485.771 271.707 486.815 273.758 489.229 275.165C491.384 277.532 492.68 279.081 495.569 283.234C497.781 288.675 500.143 291.486 507.095 295.913C509.86 299.586 511.8 301.714 516.317 305.711L512.282 313.203C506.519 323.577 530.181 343.214 601.614 384.092V456.134V499.5L787.769 511V456.134L795.261 408.874C801.318 383.401 803.333 364.991 802.866 344.641C802.27 318.694 796.167 293.094 786.037 269.2C784.45 265.455 782.759 261.588 780.853 257.299C771.834 239.815 775.09 233.093 762.41 225.025C813.704 210.04 776.819 187.563 746.849 189.292C762.41 184.681 755.494 155.288 734.747 157.594C737.817 126.776 736.377 111.452 720.338 92.4682C704.3 73.484 660.618 72.873 645.415 92.4682C633.817 107.418 628.298 115.938 630.431 132.811C626.137 138.735 623.613 142.016 620.633 148.372C619.48 151.83 621.786 155.288 627.549 155.288C628.486 155.977 628.973 156.394 629.278 157.594Z" fill="#C4C4C4"/>
</mask>
<g mask="url(#mask6)">
<path d="M706.126 135.117C704.36 138.974 703.579 141.501 700.754 144.279C696.54 148.424 687.634 152.093 685.502 146.58C684.818 144.812 685.259 142.193 686.531 138.575" stroke="#7C6148" stroke-width="1.15266"/>
<path fill-rule="evenodd" clip-rule="evenodd" d="M647.979 158.2C648.599 158.344 648.984 158.964 648.84 159.584C648.266 162.054 646.278 164.301 643.98 165.661C641.688 167.017 638.761 167.673 636.261 166.445C635.69 166.164 635.454 165.473 635.735 164.902C636.016 164.33 636.707 164.095 637.278 164.376C638.81 165.128 640.874 164.82 642.806 163.677C644.732 162.537 646.202 160.75 646.595 159.062C646.739 158.442 647.359 158.056 647.979 158.2Z" fill="#222830"/>
<path fill-rule="evenodd" clip-rule="evenodd" d="M648.534 122.387C644.178 121.048 641.896 120.803 638.064 121.276L637.781 118.988C641.99 118.468 644.602 118.767 649.211 120.183L648.534 122.387Z" fill="#222830"/>
<circle cx="641.38" cy="133.964" r="4.61066" fill="#222830"/>
<mask id="path-47-outside-5" maskUnits="userSpaceOnUse" x="509.452" y="183.834" width="295" height="303" fill="black">
<rect fill="white" x="509.452" y="183.834" width="295" height="303"/>
<path fill-rule="evenodd" clip-rule="evenodd" d="M752.28 185.834H752.035L733.016 192.174C732.186 196.45 732.089 198.848 733.016 203.124C724.395 206.933 722.04 210.386 718.608 216.956C715.586 226.611 713.505 231.42 709.387 238.857C701.023 240.596 697.97 248.281 692.988 260.822C692.698 261.552 692.401 262.299 692.097 263.062C673.078 260.181 665.16 253.775 659.5 244C659.5 244 662.204 213.805 661.447 202.201C641.513 214.977 630.205 222.479 617.175 238.28C611.053 246.415 607.882 251.621 602.859 259.866C602.457 260.527 602.042 261.207 601.614 261.91C595.598 273.006 594.47 282.014 592.934 294.284C592.599 296.959 592.245 299.789 591.816 302.829C583.297 309.285 582.101 314.864 580.866 325.306C566.692 314.121 558.252 307.484 536.347 291.052C532.476 300.053 530.422 305.838 527.842 320.119C522.821 313.253 520.184 310.252 515.92 306.448L512.282 313.203C506.518 323.577 530.181 343.214 601.614 384.092V456.134V467.771L783.169 484.95L787.769 456.134L795.261 408.874C801.318 383.401 803.333 364.991 802.866 344.641C802.27 318.694 796.167 293.094 786.037 269.2C784.449 265.455 782.759 261.588 780.853 257.299C777.626 251.044 775.971 246.167 774.595 242.112C772.124 234.833 770.554 230.207 762.41 225.024C813.704 210.04 776.819 187.563 746.849 189.292C749.136 188.615 750.937 187.402 752.28 185.834Z"/>
</mask>
<g filter="url(#filter0_i)">
<path fill-rule="evenodd" clip-rule="evenodd" d="M752.28 185.834H752.035L733.016 192.174C732.186 196.45 732.089 198.848 733.016 203.124C724.395 206.933 722.04 210.386 718.608 216.956C715.586 226.611 713.505 231.42 709.387 238.857C701.023 240.596 697.97 248.281 692.988 260.822C692.698 261.552 692.401 262.299 692.097 263.062C673.078 260.181 665.16 253.775 659.5 244C659.5 244 662.204 213.805 661.447 202.201C641.513 214.977 630.205 222.479 617.175 238.28C611.053 246.415 607.882 251.621 602.859 259.866C602.457 260.527 602.042 261.207 601.614 261.91C595.598 273.006 594.47 282.014 592.934 294.284C592.599 296.959 592.245 299.789 591.816 302.829C583.297 309.285 582.101 314.864 580.866 325.306C566.692 314.121 558.252 307.484 536.347 291.052C532.476 300.053 530.422 305.838 527.842 320.119C522.821 313.253 520.184 310.252 515.92 306.448L512.282 313.203C506.518 323.577 530.181 343.214 601.614 384.092V456.134V467.771L783.169 484.95L787.769 456.134L795.261 408.874C801.318 383.401 803.333 364.991 802.866 344.641C802.27 318.694 796.167 293.094 786.037 269.2C784.449 265.455 782.759 261.588 780.853 257.299C777.626 251.044 775.971 246.167 774.595 242.112C772.124 234.833 770.554 230.207 762.41 225.024C813.704 210.04 776.819 187.563 746.849 189.292C749.136 188.615 750.937 187.402 752.28 185.834Z" fill="#9ACAD8"/>
</g>
<path d="M527.597 319.598L517.799 324.209L518.29 325.251L528.088 320.641L527.597 319.598ZM752.035 185.834V184.681H751.848L751.671 184.74L752.035 185.834ZM752.28 185.834L753.155 186.584L754.785 184.681H752.28V185.834ZM733.016 192.174L732.652 191.08L732.013 191.293L731.885 191.954L733.016 192.174ZM733.016 203.124L733.482 204.178L734.342 203.798L734.143 202.88L733.016 203.124ZM718.608 216.956L717.586 216.422L717.539 216.513L717.508 216.612L718.608 216.956ZM709.387 238.857L709.621 239.985L710.139 239.877L710.395 239.415L709.387 238.857ZM692.988 260.822L691.917 260.396L692.988 260.822ZM692.097 263.062L691.924 264.202L692.828 264.339L693.167 263.49L692.097 263.062ZM659.5 244L658.352 243.897L658.32 244.261L658.503 244.578L659.5 244ZM661.447 202.201L662.597 202.126L662.47 200.176L660.825 201.231L661.447 202.201ZM617.175 238.28L616.285 237.547L616.269 237.566L616.254 237.587L617.175 238.28ZM602.859 259.866L601.875 259.267L602.859 259.866ZM601.614 261.91L600.63 261.309L600.614 261.334L600.6 261.36L601.614 261.91ZM592.934 294.284L594.078 294.427L592.934 294.284ZM591.816 302.829L592.512 303.748L592.891 303.461L592.958 302.99L591.816 302.829ZM580.866 325.306L580.152 326.211L581.769 327.487L582.01 325.442L580.866 325.306ZM536.347 291.052L537.039 290.13L535.867 289.25L535.288 290.596L536.347 291.052ZM527.842 320.119L526.912 320.8L528.499 322.97L528.976 320.324L527.842 320.119ZM515.92 306.448L516.687 305.588L515.597 304.616L514.905 305.902L515.92 306.448ZM512.282 313.203L513.29 313.763L513.294 313.756L513.297 313.75L512.282 313.203ZM601.614 384.092H602.766V383.424L602.186 383.092L601.614 384.092ZM601.614 467.771H600.461V468.819L601.505 468.918L601.614 467.771ZM783.169 484.95L783.061 486.098L784.137 486.2L784.308 485.132L783.169 484.95ZM787.769 456.134L788.907 456.315L788.907 456.314L787.769 456.134ZM795.261 408.874L794.14 408.608L794.13 408.651L794.123 408.694L795.261 408.874ZM802.866 344.641L801.713 344.667L802.866 344.641ZM786.037 269.2L784.976 269.649L784.976 269.649L786.037 269.2ZM780.853 257.299L781.906 256.831L781.893 256.8L781.877 256.771L780.853 257.299ZM774.595 242.112L775.686 241.742V241.742L774.595 242.112ZM762.41 225.024L762.087 223.918L759.646 224.631L761.791 225.997L762.41 225.024ZM746.849 189.292L746.522 188.187L746.916 190.443L746.849 189.292ZM752.035 186.987H752.28V184.681H752.035V186.987ZM733.381 193.267L752.4 186.927L751.671 184.74L732.652 191.08L733.381 193.267ZM734.143 202.88C733.254 198.783 733.341 196.545 734.148 192.393L731.885 191.954C731.03 196.355 730.923 198.913 731.89 203.368L734.143 202.88ZM719.63 217.49C721.342 214.212 722.724 211.838 724.694 209.807C726.652 207.788 729.254 206.046 733.482 204.178L732.55 202.07C728.157 204.011 725.271 205.9 723.039 208.202C720.818 210.493 719.306 213.13 717.586 216.422L719.63 217.49ZM710.395 239.415C714.555 231.905 716.665 227.023 719.708 217.3L717.508 216.612C714.507 226.199 712.456 230.936 708.378 238.298L710.395 239.415ZM694.06 261.247C696.567 254.936 698.53 250.007 700.883 246.421C703.193 242.899 705.813 240.777 709.621 239.985L709.152 237.728C704.597 238.675 701.508 241.266 698.955 245.156C696.445 248.983 694.392 254.167 691.917 260.396L694.06 261.247ZM693.167 263.49C693.472 262.726 693.769 261.978 694.06 261.247L691.917 260.396C691.627 261.127 691.331 261.873 691.026 262.635L693.167 263.49ZM658.503 244.578C661.401 249.584 664.915 253.786 670.175 257.092C675.418 260.388 682.32 262.747 691.924 264.202L692.269 261.923C682.855 260.496 676.288 258.212 671.402 255.141C666.534 252.08 663.259 248.191 660.498 243.422L658.503 244.578ZM660.297 202.276C660.669 207.99 660.189 218.364 659.607 227.378C659.317 231.87 659.003 236 658.762 239.008C658.641 240.512 658.539 241.735 658.467 242.582C658.43 243.005 658.402 243.334 658.382 243.557C658.372 243.669 658.365 243.754 658.36 243.811C658.357 243.84 658.355 243.861 658.354 243.876C658.354 243.883 658.353 243.888 658.353 243.892C658.353 243.894 658.352 243.895 658.352 243.896C658.352 243.896 658.352 243.897 658.352 243.897C658.352 243.897 658.352 243.897 659.5 244C660.648 244.103 660.648 244.103 660.648 244.102C660.648 244.102 660.648 244.102 660.649 244.101C660.649 244.1 660.649 244.099 660.649 244.097C660.649 244.093 660.65 244.088 660.65 244.08C660.652 244.066 660.654 244.044 660.656 244.015C660.661 243.957 660.669 243.871 660.679 243.759C660.698 243.534 660.727 243.203 660.763 242.778C660.836 241.928 660.939 240.701 661.06 239.193C661.302 236.177 661.617 232.033 661.908 227.526C662.488 218.541 662.981 208.016 662.597 202.126L660.297 202.276ZM660.825 201.231C640.885 214.011 629.44 221.595 616.285 237.547L618.064 239.013C630.969 223.364 642.142 215.944 662.069 203.171L660.825 201.231ZM616.254 237.587C610.095 245.77 606.9 251.017 601.875 259.267L603.844 260.466C608.863 252.225 612.01 247.06 618.096 238.973L616.254 237.587ZM601.875 259.267C601.472 259.927 601.058 260.607 600.63 261.309L602.598 262.51C603.027 261.807 603.441 261.126 603.844 260.466L601.875 259.267ZM600.6 261.36C594.471 272.668 593.326 281.874 591.79 294.141L594.078 294.427C595.615 282.153 596.726 273.345 602.627 262.459L600.6 261.36ZM591.79 294.141C591.455 296.817 591.102 299.638 590.675 302.668L592.958 302.99C593.388 299.94 593.743 297.101 594.078 294.427L591.79 294.141ZM591.12 301.911C586.742 305.228 584.167 308.385 582.552 312.115C580.958 315.797 580.337 319.962 579.721 325.171L582.01 325.442C582.63 320.208 583.225 316.363 584.668 313.031C586.089 309.747 588.371 306.886 592.512 303.748L591.12 301.911ZM581.58 324.401C567.401 313.212 558.953 306.569 537.039 290.13L535.655 291.974C557.551 308.399 565.984 315.03 580.152 326.211L581.58 324.401ZM528.976 320.324C531.541 306.131 533.569 300.43 537.406 291.507L535.288 290.596C531.384 299.675 529.304 305.544 526.708 319.914L528.976 320.324ZM515.152 307.308C519.336 311.041 521.919 313.973 526.912 320.8L528.773 319.439C523.722 312.533 521.031 309.464 516.687 305.588L515.152 307.308ZM514.905 305.902L511.267 312.657L513.297 313.75L516.935 306.995L514.905 305.902ZM511.275 312.643C509.539 315.768 510.16 319.421 512.793 323.53C515.42 327.629 520.188 332.428 527.279 338.108C541.479 349.485 565.322 364.652 601.041 385.093L602.186 383.092C566.473 362.654 542.768 347.564 528.72 336.309C521.686 330.674 517.155 326.064 514.734 322.286C512.319 318.517 512.144 315.825 513.29 313.763L511.275 312.643ZM600.461 384.092V456.134H602.766V384.092H600.461ZM600.461 456.134V467.771H602.766V456.134H600.461ZM783.278 483.803L601.722 466.623L601.505 468.918L783.061 486.098L783.278 483.803ZM784.308 485.132L788.907 456.315L786.631 455.952L782.031 484.768L784.308 485.132ZM788.907 456.314L796.4 409.055L794.123 408.694L786.631 455.953L788.907 456.314ZM796.383 409.141C802.458 383.588 804.488 365.079 804.018 344.614L801.713 344.667C802.178 364.903 800.178 383.214 794.14 408.608L796.383 409.141ZM804.018 344.614C803.418 318.505 797.278 292.762 787.098 268.75L784.976 269.649C795.056 293.427 801.121 318.883 801.713 344.667L804.018 344.614ZM787.098 268.75C785.507 264.997 783.814 261.124 781.906 256.831L779.8 257.767C781.704 262.053 783.392 265.913 784.976 269.649L787.098 268.75ZM781.877 256.771C778.692 250.596 777.059 245.787 775.686 241.742L773.503 242.483C774.883 246.547 776.561 251.492 779.829 257.827L781.877 256.771ZM775.686 241.742C774.46 238.13 773.41 235.016 771.603 232.165C769.776 229.28 767.213 226.715 763.029 224.052L761.791 225.997C765.751 228.517 768.045 230.856 769.656 233.399C771.289 235.976 772.259 238.816 773.503 242.483L775.686 241.742ZM762.734 226.131C775.598 222.373 783.216 218.077 786.74 213.588C788.531 211.306 789.292 208.934 789.078 206.573C788.865 204.235 787.71 202.062 785.96 200.119C782.481 196.258 776.435 193.062 769.474 190.936C762.483 188.801 754.422 187.7 746.783 188.141L746.916 190.443C754.262 190.019 762.05 191.079 768.801 193.141C775.581 195.212 781.17 198.247 784.247 201.662C785.775 203.358 786.628 205.083 786.782 206.782C786.934 208.458 786.421 210.26 784.926 212.165C781.875 216.051 774.87 220.184 762.087 223.918L762.734 226.131ZM747.177 190.397C749.673 189.657 751.666 188.323 753.155 186.584L751.405 185.084C750.208 186.481 748.598 187.572 746.522 188.187L747.177 190.397Z" fill="#323A45" mask="url(#path-47-outside-5)"/>
<path d="M527.5 319C523 322 523.97 324 519 324C514.029 324 510 323.747 510 318.5C510 313.253 514.5 306.5 516.5 306.5C520 309.5 523 314.5 527.5 319Z" fill="#74B6C9"/>
<path d="M709.963 149.465C699.622 164.459 697.58 171.697 662.127 186.927V193.843C676.732 190.32 688.948 187.345 709.963 167.908V149.465Z" fill="#B5865C"/>
<mask id="mask7" mask-type="alpha" maskUnits="userSpaceOnUse" x="503" y="185" width="323" height="304">
<path d="M661.551 244.62C667.21 254.395 673.077 260.181 692.096 263.062C697.632 249.197 700.535 240.697 709.386 238.857C713.505 231.42 715.586 226.611 718.608 216.956C722.04 210.386 724.395 206.933 733.016 203.124C732.088 198.848 732.185 196.45 733.016 192.174L752.035 185.834H803.905L825.805 488.985L557.811 463.626L503.059 314.932L515.739 306.287C520.11 310.169 522.75 313.156 527.842 320.119C530.453 305.666 532.525 299.915 536.487 290.726L581.441 208.311L656.94 204.853C665.585 176.036 661.551 244.62 661.551 244.62Z" fill="#046B99"/>
</mask>
<g mask="url(#mask7)">
<path d="M527.266 319.543C522.326 323.86 519.325 325.52 512.281 323.001" stroke="#323A45" stroke-width="1.15266"/>
<path d="M658.64 282.089C658.047 266.134 657.901 259.778 660 245.5L668 253.5L710.074 251.613C700.734 333.859 701.987 379.104 701.502 460.168H655.211C657.487 390.616 661.763 351.596 658.64 282.089Z" fill="#222830" stroke="#323A45" stroke-width="1.15266"/>
<path d="M708.81 385.245C708.81 393.88 702.32 400.806 694.402 400.806C686.484 400.806 679.993 393.88 679.993 385.245C679.993 376.61 686.484 369.684 694.402 369.684C702.32 369.684 708.81 376.61 708.81 385.245Z" fill="#74B6C9" stroke="#323A45" stroke-width="1.15266"/>
</g>
<mask id="path-55-outside-6" maskUnits="userSpaceOnUse" x="641.109" y="65.1096" width="140" height="132" fill="black">
<rect fill="white" x="641.109" y="65.1096" width="140" height="132"/>
<path d="M686.334 124.166C658.1 113.84 650.474 105.103 643.109 87.2812L684.605 67.1096L768.75 70.5676L779.7 173.731C760.203 178.318 746.849 192.75 733.593 193.326C726.109 194.66 721.805 196.752 713.422 195.055C699.581 190.192 697.773 185.202 701.319 173.731C704.657 164.721 706.046 159.263 707.176 151.401C707.52 149.008 707.555 146.583 707.402 144.17L707.389 143.978C706.928 136.713 706.421 128.732 701.444 122.919C697.926 118.81 692.986 125.171 687.619 124.492C687.224 124.442 686.797 124.335 686.334 124.166Z"/>
</mask>
<path d="M686.334 124.166C658.1 113.84 650.474 105.103 643.109 87.2812L684.605 67.1096L768.75 70.5676L779.7 173.731C760.203 178.318 746.849 192.75 733.593 193.326C726.109 194.66 721.805 196.752 713.422 195.055C699.581 190.192 697.773 185.202 701.319 173.731C704.657 164.721 706.046 159.263 707.176 151.401C707.52 149.008 707.555 146.583 707.402 144.17L707.389 143.978C706.928 136.713 706.421 128.732 701.444 122.919C697.926 118.81 692.986 125.171 687.619 124.492C687.224 124.442 686.797 124.335 686.334 124.166Z" fill="#222830"/>
<path d="M643.109 87.2812L642.605 86.2446L641.63 86.7189L642.044 87.7215L643.109 87.2812ZM686.334 124.166L685.938 125.249L685.939 125.249L686.334 124.166ZM687.619 124.492L687.764 123.348L687.619 124.492ZM701.444 122.919L700.568 123.668L701.444 122.919ZM707.389 143.978L706.239 144.051L706.239 144.051L707.389 143.978ZM707.402 144.17L706.251 144.243V144.243L707.402 144.17ZM707.176 151.401L708.317 151.565L707.176 151.401ZM701.319 173.731L700.238 173.331L700.227 173.36L700.217 173.391L701.319 173.731ZM713.422 195.055L713.039 196.143L713.115 196.169L713.193 196.185L713.422 195.055ZM733.593 193.326L733.543 192.175L733.467 192.178L733.391 192.192L733.593 193.326ZM779.7 173.731L779.964 174.853L780.953 174.62L780.846 173.609L779.7 173.731ZM768.75 70.5676L769.896 70.4459L769.791 69.4568L768.797 69.4159L768.75 70.5676ZM684.605 67.1096L684.652 65.9579L684.362 65.946L684.101 66.073L684.605 67.1096ZM642.044 87.7215C645.756 96.7033 649.585 103.524 656.126 109.393C662.644 115.241 671.771 120.067 685.938 125.249L686.73 123.084C672.663 117.939 663.86 113.234 657.665 107.677C651.494 102.14 647.828 95.6813 644.174 86.841L642.044 87.7215ZM685.939 125.249C686.469 125.443 686.981 125.573 687.475 125.635L687.764 123.348C687.468 123.311 687.125 123.228 686.729 123.084L685.939 125.249ZM700.568 123.668C705.252 129.138 705.772 136.699 706.239 144.051L708.54 143.905C708.084 136.727 707.591 128.325 702.319 122.169L700.568 123.668ZM706.239 144.051L706.251 144.243L708.552 144.097L708.54 143.905L706.239 144.051ZM706.035 151.237C704.918 159.009 703.551 164.388 700.238 173.331L702.4 174.132C705.763 165.055 707.174 159.517 708.317 151.565L706.035 151.237ZM700.217 173.391C698.438 179.147 697.856 183.674 699.831 187.41C701.793 191.121 706.097 193.703 713.039 196.143L713.804 193.968C706.906 191.544 703.385 189.2 701.869 186.332C700.366 183.489 700.654 179.786 702.42 174.071L700.217 173.391ZM713.193 196.185C721.862 197.939 726.536 195.755 733.795 194.461L733.391 192.192C725.682 193.565 721.749 195.564 713.65 193.926L713.193 196.185ZM733.643 194.478C740.607 194.175 747.518 190.245 754.879 186.033C762.332 181.768 770.404 177.102 779.964 174.853L779.436 172.609C769.499 174.947 761.145 179.791 753.733 184.032C746.228 188.327 739.835 191.901 733.543 192.175L733.643 194.478ZM780.846 173.609L769.896 70.4459L767.603 70.6893L778.554 173.853L780.846 173.609ZM768.797 69.4159L684.652 65.9579L684.558 68.2613L768.702 71.7193L768.797 69.4159ZM684.101 66.073L642.605 86.2446L643.613 88.3179L685.109 68.1463L684.101 66.073ZM706.251 144.243C706.401 146.598 706.365 148.941 706.035 151.237L708.317 151.565C708.675 149.075 708.709 146.568 708.552 144.097L706.251 144.243ZM687.475 125.635C689.061 125.836 690.567 125.51 691.923 125.045C693.244 124.592 694.584 123.942 695.674 123.481C696.839 122.988 697.77 122.685 698.563 122.679C699.262 122.674 699.908 122.897 700.568 123.668L702.319 122.169C701.22 120.886 699.929 120.364 698.545 120.374C697.255 120.384 695.956 120.859 694.776 121.358C693.52 121.889 692.399 122.445 691.175 122.865C689.985 123.273 688.861 123.487 687.764 123.348L687.475 125.635Z" fill="#323A45" mask="url(#path-55-outside-6)"/>
<mask id="path-57-outside-7" maskUnits="userSpaceOnUse" x="589.303" y="280.231" width="69" height="107" fill="black">
<rect fill="white" x="589.303" y="280.231" width="69" height="107"/>
<path d="M621.785 382.363L596.426 316.085C591.816 313.78 589.51 311.474 592.969 302.253C591.24 285.539 635.617 274.013 644.839 289.574C651.178 294.761 653.483 299.371 648.296 304.558L652.331 324.154L656.942 376.6C648.873 386.974 629.278 388.703 621.785 382.363Z"/>
</mask>
<path d="M621.785 382.363L596.426 316.085C591.816 313.78 589.51 311.474 592.969 302.253C591.24 285.539 635.617 274.013 644.839 289.574C651.178 294.761 653.483 299.371 648.296 304.558L652.331 324.154L656.942 376.6C648.873 386.974 629.278 388.703 621.785 382.363Z" stroke="#323A45" stroke-width="2.30533" mask="url(#path-57-outside-7)"/>
<mask id="mask8" mask-type="alpha" maskUnits="userSpaceOnUse" x="591" y="282" width="66" height="105">
<path d="M621.785 382.363L596.426 316.085C591.816 313.78 589.51 311.474 592.969 302.253C591.24 285.539 635.617 274.013 644.839 289.574C651.178 294.761 653.483 299.371 648.296 304.558L652.331 324.154L656.942 376.6C648.873 386.974 629.278 388.703 621.785 382.363Z" fill="#C4C4C4"/>
</mask>
<g mask="url(#mask8)">
<path d="M621.785 382.363L596.426 316.085C591.816 313.78 589.51 311.474 592.969 302.253C591.24 285.539 635.617 274.013 644.839 289.574C651.178 294.761 653.483 299.371 648.296 304.558L652.331 324.154L656.942 376.6C648.873 386.974 629.278 388.703 621.785 382.363Z" fill="white"/>
<mask id="path-60-outside-8" maskUnits="userSpaceOnUse" x="597.309" y="312.356" width="61" height="66" fill="black">
<rect fill="white" x="597.309" y="312.356" width="61" height="66"/>
<path d="M650.314 314.356L652.331 324.154L656.233 368.531C643.11 377.176 632.16 377.176 619.264 375.773L599.309 325.306C619.264 327.612 635.196 323.023 650.314 314.356Z"/>
</mask>
<path d="M650.314 314.356L652.331 324.154L656.233 368.531C643.11 377.176 632.16 377.176 619.264 375.773L599.309 325.306C619.264 327.612 635.196 323.023 650.314 314.356Z" fill="#62A7C6"/>
<path d="M650.314 314.356L652.331 324.154L656.233 368.531C643.11 377.176 632.16 377.176 619.264 375.773L599.309 325.306C619.264 327.612 635.196 323.023 650.314 314.356Z" stroke="#323A45" stroke-width="2.30533" mask="url(#path-60-outside-8)"/>
<path d="M657.268 289.981C658.108 295.141 654.611 300.67 647.9 305.432C641.223 310.17 631.52 314.024 620.373 315.839C609.226 317.653 598.802 317.075 590.967 314.699C583.092 312.31 578.022 308.176 577.182 303.015C576.342 297.855 579.839 292.326 586.551 287.564C593.227 282.826 602.93 278.971 614.077 277.157C625.224 275.343 635.649 275.921 643.483 278.297C651.358 280.686 656.428 284.82 657.268 289.981Z" fill="#323A45" stroke="#323A45" stroke-width="1.15266"/>
<path d="M657.131 274.99C658.123 279.365 655.213 284.756 648.385 289.988C641.687 295.121 631.73 299.661 620.099 302.298C608.467 304.936 597.526 305.134 589.269 303.393C580.851 301.617 575.901 298.008 574.909 293.634C573.917 289.259 576.827 283.869 583.656 278.636C590.354 273.503 600.31 268.963 611.942 266.326C623.574 263.689 634.514 263.49 642.771 265.232C651.189 267.007 656.139 270.616 657.131 274.99Z" fill="#323A45" stroke="#515A66" stroke-width="3.45799"/>
</g>
<path d="M758.952 372.497C756.079 341.478 753.403 324.663 746.273 295.913" stroke="#323A45" stroke-width="1.15266"/>
<mask id="path-64-outside-9" maskUnits="userSpaceOnUse" x="594.905" y="311.203" width="216" height="124" fill="black">
<rect fill="white" x="594.905" y="311.203" width="216" height="124"/>
<path d="M682.299 377.753C615.923 369.333 609.871 363.564 605.647 352.394C601.91 348.094 600.538 345.687 601.036 341.444C594.697 333.375 596.426 328.188 601.036 329.917C598.155 328.188 599.884 324.154 605.071 324.73C610.827 325.37 617.117 326.258 631.006 329.917C635.564 327.525 642.155 325.801 653.483 324.154L651.177 313.203C661.145 316.938 665.376 319.705 670.196 325.883C677.549 331.26 680.193 334.103 684.605 339.138C687.081 343.143 690.127 345.116 700.742 347.783L728.982 359.31C743.939 366.09 755.215 370.493 765.867 373.65C776.762 376.879 787.006 378.804 799.871 380.634L809.092 411.18V433.08C748.259 421.605 713.19 415.402 684.605 396.195C685.057 389.816 685.983 386.395 689.215 380.634C687.136 379.744 684.449 378.7 682.299 377.753Z"/>
</mask>
<path d="M682.299 377.753C615.923 369.333 609.871 363.564 605.647 352.394C601.91 348.094 600.538 345.687 601.036 341.444C594.697 333.375 596.426 328.188 601.036 329.917C598.155 328.188 599.884 324.154 605.071 324.73C610.827 325.37 617.117 326.258 631.006 329.917C635.564 327.525 642.155 325.801 653.483 324.154L651.177 313.203C661.145 316.938 665.376 319.705 670.196 325.883C677.549 331.26 680.193 334.103 684.605 339.138C687.081 343.143 690.127 345.116 700.742 347.783L728.982 359.31C743.939 366.09 755.215 370.493 765.867 373.65C776.762 376.879 787.006 378.804 799.871 380.634L809.092 411.18V433.08C748.259 421.605 713.19 415.402 684.605 396.195C685.057 389.816 685.983 386.395 689.215 380.634C687.136 379.744 684.449 378.7 682.299 377.753Z" fill="#9ACAD8"/>
<path d="M809.166 410.608C756.575 403.792 729.318 397.18 689.442 380.104L688.988 381.164C728.988 398.292 756.353 404.925 809.018 411.751L809.166 410.608ZM682.299 377.753L682.764 376.698L682.611 376.63L682.444 376.609L682.299 377.753ZM605.647 352.394L606.725 351.986L606.652 351.793L606.517 351.638L605.647 352.394ZM601.036 341.444L602.181 341.578L602.237 341.106L601.943 340.731L601.036 341.444ZM601.036 329.917L600.632 330.996L601.629 328.929L601.036 329.917ZM605.071 324.73L604.944 325.876L605.071 324.73ZM631.006 329.917L630.712 331.032L631.145 331.146L631.541 330.938L631.006 329.917ZM653.483 324.154L653.649 325.294L654.864 325.118L654.611 323.916L653.483 324.154ZM651.177 313.203L651.582 312.124L649.617 311.388L650.049 313.441L651.177 313.203ZM670.196 325.883L669.288 326.592L669.386 326.718L669.516 326.813L670.196 325.883ZM684.605 339.138L685.585 338.532L685.535 338.451L685.472 338.379L684.605 339.138ZM700.742 347.783L701.177 346.716L701.102 346.685L701.023 346.665L700.742 347.783ZM728.982 359.31L729.458 358.26L729.438 358.251L729.418 358.243L728.982 359.31ZM799.871 380.634L800.974 380.301L800.762 379.597L800.033 379.493L799.871 380.634ZM809.092 411.18H810.245V411.01L810.196 410.847L809.092 411.18ZM765.867 373.65L765.54 374.755L765.867 373.65ZM689.215 380.634L690.22 381.198L690.848 380.08L689.669 379.575L689.215 380.634ZM684.605 396.195L683.455 396.114L683.408 396.78L683.962 397.152L684.605 396.195ZM809.092 433.08L808.879 434.213L810.245 434.471V433.08H809.092ZM682.444 376.609C649.242 372.398 631.265 368.863 621.072 365.026C615.997 363.116 612.936 361.161 610.895 359.078C608.861 357.003 607.76 354.723 606.725 351.986L604.569 352.802C605.646 355.65 606.885 358.28 609.248 360.692C611.604 363.095 614.997 365.203 620.26 367.184C630.743 371.129 648.98 374.688 682.154 378.896L682.444 376.609ZM606.517 351.638C604.655 349.495 603.478 347.928 602.805 346.426C602.156 344.976 601.952 343.528 602.181 341.578L599.892 341.309C599.622 343.602 599.855 345.479 600.702 347.369C601.525 349.207 602.903 350.993 604.777 353.15L606.517 351.638ZM601.943 340.731C598.83 336.77 597.907 333.76 598.077 332.125C598.156 331.355 598.453 331.021 598.731 330.877C599.048 330.712 599.654 330.63 600.632 330.996L601.441 328.838C600.113 328.34 598.774 328.257 597.669 328.831C596.524 329.425 595.92 330.569 595.784 331.888C595.52 334.43 596.903 338.048 600.13 342.156L601.943 340.731ZM601.629 328.929C601.127 328.627 600.91 328.281 600.836 328.001C600.762 327.721 600.8 327.398 601.005 327.07C601.415 326.415 602.627 325.618 604.944 325.876L605.198 323.584C602.328 323.265 600.082 324.198 599.05 325.848C598.535 326.672 598.357 327.647 598.607 328.591C598.857 329.536 599.505 330.343 600.443 330.905L601.629 328.929ZM604.944 325.876C610.641 326.509 616.875 327.386 630.712 331.032L631.299 328.802C617.36 325.13 611.014 324.231 605.198 323.584L604.944 325.876ZM631.541 330.938C635.914 328.643 642.337 326.939 653.649 325.294L653.317 323.013C641.972 324.663 635.214 326.408 630.47 328.896L631.541 330.938ZM654.611 323.916L652.305 312.966L650.049 313.441L652.355 324.391L654.611 323.916ZM650.773 314.283C655.729 316.14 659.182 317.729 661.979 319.587C664.758 321.433 666.933 323.575 669.288 326.592L671.105 325.174C668.639 322.013 666.289 319.682 663.255 317.667C660.24 315.663 656.593 314.001 651.582 312.124L650.773 314.283ZM669.516 326.813C676.782 332.128 679.365 334.907 683.738 339.898L685.472 338.379C681.021 333.299 678.315 330.393 670.877 324.952L669.516 326.813ZM683.624 339.744C684.951 341.89 686.468 343.535 689.063 344.971C691.6 346.375 695.138 347.564 700.461 348.901L701.023 346.665C695.732 345.336 692.439 344.205 690.18 342.954C687.979 341.736 686.735 340.392 685.585 338.532L683.624 339.744ZM700.306 348.85L728.547 360.377L729.418 358.243L701.177 346.716L700.306 348.85ZM798.768 380.967L807.989 411.513L810.196 410.847L800.974 380.301L798.768 380.967ZM728.506 360.36C743.489 367.152 754.818 371.578 765.54 374.755L766.195 372.545C755.612 369.409 744.389 365.029 729.458 358.26L728.506 360.36ZM765.54 374.755C776.51 378.006 786.815 379.941 799.709 381.775L800.033 379.493C787.197 377.666 777.014 375.751 766.195 372.545L765.54 374.755ZM689.669 379.575C687.5 378.646 684.942 377.658 682.764 376.698L681.834 378.807C683.955 379.742 686.773 380.842 688.762 381.694L689.669 379.575ZM688.21 380.07C686.569 382.995 685.486 385.374 684.761 387.86C684.036 390.344 683.684 392.885 683.455 396.114L685.754 396.277C685.978 393.126 686.314 390.767 686.974 388.505C687.633 386.246 688.629 384.034 690.22 381.198L688.21 380.07ZM683.962 397.152C712.79 416.522 748.143 422.756 808.879 434.213L809.306 431.948C748.375 420.454 713.59 414.283 685.247 395.238L683.962 397.152ZM810.245 433.08V411.18H807.94V433.08H810.245Z" fill="#323A45" mask="url(#path-64-outside-9)"/>
<mask id="mask9" mask-type="alpha" maskUnits="userSpaceOnUse" x="596" y="313" width="214" height="121">
<path d="M682.299 377.753C615.923 369.333 609.871 363.564 605.647 352.394C601.91 348.094 600.538 345.687 601.036 341.444C594.697 333.375 596.426 328.188 601.036 329.917C598.155 328.188 599.884 324.154 605.071 324.73C610.827 325.37 617.117 326.258 631.006 329.917C635.564 327.525 642.155 325.801 653.483 324.154L651.177 313.203C661.145 316.938 665.376 319.705 670.196 325.883C677.549 331.26 680.193 334.103 684.605 339.138C687.081 343.143 690.127 345.116 700.742 347.783L728.982 359.31C743.939 366.09 755.215 370.493 765.867 373.65C776.762 376.879 787.006 378.804 799.871 380.634L809.092 411.18V433.08C748.259 421.605 713.19 415.402 684.605 396.195C685.057 389.816 685.983 386.395 689.215 380.634C687.136 379.744 684.449 378.7 682.299 377.753Z" fill="#046B99"/>
</mask>
<g mask="url(#mask9)">
<mask id="path-67-outside-10" maskUnits="userSpaceOnUse" x="588.663" y="296.795" width="110" height="107" fill="black">
<rect fill="white" x="588.663" y="296.795" width="110" height="107"/>
<path d="M590.663 298.795H696.708C694.057 339.851 691.788 363.783 688.346 380.634C686.669 388.844 638.031 374.625 635.617 380.634L590.663 401.382V298.795Z"/>
</mask>
<path d="M590.663 298.795H696.708C694.057 339.851 691.788 363.783 688.346 380.634C686.669 388.844 638.031 374.625 635.617 380.634L590.663 401.382V298.795Z" fill="#CA9667"/>
<path d="M590.663 298.795H696.708C694.057 339.851 691.788 363.783 688.346 380.634C686.669 388.844 638.031 374.625 635.617 380.634L590.663 401.382V298.795Z" stroke="#323A45" stroke-width="2.30533" mask="url(#path-67-outside-10)"/>
<path d="M599.308 328.764C607.377 340.291 621.292 341.139 644.838 339.715" stroke="#323A45" stroke-width="1.15266"/>
<path d="M599.308 340.867C611.657 349.456 621.926 351.783 638.498 352.394M604.495 352.394C609.693 357.872 619.53 360.375 638.498 364.497" stroke="#323A45" stroke-width="1.15266"/>
</g>
</g>
<path d="M485.77 268.826C487.99 268.648 489.675 268.2 491.533 267.097M491.533 267.097C494.194 265.518 493.069 263.958 491.533 261.91C494.268 264.16 496.358 265.866 499.026 267.673M491.533 267.097C494.541 267.022 495.023 269.402 494.415 271.131C493.696 273.18 491.698 274.888 489.804 276.895" stroke="#323A45" stroke-width="1.15266"/>
<path d="M463.536 227.436L460.542 243.902C460.462 244.341 460.642 244.786 461.004 245.045L489.436 265.43C490.133 265.93 491.114 265.519 491.246 264.671L493.732 248.762C493.798 248.341 493.626 247.918 493.285 247.662L465.362 226.72C464.676 226.206 463.689 226.593 463.536 227.436Z" fill="#046B99" stroke="#323A45" stroke-width="1.15266"/>
<path d="M465.897 242L483.635 254.926" stroke="#9ACAD8" stroke-width="2" stroke-linecap="round" stroke-linejoin="round"/>
<path d="M466.884 234.044C466.935 233.582 467.469 233.352 467.84 233.63L470.726 235.794C470.896 235.922 470.986 236.13 470.962 236.341L470.616 239.456C470.565 239.918 470.031 240.148 469.66 239.87L466.774 237.706C466.604 237.578 466.514 237.37 466.538 237.159L466.884 234.044Z" fill="#9ACAD8"/>
<path d="M506.518 257.876C513.62 261.063 517.446 263.269 523.231 269.979L515.739 290.727L515.637 290.688C512.17 289.357 511.117 288.953 509.976 284.387C507.67 277.471 503.636 277.471 505.941 268.25C502.566 263.772 500.388 262.094 496.144 260.181C492.904 258.827 491.141 257.218 488.651 252.689C486.346 249.807 488.651 246.349 492.686 248.654C495.753 250.084 497.508 251.096 500.754 253.841C503.057 255.008 504.336 255.784 506.518 257.876Z" fill="#CA9667"/>
<path d="M523.231 269.979L523.773 270.174L523.888 269.857L523.668 269.602L523.231 269.979ZM506.518 257.876L506.119 258.292L506.191 258.361L506.282 258.401L506.518 257.876ZM500.754 253.841L500.382 254.281L500.434 254.325L500.494 254.355L500.754 253.841ZM492.686 248.654L492.4 249.155L492.42 249.167L492.442 249.177L492.686 248.654ZM488.651 252.689L489.156 252.411L489.132 252.367L489.101 252.329L488.651 252.689ZM496.144 260.181L496.38 259.656L496.373 259.652L496.366 259.649L496.144 260.181ZM505.941 268.25L506.5 268.389C506.543 268.221 506.506 268.042 506.402 267.903L505.941 268.25ZM509.976 284.387L510.535 284.247L510.529 284.226L510.522 284.205L509.976 284.387ZM515.637 290.688L515.844 290.149L515.844 290.149L515.637 290.688ZM515.739 290.727L515.532 291.265L516.081 291.475L516.281 290.922L515.739 290.727ZM523.668 269.602C520.754 266.222 518.316 263.957 515.698 262.133C513.084 260.313 510.312 258.946 506.754 257.35L506.282 258.401C509.827 259.992 512.518 261.323 515.039 263.079C517.556 264.833 519.924 267.025 522.795 270.355L523.668 269.602ZM506.916 257.46C504.685 255.32 503.355 254.513 501.015 253.327L500.494 254.355C502.758 255.503 503.987 256.248 506.119 258.292L506.916 257.46ZM501.126 253.401C497.837 250.62 496.039 249.581 492.929 248.132L492.442 249.177C495.468 250.587 497.178 251.572 500.382 254.281L501.126 253.401ZM492.972 248.154C490.819 246.924 488.892 247.124 487.851 248.354C486.833 249.558 486.928 251.457 488.201 253.049L489.101 252.329C488.07 251.039 488.165 249.768 488.731 249.099C489.275 248.455 490.518 248.079 492.4 249.155L492.972 248.154ZM488.146 252.966C489.402 255.251 490.497 256.841 491.712 258.036C492.936 259.24 494.256 260.017 495.921 260.713L496.366 259.649C494.792 258.991 493.611 258.286 492.521 257.214C491.422 256.134 490.39 254.655 489.156 252.411L488.146 252.966ZM495.907 260.706C498.004 261.652 499.561 262.525 501.005 263.701C502.451 264.878 503.807 266.376 505.481 268.597L506.402 267.903C504.7 265.645 503.28 264.066 501.732 262.807C500.182 261.545 498.527 260.623 496.38 259.656L495.907 260.706ZM505.382 268.11C504.206 272.816 504.628 275.269 505.714 277.44C506.23 278.473 506.915 279.469 507.554 280.54C508.206 281.634 508.87 282.892 509.429 284.569L510.522 284.205C509.929 282.424 509.223 281.089 508.543 279.949C507.849 278.786 507.237 277.91 506.745 276.925C505.813 275.062 505.371 272.905 506.5 268.389L505.382 268.11ZM509.416 284.527C509.991 286.825 510.569 288.202 511.527 289.159C512.471 290.101 513.734 290.575 515.431 291.226L515.844 290.149C514.073 289.47 513.076 289.076 512.341 288.343C511.621 287.623 511.102 286.515 510.535 284.247L509.416 284.527ZM515.431 291.226L515.532 291.265L515.945 290.188L515.844 290.149L515.431 291.226ZM516.281 290.922L523.773 270.174L522.689 269.783L515.197 290.531L516.281 290.922Z" fill="#323A45"/>
<path d="M523.232 270.555L514.587 294.184" stroke="#CA9667" stroke-width="1.729"/>
</g>
<mask id="mask10" mask-type="alpha" maskUnits="userSpaceOnUse" x="0" y="2" width="450" height="457">
<path fill-rule="evenodd" clip-rule="evenodd" d="M346.06 2.60889C151.247 25.1262 0 190.65 0 391.5C0 414.518 1.98646 437.072 5.79729 459H450C393.544 291.075 363.005 165.347 346.06 2.60889Z" fill="#DCEEF3"/>
</mask>
<g mask="url(#mask10)">
<path d="M212 320V346.5" stroke="#222830"/>
<circle cx="391.5" cy="391.5" r="391.5" fill="#EDE3D4"/>
<mask id="mask11" mask-type="alpha" maskUnits="userSpaceOnUse" x="0" y="0" width="783" height="783">
<circle cx="391.5" cy="391.5" r="391.5" fill="#C3E1EA"/>
</mask>
<g mask="url(#mask11)">
<rect x="210" y="87" width="180" height="146" rx="8" fill="#FAF5EE"/>
<path d="M232.5 259.5H427L440 277H214L232.5 259.5Z" fill="#FAF5EE"/>
<rect x="263" y="266" width="9" height="120" fill="#FAF5EE"/>
<rect x="214" y="277" width="314" height="6" fill="#DECFB7"/>
<rect x="209" y="162" width="6" height="194" transform="rotate(-90 209 162)" fill="#EDE3D4"/>
<rect x="304" y="71" width="6" height="164" fill="#EDE3D4"/>
<path d="M102.244 138H163.744V243H93.7436C89.8182 201.831 92.4655 178.857 102.244 138Z" fill="#222830" stroke="#222830"/>
<mask id="path-88-outside-11" maskUnits="userSpaceOnUse" x="44.6621" y="168" width="233" height="275" fill="black">
<rect fill="white" x="44.6621" y="168" width="233" height="275"/>
<path d="M47.9992 366V393.5V442H272.999V367L270.999 360C280.499 356.5 275.729 350.349 269.499 341C268.528 329.736 264.619 323.932 238.499 316.5C241.799 280.998 243.07 261.084 240.999 225.5C239.499 208 240.999 202.5 222.499 194.5C209.698 190.16 200.768 189.887 183.999 191C177.073 184.629 173.116 182.268 165.999 179L158.999 170L107.999 172.5L110.499 187.5C100.502 193.74 95.5066 198.551 86.9992 208C54.5738 222.943 45.1271 235.87 51.4992 271C46.2163 294.679 45.6105 316.115 47.9992 366Z"/>
</mask>
<path d="M47.9992 366V393.5V442H272.999V367L270.999 360C280.499 356.5 275.729 350.349 269.499 341C268.528 329.736 264.619 323.932 238.499 316.5C241.799 280.998 243.07 261.084 240.999 225.5C239.499 208 240.999 202.5 222.499 194.5C209.698 190.16 200.768 189.887 183.999 191C177.073 184.629 173.116 182.268 165.999 179L158.999 170L107.999 172.5L110.499 187.5C100.502 193.74 95.5066 198.551 86.9992 208C54.5738 222.943 45.1271 235.87 51.4992 271C46.2163 294.679 45.6105 316.115 47.9992 366Z" fill="#CA9667"/>
<path d="M47.9992 366V393.5V442H272.999V367L270.999 360C280.499 356.5 275.729 350.349 269.499 341C268.528 329.736 264.619 323.932 238.499 316.5C241.799 280.998 243.07 261.084 240.999 225.5C239.499 208 240.999 202.5 222.499 194.5C209.698 190.16 200.768 189.887 183.999 191C177.073 184.629 173.116 182.268 165.999 179L158.999 170L107.999 172.5L110.499 187.5C100.502 193.74 95.5066 198.551 86.9992 208C54.5738 222.943 45.1271 235.87 51.4992 271C46.2163 294.679 45.6105 316.115 47.9992 366Z" stroke="#222830" stroke-width="2" mask="url(#path-88-outside-11)"/>
<mask id="mask12" mask-type="alpha" maskUnits="userSpaceOnUse" x="46" y="170" width="231" height="272">
<path d="M47.9992 366V393.5V442H272.999V367L270.999 360C280.499 356.5 275.729 350.349 269.499 341C268.528 329.736 264.619 323.932 238.499 316.5C241.799 280.998 243.07 261.084 240.999 225.5C239.499 208 240.999 202.5 222.499 194.5C209.698 190.16 200.768 189.887 183.999 191C177.073 184.629 173.116 182.268 165.999 179L158.999 170L107.999 172.5L110.499 187.5C100.502 193.74 95.5066 198.551 86.9992 208C54.5738 222.943 45.1271 235.87 51.4992 271C46.2163 294.679 45.6105 316.115 47.9992 366Z" fill="#C4C4C4"/>
</mask>
<g mask="url(#mask12)">
<path d="M150.5 222.5C118.348 232.75 94 234 92 218L59 279L51.5 399H164L150.5 222.5Z" fill="#222830" stroke="#222830"/>
<g filter="url(#filter1_i)">
<path d="M70.5 276C62.2844 325.758 65.6595 349.826 67 395L32.5 414L25 318L40.5 229.5L60.5 213.5L109.5 186C109.5 186 110.48 188.609 111 191C111.628 193.887 109.5 199 109.5 199C100.377 209.458 97.938 215.581 91.5 227C80.5334 244.632 76.2557 255.531 70.5 276Z" fill="#9ACAD8"/>
</g>
<path d="M70.5 276C62.2844 325.758 65.6595 349.826 67 395L32.5 414L25 318L40.5 229.5L60.5 213.5L109.5 186C109.5 186 110.48 188.609 111 191C111.628 193.887 109.5 199 109.5 199C100.377 209.458 97.938 215.581 91.5 227C80.5334 244.632 76.2557 255.531 70.5 276Z" stroke="#222830"/>
<g filter="url(#filter2_i)">
<path fill-rule="evenodd" clip-rule="evenodd" d="M165.331 178.141C147.409 212.861 141.024 238.391 135.999 289.5C133.216 322.445 132.99 340.656 135.999 372.5L272.999 396.307V367L270.999 360C280.006 356.682 276.186 350.981 270.456 342.43C270.142 341.962 269.823 341.485 269.499 341C268.528 329.736 264.619 323.932 238.499 316.5C241.8 280.998 243.07 261.084 240.999 225.5C240.855 223.815 240.738 222.242 240.629 220.766C239.603 206.918 239.218 201.73 222.499 194.5C209.698 190.16 200.768 189.887 183.999 191C177.073 184.629 173.116 182.268 165.999 179L165.331 178.141Z" fill="#9ACAD8"/>
</g>
<path d="M165.331 178.141L165.726 177.834L165.245 177.216L164.887 177.911L165.331 178.141ZM135.999 289.5L135.502 289.451L135.501 289.458L135.999 289.5ZM135.999 372.5L135.501 372.547L135.537 372.927L135.914 372.993L135.999 372.5ZM272.999 396.307L272.914 396.799L273.499 396.901V396.307H272.999ZM272.999 367H273.499V366.93L273.48 366.863L272.999 367ZM270.999 360L270.826 359.531L270.391 359.691L270.518 360.137L270.999 360ZM270.456 342.43L270.041 342.709L270.456 342.43ZM269.499 341L269.001 341.043L269.012 341.171L269.083 341.277L269.499 341ZM238.499 316.5L238.001 316.454L237.963 316.867L238.362 316.981L238.499 316.5ZM240.999 225.5L241.499 225.471L241.497 225.457L240.999 225.5ZM240.629 220.766L240.13 220.803L240.629 220.766ZM222.499 194.5L222.698 194.041L222.679 194.033L222.66 194.026L222.499 194.5ZM183.999 191L183.661 191.368L183.818 191.513L184.032 191.499L183.999 191ZM165.999 179L165.605 179.307L165.68 179.403L165.791 179.454L165.999 179ZM164.887 177.911C146.927 212.705 140.53 238.302 135.502 289.451L136.497 289.549C141.517 238.479 147.892 213.016 165.775 178.37L164.887 177.911ZM135.501 289.458C132.715 322.428 132.489 340.669 135.501 372.547L136.497 372.453C133.491 340.643 133.716 322.463 136.497 289.542L135.501 289.458ZM135.914 372.993L272.914 396.799L273.085 395.814L136.085 372.007L135.914 372.993ZM273.499 396.307V367H272.499V396.307H273.499ZM273.48 366.863L271.48 359.863L270.518 360.137L272.518 367.137L273.48 366.863ZM271.172 360.469C273.468 359.623 275.023 358.599 275.925 357.35C276.842 356.08 277.037 354.641 276.745 353.085C276.457 351.547 275.69 349.871 274.659 348.068C273.625 346.261 272.301 344.285 270.871 342.152L270.041 342.709C271.476 344.85 272.778 346.794 273.791 348.564C274.806 350.339 275.505 351.898 275.762 353.269C276.016 354.622 275.836 355.765 275.114 356.765C274.378 357.784 273.034 358.717 270.826 359.531L271.172 360.469ZM270.871 342.152C270.557 341.684 270.238 341.207 269.915 340.723L269.083 341.277C269.407 341.763 269.727 342.241 270.041 342.709L270.871 342.152ZM269.997 340.957C269.506 335.263 268.261 330.844 263.758 326.935C259.303 323.069 251.699 319.736 238.636 316.019L238.362 316.981C251.418 320.696 258.829 323.981 263.102 327.691C267.326 331.357 268.521 335.473 269.001 341.043L269.997 340.957ZM238.997 316.546C242.299 281.031 243.572 261.09 241.498 225.471L240.5 225.529C242.569 261.078 241.3 280.964 238.001 316.454L238.997 316.546ZM241.497 225.457C241.353 223.776 241.237 222.205 241.128 220.73L240.13 220.803C240.24 222.278 240.356 223.855 240.501 225.543L241.497 225.457ZM241.128 220.73C240.617 213.843 240.266 208.951 237.88 204.898C235.481 200.822 231.078 197.665 222.698 194.041L222.301 194.959C230.639 198.565 234.788 201.616 237.018 205.405C239.261 209.215 239.614 213.841 240.13 220.803L241.128 220.73ZM222.66 194.026C209.767 189.655 200.762 189.386 183.966 190.501L184.032 191.499C200.775 190.388 209.628 190.664 222.339 194.973L222.66 194.026ZM184.338 190.632C177.369 184.222 173.368 181.833 166.208 178.546L165.791 179.454C172.865 182.703 176.776 185.036 183.661 191.368L184.338 190.632ZM166.394 178.693L165.726 177.834L164.936 178.448L165.605 179.307L166.394 178.693Z" fill="#222830"/>
<path d="M204 249C198.831 301.537 194.133 328.837 184.5 376" stroke="#222830"/>
<mask id="path-95-outside-12" maskUnits="userSpaceOnUse" x="180" y="308.5" width="109" height="92" fill="black">
<rect fill="white" x="180" y="308.5" width="109" height="92"/>
<path d="M192.5 360.5C183.405 360.586 181.693 363.018 181 369V398.5L287.5 379V344.5L266 310.5L239 316.5C232.944 316.007 229.556 315.739 223.5 316.5C214.29 317.651 210.736 320.378 209.5 332C207.081 335.469 206.227 341.039 205.5 356L192.5 360.5Z"/>
</mask>
<path d="M192.5 360.5C183.405 360.586 181.693 363.018 181 369V398.5L287.5 379V344.5L266 310.5L239 316.5C232.944 316.007 229.556 315.739 223.5 316.5C214.29 317.651 210.736 320.378 209.5 332C207.081 335.469 206.227 341.039 205.5 356L192.5 360.5Z" fill="#CA9667"/>
<path d="M192.5 360.5C183.405 360.586 181.693 363.018 181 369V398.5L287.5 379V344.5L266 310.5L239 316.5C232.944 316.007 229.556 315.739 223.5 316.5C214.29 317.651 210.736 320.378 209.5 332C207.081 335.469 206.227 341.039 205.5 356L192.5 360.5Z" stroke="#222830" stroke-width="2" mask="url(#path-95-outside-12)"/>
<path d="M239.502 341C238.615 344.086 238.62 345.716 239.002 348.5" stroke="#7C6148"/>
<path d="M250.001 333C246.014 336.385 244.514 339.325 245.001 349" stroke="#7C6148"/>
<path d="M244.5 329C239.186 333.228 237.075 336.073 234 341.5" stroke="#7C6148"/>
<path d="M247.5 351C249.374 352.452 250.448 353.437 252.5 356" stroke="#7C6148"/>
<path d="M254.5 336C249.94 338.856 247.883 341.092 245 346" stroke="#7C6148"/>
<path d="M222 347C233.699 345.621 240.121 345.166 248.5 351.5C249.091 358.017 250.861 357.193 243 363.5L222 365V347Z" fill="#B5865C"/>
<g filter="url(#filter3_d)">
<ellipse cx="132" cy="132.5" rx="44" ry="50.5" fill="#CA9667"/>
</g>
<path d="M240 367.5L239.6 367.2L239.543 367.276L239.518 367.368L240 367.5ZM237 378.5L236.518 378.368L236.317 379.105L237.072 378.995L237 378.5ZM257.5 375.5L257.572 375.995L257.638 375.985L257.7 375.958L257.5 375.5ZM264.5 369.5L264.954 369.709L264.964 369.688L264.971 369.666L264.5 369.5ZM248.743 355.976L248.243 355.994L248.743 355.976ZM248.78 354.114L248.281 354.08L248.78 354.114ZM230.043 347.498C233.758 347.177 236.641 347.014 239.285 347.453C241.909 347.888 244.319 348.921 247.058 351.038L247.669 350.246C244.816 348.041 242.255 346.932 239.449 346.466C236.665 346.004 233.663 346.181 229.957 346.502L230.043 347.498ZM248.281 354.08C248.233 354.785 248.222 355.401 248.243 355.994L249.242 355.959C249.223 355.403 249.233 354.823 249.279 354.148L248.281 354.08ZM246.628 359.577C243.871 361.706 242.139 363.821 239.6 367.2L240.4 367.8C242.929 364.435 244.594 362.411 247.239 360.368L246.628 359.577ZM239.518 367.368L236.518 378.368L237.482 378.632L240.482 367.632L239.518 367.368ZM237.072 378.995L257.572 375.995L257.428 375.005L236.928 378.005L237.072 378.995ZM257.7 375.958C259.847 375.023 261.331 374.2 262.445 373.232C263.57 372.255 264.291 371.154 264.954 369.709L264.046 369.291C263.421 370.651 262.775 371.621 261.789 372.477C260.791 373.344 259.418 374.119 257.3 375.042L257.7 375.958ZM264.971 369.666L267.971 361.166L267.029 360.834L264.029 369.334L264.971 369.666ZM267.99 361.098C269.622 352.969 270.001 346.504 269.5 334.978L268.5 335.022C268.999 346.496 268.621 352.875 267.01 360.902L267.99 361.098ZM267.556 361.497C270.6 361.151 272.271 360.515 275.17 359.47L274.83 358.53C271.929 359.576 270.358 360.172 267.444 360.503L267.556 361.497ZM248.243 355.994C248.293 357.397 247.715 358.737 246.628 359.577L247.239 360.368C248.604 359.314 249.303 357.653 249.242 355.959L248.243 355.994ZM247.058 351.038C247.948 351.726 248.364 352.881 248.281 354.08L249.279 354.148C249.379 352.696 248.881 351.183 247.669 350.246L247.058 351.038Z" fill="#222830"/>
<path d="M240 367.5L239.6 367.2L239.543 367.276L239.518 367.368L240 367.5ZM237 378.5L236.518 378.368L236.317 379.105L237.072 378.995L237 378.5ZM248.743 355.976L249.242 355.959L248.743 355.976ZM246.933 359.972L246.628 359.577L246.933 359.972ZM247.363 350.642L247.058 351.038L247.363 350.642ZM248.78 354.114L249.279 354.148L248.78 354.114ZM230.043 347.498C233.758 347.177 236.641 347.014 239.285 347.453C241.909 347.888 244.319 348.921 247.058 351.038L247.669 350.246C244.816 348.041 242.255 346.932 239.449 346.466C236.665 346.004 233.663 346.181 229.957 346.502L230.043 347.498ZM248.281 354.08C248.233 354.785 248.222 355.401 248.243 355.994L249.242 355.959C249.223 355.403 249.233 354.823 249.279 354.148L248.281 354.08ZM246.628 359.577C243.871 361.706 242.139 363.821 239.6 367.2L240.4 367.8C242.929 364.435 244.594 362.411 247.239 360.368L246.628 359.577ZM239.518 367.368L236.518 378.368L237.482 378.632L240.482 367.632L239.518 367.368ZM237.072 378.995L257.572 375.995L257.428 375.005L236.928 378.005L237.072 378.995ZM248.243 355.994C248.293 357.397 247.715 358.737 246.628 359.577L247.239 360.368C248.604 359.314 249.303 357.653 249.242 355.959L248.243 355.994ZM247.058 351.038C247.948 351.726 248.364 352.881 248.281 354.08L249.279 354.148C249.379 352.696 248.881 351.183 247.669 350.246L247.058 351.038Z" fill="#7C6148"/>
</g>
<path d="M148.5 238C133.5 229 135.779 189.26 154.5 159L115.5 67H148.5C168 96 189.086 135.356 186.5 183.5C175.5 235 173 243.5 148.5 238Z" fill="#323A45" stroke="#222830"/>
<mask id="mask13" mask-type="alpha" maskUnits="userSpaceOnUse" x="-19" y="362" width="472" height="172">
<rect x="-18.5" y="362.5" width="471" height="171" fill="#9ACAD8" stroke="#222830"/>
</mask>
<g mask="url(#mask13)">
<rect x="-18.5" y="362.5" width="471" height="171" fill="#FAF5EE" stroke="#222830"/>
<path d="M492.5 341.5C400.593 398.254 322.609 426.584 -7 452L-87 513L563.5 561L492.5 341.5Z" fill="#EDE3D4"/>
</g>
<mask id="path-109-inside-13" fill="white">
<path d="M174 410.209C174 409.939 174.032 409.67 174.095 409.408L180.784 381.621C181.155 380.084 182.53 379 184.112 379H246.967C248.64 379 250.068 380.21 250.343 381.86L254.953 409.523C254.984 409.709 255 409.898 255 410.086V428.627C255 430.517 253.468 432.049 251.577 432.049H177.423C175.532 432.049 174 430.517 174 428.627V410.209Z"/>
</mask>
<path d="M174 410.209C174 409.939 174.032 409.67 174.095 409.408L180.784 381.621C181.155 380.084 182.53 379 184.112 379H246.967C248.64 379 250.068 380.21 250.343 381.86L254.953 409.523C254.984 409.709 255 409.898 255 410.086V428.627C255 430.517 253.468 432.049 251.577 432.049H177.423C175.532 432.049 174 430.517 174 428.627V410.209Z" fill="#626973" stroke="#222830" stroke-width="2" mask="url(#path-109-inside-13)"/>
<mask id="path-110-inside-14" fill="white">
<path d="M195.835 388.179C196.076 387.146 196.997 386.416 198.057 386.416H232.084C233.144 386.416 234.065 387.146 234.306 388.179L237.234 400.728C237.568 402.159 236.482 403.528 235.012 403.528H195.129C193.659 403.528 192.573 402.159 192.907 400.728L195.835 388.179Z"/>
</mask>
<path d="M195.835 388.179C196.076 387.146 196.997 386.416 198.057 386.416H232.084C233.144 386.416 234.065 387.146 234.306 388.179L237.234 400.728C237.568 402.159 236.482 403.528 235.012 403.528H195.129C193.659 403.528 192.573 402.159 192.907 400.728L195.835 388.179Z" fill="#222830" stroke="#222830" stroke-width="2" mask="url(#path-110-inside-14)"/>
<path d="M219.26 390.024C218.935 390.07 218.605 390.261 218.536 390.444C218.491 390.562 218.546 390.645 218.891 390.974C220.285 392.304 220.891 393.528 220.891 395.014C220.891 396.449 220.354 397.566 219.022 398.905C218.736 399.193 218.502 399.46 218.502 399.498C218.502 399.641 218.743 399.847 219.005 399.928C219.364 400.039 219.965 400.019 220.253 399.885C220.364 399.834 220.652 399.601 220.892 399.368C221.846 398.445 222.499 397.432 222.822 396.377C223.021 395.725 223.061 394.488 222.902 393.89C222.607 392.788 222.018 391.805 221.073 390.842C220.502 390.259 220.144 390.02 219.844 390.02C219.784 390.02 219.686 390.012 219.627 390.003C219.567 389.995 219.402 390.004 219.26 390.024ZM215.38 391.025C214.881 391.097 214.521 391.399 214.665 391.625C214.7 391.68 214.935 391.932 215.187 392.186C216.255 393.26 216.699 394.411 216.482 395.541C216.303 396.47 215.965 397.056 215.115 397.913C214.545 398.488 214.518 398.577 214.85 398.809C215.165 399.029 215.952 399.064 216.366 398.877C216.652 398.748 217.544 397.83 217.888 397.31C219.026 395.589 218.853 393.742 217.393 392.052C216.646 391.186 216.121 390.919 215.38 391.025ZM211.378 392.04C211.07 392.109 210.804 392.27 210.732 392.432C210.688 392.531 210.764 392.64 211.13 393.005C212.474 394.348 212.488 395.641 211.174 396.952C210.597 397.528 210.584 397.643 211.072 397.87C211.313 397.982 211.416 398.002 211.754 398.002C212.321 398.002 212.616 397.861 213.123 397.347C213.903 396.557 214.222 395.872 214.22 394.993C214.217 394.091 213.918 393.471 213.085 392.638C212.608 392.161 212.372 392.035 211.894 392.003C211.748 391.993 211.516 392.01 211.378 392.04ZM207.644 392.986C207.4 393.036 207.121 393.2 207.038 393.343C206.945 393.502 207.021 393.628 207.388 393.926C207.86 394.308 207.969 394.514 207.969 395.014C207.969 395.514 207.86 395.719 207.388 396.101C207.228 396.231 207.067 396.387 207.031 396.447C206.879 396.699 207.305 397.008 207.877 397.061C208.362 397.106 208.695 396.999 209.142 396.656C210.433 395.662 210.433 394.334 209.141 393.348C208.685 393 208.177 392.877 207.644 392.986Z" fill="white"/>
<mask id="path-112-inside-15" fill="white">
<path d="M174 412.655C174 410.135 176.043 408.092 178.563 408.092H250.437C252.957 408.092 255 410.135 255 412.655V466.275H174V412.655Z"/>
</mask>
<path d="M174 412.655C174 410.135 176.043 408.092 178.563 408.092H250.437C252.957 408.092 255 410.135 255 412.655V466.275H174V412.655Z" fill="#222830" stroke="#222830" stroke-width="2" mask="url(#path-112-inside-15)"/>
<path d="M239.868 349.705L196.604 351.846C194.778 351.937 193.245 353.254 192.881 355.045L188.028 378.94C187.507 381.503 189.545 383.867 192.156 383.731L240.648 381.201C242.797 381.089 244.473 379.295 244.439 377.143L244.066 353.636C244.03 351.375 242.127 349.593 239.868 349.705Z" fill="#046B99" stroke="#222830"/>
<path d="M207.847 358.055C207.866 357.53 208.287 357.11 208.811 357.092L214.377 356.897C214.929 356.878 215.392 357.31 215.411 357.862L215.585 362.859C215.605 363.411 215.173 363.874 214.621 363.893L208.698 364.1C208.118 364.12 207.643 363.644 207.664 363.064L207.847 358.055Z" fill="#9ACAD8"/>
<path fill-rule="evenodd" clip-rule="evenodd" d="M200.99 357.199C202.089 357.309 202.891 358.289 202.781 359.388L201.179 375.408C201.069 376.507 200.089 377.309 198.99 377.199C197.891 377.089 197.089 376.109 197.199 375.01L198.801 358.99C198.911 357.891 199.891 357.089 200.99 357.199Z" fill="#9ACAD8"/>
<path d="M211.501 353.5V333L231.501 320.5C234.454 327.874 233.665 331.146 229.501 336V350.5C229.501 360.5 210.502 365.5 211.501 353.5Z" fill="#CA9667"/>
<path d="M211.501 333V353.5C210.502 365.5 229.501 360.5 229.501 350.5V336C233.665 331.146 234.454 327.874 231.501 320.5" stroke="#222830"/>
<mask id="path-118-inside-16" fill="white">
<path d="M224 348C223.5 344.5 214.5 343.5 214 349.5L213.5 355C213.501 360 214.999 356.5 221.5 357.5C224.878 357.24 225.035 354.604 224 348Z"/>
</mask>
<path d="M224 348C223.5 344.5 214.5 343.5 214 349.5L213.5 355C213.501 360 214.999 356.5 221.5 357.5C224.878 357.24 225.035 354.604 224 348Z" fill="#EDC39D" stroke="#222830" stroke-width="2" mask="url(#path-118-inside-16)"/>
</g>
</g>
<mask id="path-119-outside-17" maskUnits="userSpaceOnUse" x="270" y="288" width="73" height="102" fill="black">
<rect fill="white" x="270" y="288" width="73" height="102"/>
<path fill-rule="evenodd" clip-rule="evenodd" d="M340.587 303.51C341.263 302.159 341.601 299.795 336.872 299.795C336.867 299.403 336.864 299.026 336.86 298.663C336.828 295.504 336.807 293.416 336.279 291.909C336.229 291.765 336.129 291.647 335.989 291.586C333.113 290.32 319.642 290 306.811 290V290C294.076 290.005 280.802 290.331 277.949 291.586C277.81 291.647 277.71 291.765 277.659 291.909C277.131 293.416 277.11 295.504 277.078 298.664C277.075 299.026 277.071 299.403 277.066 299.795C272.338 299.795 272.676 302.159 273.351 303.51C272.223 304.334 272.11 304.996 272 306.213L275.04 306.55L283.822 384.911C290.746 387.666 295.883 388.277 306.811 388.288V388.288C306.839 388.288 306.867 388.288 306.895 388.288C306.972 388.288 307.049 388.288 307.127 388.288V388.288C318.056 388.277 323.192 387.666 330.117 384.911L338.899 306.55L341.938 306.212C341.829 304.996 341.715 304.334 340.587 303.51Z"/>
</mask>
<g filter="url(#filter4_i)">
<path fill-rule="evenodd" clip-rule="evenodd" d="M340.587 303.51C341.263 302.159 341.601 299.795 336.872 299.795C336.867 299.403 336.864 299.026 336.86 298.663C336.828 295.504 336.807 293.416 336.279 291.909C336.229 291.765 336.129 291.647 335.989 291.586C333.113 290.32 319.642 290 306.811 290V290C294.076 290.005 280.802 290.331 277.949 291.586C277.81 291.647 277.71 291.765 277.659 291.909C277.131 293.416 277.11 295.504 277.078 298.664C277.075 299.026 277.071 299.403 277.066 299.795C272.338 299.795 272.676 302.159 273.351 303.51C272.223 304.334 272.11 304.996 272 306.213L275.04 306.55L283.822 384.911C290.746 387.666 295.883 388.277 306.811 388.288V388.288C306.839 388.288 306.867 388.288 306.895 388.288C306.972 388.288 307.049 388.288 307.127 388.288V388.288C318.056 388.277 323.192 387.666 330.117 384.911L338.899 306.55L341.938 306.212C341.829 304.996 341.715 304.334 340.587 303.51Z" fill="white"/>
</g>
<path d="M336.872 299.795L335.872 299.807C335.878 300.355 336.324 300.795 336.872 300.795V299.795ZM340.587 303.51L339.693 303.063C339.474 303.5 339.603 304.031 339.998 304.318L340.587 303.51ZM336.86 298.663L335.86 298.673L335.86 298.673L336.86 298.663ZM336.279 291.909L335.335 292.24V292.24L336.279 291.909ZM335.989 291.586L336.392 290.67L336.392 290.67L335.989 291.586ZM306.811 290V289C306.259 289 305.811 289.447 305.811 290H306.811ZM306.811 290L306.812 291.001C307.364 291 307.812 290.553 307.812 290H306.811ZM277.949 291.586L277.546 290.67V290.67L277.949 291.586ZM277.659 291.909L278.603 292.24L277.659 291.909ZM277.078 298.664L276.078 298.653L277.078 298.664ZM277.066 299.795V300.796C277.614 300.796 278.06 300.355 278.067 299.807L277.066 299.795ZM273.351 303.51L273.941 304.319C274.335 304.031 274.464 303.5 274.246 303.063L273.351 303.51ZM272 306.213L271.004 306.123C270.955 306.665 271.348 307.147 271.89 307.207L272 306.213ZM275.04 306.55L276.034 306.439C275.982 305.974 275.615 305.608 275.15 305.556L275.04 306.55ZM283.822 384.911L282.827 385.022C282.869 385.389 283.109 385.704 283.452 385.84L283.822 384.911ZM306.811 388.288H307.812C307.812 387.736 307.365 387.288 306.812 387.288L306.811 388.288ZM306.811 388.288H305.811C305.811 388.841 306.259 389.289 306.811 389.289V388.288ZM306.895 388.288L306.896 387.288H306.895V388.288ZM307.127 388.288V389.289C307.68 389.289 308.127 388.841 308.127 388.288H307.127ZM307.127 388.288L307.126 387.288C306.574 387.288 306.127 387.736 306.127 388.288H307.127ZM330.117 384.911L330.487 385.84C330.83 385.704 331.07 385.389 331.111 385.022L330.117 384.911ZM338.899 306.55L338.788 305.556C338.323 305.608 337.956 305.974 337.904 306.439L338.899 306.55ZM341.938 306.212L342.049 307.207C342.59 307.147 342.984 306.665 342.935 306.123L341.938 306.212ZM336.872 300.795C339.153 300.795 339.739 301.376 339.882 301.632C340.05 301.935 339.997 302.454 339.693 303.063L341.482 303.958C341.853 303.216 342.307 301.877 341.631 300.66C340.929 299.396 339.319 298.795 336.872 298.795V300.795ZM335.86 298.673C335.863 299.036 335.867 299.414 335.872 299.807L337.872 299.783C337.868 299.392 337.864 299.016 337.86 298.653L335.86 298.673ZM335.335 292.24C335.555 292.869 335.685 293.664 335.758 294.734C335.831 295.805 335.844 297.084 335.86 298.673L337.86 298.653C337.845 297.084 337.832 295.739 337.754 294.599C337.676 293.459 337.531 292.456 337.223 291.578L335.335 292.24ZM335.586 292.501C335.441 292.438 335.364 292.324 335.335 292.24L337.223 291.578C337.093 291.206 336.816 290.856 336.392 290.67L335.586 292.501ZM306.811 291C313.221 291 319.779 291.081 325.088 291.318C327.744 291.436 330.074 291.594 331.91 291.798C333.794 292.008 335.027 292.255 335.586 292.501L336.392 290.67C335.513 290.283 333.983 290.016 332.132 289.81C330.232 289.598 327.853 289.438 325.178 289.319C319.825 289.08 313.232 289 306.811 289V291ZM307.812 290V290H305.811V290H307.812ZM306.811 289C300.438 289.002 293.918 289.085 288.629 289.325C285.986 289.445 283.636 289.605 281.76 289.815C279.931 290.02 278.419 290.286 277.546 290.67L278.352 292.501C278.906 292.258 280.123 292.012 281.983 291.803C283.796 291.6 286.096 291.443 288.72 291.324C293.965 291.086 300.45 291.003 306.812 291.001L306.811 289ZM277.546 290.67C277.122 290.856 276.846 291.206 276.715 291.578L278.603 292.24C278.574 292.324 278.497 292.438 278.352 292.501L277.546 290.67ZM276.715 291.578C276.407 292.456 276.262 293.459 276.185 294.599C276.107 295.739 276.094 297.084 276.078 298.653L278.079 298.674C278.095 297.084 278.108 295.805 278.181 294.735C278.254 293.664 278.383 292.869 278.603 292.24L276.715 291.578ZM276.078 298.653C276.074 299.016 276.071 299.392 276.066 299.783L278.067 299.807C278.071 299.414 278.075 299.036 278.079 298.674L276.078 298.653ZM277.066 298.795C274.619 298.795 273.01 299.396 272.308 300.66C271.632 301.877 272.085 303.216 272.456 303.958L274.246 303.063C273.941 302.454 273.888 301.935 274.057 301.632C274.199 301.376 274.785 300.796 277.066 300.796V298.795ZM272.761 302.702C272.101 303.184 271.651 303.685 271.376 304.315C271.12 304.904 271.057 305.531 271.004 306.123L272.996 306.302C273.053 305.677 273.102 305.365 273.211 305.113C273.303 304.902 273.473 304.66 273.941 304.319L272.761 302.702ZM271.89 307.207L274.929 307.545L275.15 305.556L272.11 305.218L271.89 307.207ZM274.046 306.662L282.827 385.022L284.816 384.799L276.034 306.439L274.046 306.662ZM283.452 385.84C290.548 388.663 295.83 389.277 306.81 389.289L306.812 387.288C295.935 387.276 290.945 386.668 284.191 383.981L283.452 385.84ZM307.812 388.288V388.288H305.811V388.288H307.812ZM306.895 387.288C306.881 387.288 306.867 387.288 306.853 387.288C306.839 387.288 306.825 387.288 306.811 387.288V389.289C306.825 389.289 306.839 389.289 306.853 389.289C306.867 389.289 306.881 389.289 306.895 389.289V387.288ZM306.894 389.289C306.971 389.289 307.049 389.289 307.127 389.289V387.288C307.05 387.288 306.972 387.288 306.896 387.288L306.894 389.289ZM308.127 388.288V388.288H306.127V388.288H308.127ZM329.747 383.981C322.993 386.668 318.003 387.276 307.126 387.288L307.128 389.288C318.108 389.277 323.391 388.663 330.487 385.84L329.747 383.981ZM337.904 306.439L329.123 384.799L331.111 385.022L339.893 306.662L337.904 306.439ZM341.828 305.218L338.788 305.556L339.009 307.545L342.049 307.207L341.828 305.218ZM339.998 304.318C340.466 304.66 340.636 304.902 340.727 305.113C340.837 305.364 340.886 305.677 340.942 306.302L342.935 306.123C342.881 305.531 342.819 304.904 342.562 304.315C342.288 303.685 341.837 303.184 341.177 302.702L339.998 304.318Z" fill="#323A45" mask="url(#path-119-outside-17)"/>
<mask id="mask14" mask-type="alpha" maskUnits="userSpaceOnUse" x="272" y="290" width="70" height="99">
<path fill-rule="evenodd" clip-rule="evenodd" d="M340.587 303.51C341.263 302.159 341.601 299.795 336.872 299.795C336.867 299.403 336.864 299.026 336.86 298.663C336.828 295.504 336.807 293.416 336.279 291.909C336.229 291.765 336.129 291.647 335.989 291.586C333.113 290.32 319.642 290 306.811 290V290C294.076 290.005 280.802 290.331 277.949 291.586C277.81 291.647 277.71 291.765 277.659 291.909C277.131 293.416 277.11 295.504 277.078 298.664C277.075 299.026 277.071 299.403 277.066 299.795C272.338 299.795 272.676 302.159 273.351 303.51C272.223 304.334 272.11 304.996 272 306.213L275.04 306.55L283.822 384.911C290.746 387.666 295.883 388.277 306.811 388.288V388.288C306.837 388.288 306.862 388.288 306.887 388.288C306.967 388.288 307.047 388.288 307.127 388.288V388.288C318.056 388.277 323.192 387.666 330.117 384.911L338.899 306.55L341.938 306.212C341.829 304.996 341.715 304.334 340.587 303.51Z" fill="#C4C4C4"/>
</mask>
<g mask="url(#mask14)">
<rect x="272" y="290" width="70.2541" height="17.2258" fill="#323A45"/>
<path d="M272.001 299.795C299.42 298.949 314.833 298.956 342.255 299.795V303.51H272.001V299.795Z" fill="#515A66"/>
</g>
<mask id="path-124-outside-18" maskUnits="userSpaceOnUse" x="274.054" y="317.047" width="66" height="48" fill="black">
<rect fill="white" x="274.054" y="317.047" width="66" height="48"/>
<path d="M276.054 319.047H338.202L333.474 360.254C312.895 364.165 301.362 363.933 280.783 360.254L276.054 319.047Z"/>
</mask>
<g filter="url(#filter5_i)">
<path d="M276.054 319.047H338.202L333.474 360.254C312.895 364.165 301.362 363.933 280.783 360.254L276.054 319.047Z" fill="#62A7C6"/>
</g>
<path d="M276.054 319.047H338.202L333.474 360.254C312.895 364.165 301.362 363.933 280.783 360.254L276.054 319.047Z" stroke="#323A45" stroke-width="2.00085" stroke-linecap="round" stroke-linejoin="round" mask="url(#path-124-outside-18)"/>
</g>
<ellipse cx="691.5" cy="136" rx="22.5" ry="27" fill="#CA9667"/>
<path d="M706.126 135.117C704.36 138.974 703.579 141.501 700.754 144.279C696.54 148.424 687.634 152.093 685.502 146.58C684.818 144.812 685.259 142.193 686.531 138.575" stroke="#7C6148" stroke-width="1.15266"/>
<mask id="path-127-outside-19" maskUnits="userSpaceOnUse" x="643.402" y="76" width="109" height="206" fill="black">
<rect fill="white" x="643.402" y="76" width="109" height="206"/>
<path d="M645.402 92.4844C652.252 106.91 660.992 114.898 686.333 124.167C686.797 124.335 687.224 124.442 687.619 124.492C689.892 124.78 692.089 123.804 694.133 122.896C696.915 121.661 699.415 120.55 701.443 122.919C706.421 128.732 706.927 136.713 707.389 143.978L707.401 144.17C707.554 146.583 707.519 149.008 707.175 151.401C706.045 159.263 704.657 164.721 701.318 173.731C697.772 185.202 682.29 267.937 696.131 272.8C702.47 283.174 715.15 279.14 715.15 279.14C753.188 266.461 749.73 224.388 749.73 224.388C751.567 203.64 749.73 188.079 749.73 188.079C749.73 180.548 747.902 173.485 745.927 168.051C743.357 160.978 741.681 153.477 741.741 145.951C741.925 122.564 734.23 108.912 720.338 92.4682C704.3 73.484 660.618 72.8729 645.415 92.4682C645.411 92.4736 645.407 92.479 645.402 92.4844Z"/>
</mask>
<path d="M645.402 92.4844C652.252 106.91 660.992 114.898 686.333 124.167C686.797 124.335 687.224 124.442 687.619 124.492C689.892 124.78 692.089 123.804 694.133 122.896C696.915 121.661 699.415 120.55 701.443 122.919C706.421 128.732 706.927 136.713 707.389 143.978L707.401 144.17C707.554 146.583 707.519 149.008 707.175 151.401C706.045 159.263 704.657 164.721 701.318 173.731C697.772 185.202 682.29 267.937 696.131 272.8C702.47 283.174 715.15 279.14 715.15 279.14C753.188 266.461 749.73 224.388 749.73 224.388C751.567 203.64 749.73 188.079 749.73 188.079C749.73 180.548 747.902 173.485 745.927 168.051C743.357 160.978 741.681 153.477 741.741 145.951C741.925 122.564 734.23 108.912 720.338 92.4682C704.3 73.484 660.618 72.8729 645.415 92.4682C645.411 92.4736 645.407 92.479 645.402 92.4844Z" fill="#323A45"/>
<path d="M645.402 92.4844C652.252 106.91 660.992 114.898 686.333 124.167C686.797 124.335 687.224 124.442 687.619 124.492C689.892 124.78 692.089 123.804 694.133 122.896C696.915 121.661 699.415 120.55 701.443 122.919C706.421 128.732 706.927 136.713 707.389 143.978L707.401 144.17C707.554 146.583 707.519 149.008 707.175 151.401C706.045 159.263 704.657 164.721 701.318 173.731C697.772 185.202 682.29 267.937 696.131 272.8C702.47 283.174 715.15 279.14 715.15 279.14C753.188 266.461 749.73 224.388 749.73 224.388C751.567 203.64 749.73 188.079 749.73 188.079C749.73 180.548 747.902 173.485 745.927 168.051C743.357 160.978 741.681 153.477 741.741 145.951C741.925 122.564 734.23 108.912 720.338 92.4682C704.3 73.484 660.618 72.8729 645.415 92.4682C645.411 92.4736 645.407 92.479 645.402 92.4844Z" stroke="#323A45" stroke-width="2.30533" mask="url(#path-127-outside-19)"/>
<ellipse cx="132" cy="132.5" rx="44" ry="50.5" fill="#CA9667" stroke="#222830"/>
<path fill-rule="evenodd" clip-rule="evenodd" d="M121.506 118.217C119.624 118.293 117.777 118.696 115.405 119.551L114.896 118.14C117.368 117.249 119.369 116.802 121.446 116.718C123.513 116.635 125.616 116.915 128.275 117.428L127.99 118.901C125.365 118.394 123.398 118.141 121.506 118.217Z" fill="#222830"/>
<path fill-rule="evenodd" clip-rule="evenodd" d="M152.444 119.181C150.606 118.767 148.718 118.678 146.205 118.89L146.079 117.395C148.697 117.175 150.746 117.261 152.773 117.717C154.792 118.172 156.75 118.986 159.186 120.171L158.53 121.52C156.125 120.35 154.291 119.597 152.444 119.181Z" fill="#222830"/>
<path d="M96.0002 122C108.5 117.5 118.5 108.5 124.5 92C131.306 101.83 149.639 116.423 167.981 125.97C169.277 126.644 170.779 126.738 172.225 126.53C181.246 125.232 173.137 135.668 182 138C186.444 117.354 183.5 107.064 166 87C156.697 76.9067 145.5 75.5 133.5 75.5C98.0001 77.5 85.8921 105.936 82.0008 125C78.1094 144.064 74.9998 165.5 84.501 184.5C83.1008 193.692 76.0016 205.5 78.5014 209.5C81 211 81.5094 211.26 87.0001 207.5C92.7162 201.829 95.2487 197.76 98.0001 188.5C96.1515 163.311 94.5235 147.189 96.0002 122Z" fill="#323A45" stroke="#222830"/>
<ellipse cx="121.11" cy="129.611" rx="4.11" ry="4.61066" fill="#222830"/>
<ellipse cx="152.11" cy="129.611" rx="4.11" ry="4.61066" fill="#222830"/>
<path d="M136.5 125.5V136C145.316 146.174 141 150.5 134 151.5" stroke="#7C6148" stroke-width="1.5"/>
<path fill-rule="evenodd" clip-rule="evenodd" d="M138.928 166.609C135.962 166.974 132.936 166.156 129.474 164.217L130.452 162.472C133.696 164.289 136.286 164.919 138.683 164.624C141.095 164.326 143.475 163.073 146.258 160.785L147.528 162.33C144.613 164.726 141.881 166.245 138.928 166.609Z" fill="#222830"/>
<path d="M108.5 175.202C115.299 180.141 123.359 183 132 183C142.86 183 152.801 178.484 160.475 171" stroke="#B5865C"/>
<path d="M160.475 171C155.613 175.742 149.84 179.293 143.5 181.258" stroke="#222830"/>
<defs>
<filter id="filter0_i" x="510.298" y="184.681" width="293.785" height="301.518" filterUnits="userSpaceOnUse" color-interpolation-filters="sRGB">
<feFlood flood-opacity="0" result="BackgroundImageFix"/>
<feBlend mode="normal" in="SourceGraphic" in2="BackgroundImageFix" result="shape"/>
<feColorMatrix in="SourceAlpha" type="matrix" values="0 0 0 0 0 0 0 0 0 0 0 0 0 0 0 0 0 0 127 0" result="hardAlpha"/>
<feOffset dx="-34.5799" dy="-11.5266"/>
<feComposite in2="hardAlpha" operator="arithmetic" k2="-1" k3="1"/>
<feColorMatrix type="matrix" values="0 0 0 0 0.456094 0 0 0 0 0.712666 0 0 0 0 0.7875 0 0 0 1 0"/>
<feBlend mode="normal" in2="shape" result="effect1_innerShadow"/>
</filter>
<filter id="filter1_i" x="24.4966" y="185.279" width="87.119" height="229.533" filterUnits="userSpaceOnUse" color-interpolation-filters="sRGB">
<feFlood flood-opacity="0" result="BackgroundImageFix"/>
<feBlend mode="normal" in="SourceGraphic" in2="BackgroundImageFix" result="shape"/>
<feColorMatrix in="SourceAlpha" type="matrix" values="0 0 0 0 0 0 0 0 0 0 0 0 0 0 0 0 0 0 127 0" result="hardAlpha"/>
<feOffset dx="-6" dy="4"/>
<feComposite in2="hardAlpha" operator="arithmetic" k2="-1" k3="1"/>
<feColorMatrix type="matrix" values="0 0 0 0 0.454902 0 0 0 0 0.713726 0 0 0 0 0.788235 0 0 0 1 0"/>
<feBlend mode="normal" in2="shape" result="effect1_innerShadow"/>
</filter>
<filter id="filter2_i" x="133.326" y="177.216" width="143.544" height="219.685" filterUnits="userSpaceOnUse" color-interpolation-filters="sRGB">
<feFlood flood-opacity="0" result="BackgroundImageFix"/>
<feBlend mode="normal" in="SourceGraphic" in2="BackgroundImageFix" result="shape"/>
<feColorMatrix in="SourceAlpha" type="matrix" values="0 0 0 0 0 0 0 0 0 0 0 0 0 0 0 0 0 0 127 0" result="hardAlpha"/>
<feOffset dx="-10" dy="4"/>
<feComposite in2="hardAlpha" operator="arithmetic" k2="-1" k3="1"/>
<feColorMatrix type="matrix" values="0 0 0 0 0.454902 0 0 0 0 0.713726 0 0 0 0 0.788235 0 0 0 1 0"/>
<feBlend mode="normal" in2="shape" result="effect1_innerShadow"/>
</filter>
<filter id="filter3_d" x="88" y="82" width="88" height="109" filterUnits="userSpaceOnUse" color-interpolation-filters="sRGB">
<feFlood flood-opacity="0" result="BackgroundImageFix"/>
<feColorMatrix in="SourceAlpha" type="matrix" values="0 0 0 0 0 0 0 0 0 0 0 0 0 0 0 0 0 0 127 0"/>
<feOffset dy="8"/>
<feColorMatrix type="matrix" values="0 0 0 0 0.709804 0 0 0 0 0.52549 0 0 0 0 0.360784 0 0 0 1 0"/>
<feBlend mode="normal" in2="BackgroundImageFix" result="effect1_dropShadow"/>
<feBlend mode="normal" in="SourceGraphic" in2="effect1_dropShadow" result="shape"/>
</filter>
<filter id="filter4_i" x="271" y="289" width="71.9394" height="100.289" filterUnits="userSpaceOnUse" color-interpolation-filters="sRGB">
<feFlood flood-opacity="0" result="BackgroundImageFix"/>
<feBlend mode="normal" in="SourceGraphic" in2="BackgroundImageFix" result="shape"/>
<feColorMatrix in="SourceAlpha" type="matrix" values="0 0 0 0 0 0 0 0 0 0 0 0 0 0 0 0 0 0 127 0" result="hardAlpha"/>
<feOffset dx="-10.2494" dy="-2.04988"/>
<feComposite in2="hardAlpha" operator="arithmetic" k2="-1" k3="1"/>
<feColorMatrix type="matrix" values="0 0 0 0 0 0 0 0 0 0 0 0 0 0 0 0 0 0 0.08 0"/>
<feBlend mode="normal" in2="shape" result="effect1_innerShadow"/>
</filter>
<filter id="filter5_i" x="275.054" y="318.047" width="64.1487" height="46.0543" filterUnits="userSpaceOnUse" color-interpolation-filters="sRGB">
<feFlood flood-opacity="0" result="BackgroundImageFix"/>
<feBlend mode="normal" in="SourceGraphic" in2="BackgroundImageFix" result="shape"/>
<feColorMatrix in="SourceAlpha" type="matrix" values="0 0 0 0 0 0 0 0 0 0 0 0 0 0 0 0 0 0 127 0" result="hardAlpha"/>
<feOffset dx="-10.2494"/>
<feComposite in2="hardAlpha" operator="arithmetic" k2="-1" k3="1"/>
<feColorMatrix type="matrix" values="0 0 0 0 0 0 0 0 0 0 0 0 0 0 0 0 0 0 0.07 0"/>
<feBlend mode="normal" in2="shape" result="effect1_innerShadow"/>
</filter>
</defs>
</svg>
