<svg width="75" height="75" viewBox="0 0 75 75" fill="none" xmlns="http://www.w3.org/2000/svg">
<g clip-path="url(#clip0)">
<rect x="21.0088" y="52.1031" width="5.07213" height="7.6082" fill="#323A45"/>
<rect x="10.8652" y="55.9074" width="5.07213" height="3.8041" fill="#323A45"/>
<rect x="31.1533" y="45.763" width="5.07213" height="13.9484" fill="#323A45"/>
<rect x="41.2969" y="40.6909" width="5.07213" height="19.0205" fill="#323A45"/>
<rect x="51.4424" y="35.6187" width="5.07213" height="24.0926" fill="#323A45"/>
<rect x="61.5869" y="29.2786" width="5.07213" height="30.4328" fill="#323A45"/>
<path d="M5.17494 31.1775C4.52604 29.9571 4.98934 28.4417 6.20975 27.7928L39.6203 10.028C42.7655 8.3557 46.6709 9.5497 48.3433 12.6949L52.9021 21.2689C53.551 22.4893 53.0877 24.0046 51.8673 24.6535L14.9716 44.2714C13.7512 44.9203 12.2358 44.457 11.5869 43.2366L5.17494 31.1775Z" fill="#323A45"/>
<path d="M37.1389 17.2983C36.8794 16.8102 37.0647 16.204 37.5528 15.9445L40.793 14.2217C41.2811 13.9621 41.8873 14.1474 42.1468 14.6356L48.8384 27.2206L43.8305 29.8833L37.1389 17.2983Z" fill="white"/>
<path d="M22.7444 24.9536C22.4848 24.4654 22.6701 23.8593 23.1583 23.5997L26.3984 21.8769C26.8866 21.6174 27.4927 21.8027 27.7523 22.2908L34.6049 35.1787L29.597 37.8414L22.7444 24.9536Z" fill="white"/>
<rect x="7.24902" y="32.058" width="5.67181" height="5.67181" rx="1.00108" transform="rotate(-28 7.24902 32.058)" fill="white"/>
<rect x="14.7588" y="28.064" width="5.67181" height="5.67181" rx="1.00108" transform="rotate(-28 14.7588 28.064)" fill="white"/>
<rect x="29.7822" y="20.0757" width="5.67181" height="5.67181" rx="1.00108" transform="rotate(-28 29.7822 20.0757)" fill="white"/>
<path d="M45.2756 12.9714C45.0161 12.4833 45.2014 11.8771 45.6896 11.6175L47.3096 10.7561L51.3037 18.268L49.6837 19.1294C49.1955 19.389 48.5894 19.2037 48.3298 18.7155L45.2756 12.9714Z" fill="white"/>
<circle cx="19.5822" cy="43.95" r="4.03116" transform="rotate(-28 19.5822 43.95)" fill="#323A45" stroke="white" stroke-width="1.61246"/>
<circle cx="19.5935" cy="43.9523" r="1.07498" transform="rotate(-28 19.5935 43.9523)" fill="white"/>
<circle cx="49.006" cy="28.3053" r="4.03116" transform="rotate(-28 49.006 28.3053)" fill="#323A45" stroke="white" stroke-width="1.61246"/>
<circle cx="49.0163" cy="28.3075" r="1.07498" transform="rotate(-28 49.0163 28.3075)" fill="white"/>
</g>
<defs>
<clipPath id="clip0">
<rect width="75" height="75" fill="white"/>
</clipPath>
</defs>
</svg>
