<svg width="67" height="50" viewBox="0 0 67 50" fill="none" xmlns="http://www.w3.org/2000/svg">
<rect x="15.8223" y="41.957" width="4.71837" height="7.07755" fill="#323A45"/>
<rect x="6.38574" y="45.4961" width="4.71837" height="3.53878" fill="#323A45"/>
<rect x="25.2588" y="36.0591" width="4.71837" height="12.9755" fill="#323A45"/>
<rect x="34.6953" y="31.3408" width="4.71837" height="17.6939" fill="#323A45"/>
<rect x="44.1328" y="26.6226" width="4.71837" height="22.4122" fill="#323A45"/>
<rect x="53.5693" y="20.7246" width="4.71837" height="28.3102" fill="#323A45"/>
<path d="M1.093 22.4912C0.489352 21.3559 0.920334 19.9462 2.05562 19.3426L33.1359 2.81685C36.0618 1.26116 39.6948 2.37188 41.2505 5.29771L45.4913 13.2737C46.095 14.409 45.664 15.8186 44.5287 16.4223L10.2063 34.6718C9.07105 35.2755 7.66136 34.8445 7.05772 33.7092L1.093 22.4912Z" fill="#323A45"/>
<path d="M30.8278 9.58006C30.5864 9.12595 30.7588 8.56207 31.2129 8.32061L34.227 6.71798C34.6811 6.47652 35.245 6.64891 35.4864 7.10303L41.7113 18.8103L37.0527 21.2873L30.8278 9.58006Z" fill="white"/>
<path d="M17.4372 16.7012C17.1957 16.247 17.3681 15.6832 17.8222 15.4417L20.8364 13.8391C21.2905 13.5976 21.8544 13.77 22.0958 14.2241L28.4705 26.2131L23.8118 28.6901L17.4372 16.7012Z" fill="white"/>
<rect x="3.02246" y="23.3101" width="5.27621" height="5.27621" rx="0.931255" transform="rotate(-28 3.02246 23.3101)" fill="white"/>
<rect x="10.0088" y="19.5947" width="5.27621" height="5.27621" rx="0.931255" transform="rotate(-28 10.0088 19.5947)" fill="white"/>
<rect x="23.9844" y="12.1636" width="5.27621" height="5.27621" rx="0.931255" transform="rotate(-28 23.9844 12.1636)" fill="white"/>
<path d="M38.3972 5.55516C38.1557 5.10104 38.3281 4.53717 38.7822 4.29571L40.2893 3.49439L44.0048 10.4823L42.4978 11.2836C42.0436 11.5251 41.4798 11.3527 41.2383 10.8986L38.3972 5.55516Z" fill="white"/>
<circle cx="14.4957" cy="34.3728" r="3.75" transform="rotate(-28 14.4957 34.3728)" fill="#323A45" stroke="white" stroke-width="1.5"/>
<circle cx="14.5057" cy="34.3749" r="1" transform="rotate(-28 14.5057 34.3749)" fill="white"/>
<circle cx="41.8668" cy="19.819" r="3.75" transform="rotate(-28 41.8668 19.819)" fill="#323A45" stroke="white" stroke-width="1.5"/>
<circle cx="41.8768" cy="19.8212" r="1" transform="rotate(-28 41.8768 19.8212)" fill="white"/>
</svg>
