<svg width="324" height="50" viewBox="0 0 324 50" fill="none" xmlns="http://www.w3.org/2000/svg">
<path d="M67.1343 28.6834H0L5.89578 0H73.027L67.1343 28.6834Z" fill="#82B9C6"/>
<path d="M17.0911 25.3123C15.8167 25.3123 14.6842 25.0525 13.6937 24.536C12.7032 24.0164 11.8641 23.3289 11.1764 22.4639C10.4887 21.6021 9.96822 20.6167 9.61492 19.5078C9.26161 18.402 9.08496 17.2582 9.08496 16.0796C9.08496 15.0847 9.23007 14.0772 9.52659 13.0633C9.81996 12.0462 10.2332 11.0672 10.7695 10.123C11.3057 9.17882 11.9587 8.30118 12.7253 7.4869C13.495 6.67579 14.353 5.9629 15.3057 5.35457C16.2552 4.74624 17.2867 4.26148 18.4002 3.90662C19.5138 3.55176 20.6873 3.37433 21.9207 3.37433C23.8639 3.37433 25.4506 3.81157 26.684 4.68604C27.9174 5.56052 28.7376 6.69797 29.1414 8.0984L24.7408 10.782C24.6399 10.2149 24.4632 9.73963 24.2109 9.36576C23.9585 8.98872 23.6493 8.68455 23.2866 8.45009C22.9238 8.21563 22.5295 8.05404 22.1036 7.96216C21.6778 7.87028 21.2645 7.82592 20.8608 7.82592C19.8103 7.82592 18.8671 8.07622 18.0375 8.57366C17.2078 9.07109 16.5044 9.71111 15.9271 10.4937C15.3498 11.2763 14.9113 12.1349 14.6085 13.0696C14.3057 14.0043 14.1543 14.9073 14.1543 15.7817C14.1543 16.4725 14.2394 17.122 14.4129 17.7335C14.5833 18.3418 14.8388 18.8804 15.17 19.3494C15.5044 19.8183 15.9239 20.189 16.4287 20.4615C16.9334 20.7371 17.5107 20.8733 18.1573 20.8733C18.5832 20.8733 19.0217 20.8163 19.4759 20.7054C19.9302 20.5945 20.3876 20.4203 20.8418 20.1858C21.2961 19.9513 21.7314 19.6472 22.1478 19.2701C22.561 18.8931 22.9207 18.4305 23.2235 17.8824L26.8039 20.2904C26.3181 21.0825 25.6998 21.7954 24.9522 22.4227C24.2045 23.0532 23.3907 23.5823 22.5106 24.0069C21.6305 24.4346 20.722 24.7578 19.7788 24.9828C18.8356 25.2014 17.9397 25.3123 17.0911 25.3123Z" fill="white"/>
<path d="M38.0279 3.49155H42.5483L45.34 25.1317H40.2423L39.7881 20.2872H33.6589L31.2015 25.1317H26.0723L38.0279 3.49155ZM39.6966 16.84L39.0909 9.19148L35.1446 16.84H39.6966Z" fill="white"/>
<path d="M51.9578 3.49155H56.9356L53.2638 20.7434H63.0049L62.0932 25.1317H47.3774L51.9578 3.49155Z" fill="white"/>
<path d="M124.244 49.4237H57.1094L63.002 20.7435H130.133L124.244 49.4237Z" fill="#FDB714"/>
<path d="M75.8281 24.2635H80.806L76.2224 45.9036H71.2446L75.8281 24.2635Z" fill="#136C97"/>
<path d="M88.6637 28.6518H82.5029L83.4146 24.2635H100.682L99.7707 28.6518H93.6415L89.9697 45.9036H84.9918L88.6637 28.6518Z" fill="#136C97"/>
<path d="M103.32 24.2635H112.089C112.919 24.2635 113.667 24.4378 114.335 24.7832C115.004 25.1285 115.566 25.5848 116.02 26.1551C116.474 26.7254 116.824 27.3749 117.067 28.1068C117.31 28.8387 117.43 29.5896 117.43 30.3627C117.43 31.3988 117.206 32.4316 116.761 33.455C116.316 34.4816 115.714 35.3973 114.957 36.1989C114.197 37.0005 113.32 37.6563 112.317 38.1633C111.317 38.6702 110.247 38.9237 109.115 38.9237H105.172L103.714 45.9036H98.7363L103.32 24.2635ZM109.723 34.5671C110.026 34.5671 110.335 34.4816 110.648 34.3073C110.96 34.1362 111.244 33.8796 111.496 33.5469C111.749 33.2111 111.951 32.815 112.102 32.3588C112.253 31.9025 112.329 31.3797 112.329 30.7904C112.329 30.0585 112.178 29.5199 111.875 29.1745C111.572 28.8292 111.219 28.6549 110.812 28.6549H107.351L106.108 34.5671H109.723Z" fill="#136C97"/>
<path d="M319.003 35.4384H131.713L136.713 10.0596H324L319.003 35.4384Z" fill="#2EA8CE"/>
<path d="M155.955 16.9857H157.981L155.719 28.769H153.426L154.76 21.7985L151.101 26.8299H149.426L147.65 21.9157L146.344 28.769H144.05L146.312 16.9857H148.372L150.773 24.0893L155.955 16.9857Z" fill="white"/>
<path d="M160.072 28.4014C159.463 28.0688 159.015 27.5967 158.731 26.9883C158.447 26.38 158.352 25.6703 158.444 24.856C158.548 23.9435 158.816 23.1451 159.258 22.467C159.696 21.789 160.27 21.2662 160.974 20.905C161.677 20.5438 162.472 20.3632 163.352 20.3632C164.232 20.3632 164.98 20.5312 165.589 20.8638C166.198 21.1965 166.646 21.6686 166.929 22.2769C167.213 22.8853 167.308 23.595 167.217 24.4093C167.112 25.3344 166.841 26.1329 166.403 26.8077C165.964 27.4826 165.393 27.9991 164.687 28.3634C163.98 28.7246 163.188 28.9052 162.308 28.9052C161.425 28.9021 160.68 28.7373 160.072 28.4014ZM164.021 26.2628C164.393 25.7717 164.627 25.1317 164.715 24.3396C164.87 22.9581 164.355 22.2674 163.172 22.2674C162.526 22.2674 162.015 22.5114 161.643 23.0025C161.27 23.4936 161.04 24.1273 160.952 24.9067C160.794 26.3008 161.308 26.9947 162.491 26.9947C163.135 26.9978 163.646 26.7539 164.021 26.2628Z" fill="white"/>
<path d="M176.309 20.8385C176.804 21.1553 177.164 21.6116 177.384 22.2104C177.605 22.8092 177.675 23.5063 177.583 24.3079C177.482 25.1982 177.23 25.9935 176.823 26.6905C176.416 27.3875 175.892 27.9293 175.249 28.3191C174.608 28.7088 173.902 28.9052 173.132 28.9052C171.993 28.9052 171.192 28.4775 170.731 27.6188L170.52 28.7721H168.025L170.268 16.9889H172.798L171.921 21.5165C172.23 21.1617 172.612 20.8797 173.069 20.6737C173.526 20.4678 174.012 20.3632 174.526 20.3632C175.22 20.3632 175.813 20.5216 176.309 20.8385ZM174.337 26.3198C174.728 25.8699 174.968 25.2521 175.056 24.4726C175.135 23.7597 175.037 23.2148 174.763 22.8346C174.488 22.4575 174.053 22.2674 173.463 22.2674C172.883 22.2674 172.397 22.4924 172.006 22.9455C171.615 23.3954 171.375 24.0069 171.29 24.7768C171.208 25.5024 171.302 26.0537 171.574 26.4307C171.845 26.8109 172.268 26.9978 172.848 26.9978C173.448 26.9978 173.946 26.7729 174.337 26.3198Z" fill="white"/>
<path d="M178.39 28.769L179.964 20.5628H182.491L180.917 28.769H178.39ZM180.627 16.6182H183.34L182.892 18.9755H180.179L180.627 16.6182Z" fill="white"/>
<path d="M183.049 28.769L185.311 16.9857H187.838L185.579 28.769H183.049Z" fill="white"/>
<path d="M187.677 28.769L189.251 20.5628H191.778L190.204 28.769H187.677ZM189.914 16.6182H192.627L192.179 18.9755H189.466L189.914 16.6182Z" fill="white"/>
<path d="M196.229 25.5435C196.037 26.5479 196.418 27.0485 197.365 27.0485C197.576 27.0485 197.835 27.0327 198.141 26.9978L197.652 28.8197C197.321 28.8767 197.005 28.902 196.705 28.902C195.576 28.902 194.756 28.6581 194.242 28.167C193.728 27.6759 193.526 26.9535 193.633 25.9935C193.655 25.7938 193.677 25.6418 193.699 25.5435L194.299 22.4512H192.74L193.103 20.5628H194.661L195.116 18.1549H197.645L197.191 20.5628H199.251L198.904 22.4512H196.828L196.229 25.5435Z" fill="white"/>
<path d="M206.917 20.5818H209.447L202.346 31.7789H199.785L201.999 28.3032L200.103 20.5818H202.665L203.807 25.778L206.917 20.5818Z" fill="white"/>
<path d="M226.122 16.9857H228.147L225.885 28.769H223.592L224.926 21.7985L221.264 26.8299H219.589L217.813 21.9157L216.507 28.769H214.213L216.475 16.9857H218.535L220.936 24.0893L226.122 16.9857Z" fill="white"/>
<path d="M235.812 21.1395C236.307 21.6559 236.493 22.4417 236.377 23.4873C236.348 23.7312 236.323 23.915 236.298 24.0386L235.399 28.769H233.004L233.213 27.6505C232.957 28.0529 232.626 28.3603 232.222 28.5789C231.818 28.7975 231.364 28.9052 230.862 28.9052C230.317 28.9052 229.837 28.8007 229.424 28.5884C229.014 28.3761 228.705 28.0878 228.5 27.7202C228.295 27.3527 228.219 26.9408 228.27 26.4846C228.339 25.8604 228.553 25.3598 228.916 24.9796C229.276 24.6025 229.812 24.3237 230.525 24.1526C231.238 23.9815 232.168 23.8928 233.317 23.8928H233.919L233.96 23.6742C234.049 23.1831 233.992 22.8251 233.79 22.597C233.585 22.3688 233.222 22.2548 232.698 22.2548C232.285 22.2548 231.834 22.3276 231.342 22.4734C230.853 22.6191 230.38 22.8187 229.926 23.0754L229.563 21.3866C230.055 21.0856 230.651 20.8417 231.355 20.6516C232.058 20.4615 232.733 20.3664 233.38 20.3664C234.506 20.3632 235.317 20.623 235.812 21.1395ZM232.963 26.6715C233.307 26.342 233.531 25.9174 233.635 25.3915L233.683 25.1063H233.232C232.361 25.1063 231.743 25.1887 231.377 25.3566C231.011 25.5245 230.806 25.8065 230.762 26.2089C230.73 26.5004 230.803 26.7285 230.986 26.9028C231.168 27.0771 231.424 27.1626 231.762 27.1626C232.219 27.1658 232.62 27.001 232.963 26.6715Z" fill="white"/>
<path d="M244.746 20.3474L244.493 22.4354L242.916 22.6033C242.238 22.6698 241.739 22.8473 241.414 23.1387C241.093 23.4271 240.869 23.8802 240.742 24.4917L239.929 28.769H237.402L238.976 20.5787H241.386L241.178 21.6971C241.847 20.9177 242.837 20.4773 244.156 20.3759L244.746 20.3474Z" fill="white"/>
<path d="M254.666 20.5819L250.471 24.5423L253.294 28.769H250.247L247.745 25.0936L247.048 28.769H244.521L246.764 16.9857H249.294L247.944 24.0734L251.584 20.5819H254.666Z" fill="white"/>
<path d="M261.313 21.374C261.896 22.0488 262.117 23.0215 261.972 24.2889C261.941 24.555 261.893 24.8402 261.827 25.1412H256.486C256.449 26.3895 257.064 27.0137 258.335 27.0137C259.171 27.0137 260.001 26.7475 260.821 26.2121L261.168 27.9008C260.777 28.2113 260.291 28.4585 259.714 28.6359C259.136 28.8133 258.543 28.902 257.941 28.902C257.079 28.902 256.348 28.7341 255.736 28.4014C255.127 28.0688 254.676 27.5967 254.389 26.9883C254.098 26.38 254.001 25.6766 254.089 24.875C254.187 23.9942 254.458 23.2116 254.897 22.5272C255.335 21.8429 255.893 21.3106 256.565 20.9304C257.237 20.5533 257.972 20.3632 258.764 20.3632C259.878 20.3632 260.729 20.6991 261.313 21.374ZM256.676 23.8897H259.925C259.991 23.2877 259.912 22.8409 259.682 22.5431C259.452 22.2484 259.108 22.0995 258.65 22.0995C257.657 22.1027 257.001 22.6983 256.676 23.8897Z" fill="white"/>
<path d="M266.663 25.5435C266.471 26.5479 266.852 27.0485 267.799 27.0485C268.01 27.0485 268.269 27.0327 268.575 26.9978L268.086 28.8197C267.755 28.8767 267.439 28.902 267.14 28.902C266.01 28.902 265.19 28.6581 264.676 28.167C264.162 27.6759 263.96 26.9535 264.067 25.9935C264.089 25.7938 264.111 25.6418 264.133 25.5435L264.733 22.4512H263.174L263.537 20.5628H265.095L265.55 18.1549H268.08L267.625 20.5628H269.685L269.338 22.4512H267.263L266.663 25.5435Z" fill="white"/>
<path d="M277.982 20.8385C278.477 21.1553 278.836 21.6116 279.057 22.2104C279.278 22.8092 279.347 23.5063 279.256 24.3079C279.155 25.1982 278.903 25.9935 278.496 26.6905C278.089 27.3875 277.565 27.9293 276.922 28.3191C276.281 28.7088 275.575 28.9052 274.805 28.9052C273.688 28.9052 272.893 28.487 272.417 27.6505L271.635 31.7789H269.108L271.253 20.566H273.748L273.553 21.5514C273.862 21.1838 274.25 20.8955 274.713 20.6832C275.177 20.471 275.672 20.3664 276.199 20.3664C276.893 20.3632 277.486 20.5216 277.982 20.8385ZM276.01 26.3198C276.401 25.8699 276.641 25.2521 276.729 24.4726C276.808 23.7597 276.71 23.2148 276.436 22.8346C276.161 22.4575 275.726 22.2674 275.136 22.2674C274.556 22.2674 274.07 22.4924 273.679 22.9455C273.288 23.3954 273.048 24.0069 272.963 24.7768C272.881 25.5024 272.975 26.0537 273.247 26.4307C273.518 26.8109 273.941 26.9978 274.521 26.9978C275.124 26.9978 275.619 26.7729 276.01 26.3198Z" fill="white"/>
<path d="M280.067 28.769L282.329 16.9857H284.855L282.594 28.769H280.067Z" fill="white"/>
<path d="M292.252 21.1395C292.748 21.6559 292.937 22.4417 292.817 23.4873C292.789 23.7312 292.763 23.915 292.738 24.0386L291.839 28.769H289.445L289.653 27.6505C289.398 28.0529 289.066 28.3603 288.663 28.5789C288.259 28.7975 287.805 28.9052 287.303 28.9052C286.757 28.9052 286.278 28.8007 285.865 28.5884C285.454 28.3761 285.145 28.0878 284.94 27.7202C284.735 27.3527 284.659 26.9408 284.71 26.4846C284.779 25.8604 284.994 25.3598 285.357 24.9796C285.716 24.6025 286.253 24.3237 286.965 24.1526C287.678 23.9815 288.609 23.8928 289.757 23.8928H290.36L290.401 23.6742C290.489 23.1831 290.432 22.8251 290.23 22.597C290.025 22.3688 289.663 22.2548 289.139 22.2548C288.726 22.2548 288.275 22.3276 287.782 22.4734C287.294 22.6191 286.82 22.8187 286.366 23.0754L286.003 21.3866C286.495 21.0856 287.092 20.8417 287.795 20.6516C288.499 20.4615 289.174 20.3664 289.82 20.3664C290.946 20.3632 291.757 20.623 292.252 21.1395ZM289.404 26.6715C289.748 26.342 289.972 25.9174 290.076 25.3915L290.123 25.1063H289.672C288.801 25.1063 288.183 25.1887 287.817 25.3566C287.451 25.5245 287.246 25.8065 287.202 26.2089C287.17 26.5004 287.243 26.7285 287.426 26.9028C287.609 27.0771 287.864 27.1626 288.202 27.1626C288.659 27.1658 289.06 27.001 289.404 26.6715Z" fill="white"/>
<path d="M295.707 28.4014C295.092 28.0688 294.641 27.5998 294.357 26.9978C294.073 26.3959 293.975 25.6956 294.066 24.8909C294.171 23.9657 294.448 23.1609 294.899 22.4766C295.35 21.7922 295.943 21.2662 296.675 20.905C297.407 20.5438 298.237 20.3632 299.164 20.3632C300.47 20.3632 301.505 20.7023 302.265 21.3835L301.252 23.1039C300.587 22.5684 299.864 22.3023 299.082 22.3023C298.413 22.3023 297.864 22.5241 297.442 22.9708C297.016 23.4176 296.76 24.0449 296.669 24.8592C296.593 25.5404 296.7 26.06 296.997 26.4212C297.29 26.7824 297.735 26.963 298.325 26.963C299.073 26.963 299.861 26.6968 300.691 26.1614L301.016 27.9008C300.603 28.2113 300.123 28.4585 299.587 28.6359C299.051 28.8133 298.498 28.902 297.94 28.902C297.063 28.902 296.322 28.7373 295.707 28.4014Z" fill="white"/>
<path d="M309.763 21.374C310.347 22.0488 310.567 23.0215 310.422 24.2889C310.394 24.555 310.343 24.8402 310.277 25.1412H304.937C304.899 26.3895 305.514 27.0137 306.785 27.0137C307.621 27.0137 308.451 26.7475 309.271 26.2121L309.618 27.9008C309.227 28.2113 308.741 28.4585 308.164 28.6359C307.586 28.8133 306.993 28.902 306.391 28.902C305.53 28.902 304.798 28.7341 304.186 28.4014C303.577 28.0688 303.126 27.5967 302.839 26.9883C302.549 26.38 302.451 25.6766 302.539 24.875C302.637 23.9942 302.908 23.2116 303.347 22.5272C303.785 21.8429 304.344 21.3106 305.015 20.9304C305.687 20.5533 306.422 20.3632 307.214 20.3632C308.331 20.3632 309.179 20.6991 309.763 21.374ZM305.129 23.8897H308.378C308.444 23.2877 308.366 22.8409 308.135 22.5431C307.905 22.2484 307.561 22.0995 307.104 22.0995C306.11 22.1027 305.451 22.6983 305.129 23.8897Z" fill="white"/>
</svg>
