<svg width="154" height="69" viewBox="0 0 154 69" fill="none" xmlns="http://www.w3.org/2000/svg">
<path d="M134.424 69H0L3.58944 50.8742H138.014L134.424 69Z" fill="#2EA8CE"/>
<path d="M88.8287 29.529H19.3828L25.4816 0H94.9242L88.8287 29.529Z" fill="#82B9C6"/>
<path d="M37.0626 26.0585C35.7443 26.0585 34.5728 25.791 33.5482 25.2593C32.5236 24.7244 31.6556 24.0166 30.9442 23.1261C30.2329 22.2389 29.6944 21.2245 29.329 20.0829C28.9635 18.9445 28.7808 17.767 28.7808 16.5536C28.7808 15.5294 28.9309 14.4922 29.2376 13.4484C29.5411 12.4013 29.9685 11.3935 30.5233 10.4214C31.078 9.44942 31.7535 8.54591 32.5464 7.70763C33.3426 6.87261 34.2302 6.1387 35.2156 5.51244C36.1979 4.88617 37.2649 4.38712 38.4168 4.0218C39.5687 3.65648 40.7825 3.47382 42.0584 3.47382C44.0685 3.47382 45.7099 3.92394 46.9858 4.8242C48.2616 5.72445 49.11 6.89544 49.5277 8.33715L44.9757 11.0999C44.8712 10.516 44.6885 10.0268 44.4275 9.64187C44.1664 9.25372 43.8466 8.94058 43.4714 8.69921C43.0961 8.45784 42.6882 8.29149 42.2477 8.19689C41.8072 8.1023 41.3797 8.05664 40.962 8.05664C39.8754 8.05664 38.8997 8.31432 38.0415 8.82642C37.1833 9.33852 36.4556 9.99741 35.8585 10.8031C35.2613 11.6087 34.8078 12.4927 34.4945 13.4549C34.1812 14.4171 34.0246 15.3468 34.0246 16.247C34.0246 16.9581 34.1127 17.6267 34.2922 18.2563C34.4684 18.8825 34.7327 19.437 35.0753 19.9198C35.4212 20.4025 35.8552 20.7842 36.3773 21.0647C36.8994 21.3485 37.4966 21.4887 38.1655 21.4887C38.606 21.4887 39.0596 21.43 39.5295 21.3158C39.9994 21.2017 40.4725 21.0223 40.9424 20.7809C41.4123 20.5395 41.8626 20.2264 42.2934 19.8382C42.7208 19.4501 43.0928 18.9739 43.4061 18.4096L47.1097 20.8885C46.6072 21.704 45.9677 22.4379 45.1943 23.0837C44.4209 23.7328 43.579 24.2775 42.6686 24.7146C41.7582 25.155 40.8184 25.4877 39.8428 25.7193C38.8671 25.9443 37.9436 26.0585 37.0626 26.0585Z" fill="white"/>
<path d="M58.7232 3.5945H63.3993L66.2871 25.8726H61.0139L60.544 20.8853H54.2038L51.6618 25.8726H46.356L58.7232 3.5945ZM60.4494 17.3364L59.8229 9.46247L55.7407 17.3364H60.4494Z" fill="white"/>
<path d="M73.1302 3.5945H78.2794L74.4811 21.355H84.5576L83.6146 25.8726H68.3921L73.1302 3.5945Z" fill="white"/>
<path d="M147.904 50.8807H78.4585L84.5573 21.355H154L147.904 50.8807Z" fill="#FDB714"/>
<path d="M97.8248 24.9788H102.974L98.2327 47.2569H93.0835L97.8248 24.9788Z" fill="#136C97"/>
<path d="M111.102 29.4964H104.729L105.673 24.9788H123.535L122.592 29.4964H116.252L112.453 47.2569H107.304L111.102 29.4964Z" fill="#136C97"/>
<path d="M126.263 24.9788H135.335C136.193 24.9788 136.966 25.1582 137.658 25.5138C138.35 25.8693 138.931 26.339 139.4 26.9261C139.87 27.5132 140.233 28.1819 140.484 28.9354C140.735 29.6889 140.859 30.4619 140.859 31.2578C140.859 32.3244 140.627 33.3877 140.167 34.4413C139.707 35.4981 139.084 36.4408 138.301 37.266C137.514 38.0912 136.607 38.7664 135.57 39.2883C134.535 39.8102 133.429 40.0711 132.258 40.0711H128.175L126.668 47.2569H121.519L126.263 24.9788ZM132.887 35.5862C133.201 35.5862 133.52 35.4981 133.843 35.3187C134.166 35.1426 134.46 34.8784 134.721 34.5359C134.982 34.1901 135.191 33.7824 135.348 33.3127C135.504 32.843 135.583 32.3048 135.583 31.6981C135.583 30.9446 135.426 30.3901 135.113 30.0346C134.799 29.6791 134.434 29.4997 134.013 29.4997H130.433L129.148 35.5862H132.887Z" fill="#136C97"/>
<path d="M16.9912 55.7832H18.4531L16.8215 64.2378H15.1671L16.1297 59.2375L13.4899 62.8483H12.2825L11.0034 59.3223L10.0636 64.2378H8.40918L10.0407 55.7832H11.5255L13.2582 60.8814L16.9912 55.7832Z" fill="white"/>
<path d="M20.0159 63.9736C19.5754 63.7322 19.2556 63.3962 19.0501 62.9592C18.8445 62.5221 18.7759 62.0132 18.8412 61.4294C18.9163 60.7738 19.1121 60.2029 19.4286 59.7137C19.7451 59.2277 20.1563 58.8526 20.6653 58.5916C21.1743 58.3307 21.7454 58.2035 22.3817 58.2035C23.018 58.2035 23.5564 58.3242 23.9937 58.5623C24.4309 58.8004 24.7573 59.1396 24.9596 59.5767C25.1651 60.0138 25.2337 60.5226 25.1684 61.1065C25.0934 61.7719 24.8976 62.3427 24.5811 62.8287C24.2645 63.3114 23.8534 63.6833 23.3443 63.9442C22.8353 64.2052 22.2642 64.3356 21.6279 64.3356C20.9916 64.3356 20.4532 64.2117 20.0159 63.9736ZM22.8614 62.4373C23.129 62.085 23.2954 61.6251 23.3606 61.0575C23.4716 60.066 23.1029 59.5702 22.2479 59.5702C21.7813 59.5702 21.4126 59.7463 21.145 60.0986C20.8741 60.4508 20.711 60.9075 20.6457 61.4653C20.5348 62.4634 20.9035 62.9657 21.7584 62.9657C22.2251 62.9657 22.5938 62.7895 22.8614 62.4373Z" fill="white"/>
<path d="M31.7798 58.546C32.1355 58.7743 32.3965 59.1005 32.5564 59.531C32.7163 59.9583 32.7652 60.4606 32.7 61.0347C32.6282 61.674 32.4455 62.2448 32.1518 62.7439C31.8581 63.2429 31.4796 63.6344 31.0195 63.9116C30.5561 64.1921 30.0471 64.3324 29.4923 64.3324C28.67 64.3324 28.0957 64.0258 27.7629 63.4093L27.6095 64.2378H25.8115L27.43 55.7832H29.2541L28.6211 59.032C28.843 58.7775 29.1203 58.5753 29.4499 58.4253C29.7795 58.2785 30.1319 58.2035 30.5006 58.2035C30.9934 58.2035 31.4208 58.3176 31.7798 58.546ZM30.3571 62.4797C30.6377 62.1568 30.8106 61.7132 30.8759 61.1554C30.9346 60.6433 30.8628 60.2519 30.6638 59.9811C30.4647 59.7104 30.1515 59.5734 29.724 59.5734C29.3063 59.5734 28.9539 59.7365 28.6733 60.0594C28.3927 60.3823 28.2197 60.8194 28.1577 61.3739C28.099 61.8926 28.1675 62.2905 28.3633 62.5612C28.5591 62.832 28.8658 62.969 29.2835 62.969C29.7175 62.9657 30.0732 62.8026 30.3571 62.4797Z" fill="white"/>
<path d="M33.3364 64.2378L34.472 58.3502H36.2961L35.1605 64.2378H33.3364ZM34.9451 55.519H36.8998L36.5767 57.2086H34.6221L34.9451 55.519Z" fill="white"/>
<path d="M36.7495 64.2378L38.3778 55.7832H40.2019L38.5736 64.2378H36.7495Z" fill="white"/>
<path d="M40.1396 64.2378L41.2752 58.3502H43.0993L41.9637 64.2378H40.1396ZM41.7516 55.519H43.7062L43.3832 57.2086H41.4286L41.7516 55.519Z" fill="white"/>
<path d="M46.304 61.9219C46.1669 62.6428 46.441 63.0016 47.123 63.0016C47.2764 63.0016 47.4624 62.9885 47.681 62.9657L47.3286 64.2737C47.0904 64.3128 46.8619 64.3324 46.6466 64.3324C45.8341 64.3324 45.2402 64.1562 44.8714 63.804C44.4994 63.4517 44.3526 62.9331 44.4309 62.2448C44.4472 62.1013 44.4636 61.9937 44.4799 61.9219L44.9106 59.7039H43.7881L44.0491 58.3502H45.1716L45.498 56.6248H47.3221L46.9957 58.3502H48.4805L48.2325 59.7039H46.7347L46.304 61.9219Z" fill="white"/>
<path d="M54.0114 58.36H55.8354L50.7156 66.3938H48.8687L50.4676 63.8986L49.1003 58.3568H50.9473L51.7696 62.085L54.0114 58.36Z" fill="white"/>
<path d="M67.8603 55.7832H69.3222L67.6907 64.2378H66.0363L66.9989 59.2375L64.359 62.8483H63.1517L61.8725 59.3223L60.9327 64.2378H59.2783L60.9099 55.7832H62.3946L64.1273 60.8814L67.8603 55.7832Z" fill="white"/>
<path d="M74.8463 58.7612C75.202 59.1331 75.3391 59.6941 75.2542 60.4476C75.2347 60.6237 75.2151 60.7542 75.1988 60.8423L74.5494 64.2378H72.8232L72.9733 63.4354C72.7873 63.7224 72.5491 63.9442 72.2587 64.1008C71.9683 64.2574 71.642 64.3356 71.2798 64.3356C70.8849 64.3356 70.539 64.2606 70.2421 64.1073C69.9451 63.954 69.7232 63.7485 69.5764 63.4843C69.4296 63.2201 69.3741 62.9233 69.41 62.5971C69.4622 62.1502 69.6156 61.7882 69.8766 61.5174C70.1377 61.2467 70.5227 61.0477 71.035 60.9238C71.5473 60.7999 72.2195 60.7379 73.0484 60.7379H73.4824L73.5117 60.5813C73.5737 60.229 73.5346 59.9714 73.3877 59.8083C73.2409 59.6452 72.9798 59.5636 72.6013 59.5636C72.3044 59.5636 71.9781 59.6158 71.6224 59.7202C71.27 59.8246 70.9273 59.9681 70.601 60.1508L70.34 58.9406C70.6957 58.7253 71.1231 58.5492 71.6322 58.4122C72.138 58.2752 72.6242 58.21 73.0908 58.21C73.9066 58.2035 74.4907 58.3894 74.8463 58.7612ZM72.7938 62.7308C73.0418 62.496 73.2017 62.1894 73.2768 61.8143L73.3127 61.612H72.9864C72.3598 61.612 71.9128 61.6708 71.6518 61.7914C71.3874 61.9121 71.2406 62.1144 71.208 62.4047C71.1851 62.6134 71.2373 62.7798 71.3679 62.9037C71.4984 63.0277 71.6844 63.0896 71.9259 63.0896C72.2554 63.0864 72.5458 62.9689 72.7938 62.7308Z" fill="white"/>
<path d="M81.3465 58.1937L81.1638 59.6941L80.0282 59.8148C79.5387 59.8637 79.1798 59.9909 78.9481 60.1997C78.7164 60.4084 78.5533 60.7314 78.4652 61.1717L77.8778 64.241H76.0537L77.186 58.3633H78.9253L78.7752 59.1657C79.2581 58.6047 79.9727 58.2915 80.9223 58.2198L81.3465 58.1937Z" fill="white"/>
<path d="M88.4961 58.36L85.4712 61.201L87.5074 64.2345H85.3113L83.5068 61.5957L83.0043 64.2345H81.1802L82.7987 55.7799H84.6228L83.6504 60.8651L86.2739 58.36H88.4961Z" fill="white"/>
<path d="M93.3485 58.9308C93.7694 59.4136 93.926 60.1116 93.8249 61.0249C93.802 61.2174 93.7694 61.4196 93.7204 61.6381H89.87C89.8406 62.5351 90.2844 62.982 91.2046 62.982C91.8083 62.982 92.4054 62.7896 92.996 62.4047L93.2473 63.6148C92.9634 63.8398 92.6143 64.016 92.1966 64.1432C91.7789 64.2704 91.3547 64.3356 90.9174 64.3356C90.2974 64.3356 89.7688 64.215 89.3283 63.9768C88.8878 63.7355 88.5647 63.3995 88.3559 62.9624C88.147 62.5253 88.0752 62.0198 88.1405 61.4457C88.2123 60.8129 88.4048 60.2519 88.7246 59.7593C89.0411 59.2668 89.4425 58.8852 89.9287 58.6145C90.4149 58.3437 90.9435 58.2067 91.5146 58.2067C92.314 58.2035 92.9275 58.4481 93.3485 58.9308ZM90.0037 60.7346H92.3467C92.3956 60.3041 92.3369 59.9811 92.1705 59.7691C92.004 59.5571 91.756 59.4527 91.4265 59.4527C90.7118 59.4527 90.2387 59.88 90.0037 60.7346Z" fill="white"/>
<path d="M97.2576 61.9219C97.1205 62.6428 97.3946 63.0016 98.0766 63.0016C98.23 63.0016 98.416 62.9885 98.6346 62.9657L98.2822 64.2737C98.044 64.3128 97.8156 64.3324 97.6002 64.3324C96.7877 64.3324 96.1938 64.1562 95.8251 63.804C95.4531 63.4517 95.3062 62.9331 95.3845 62.2448C95.4009 62.1013 95.4172 61.9937 95.4335 61.9219L95.8642 59.7039H94.7417L95.0028 58.3502H96.1253L96.4516 56.6248H98.2757L97.9494 58.3502H99.4341L99.1861 59.7039H97.6883L97.2576 61.9219Z" fill="white"/>
<path d="M105.419 58.546C105.775 58.7743 106.036 59.1005 106.196 59.531C106.356 59.9583 106.404 60.4606 106.339 61.0347C106.267 61.674 106.085 62.2448 105.791 62.7439C105.497 63.2429 105.119 63.6344 104.659 63.9116C104.195 64.1921 103.686 64.3324 103.132 64.3324C102.326 64.3324 101.751 64.0323 101.409 63.4321L100.844 66.3938H99.02L100.567 58.347H102.365L102.224 59.0548C102.446 58.7906 102.727 58.5818 103.063 58.4318C103.399 58.2785 103.755 58.2035 104.133 58.2035C104.636 58.2035 105.063 58.3176 105.419 58.546ZM103.996 62.4797C104.277 62.1568 104.45 61.7132 104.515 61.1554C104.574 60.6433 104.502 60.2519 104.303 59.9811C104.104 59.7104 103.791 59.5734 103.363 59.5734C102.946 59.5734 102.593 59.7365 102.313 60.0594C102.032 60.3823 101.859 60.8194 101.797 61.3739C101.738 61.8926 101.807 62.2905 102.003 62.5612C102.198 62.832 102.505 62.969 102.923 62.969C103.357 62.9657 103.716 62.8026 103.996 62.4797Z" fill="white"/>
<path d="M106.976 64.2378L108.604 55.7832H110.428L108.8 64.2378H106.976Z" fill="white"/>
<path d="M115.818 58.7612C116.174 59.1331 116.311 59.6941 116.226 60.4476C116.206 60.6237 116.187 60.7542 116.17 60.8423L115.521 64.2378H113.795L113.945 63.4354C113.759 63.7224 113.521 63.9442 113.23 64.1008C112.94 64.2574 112.614 64.3356 112.251 64.3356C111.857 64.3356 111.511 64.2606 111.214 64.1073C110.917 63.954 110.695 63.7485 110.548 63.4843C110.401 63.2201 110.346 62.9233 110.382 62.5971C110.434 62.1502 110.587 61.7882 110.848 61.5174C111.109 61.2467 111.494 61.0477 112.007 60.9238C112.519 60.7999 113.191 60.7379 114.02 60.7379H114.454L114.483 60.5813C114.545 60.229 114.506 59.9714 114.359 59.8083C114.213 59.6452 113.952 59.5636 113.573 59.5636C113.276 59.5636 112.95 59.6158 112.594 59.7202C112.242 59.8246 111.899 59.9681 111.573 60.1508L111.312 58.9406C111.667 58.7253 112.095 58.5492 112.604 58.4122C113.11 58.2752 113.596 58.21 114.062 58.21C114.875 58.2035 115.462 58.3894 115.818 58.7612ZM113.766 62.7308C114.014 62.496 114.173 62.1894 114.248 61.8143L114.284 61.612H113.958C113.332 61.612 112.884 61.6708 112.623 61.7914C112.359 61.9121 112.212 62.1144 112.18 62.4047C112.157 62.6134 112.209 62.7798 112.34 62.9037C112.47 63.0277 112.656 63.0896 112.898 63.0896C113.227 63.0864 113.518 62.9689 113.766 62.7308Z" fill="white"/>
<path d="M118.308 63.9736C117.864 63.7322 117.541 63.3995 117.336 62.9657C117.13 62.5351 117.062 62.0296 117.127 61.4555C117.202 60.7933 117.401 60.2127 117.727 59.7235C118.054 59.2309 118.478 58.8558 119.006 58.5949C119.535 58.3339 120.132 58.2067 120.801 58.2067C121.744 58.2067 122.488 58.4514 123.036 58.9374L122.305 60.1736C121.826 59.7887 121.304 59.5995 120.742 59.5995C120.259 59.5995 119.865 59.7593 119.558 60.079C119.251 60.3987 119.065 60.852 119 61.4326C118.944 61.9219 119.023 62.2938 119.235 62.5547C119.447 62.8156 119.767 62.9429 120.194 62.9429C120.733 62.9429 121.304 62.7504 121.901 62.3688L122.132 63.6148C121.832 63.8398 121.49 64.016 121.101 64.1432C120.713 64.2704 120.318 64.3356 119.914 64.3356C119.287 64.3324 118.752 64.2117 118.308 63.9736Z" fill="white"/>
<path d="M128.447 58.9308C128.868 59.4136 129.024 60.1116 128.923 61.0249C128.9 61.2174 128.868 61.4196 128.819 61.6381H124.968C124.939 62.5351 125.383 62.982 126.303 62.982C126.906 62.982 127.504 62.7896 128.094 62.4047L128.345 63.6148C128.062 63.8398 127.712 64.016 127.295 64.1432C126.877 64.2704 126.453 64.3356 126.016 64.3356C125.396 64.3356 124.867 64.215 124.426 63.9768C123.986 63.7355 123.663 63.3995 123.454 62.9624C123.245 62.5253 123.173 62.0198 123.239 61.4457C123.31 60.8129 123.503 60.2519 123.823 59.7593C124.139 59.2668 124.541 58.8852 125.027 58.6145C125.513 58.3437 126.042 58.2067 126.613 58.2067C127.412 58.2035 128.026 58.4481 128.447 58.9308ZM125.102 60.7346H127.445C127.494 60.3041 127.435 59.9811 127.269 59.7691C127.102 59.5571 126.854 59.4527 126.525 59.4527C125.81 59.4527 125.337 59.88 125.102 60.7346Z" fill="white"/>
</svg>
