<svg width="63" height="59" viewBox="0 0 63 59" fill="none" xmlns="http://www.w3.org/2000/svg">
<path d="M37.4602 33.981C37.2371 34.3792 36.6433 34.4898 36.2424 34.2715C35.8717 34.0462 35.4159 33.8359 34.8752 33.6406C34.35 33.4454 33.7938 33.3177 33.2068 33.2576V37.1557C33.284 37.1707 33.3613 37.1932 33.4385 37.2233C33.5312 37.2383 33.6239 37.2608 33.7166 37.2909C34.798 37.5612 35.7326 37.8767 36.5205 38.2372C37.3084 38.5977 37.9186 39.0784 38.3512 39.6793C38.7837 40.2651 39 41.0462 39 42.0226C39 43.1042 38.7451 43.9904 38.2353 44.6814C37.7255 45.3574 37.0458 45.8606 36.1961 46.1911C35.7073 46.3847 35.1894 46.5293 34.6423 46.625C33.9747 46.7417 33.4385 47.2882 33.4385 47.9658V48.4566C33.4385 48.8854 33.0909 49.2329 32.6622 49.2329C32.2335 49.2329 31.8859 48.8854 31.8859 48.4566V47.9296C31.8859 47.2524 31.3655 46.6951 30.6986 46.577C30.0425 46.4608 29.3955 46.2946 28.7576 46.0784C28.1497 45.8635 27.5776 45.6139 27.0411 45.3295C26.4297 45.0055 26.244 44.241 26.5667 43.629L26.8837 43.0276C27.1484 42.5256 27.8546 42.3828 28.3405 42.676C28.8039 42.9314 29.3601 43.1868 30.0089 43.4421C30.6578 43.6825 31.3529 43.8477 32.0945 43.9378V40.0623C31.9709 40.0172 31.8396 39.9797 31.7005 39.9496C31.5769 39.9196 31.4534 39.8821 31.3298 39.837C30.2793 39.5516 29.4064 39.2361 28.7112 38.8906C28.0315 38.5301 27.514 38.087 27.1586 37.5612C26.8188 37.0205 26.6488 36.337 26.6488 35.5108C26.6488 34.5044 26.8806 33.6481 27.344 32.9421C27.8075 32.2211 28.4332 31.6578 29.221 31.2522C29.7128 30.9991 30.2437 30.8074 30.8137 30.6771C31.4135 30.5401 31.8859 30.0377 31.8859 29.4225V29.0092C31.8859 28.5805 32.2335 28.2329 32.6622 28.2329C33.0909 28.2329 33.4385 28.5805 33.4385 29.0092V29.4146C33.4385 30.032 33.9161 30.5366 34.5224 30.6531C35.0963 30.7633 35.6465 30.9255 36.1729 31.1396C36.6183 31.3097 37.033 31.4918 37.4169 31.6858C38.0011 31.981 38.1735 32.7074 37.8537 33.2784L37.4602 33.981ZM29.9626 35.0151C29.9626 35.5108 30.1402 35.8939 30.4955 36.1642C30.8509 36.4196 31.3838 36.6524 32.0945 36.8627V33.2351C30.6732 33.3552 29.9626 33.9486 29.9626 35.0151ZM35.5936 42.3381C35.5936 41.8273 35.3773 41.4293 34.9447 41.1439C34.5276 40.8584 33.9483 40.6031 33.2068 40.3778V43.9829C34.798 43.9228 35.5936 43.3745 35.5936 42.3381Z" fill="#323A45"/>
<path d="M32.501 21.2329C42.166 21.2329 50.001 29.0679 50.001 38.7329C50.001 48.3979 42.166 56.2329 32.501 56.2329C22.836 56.2329 15.001 48.3979 15.001 38.7329C15.001 29.0679 22.836 21.2329 32.501 21.2329Z" stroke="#323A45" stroke-width="4"/>
<path d="M56.8683 10.8846L48.9951 21.4082L61.852 22.3072L56.8683 10.8846Z" fill="#323A45"/>
<path fill-rule="evenodd" clip-rule="evenodd" d="M21.867 11.1286C11.9263 15.1173 6.55656 24.0301 6.55656 36.1404L6.55766 36.1399C6.55766 25.6957 14.5372 18.0374 23.2382 14.5461C31.9755 11.0403 43.314 11.7573 53.4225 18.3496L55.434 15.2652C44.3681 8.04851 31.7713 7.15453 21.867 11.1286Z" fill="#323A45"/>
</svg>
