<svg xmlns="http://www.w3.org/2000/svg" width="24" height="24" viewBox="0 0 24 24" fill="none">
  <path d="M21.9573 0H1.75212C0.784517 0 0 0.760544 0 1.69838V22.011C0 22.9491 0.784517 23.7094 1.75212 23.7094H21.9573C22.9249 23.7094 23.7094 22.9491 23.7094 22.011V1.69838C23.7094 0.760544 22.9249 0 21.9573 0ZM7.1871 19.8471H3.60593V9.14102H7.1871V19.8471ZM5.39652 7.67947H5.37333C4.17153 7.67947 3.39439 6.85728 3.39439 5.82987C3.39439 4.77928 4.19524 3.98001 5.42023 3.98001C6.64547 3.98001 7.39943 4.77928 7.42261 5.82987C7.42261 6.85728 6.64521 7.67947 5.39652 7.67947ZM20.1 19.8471H16.5194V14.1197C16.5194 12.6806 16.0009 11.6987 14.7051 11.6987C13.7156 11.6987 13.1266 12.3608 12.8676 13.0001C12.773 13.2288 12.7498 13.5483 12.7498 13.8684V19.8471H9.16868C9.16868 19.8471 9.21557 10.1458 9.16868 9.14102H12.7498V10.6574C13.2256 9.92791 14.0765 8.88996 15.9772 8.88996C18.3334 8.88996 20.1 10.42 20.1 13.7085V19.8471Z" fill="white"></path>
</svg>
