<svg xmlns="http://www.w3.org/2000/svg" width="24" height="17" viewBox="0 0 24 17" fill="none">
  <path d="M23.2138 2.5917C22.9412 1.57167 22.1377 0.768184 21.1177 0.495526C19.2689 -1.25617e-07 11.8547 0 11.8547 0C11.8547 0 4.4405 -1.25617e-07 2.5917 0.495526C1.57167 0.768184 0.768184 1.57167 0.495526 2.5917C0 4.4405 0 8.29828 0 8.29828C0 8.29828 0 12.1561 0.495526 14.0049C0.768184 15.0249 1.57167 15.8284 2.5917 16.101C4.4405 16.5966 11.8547 16.5966 11.8547 16.5966C11.8547 16.5966 19.2689 16.5966 21.1177 16.101C22.1377 15.8284 22.9412 15.0249 23.2138 14.0049C23.7094 12.1561 23.7094 8.29828 23.7094 8.29828C23.7094 8.29828 23.7094 4.4405 23.2138 2.5917ZM9.48375 11.8547V4.74187L15.6434 8.29828L9.48375 11.8547Z" fill="white"></path>
</svg>
