<svg fill="none" xmlns="http://www.w3.org/2000/svg" viewBox="0 0 357 357"><path d="M155.5 15.5H43.36c-.75 0-1.36.6-1.36 1.36 0 1.19-1.89 1.41-2.59 2.37l-.12.19c-.21.35-.2.8 0 1.16a8.82 8.82 0 0 0 2.22 2.65 11.42 11.42 0 0 1 3.56 4.63l.63 1.69c.85 2.26 1.13 4.7.8 7.1l-.69 5.06c-.2 1.5-1.08 3.02-1.52 4.47-.88 2.9.51 6-.65 8.8l-5.08 12.26c-1 2.4-.81 4.92-.14 7.42.7 2.6 1.85 5.25 3.86 7.05C43.9 83.16 45.27 84.67 47 87l3 3.25c1.95 2.1 3.02 5 3.73 7.77.7 2.73.68 5.41.23 8.2-.76 4.75.32 7.93 1.95 12.04.68 1.72.2 3.61 0 5.46-.11 1.16.51 2.24 1.3 3.1l4.29 4.68c5.93 6.18 9.39 10.22 14.2 17.65 1.1 1.72.82 3.86.3 5.85a5.4 5.4 0 0 0-.14.83 2.37 2.37 0 0 0 2.29 2.6c1.47 0 2.98.27 3.96 1.38l1.12 1.26c.83.94 1.96 1.52 3.04 2.13.45.26.84.56 1.2.94 1.77 1.85 1.57 4.7 1.49 7.26v1.18c.01.94.15 1.88.37 2.8l1.15 4.9c.35 1.48.8 2.93 1.5 4.27 1.52 2.87 2.88 4.13 5.02 5.95l2.94 2.2a11.22 11.22 0 0 1 4.08 5.98l1.14 4.09a2.6 2.6 0 0 1-.43 2.25 2.6 2.6 0 0 0-.45 2.17l1.42 5.93c.52 2.23 1.4 4.36 3.15 5.84a30.19 30.19 0 0 1 5.81 6.35 50.4 50.4 0 0 0 5.62 6.9c.8.86 1.47 1.84 1.95 2.9l1.03 2.27a4.44 4.44 0 0 0 2.4 2.28c.55.22 1.06.56 1.48.98l4.38 4.38c.32.32.7.55 1.12.7a2.87 2.87 0 0 1 1.92 3.23l-.26 1.41c-.2 1.06-.05 2.2.7 2.97.4.43.87.82 1.48 1.29.34.25.72.46 1.12.6 2 .75 3.24 2.77 3 4.89l-.02.19c-.05.46-.04.93.04 1.4l.63 3.53c.5 2.81-.47 5.93.76 8.5a7.1 7.1 0 0 0 1.83 2.22c.43.37.8.8 1.09 1.3a4.56 4.56 0 0 0 4.7 2.2c3.98-.64 7.04-.75 11.18.69 1.48.51 2.97 1.01 4.5 1.27l.2.03c5.72.97 11.2 3.57 15.04 7.92a11.81 11.81 0 0 0 3.26 2.82c.87.45 1.73.73 2.8.97 1.25.28 2.54.35 3.82.35h6.42c1.4 0 2.8.39 3.84 1.33a9.47 9.47 0 0 1 1.72 2.13c.39.63.34 1.42-.07 2.03-.22.33-.34.72-.34 1.12v.37c0 .96.38 1.93 1.13 2.55.37.31.82.54 1.86.77.64.15 1.31 0 1.86-.37.43-.28.92-.43 1.43-.43h.81c1.24 0 2.43.43 3.37 1.22L226 315.5c2.8 2.71 4.5 4.5 7.07 11.75.64 1.8.82 3.73.86 5.65.06 2.37.5 3.89 1.93 5.12.4.33.7.76.8 1.26.2.98 1.1 1.65 2.08 1.57l63.73-5.67c1.35-.12 2.7-.33 3.98-.79.58-.2 1.07-.4 1.52-.63 1.42-.7 2.7-1.88 3-3.44a4.1 4.1 0 0 0-.22-2.12 4.86 4.86 0 0 0-2.38-2.59c-2.3-1.25-3.2-3.86-3.37-6.47a11.1 11.1 0 0 0-.35-2.1c-.1-.36-.15-.73-.15-1.1v-.77c0-1.28.8-2.3 1.91-2.95.67-.39 1.1-1.17 1.4-1.89.13-.34.31-.65.55-.99a6.68 6.68 0 0 0 1.36-3.09c.35-3.1.37-5.44.04-8.62-.14-1.34.3-2.7 1.26-3.65l.17-.17c.53-.53.88-1.2 1-1.94a3.7 3.7 0 0 1 2.02-2.69c1.93-.95 3.29-1.8 4.24-2.83 1.42-1.54 1.07-4.01-.5-5.4-.62-.55-1.32-1-2.17-1.44a4 4 0 0 1-2.28-3.5c0-.34-.05-.67-.13-1-.43-1.57-.7-2.68-1.48-4.1-.54-.97-2.06-2.52-2.78-3.37-3.53-4.1-3.99-9.27-7.94-12.96L167.1 129.1a24 24 0 0 1-7.6-17.52V19.5a4 4 0 0 0-4-4Z" fill="#F3F3F4" stroke="#000"/><circle cx="178.5" cy="178.5" r="178.5" fill="#fff"/><mask id="a" style="mask-type:alpha" maskUnits="userSpaceOnUse" x="0" y="0" width="357" height="357"><circle cx="178.5" cy="178.5" r="178.5" fill="#fff"/></mask><g mask="url(#a)"><path d="M155.5 15.5H43.36c-.75 0-1.36.6-1.36 1.36 0 1.19-1.89 1.41-2.59 2.37l-.12.19c-.21.35-.2.8 0 1.16a8.82 8.82 0 0 0 2.22 2.65 11.42 11.42 0 0 1 3.56 4.63l.63 1.69c.85 2.26 1.13 4.7.8 7.1l-.69 5.06c-.2 1.5-1.08 3.02-1.52 4.47-.88 2.9.51 6-.65 8.8l-5.08 12.26c-1 2.4-.81 4.92-.14 7.42.7 2.6 1.85 5.25 3.86 7.05C43.9 83.16 45.27 84.67 47 87l3 3.25c1.95 2.1 3.02 5 3.73 7.77.7 2.73.68 5.41.23 8.2-.76 4.75.32 7.93 1.95 12.04.68 1.72.2 3.61 0 5.46-.11 1.16.51 2.24 1.3 3.1l4.29 4.68c5.93 6.18 9.39 10.22 14.2 17.65 1.1 1.72.82 3.86.3 5.85a5.4 5.4 0 0 0-.14.83 2.37 2.37 0 0 0 2.29 2.6c1.47 0 2.98.27 3.96 1.38l1.12 1.26c.83.94 1.96 1.52 3.04 2.13.45.26.84.56 1.2.94 1.77 1.85 1.57 4.7 1.49 7.26v1.18c.01.94.15 1.88.37 2.8l1.15 4.9c.35 1.48.8 2.93 1.5 4.27 1.52 2.87 2.88 4.13 5.02 5.95l2.94 2.2a11.22 11.22 0 0 1 4.08 5.98l1.14 4.09a2.6 2.6 0 0 1-.43 2.25 2.6 2.6 0 0 0-.45 2.17l1.42 5.93c.52 2.23 1.4 4.36 3.15 5.84a30.19 30.19 0 0 1 5.81 6.35 50.4 50.4 0 0 0 5.62 6.9c.8.86 1.47 1.84 1.95 2.9l1.03 2.27a4.44 4.44 0 0 0 2.4 2.28c.55.22 1.06.56 1.48.98l4.38 4.38c.32.32.7.55 1.12.7a2.87 2.87 0 0 1 1.92 3.23l-.26 1.41c-.2 1.06-.05 2.2.7 2.97.4.43.87.82 1.48 1.29.34.25.72.46 1.12.6 2 .75 3.24 2.77 3 4.89l-.02.19c-.05.46-.04.93.04 1.4l.63 3.53c.5 2.81-.47 5.93.76 8.5a7.1 7.1 0 0 0 1.83 2.22c.43.37.8.8 1.09 1.3a4.56 4.56 0 0 0 4.7 2.2c3.98-.64 7.04-.75 11.18.69 1.48.51 2.97 1.01 4.5 1.27l.2.03c5.72.97 11.2 3.57 15.04 7.92a11.81 11.81 0 0 0 3.26 2.82c.87.45 1.73.73 2.8.97 1.25.28 2.54.35 3.82.35h6.42c1.4 0 2.8.39 3.84 1.33a9.47 9.47 0 0 1 1.72 2.13c.39.63.34 1.42-.07 2.03-.22.33-.34.72-.34 1.12v.37c0 .96.38 1.93 1.13 2.55.37.31.82.54 1.86.77.64.15 1.31 0 1.86-.37.43-.28.92-.43 1.43-.43h.81c1.24 0 2.43.43 3.37 1.22L226 315.5c2.8 2.71 4.5 4.5 7.07 11.75.64 1.8.82 3.73.86 5.65.06 2.37.5 3.89 1.93 5.12.4.33.7.76.8 1.26.2.98 1.1 1.65 2.08 1.57l63.73-5.67c1.35-.12 2.7-.33 3.98-.79.58-.2 1.07-.4 1.52-.63 1.42-.7 2.7-1.88 3-3.44a4.1 4.1 0 0 0-.22-2.12 4.86 4.86 0 0 0-2.38-2.59c-2.3-1.25-3.2-3.86-3.37-6.47a11.1 11.1 0 0 0-.35-2.1c-.1-.36-.15-.73-.15-1.1v-.77c0-1.28.8-2.3 1.91-2.95.67-.39 1.1-1.17 1.4-1.89.13-.34.31-.65.55-.99a6.68 6.68 0 0 0 1.36-3.09c.35-3.1.37-5.44.04-8.62-.14-1.34.3-2.7 1.26-3.65l.17-.17c.53-.53.88-1.2 1-1.94a3.7 3.7 0 0 1 2.02-2.69c1.93-.95 3.29-1.8 4.24-2.83 1.42-1.54 1.07-4.01-.5-5.4-.62-.55-1.32-1-2.17-1.44a4 4 0 0 1-2.28-3.5c0-.34-.05-.67-.13-1-.43-1.57-.7-2.68-1.48-4.1-.54-.97-2.06-2.52-2.78-3.37-3.53-4.1-3.99-9.27-7.94-12.96L167.1 129.1a24 24 0 0 1-7.6-17.52V19.5a4 4 0 0 0-4-4Z" stroke="#000"/><mask id="b" style="mask-type:alpha" maskUnits="userSpaceOnUse" x="37" y="15" width="283" height="326"><path d="M155.5 15.5H43.36c-.75 0-1.36.6-1.36 1.36 0 1.19-1.89 1.41-2.59 2.37l-.12.19c-.21.35-.2.8 0 1.16a8.82 8.82 0 0 0 2.22 2.65 11.42 11.42 0 0 1 3.56 4.63l.63 1.69c.85 2.26 1.13 4.7.8 7.1l-.69 5.06c-.2 1.5-1.08 3.02-1.52 4.47-.88 2.9.51 6-.65 8.8l-5.08 12.26c-1 2.4-.81 4.92-.14 7.42.7 2.6 1.85 5.25 3.86 7.05C43.9 83.16 45.27 84.67 47 87l3 3.25c1.95 2.1 3.02 5 3.73 7.77.7 2.73.68 5.41.23 8.2-.76 4.75.32 7.93 1.95 12.04.68 1.72.2 3.61 0 5.46-.11 1.16.51 2.24 1.3 3.1l4.29 4.68c5.93 6.18 9.39 10.22 14.2 17.65 1.1 1.72.82 3.86.3 5.85a5.4 5.4 0 0 0-.14.83 2.37 2.37 0 0 0 2.29 2.6c1.47 0 2.98.27 3.96 1.38l1.12 1.26c.83.94 1.96 1.52 3.04 2.13.45.26.84.56 1.2.94 1.77 1.85 1.57 4.7 1.49 7.26v1.18c.01.94.15 1.88.37 2.8l1.15 4.9c.35 1.48.8 2.93 1.5 4.27 1.52 2.87 2.88 4.13 5.02 5.95l2.94 2.2a11.22 11.22 0 0 1 4.08 5.98l1.14 4.09a2.6 2.6 0 0 1-.43 2.25 2.6 2.6 0 0 0-.45 2.17l1.42 5.93c.52 2.23 1.4 4.36 3.15 5.84a30.19 30.19 0 0 1 5.81 6.35 50.4 50.4 0 0 0 5.62 6.9c.8.86 1.47 1.84 1.95 2.9l1.03 2.27a4.44 4.44 0 0 0 2.4 2.28c.55.22 1.06.56 1.48.98l4.38 4.38c.32.32.7.55 1.12.7a2.87 2.87 0 0 1 1.92 3.23l-.26 1.41c-.2 1.06-.05 2.2.7 2.97.4.43.87.82 1.48 1.29.34.25.72.46 1.12.6 2 .75 3.24 2.77 3 4.89l-.02.19c-.05.46-.04.93.04 1.4l.63 3.53c.5 2.81-.47 5.93.76 8.5a7.1 7.1 0 0 0 1.83 2.22c.43.37.8.8 1.09 1.3a4.56 4.56 0 0 0 4.7 2.2c3.98-.64 7.04-.75 11.18.69 1.48.51 2.97 1.01 4.5 1.27l.2.03c5.72.97 11.2 3.57 15.04 7.92a11.81 11.81 0 0 0 3.26 2.82c.87.45 1.73.73 2.8.97 1.25.28 2.54.35 3.82.35h6.42c1.4 0 2.8.39 3.84 1.33a9.47 9.47 0 0 1 1.72 2.13c.39.63.34 1.42-.07 2.03-.22.33-.34.72-.34 1.12v.37c0 .96.38 1.93 1.13 2.55.37.31.82.54 1.86.77.64.15 1.31 0 1.86-.37.43-.28.92-.43 1.43-.43h.81c1.24 0 2.43.43 3.37 1.22L226 315.5c2.8 2.71 4.5 4.5 7.07 11.75.64 1.8.82 3.73.86 5.65.06 2.37.5 3.89 1.93 5.12.4.33.7.76.8 1.26.2.98 1.1 1.65 2.08 1.57l63.73-5.67c1.35-.12 2.7-.33 3.98-.79.58-.2 1.07-.4 1.52-.63 1.42-.7 2.7-1.88 3-3.44a4.1 4.1 0 0 0-.22-2.12 4.86 4.86 0 0 0-2.38-2.59c-2.3-1.25-3.2-3.86-3.37-6.47a11.1 11.1 0 0 0-.35-2.1c-.1-.36-.15-.73-.15-1.1v-.77c0-1.28.8-2.3 1.91-2.95.67-.39 1.1-1.17 1.4-1.89.13-.34.31-.65.55-.99a6.68 6.68 0 0 0 1.36-3.09c.35-3.1.37-5.44.04-8.62-.14-1.34.3-2.7 1.26-3.65l.17-.17c.53-.53.88-1.2 1-1.94a3.7 3.7 0 0 1 2.02-2.69c1.93-.95 3.29-1.8 4.24-2.83 1.42-1.54 1.07-4.01-.5-5.4-.62-.55-1.32-1-2.17-1.44a4 4 0 0 1-2.28-3.5c0-.34-.05-.67-.13-1-.43-1.57-.7-2.68-1.48-4.1-.54-.97-2.06-2.52-2.78-3.37-3.53-4.1-3.99-9.27-7.94-12.96L167.1 129.1a24 24 0 0 1-7.6-17.52V19.5a4 4 0 0 0-4-4Z" fill="#C4C4C4"/></mask><g mask="url(#b)" stroke="#000"><path d="M94.95 165.17a.99.99 0 0 1-.1-.19l-2.13-4.96a1 1 0 0 1 .7-1.37l1.52-.34a1 1 0 0 1 .82.18l7.91 5.92a1 1 0 0 0 .89.16l9.79-2.91a1 1 0 0 1 1.28.96l.01 7.82a1 1 0 0 0 .34.75l2.09 1.84a.08.08 0 0 0-.05-.01l-16.88.15a1 1 0 0 1-.83-.43l-5.36-7.57Z" fill="#463087"/><path d="M158.13 130.55c0-.26.1-.5.28-.7l5.05-5.27c.15-.15.2-.38.13-.58-.18-.55.48-1 .92-.62l7.09 6a1 1 0 0 1 .32 1l-.71 2.86a1 1 0 0 0 .1.74l1.64 2.87a1 1 0 0 1 .04.9l-1.88 4.29a1 1 0 0 1-1.61.31l-1.7-1.64a1 1 0 0 0-1.19-.15l-2.56 1.45a1 1 0 0 1-1.06-.05l-3.17-2.23c-.12-.08-.22-.2-.3-.32l-1.26-2.26a1 1 0 0 1-.13-.49v-6.11ZM130.79 137.72a1 1 0 0 1 .7-.96l4.82-1.49a1 1 0 0 1 .63.01l5.01 1.78a1 1 0 0 0 .53.04l9.6-1.87a1 1 0 0 0 .46-.23l3.93-3.41a1 1 0 0 1 1.66.75v3.76a1 1 0 0 1-.81.98l-11.3 2.26a1 1 0 0 0-.47.24l-3.72 3.37a1 1 0 0 1-.32.2l-8.84 3.4a1 1 0 0 1-1.3-.62l-.52-1.49c-.03-.1-.05-.21-.05-.32l-.01-6.4Z" fill="#B6C8D9"/><path d="M101.72 91.9a1 1 0 0 1-.1-.45l.03-1.8a1 1 0 0 1 1-.99l5.57-.01a1 1 0 0 0 .6-.2l4.05-3.09a1 1 0 0 0 .32-.41l1.44-3.52a1 1 0 0 1 .54-.54l2.78-1.17a1 1 0 0 1 1.37.72l1.86 8.95a1 1 0 0 0 .24.47l7.02 7.82a1 1 0 0 1-.36 1.59l-4.88 2.04a1 1 0 0 0-.52.5l-2.57 5.53a1 1 0 0 1-.66.55l-5.6 1.4a1 1 0 0 1-.27.03l-6.84-.25a1 1 0 0 1-.95-1.18l.31-1.67.74-4.16a1 1 0 0 0-1-1.18l-1.57.04a1 1 0 0 1-1.02-1.1l.4-3.56a1 1 0 0 0-.1-.54l-1.83-3.82Z" fill="#959CC1"/><path d="M157.41 137.06a1 1 0 0 1 1.07.5l.62 1.1a1 1 0 0 1-.44 1.4l-3.26 1.53a1 1 0 0 0-.41.36l-9.49 14.45-.1.13-3.16 3.4a1 1 0 0 1-1.47 0l-6.96-7.68c-.09-.1-.15-.2-.2-.32l-1.55-4.09a1 1 0 0 1 .57-1.28l8.89-3.41c.11-.05.22-.11.3-.2l3.73-3.37a1 1 0 0 1 .47-.24l11.4-2.28ZM104.9 106.22a1 1 0 0 1 .98 1.19l-.3 1.62-.98 3.99a1 1 0 0 0 .1.7l3.26 6.07a1 1 0 0 1 .1.67l-.23 1.1a1 1 0 0 1-.98.8H93.69a1 1 0 0 1-.77-.36l-3.65-4.44a1 1 0 0 1-.21-.46l-.75-4.12a1 1 0 0 0-.72-.79l-3.88-1.03a1 1 0 0 1-.7-.69l-.85-2.95a1 1 0 0 1 .96-1.28l21.78-.02Z" fill="#B6C8D9"/><path d="M92.79 158.8a1 1 0 0 1-.92-.26l-.76-.74a1 1 0 0 1-.21-1.16l1.78-3.68a1 1 0 0 1 1.1-.55l5.46 1.13c.11.02.23.03.34.01l7.06-1a1 1 0 0 1 .5.06l2.9 1.12a1 1 0 0 0 .83-.05l2.75-1.45a1 1 0 0 1 1.47.82l.5 7.43a1 1 0 0 1-.72 1.02l-10.3 3.07a1 1 0 0 1-.89-.16l-7.9-5.92c-.24-.18-.54-.24-.83-.18l-2.16.49Z" fill="#463087"/><path d="M57.25 14.33A1 1 0 0 1 58 16l-3.6 4.06a1 1 0 0 0-.25.6l-.4 7.57a1 1 0 0 0 .13.57l2.6 4.38a1 1 0 0 1 0 1.02l-.46.78a1 1 0 0 1-1.54.22l-1.93-1.78a1 1 0 0 0-.68-.27h-9.33a1 1 0 0 1-.96-.73l-1.86-6.57a1 1 0 0 0-.35-.52l-4.67-3.61a1 1 0 0 1 .34-1.76l1.65-.46a1 1 0 0 0 .73-1.1l-.37-2.7a1 1 0 0 1 .98-1.13l19.2-.24ZM127.7 130.2a1 1 0 0 1-.02-.77l2.23-5.8a1 1 0 0 1 .56-.58l8.34-3.29a1 1 0 0 1 .93.11l3.39 2.36a1 1 0 0 0 1.28-.12l3.09-3.15a1 1 0 0 1 .6-.3l11.4-1.25a1 1 0 0 1 .97.48l2.42 4.06a1 1 0 0 1 .09.2l.53 1.6a1 1 0 0 1-.22 1.02l-5.16 5.38-5.58 4.85c-.13.12-.3.2-.47.23l-9.6 1.87a1 1 0 0 1-.52-.04l-5-1.78a1 1 0 0 0-.64-.01l-4.69 1.45a1 1 0 0 1-1.2-.54l-2.73-5.97Z" fill="#B6C8D9"/><path d="M187.63 169.93a1 1 0 0 1 1.22-.14l6.1 3.7a1 1 0 0 1 .43.56l3.19 10.45c.1.3.31.54.6.65l3.54 1.33a1 1 0 0 1 .52.45l3.77 6.74a1 1 0 0 1 .12.49v3.76a1 1 0 0 1-.99 1l-15.83.1a1 1 0 0 0-1 .98l-.02 1a1 1 0 0 1-1 .98l-7.82-.1a1 1 0 0 0-.63.21l-7.41 5.82-2.41 2.22a1 1 0 0 1-.6.26l-7.12.54a1 1 0 0 0-.92 1v6.35a1 1 0 0 1-.31.72l-9.27 8.76a1 1 0 0 1-1.28.08l-8.55-6.3a1 1 0 0 1-.4-.66l-.7-4.66a1 1 0 0 1 .31-.9l1.61-1.47a1 1 0 0 0 .33-.77l-.18-4.75a1 1 0 0 0-.3-.68l-8-7.87a1 1 0 0 1 0-1.42l9.12-9.03a1 1 0 0 1 1.58.24l3.94 7.32a1 1 0 0 0 1.02.52l14.82-2.14a1 1 0 0 0 .67-.41l6.75-9.55a1 1 0 0 1 .77-.42l3.75-.16a1 1 0 0 0 .92-.71l1.85-6.2a1 1 0 0 1 .25-.44l7.56-7.45Z" fill="#6D65A3"/><path d="M76.34 92.86a1 1 0 0 1 .98-1.19l23.67.02a1 1 0 0 1 .9.57l1.65 3.46a1 1 0 0 1 .1.54l-.4 3.55a1 1 0 0 0 1.02 1.11l1.57-.04a1 1 0 0 1 1 1.18l-.59 3.34a1 1 0 0 1-.98.82l-22.45.02a1 1 0 0 1-1-1.01l.06-4.9a1 1 0 0 0-1-1.01h-2.44a1 1 0 0 1-.99-.8l-1.1-5.66Z" fill="#B6C8D9"/><path d="M41.7 34.03a1 1 0 0 1 .99-.88h9.19c.25 0 .5.1.68.27l2.59 2.4a1 1 0 0 0 .57.25l4.36.46a1 1 0 0 1 .86.71l1.64 5.7a1 1 0 0 1 .03.4l-1.01 7.4a1 1 0 0 1-.78.84l-3.03.66a1 1 0 0 0-.74 1.3l1.66 4.93a1 1 0 0 1 .05.32l-.02 24.72a1 1 0 0 1-1 1l-15.5-.01a1 1 0 0 1-.7-.3l-6.91-6.82a1 1 0 0 1-.25-.4l-2.3-6.96a1 1 0 0 1-.02-.54l.8-3.38a1 1 0 0 1 .08-.23L39 54.13a1 1 0 0 0 .07-.17l1.27-4.13a1 1 0 0 0-.09-.8l-1.4-2.4a1 1 0 0 1-.08-.85l2.3-6.37a1 1 0 0 0 .04-.23l.58-5.15Z" fill="#959CC1"/><path d="M272.78 343.75a1 1 0 0 1-1.1-1.01l.56-26.28a1 1 0 0 1 1-.98l39.54-.25a1 1 0 0 1 .99 1.2l-1.93 9.84a1 1 0 0 0 .54 1.1l4.7 2.28a1 1 0 0 1 .51.6l1 3.12a1 1 0 0 1 0 .63l-1.54 4.47a1 1 0 0 1-.7.64l-4.92 1.2a.94.94 0 0 1-.15.03l-38.5 3.41Z" fill="#B6C8D9"/><path d="M207.2 199.1a1.02 1.02 0 0 1-.07-.38v-4.56a1 1 0 0 0-.13-.49l-3.77-6.74a1 1 0 0 0-.52-.45l-3.53-1.33a1 1 0 0 1-.6-.65l-2.92-9.52a1 1 0 0 1 .96-1.3l25.23-.06c.25 0 .5.1.68.27l30.68 28.06 30.19 28.53a1 1 0 0 1-.48 1.7l-.55.12-.21.03-32.38-.06-21.82-.07-9.49.25a1 1 0 0 1-1-1.2l.44-2.27a1 1 0 0 0-.03-.48l-4.08-13.27-6.6-16.13Z" fill="#8D90BA"/><path d="M154.65 233.48a1 1 0 0 1 1-1l17.77-.01 43.8.01 9.71-.25a1 1 0 0 1 1.03 1l.03 32.2a1 1 0 0 1-1.01 1l-33.5.19a1 1 0 0 0-.77.36l-.16.18a1 1 0 0 1-.84.35l-9.65-.76a1 1 0 0 1-.4-.12l-5.34-2.88a.7.7 0 0 0-.33-.08.7.7 0 0 1-.7-.7v-5.1a1 1 0 0 0-.23-.65l-5.02-5.9a1 1 0 0 0-.75-.34l-2.92-.03a1 1 0 0 1-.94-.69l-1.69-5.16a1 1 0 0 0-.38-.51l-8.28-5.67a1 1 0 0 1-.43-.82v-4.62Z" fill="#463087"/><path d="M171.68 208.59a1 1 0 0 1 1.42.06l1.74 1.9a1 1 0 0 1 .2 1l-1.31 3.9c-.04.1-.06.2-.06.3l-.23 15.74a1 1 0 0 1-1 .98l-17.8.01h-.04a1 1 0 0 1-.82-.42l-2.1-3.02a1 1 0 0 1 .13-1.3l9.25-8.74a1 1 0 0 0 .31-.72v-6.36a1 1 0 0 1 .92-1l7.12-.53a1 1 0 0 0 .6-.26l1.67-1.54Z" fill="#8D90BA"/><path d="M77.39 99.44a1 1 0 0 1 .46-.11l3.02-.01a1 1 0 0 1 1 1l-.08 5.78c0 .1.02.2.04.29l1.17 4.08c.1.34.37.6.7.7l3.88 1.02c.38.1.66.41.73.8l.74 4.1a1 1 0 0 0 .21.47l3.45 4.2c.3.36.3.87.03 1.23l-1.01 1.36c-.06.08-.1.17-.14.27l-1.75 4.95a1 1 0 0 1-.67.63l-3.57 1.01a1 1 0 0 1-1.03-.3l-5-5.78a1 1 0 0 0-.33-.25l-3.21-1.55a1 1 0 0 1-.4-.34l-3.67-5.37a1 1 0 0 1-.1-.94l2-5.02a1 1 0 0 0 .06-.52l-1.3-8.42a1 1 0 0 1 .52-1.03l4.25-2.25ZM122.09 44a1 1 0 0 1 1-1h36.12a1 1 0 0 1 1 1l.12 27.38-.15 22.07a1 1 0 0 1-.88.99l-2.02.25a1 1 0 0 1-1.11-1.13l.88-6.52a1 1 0 0 0-.12-.62l-2.52-4.5a1 1 0 0 0-.61-.47l-3.14-.85a1 1 0 0 1-.4-.22l-6.36-5.64a1 1 0 0 0-.47-.24l-4.63-.92a1 1 0 0 0-.84.22l-2.39 2.02a1 1 0 0 1-.74.23l-4.1-.39a1 1 0 0 1-.91-1V69.9a1 1 0 0 0-1-1l-5.62.03a1 1 0 0 1-1-1L122.08 44Z" fill="#B6C8D9"/><path d="M192.45 268.11a1 1 0 0 1 .17-1.01l.1-.13a1 1 0 0 1 .76-.35l32.53-.18a1 1 0 0 1 1 .97l.57 17.58a1 1 0 0 1-.05.35l-3.64 11.18a1 1 0 0 1-.95.69l-4.18.01a1 1 0 0 0-.9.56l-3.78 7.73a1 1 0 0 1-.72.55l-5.4 1.02a1 1 0 0 1-.72-.14l-2.58-1.62a1 1 0 0 1-.46-1l.5-2.97a1 1 0 0 0-.14-.69l-2.7-4.33a1 1 0 0 0-1.02-.45l-6.7 1.19c-.19.03-.39 0-.56-.07l-2.68-1.13a1 1 0 0 1-.6-1.03l.18-1.71a1 1 0 0 1 .4-.7l3.73-2.81a1 1 0 0 1 .6-.2h2.31a1 1 0 0 0 .98-.8l.67-3.25a1 1 0 0 0-.05-.57l-6.67-16.69Zm6.56 46.32a1 1 0 0 1 .49-1.48l2.47-.93a1 1 0 0 1 .95.14l6.39 4.8a1 1 0 0 1 .32 1.2l-1.2 2.75a1 1 0 0 1-1.22.56l-4.23-1.33a1 1 0 0 1-.54-.41l-3.43-5.3Zm-.43 15.68a1 1 0 0 1 .6-1.4l2.14-.66a1 1 0 0 1 1.05.3l5.91 6.77a1 1 0 0 1-.1 1.43l-2.6 2.17a1 1 0 0 1-1.25.03l-2.09-1.58a.98.98 0 0 1-.29-.35l-3.37-6.7Z" fill="#463087"/><path d="M158.44 183.59a1 1 0 0 0 .46-.26l7.83-7.74a1 1 0 0 1 .7-.29l2.07-.02a1 1 0 0 0 .93-.64l1.6-4.16a1 1 0 0 1 .24-.36l6.94-6.74a1 1 0 0 1 1.46.07l.17.2a1 1 0 0 0 .72.36l3.15.14a1 1 0 0 1 .83.51l2.27 4.06a1 1 0 0 1-.17 1.2l-7.57 7.47a1 1 0 0 0-.26.42l-1.85 6.2a1 1 0 0 1-.91.72l-3.75.16a1 1 0 0 0-.77.42l-6.75 9.55a1 1 0 0 1-.68.41l-14.8 2.14a1 1 0 0 1-1.03-.52l-4.22-7.84a1 1 0 0 1 .18-1.19l1.13-1.1a1 1 0 0 1 .45-.26l11.63-2.91Z" fill="#959CC1"/><path d="M71.38 145.8a1 1 0 0 1 .72-1.55l4.61-.5a1 1 0 0 1 .75.22l4.1 3.42a1 1 0 0 0 .47.22l4.19.74c.11.02.23.06.33.12l5.65 3.32a1 1 0 0 1 .4 1.3l-1.93 4a1 1 0 0 1-.28.35l-4.53 3.54a1 1 0 0 1-.97.15l-3.32-1.24a1.01 1.01 0 0 0-.34-.06h-2.9a1 1 0 0 1-.6-.2l-5.22-3.78a1 1 0 0 1-.35-1.13l1.58-4.66a1 1 0 0 0-.12-.88l-2.24-3.39Z" fill="#6D65A3"/><path d="M149.1 167.72v-.02l1.04-2.76a1 1 0 0 1 .62-.6l8.38-2.8a1 1 0 0 1 .6-.01l5.59 1.62a1 1 0 0 0 .82-.13l6.83-4.42a1 1 0 0 1 1.1.01l4.89 3.33a1 1 0 0 1 .13 1.54l-6.82 6.64a1 1 0 0 0-.24.36l-1.61 4.16a1 1 0 0 1-.93.64l-2.08.02a1 1 0 0 0-.7.29l-7.22 7.15a1 1 0 0 1-1.49-.08l-5.34-6.67a1 1 0 0 1-.14-.23l-3.43-8.04ZM43.26 86.15a1 1 0 0 1 .76-1.65l14.73.01 16.5.8a1 1 0 0 1 .96 1l-.09 5.26a1 1 0 0 0 .02.2l1.33 6.83a1 1 0 0 1-.51 1.08l-3.8 2a1 1 0 0 0-.53 1.04l1.3 8.42a1 1 0 0 1-.06.52l-2 5.02a1 1 0 0 0 .1.94l3.7 5.4c.08.13.2.23.33.29.82.4.53 1.63-.38 1.62l-3.5-.04c-.07 0-.14 0-.21.02l-15.12 3.18a1 1 0 0 1-.95-.3l-3.66-4.01a1 1 0 0 1-.25-.8l.56-4.48a1 1 0 0 0-.05-.46l-3.57-9.91a1 1 0 0 1-.04-.56l1.55-6.89a1 1 0 0 0-.02-.52l-2.83-8.89a1 1 0 0 0-.2-.34l-4.07-4.78Z" fill="#B6C8D9"/><path d="M148.16 168.16a1 1 0 0 1 1.35.51l3.02 7.09c.03.08.08.16.14.23l5.06 6.32a1 1 0 0 1-.54 1.6l-10.38 2.6a1 1 0 0 0-.45.25l-1.67 1.63-10.27 10.17a1 1 0 0 1-1.17.17l-5.44-2.88a1 1 0 0 1-.43-.45l-1.89-3.9a.99.99 0 0 1-.1-.38l-.29-5.45a1 1 0 0 1 .3-.77l6.59-6.48a1 1 0 0 0 .28-.85l-.13-.93a1 1 0 0 1 .56-1.04l15.46-7.44Z" fill="#959CC1"/><path d="M118.77 15.43a1 1 0 0 1 1-1l39.45.08a1 1 0 0 1 1 1L160.21 42a1 1 0 0 1-1 1H119.8a1 1 0 0 1-1-.99l-.03-26.58Z" fill="#B6C8D9"/><path d="M170.65 143.7a1 1 0 0 1 .04-.69l2.31-5.26a1 1 0 0 0-.04-.9l-1.65-2.87a1 1 0 0 1-.1-.74l.47-1.89a1 1 0 0 1 1.63-.51l23.7 20.4 23.28 20.64a1 1 0 0 1-.66 1.75l-24.07.06a1 1 0 0 1-.52-.15l-6.62-4.02a1 1 0 0 1-.35-.37l-2.52-4.49a1 1 0 0 0-.83-.51l-2.2-.1a1 1 0 0 1-.88-1.36l1.19-3.08a1 1 0 0 0-.36-1.17l-2.16-1.53a1 1 0 0 1-.39-.58l-.97-4a1 1 0 0 0-.61-.7l-5.55-2.16a1 1 0 0 1-.6-.64l-1.54-5.13ZM101.5 197.12a1 1 0 0 1 .78-1.01l10.3-2.3a1 1 0 0 1 .95.28l8.6 9.2c.2.22.3.53.26.83l-.15.97a1 1 0 0 0 .3.86l7.66 7.54a1 1 0 0 0 .5.27l9.39 1.8a1 1 0 0 1 .8.83l.68 4.49a1 1 0 0 0 .4.65l9.08 6.71a1 1 0 0 1 .23.23l1.69 2.42a1 1 0 0 1-.83 1.58l-32.64-.25a1 1 0 0 1-.76-.35l-5.66-6.68a.93.93 0 0 1-.1-.13l-3.37-5.53a1 1 0 0 0-.22-.25l-5-4.07a1 1 0 0 1-.34-.56l-2.3-10.44a1.02 1.02 0 0 1-.02-.18l-.23-6.91Z" fill="#8D90BA"/><path d="M91.34 125.36a1 1 0 0 1 1.21-.64l1.72.48a1 1 0 0 1 .64.55l4.9 10.65a1 1 0 0 1 .02.8l-2.68 6.33a1 1 0 0 0-.07.44l.23 4.36a1 1 0 0 1-1 1.05l-3.37-.01a1 1 0 0 1-.89-1.46l.38-.73a1 1 0 0 0 0-.9l-6.9-13.81a1 1 0 0 1 .63-1.41l3.02-.86a1 1 0 0 0 .67-.63l1.49-4.21Z" fill="#B6C8D9"/><path d="M159.08 104.07a1 1 0 0 1 1 1.02l-.04 2.52a1 1 0 0 1-1 .98l-17 .05a1 1 0 0 0-.58.18l-8.72 6.26a1 1 0 0 0-.3.34l-1.74 3.21a1 1 0 0 1-.98.52l-5.21-.56a1 1 0 0 1-.9-1.04l.3-6.85a1 1 0 0 1 .49-.81l6.46-3.89a1 1 0 0 1 .17-.08l11.96-4.34a1 1 0 0 1 1.13.34l1.31 1.72a1 1 0 0 0 .8.4l12.85.03Z" fill="#959CC1"/><path d="M214.43 306.47a1 1 0 0 1-.25-1.2l3.67-7.49a1 1 0 0 1 .9-.56l4.54-.01a1 1 0 0 1 .64.23l2.78 2.33a1 1 0 0 1 .17.2l3.77 5.33a1 1 0 0 0 .35.31l2.37 1.23a1 1 0 0 1 .43 1.35l-2.32 4.52-2.33 4.83a1 1 0 0 1-1.56.32l-13.16-11.4Z" fill="#463087"/><path d="M159.03 108.6a1 1 0 0 1 1 .98l.09 6.85a1 1 0 0 1-.89 1l-11.13 1.24a1 1 0 0 0-.6.3l-3.09 3.14a1 1 0 0 1-1.28.12l-3.39-2.36a1 1 0 0 0-.94-.1l-8.33 3.28a1 1 0 0 0-.56.57l-2.12 5.5a1 1 0 0 1-1.01.64l-7.93-.64a1 1 0 0 1-.9-1.2l1.63-7.54a1 1 0 0 1 .66-.73l3.12-1.09a1 1 0 0 1 .44-.05l5.92.64a1 1 0 0 0 .99-.52l1.73-3.21a1 1 0 0 1 .3-.34l8.72-6.26a1 1 0 0 1 .58-.18l17-.05Z" fill="#6D65A3"/><path d="M119.16 79.64a1 1 0 0 1 .13-.74l1.95-3.06a1 1 0 0 0-.01-1.09l-2.85-4.26a1 1 0 0 1 .83-1.56h2.99l6.62-.03a1 1 0 0 1 1 1v4.77c0 .51.4.94.9 1l4.11.38a1 1 0 0 0 .74-.23l2.39-2.02a1 1 0 0 1 .84-.22l4.63.92a1 1 0 0 1 .47.24l6.36 5.64a1 1 0 0 0 .4.22l3.14.85a1 1 0 0 1 .61.48l2.52 4.49c.1.18.15.4.12.62l-.94 6.95a1 1 0 0 1-.99.86l-13.45.04a1 1 0 0 1-.37-.07l-5.36-2.12a1 1 0 0 0-1.14.3l-3.42 4.16a1 1 0 0 1-.16.16l-1.1.84a1 1 0 0 1-1.35-.12l-7.35-8.18a1 1 0 0 1-.23-.47l-2.03-9.75Z" fill="#B6C8D9"/><path d="M227.18 300.38a1 1 0 0 1-.05-1.08l2.64-4.58a1 1 0 0 1 .97-.5l8.77.94h.23l8.35-1.03h45.42c.42 0 .77-.34.77-.77s.34-.77.77-.77l22.79-.06a1 1 0 0 1 .89 1.46l-1.92 3.68a1 1 0 0 0-.1.6l1.01 7.56a1 1 0 0 1 0 .29l-.74 4.68a.99.99 0 0 1-.17.41l-2.51 3.59a1 1 0 0 1-.81.43l-41.23.26-32.93-.21a1 1 0 0 1-.31-.05l-6.43-2.15a1 1 0 0 1-.57-1.4l1.78-3.5a1 1 0 0 0-.43-1.34l-2.36-1.23a1 1 0 0 1-.36-.3l-3.47-4.93Z" fill="#463087"/><path d="M126.94 129.78a1 1 0 0 1 .83.58l2.94 6.42c.05.13.09.27.09.41v6.33a1 1 0 0 1-.73.97l-8.05 2.24a1 1 0 0 1-.56 0l-2.57-.79a1 1 0 0 0-1.18.48l-2.59 4.83a1 1 0 0 1-.41.4l-3.88 2.05a.91.91 0 0 1-.75.05c-.87-.34-.73-1.61.19-1.75l.33-.06a1 1 0 0 0 .77-.59l3.23-7.52 2.38-4.12a1 1 0 0 0 .1-.76l-2.4-8.68a1 1 0 0 1 .98-1.27l2.06.03 9.22.75Z" fill="#6D65A3"/><path d="M114.17 194.78a.75.75 0 0 1 .47-1.25c.19-.02.36-.11.48-.25l2.12-2.36a1 1 0 0 1 .84-.32l6.77.66a1 1 0 0 1 .8.56l1.73 3.58c.09.19.24.34.43.44l5.96 3.16c.08.05.16.1.23.18l8.63 8.47a1 1 0 0 1 .3.68l.17 4.75a1 1 0 0 1-.32.77l-1.64 1.5a1 1 0 0 1-.86.24l-9.58-1.83a1 1 0 0 1-.51-.27l-7.67-7.54a1 1 0 0 1-.28-.86l.14-.97a1 1 0 0 0-.26-.83l-7.95-8.5Z" fill="#B6C8D9"/><path d="M227 266.95a.5.5 0 0 1 .5-.5.5.5 0 0 0 .49-.5l-.03-32.75a1 1 0 0 1 1-1l20.82.07 32.38.06.21-.03 1.88-.4a1 1 0 0 1 .9.26l28.39 27.7a1 1 0 0 1 .3.68l.12 4.1a1 1 0 0 0 .24.62l4.16 4.9c.06.08.12.17.16.27l3.63 8.83a1 1 0 0 0 .25.36l4.93 4.45a1 1 0 0 1 .14 1.33l-2.68 3.67c-.07.1-.16.19-.27.25l-4.78 3.05a1 1 0 0 1-.54.16l-24.15.06a.77.77 0 0 0-.77.77c0 .43-.34.77-.77.77H248.1l-8.35 1.03h-.23l-8.77-.94a1 1 0 0 0-.97.5l-2.37 4.1a1 1 0 0 1-1.51.27l-1.72-1.45a1 1 0 0 1-.31-1.07l3.66-11.23c.03-.11.05-.23.04-.34l-.57-18.05Z" fill="#463087"/><path d="M228.59 318.95c0-.15.03-.3.1-.44l2.42-5a1 1 0 0 1 1.22-.52l6.7 2.24c.1.03.2.05.3.05l31.92.2a1 1 0 0 1 1 1.02l-.56 26.46a1 1 0 0 1-.9.98l-34.96 3.29a1 1 0 0 1-.96-.5l-2.86-4.87a1 1 0 0 1-.14-.5l-.06-7.06c0-.1-.02-.21-.06-.31l-3.1-9.34a1 1 0 0 1-.06-.31v-5.4ZM85.6 161.97a1 1 0 0 1 .35-1.06l3.94-3.08a1 1 0 0 1 1.3.07l.91.87c.1.1.17.2.22.33l1.97 4.6a1 1 0 0 1-.92 1.39l-6.13.04a1 1 0 0 1-.97-.73l-.67-2.44Zm-15.2 1.76a1 1 0 0 1 .29-1.63l1.04-.47a1 1 0 0 1 1.05.14l2.39 1.98a1 1 0 0 1 .27 1.18l-.56 1.25a1 1 0 0 1-1.6.31l-2.87-2.76Z" fill="#6D65A3"/><path d="M129.9 144.54a1 1 0 0 1 1.22.64l.6 1.73 1.9 5.03a1 1 0 0 1 .07.35l.11 10.53a1 1 0 0 1-.85 1l-5.52.8a1 1 0 0 0-.54.26l-8.15 7.54a1 1 0 0 1-1.34.01l-1.41-1.24a1 1 0 0 1-.34-.75l-.01-9.16-.64-9.48a1 1 0 0 1 .12-.54l2.6-4.83a1 1 0 0 1 1.17-.49l2.57.79a1 1 0 0 0 .56 0l7.88-2.2Z" fill="#463087"/><path d="M154.07 232.48c.31 0 .57.26.57.57v5.05a1 1 0 0 0 .44.82l8.27 5.67a1 1 0 0 1 .39.51l1.69 5.16a1 1 0 0 0 .94.7l2.91.02a1 1 0 0 1 .75.35l5.02 5.9a1 1 0 0 1 .24.64v4.43a1 1 0 0 1-1.31.95l-6.5-2.12-9.55-4.54a1 1 0 0 0-.98.07l-5.92 3.88a1 1 0 0 1-.44.16l-8.16.88a1 1 0 0 1-.7-.18l-1.56-1.13c-.06-.04-.12-.1-.17-.16l-7-8.12a1 1 0 0 1-.22-.8l.57-3.93a1 1 0 0 0-.69-1.1l-1.99-.62a1 1 0 0 1-.48-.33l-4.23-5.3a1 1 0 0 0-.4-.3l-2.92-1.22a1 1 0 0 1-.5-.45l-2.3-4.23a1 1 0 0 1 .88-1.48l33.35.25ZM86.49 166.13a1 1 0 0 1 .99-1l6.88-.05a1 1 0 0 1 .82.42l4.78 6.74a1 1 0 0 1-.36 1.46l-1.43.75a1 1 0 0 0-.51 1.1l.8 3.72a1 1 0 0 1-.39 1.02l-3.8 2.79a1 1 0 0 0-.4.83l.04 1.62a1 1 0 0 1-1.71.72L89.95 184a1 1 0 0 1-.29-.7l-.04-5.08a1 1 0 0 0-.13-.47l-2.87-5.13a1 1 0 0 1-.13-.49v-6Z" fill="#6D65A3"/><path d="M140.3 262.26a.93.93 0 0 1 1.46-.85c.18.14.41.2.64.17l8.2-.88a1 1 0 0 0 .44-.16l5.92-3.88a1 1 0 0 1 .97-.07l9.55 4.54 7.7 2.5c.07.03.15.04.23.04.42 0 .75.34.75.75v14.71c0 .12-.01.24-.06.35l-1.34 3.64a1 1 0 0 1-1.04.64l-10.46-1.07a1 1 0 0 1-.3-.08l-3.82-1.67a1 1 0 0 0-.46-.08l-11 .7a1 1 0 0 1-.7-.23l-6.67-5.54a1 1 0 0 1-.32-1.06l1.12-3.67a.99.99 0 0 0 .04-.4l-.86-8.4Zm34.07 30.66a1 1 0 0 1 .8 1.23l-.32 1.28a1 1 0 0 1-.58.68l-5.53 2.3a1 1 0 0 1-.35.07l-5.95.16c-.13 0-.26.03-.38.09l-4.29 1.89a1 1 0 0 1-1.02-.13l-4.86-3.86a1 1 0 0 0-.56-.21l-3.9-.22a1 1 0 0 1-.84-.58l-1.82-3.89a1 1 0 0 1 .86-1.42l3.76-.19a1 1 0 0 1 .76.3l2.48 2.53a1 1 0 0 0 .8.3l6.41-.6a1 1 0 0 0 .58-.25l1.46-1.3a1 1 0 0 1 .84-.25l11.66 2.07Z" fill="#6D65A3"/><path d="M98.77 180.1a1 1 0 0 1-.22-.44l-.88-4.12a1 1 0 0 1 .51-1.1l2.23-1.16a1 1 0 0 1 .46-.11l16.33-.14a1 1 0 0 1 1 .83l1.68 9.9a1 1 0 0 0 .84.82l3.56.52a1 1 0 0 1 .86.94l.22 4.11a1 1 0 0 1-1.1 1.05l-6.17-.6a1 1 0 0 0-.84.32l-1.59 1.77a1 1 0 0 1-1.46.03l-4.2-4.4a1 1 0 0 0-.24-.18l-7.39-3.96a1 1 0 0 1-.28-.22l-3.32-3.86Z" fill="#463087"/><path d="M97.84 180.46a1 1 0 0 1 1.35.15l2.89 3.34a1 1 0 0 0 .28.23l7.38 3.95c.1.06.18.12.25.2l3.7 3.86a.88.88 0 0 1-.55 1.49l-10.7 2.4a1 1 0 0 1-1.2-.77l-.4-1.84a1 1 0 0 0-.38-.58l-6.11-4.57a1 1 0 0 1-.4-.78l-.09-3.63a1 1 0 0 1 .41-.83l3.57-2.63Z" fill="#B6C8D9"/><path d="M88.45 43.72a1 1 0 0 1 .95-.68l29.4-.03h2.28a1 1 0 0 1 1 .99l.1 23.93a1 1 0 0 1-1 1h-3.85l-14.58.67a1 1 0 0 0-.18.02l-8.33 1.89a1 1 0 0 1-.35.02l-5.64-.75a1 1 0 0 0-.36.02l-12.9 3.1a1 1 0 0 1-1.05-1.55l2.25-3.27a1 1 0 0 1 .25-.25l6-4.18a1 1 0 0 0 .34-1.22l-1.11-2.52a1 1 0 0 1 .13-1.03l1.87-2.33a1 1 0 0 0 .16-.3l4.62-13.53Z" fill="#959CC1"/><path d="m156 94.85 3.04-.38a1 1 0 0 1 1.13 1l-.06 7.6a1 1 0 0 1-1 1l-12.88-.03a1 1 0 0 1-.8-.4l-1.3-1.72a1 1 0 0 0-1.14-.34l-10.64 3.86a1 1 0 0 1-1.34-.98l.29-6.88a1 1 0 0 1 .22-.6L134.8 93a1 1 0 0 1 1.14-.3l5.36 2.13a1 1 0 0 0 .37.07l14.33-.04ZM117.78 14.4a1 1 0 0 1 .99 1l.03 26.61a1 1 0 0 1-1 1l-28.5.03a1 1 0 0 1-.9-.53l-1.9-3.63a1 1 0 0 0-1.34-.43l-7.62 3.81a1 1 0 0 0-.42.4l-3.34 5.79a1 1 0 0 1-1.37.36l-9.42-5.47a1 1 0 0 1-.46-.59l-1.59-5.5a1 1 0 0 0-.85-.72l-3.14-.33a1 1 0 0 1-.75-1.5l.3-.5a1 1 0 0 0 0-1.02l-2.6-4.38a1 1 0 0 1-.14-.57l.4-7.56a1 1 0 0 1 .26-.6l4.79-5.43a1 1 0 0 1 .74-.34l32.18-.3 25.65.4Z" fill="#B6C8D9"/><path d="M99.74 137.39a1 1 0 0 1 .89-.61l10.02-.3a1 1 0 0 1 1.03 1l.02 5.32a1 1 0 0 0 .98 1h.42a1 1 0 0 1 .9 1.4l-2.65 6.15a1 1 0 0 1-.76.6l-3.7.56-7.32 1.04a.99.99 0 0 1-.34-.01l-5.8-1.2a1 1 0 0 1-.66-.47l-.58-1a1 1 0 0 1 .86-1.5l3.24.01a1 1 0 0 0 1-1.05l-.23-4.36a1 1 0 0 1 .08-.44l2.6-6.14Z" fill="#463087"/><path d="M71.19 144.35a1 1 0 0 1-1.01-.56l-2.02-4.21a1 1 0 0 0-.4-.43L64.14 137a1.03 1.03 0 0 1-.23-.2l-6.52-7.3a1 1 0 0 1 .54-1.64l13.99-2.94.21-.02 6.87.08a1 1 0 0 1 .74.34l5.19 5.98c.05.06.1.13.13.2l7.38 14.8a1 1 0 0 1 0 .9l-.93 1.8c-.12.23-.1.51.03.73.4.69-.37 1.45-1.05 1.05l-3.92-2.3a.98.98 0 0 0-.33-.12l-4.2-.75a1 1 0 0 1-.46-.21l-4.1-3.42a1 1 0 0 0-.75-.23l-5.53.6ZM133.7 154.74a1 1 0 0 1 1.74-.68l6.05 6.68 7.6 6.95v.02l-16.4 7.89a1 1 0 0 0-.56 1.04l.14.93a1 1 0 0 1-.3.85l-6.54 6.45a1 1 0 0 1-.85.28l-3.88-.57a1 1 0 0 1-.84-.82l-1.82-10.72.01-.01h.01l8.82-8.15c.14-.14.33-.22.53-.25l5.52-.81a1 1 0 0 0 .85-1l-.08-8.08Z" fill="#6D65A3"/><path d="M105.4 109.82a1 1 0 0 1 1-.76l6.54.23a1 1 0 0 1 .95.8l1.94 9.58a1 1 0 0 0 1.2.78l1.15-.27a1 1 0 0 1 1.2 1.19l-1.49 6.86a1 1 0 0 1-.99.79l-2.17-.03a1 1 0 0 1-.69-.3l-5.99-5.95a1 1 0 0 1-.27-.91l.28-1.36a1 1 0 0 0-.1-.68l-3.26-6.06a1 1 0 0 1-.09-.71l.78-3.2ZM116.77 68.96a1 1 0 0 1 .88.44l3.57 5.35a1 1 0 0 1 .02 1.1l-2 3.13a1 1 0 0 1-.46.39l-3.61 1.52a1 1 0 0 0-.54.54l-1.44 3.52a1 1 0 0 1-.32.41l-4.04 3.08a1 1 0 0 1-.6.2l-5.58.02a1 1 0 0 0-1 .99l-.01 1.05a1 1 0 0 1-1 .99l-23.51-.02a1 1 0 0 1-1-1.01l.08-5.22a1 1 0 0 0-.01-.18l-1.5-9.07a.87.87 0 0 0-.4-.6.87.87 0 0 1 .23-1.59l13.36-3.2a1 1 0 0 1 .36-.02l5.64.75a1 1 0 0 0 .35-.02l8.33-1.9a1 1 0 0 1 .18-.01l14.02-.64Z" fill="#B6C8D9"/><path d="M62.43 44.62a1 1 0 0 1 1.5-.73l8.47 4.92a1 1 0 0 0 1.37-.36l3.35-5.8a1 1 0 0 1 .41-.39l7.63-3.81a1 1 0 0 1 1.33.43l1.99 3.78a1 1 0 0 1 .06.79l-4.71 13.8a1 1 0 0 1-.17.3l-1.86 2.33a1 1 0 0 0-.14 1.02l1.11 2.53a1 1 0 0 1-.34 1.22l-6 4.18a1 1 0 0 0-.25.25l-3.12 4.54a1 1 0 0 0 .31 1.43l.86.5a1 1 0 0 1 .48.7l1.3 7.88a1 1 0 0 1-1.04 1.16l-15.28-.73a1 1 0 0 1-.95-1l.01-24.77a1 1 0 0 0-.05-.32l-1.65-4.94a1 1 0 0 1 .73-1.3l3.03-.65a1 1 0 0 0 .78-.84l.84-6.12Z" fill="#B6C8D9"/><path d="M174.43 232.47a1 1 0 0 1-1-1.01l.24-15.7c0-.1.02-.21.05-.3l1.32-3.9a1 1 0 0 0-.2-1l-1.7-1.86a1 1 0 0 1 .12-1.46l6.56-5.15a1 1 0 0 1 .64-.21l7.8.1a1 1 0 0 0 1.02-.97l.02-1.01a1 1 0 0 1 1-.98l16.15-.1a1 1 0 0 1 .93.63l6.41 15.68 4.09 13.27a1 1 0 0 1 .02.49l-.53 2.69a1 1 0 0 1-.98.8l-41.96-.01Z" fill="#6D65A3"/><path d="M159.11 139.85a1 1 0 0 1 1 .09l2.88 2.02a1 1 0 0 0 1.07.05l2.56-1.45a1 1 0 0 1 1.18.15l2.55 2.46a1 1 0 0 1 .26.43l1.58 5.23c.09.3.3.53.6.64l5.54 2.17a1 1 0 0 1 .61.7l.98 4a1 1 0 0 0 .4.57l2.15 1.53a1 1 0 0 1 .35 1.17l-1.1 2.84a.97.97 0 0 1-1.65.28.97.97 0 0 0-.2-.18l-5.77-3.94a1 1 0 0 0-1.11 0l-6.83 4.41a1 1 0 0 1-.82.13l-5.6-1.63a1 1 0 0 0-.59.02l-8.38 2.8a1 1 0 0 0-.62.6l-.52 1.37a1 1 0 0 1-1.6.39l-5.78-5.28a1 1 0 0 1-.06-1.42l3.22-3.47a.94.94 0 0 0 .1-.13l9.49-14.45a1 1 0 0 1 .4-.36l3.71-1.74Z" fill="#B6C8D9"/><path d="M175.15 284.28a1 1 0 0 1-.38-1.18l1.34-3.62a1 1 0 0 0 .06-.35v-13.79a1 1 0 0 1 1.47-.88l4.03 2.17a1 1 0 0 0 .4.12l9.54.76a1 1 0 0 1 .85.62l6.66 16.67a1 1 0 0 1 .05.57l-.67 3.25a1 1 0 0 1-.98.8h-2.31a1 1 0 0 0-.6.2l-3.74 2.82a1 1 0 0 0-.4.69l-.13 1.23a1 1 0 0 1-1.3.84l-6.07-1.95a1 1 0 0 1-.57-.47l-3.06-5.58a1 1 0 0 0-.33-.35l-3.86-2.57Zm-4.08 37.15a1 1 0 0 1 .37-1.33l1.8-1.08a1 1 0 0 1 1.09.04l3.3 2.28a1 1 0 0 1 .21 1.44l-1.06 1.34a1 1 0 0 1-.95.37l-2.95-.5a1 1 0 0 1-.72-.52l-1.09-2.04Z" fill="#6D65A3"/><path d="M93.06 124.87a1 1 0 0 1-.53-1.56l.4-.54a1 1 0 0 1 .8-.4l13.53-.01a1 1 0 0 1 .7.29l6.18 6.15c.13.12.22.27.26.44l2.68 9.7a1 1 0 0 1-.1.77l-2.08 3.61a1 1 0 0 1-.88.5l-1.32-.03a1 1 0 0 1-.98-1l-.02-5.31a1 1 0 0 0-1.03-1l-10 .3a1 1 0 0 1-.94-.58l-4.82-10.45a1 1 0 0 0-.64-.55l-1.2-.33Z" fill="#959CC1"/><path d="M113.92 110.26a1 1 0 0 1 .73-1.17l4.8-1.2a1 1 0 0 0 .67-.55l2.56-5.53a1 1 0 0 1 .53-.5l6.05-2.53a.99.99 0 0 0 .23-.13l.12-.1a1 1 0 0 1 1.61.84l-.25 6.03a1 1 0 0 1-.48.81l-6.09 3.66a1 1 0 0 0-.48.81l-.31 7.11a1 1 0 0 1-.67.9l-3.23 1.12-2.68.62a1 1 0 0 1-1.2-.78l-1.91-9.41Z" fill="#B6C8D9"/></g><path d="M155.5 15.5H43.36c-.75 0-1.36.6-1.36 1.36 0 1.19-1.89 1.41-2.59 2.37l-.12.19c-.21.35-.2.8 0 1.16a8.82 8.82 0 0 0 2.22 2.65 11.42 11.42 0 0 1 3.56 4.63l.63 1.69c.85 2.26 1.13 4.7.8 7.1l-.69 5.06c-.2 1.5-1.08 3.02-1.52 4.47-.88 2.9.51 6-.65 8.8l-5.08 12.26c-1 2.4-.81 4.92-.14 7.42.7 2.6 1.85 5.25 3.86 7.05C43.9 83.16 45.27 84.67 47 87l3 3.25c1.95 2.1 3.02 5 3.73 7.77.7 2.73.68 5.41.23 8.2-.76 4.75.32 7.93 1.95 12.04.68 1.72.2 3.61 0 5.46-.11 1.16.51 2.24 1.3 3.1l4.29 4.68c5.93 6.18 9.39 10.22 14.2 17.65 1.1 1.72.82 3.86.3 5.85a5.4 5.4 0 0 0-.14.83 2.37 2.37 0 0 0 2.29 2.6c1.47 0 2.98.27 3.96 1.38l1.12 1.26c.83.94 1.96 1.52 3.04 2.13.45.26.84.56 1.2.94 1.77 1.85 1.57 4.7 1.49 7.26v1.18c.01.94.15 1.88.37 2.8l1.15 4.9c.35 1.48.8 2.93 1.5 4.27 1.52 2.87 2.88 4.13 5.02 5.95l2.94 2.2a11.22 11.22 0 0 1 4.08 5.98l1.14 4.09a2.6 2.6 0 0 1-.43 2.25 2.6 2.6 0 0 0-.45 2.17l1.42 5.93c.52 2.23 1.4 4.36 3.15 5.84a30.19 30.19 0 0 1 5.81 6.35 50.4 50.4 0 0 0 5.62 6.9c.8.86 1.47 1.84 1.95 2.9l1.03 2.27a4.44 4.44 0 0 0 2.4 2.28c.55.22 1.06.56 1.48.98l4.38 4.38c.32.32.7.55 1.12.7a2.87 2.87 0 0 1 1.92 3.23l-.26 1.41c-.2 1.06-.05 2.2.7 2.97.4.43.87.82 1.48 1.29.34.25.72.46 1.12.6 2 .75 3.24 2.77 3 4.89l-.02.19c-.05.46-.04.93.04 1.4l.63 3.53c.5 2.81-.47 5.93.76 8.5a7.1 7.1 0 0 0 1.83 2.22c.43.37.8.8 1.09 1.3a4.56 4.56 0 0 0 4.7 2.2c3.98-.64 7.04-.75 11.18.69 1.48.51 2.97 1.01 4.5 1.27l.2.03c5.72.97 11.2 3.57 15.04 7.92a11.81 11.81 0 0 0 3.26 2.82c.87.45 1.73.73 2.8.97 1.25.28 2.54.35 3.82.35h6.42c1.4 0 2.8.39 3.84 1.33a9.47 9.47 0 0 1 1.72 2.13c.39.63.34 1.42-.07 2.03-.22.33-.34.72-.34 1.12v.37c0 .96.38 1.93 1.13 2.55.37.31.82.54 1.86.77.64.15 1.31 0 1.86-.37.43-.28.92-.43 1.43-.43h.81c1.24 0 2.43.43 3.37 1.22L226 315.5c2.8 2.71 4.5 4.5 7.07 11.75.64 1.8.82 3.73.86 5.65.06 2.37.5 3.89 1.93 5.12.4.33.7.76.8 1.26.2.98 1.1 1.65 2.08 1.57l63.73-5.67c1.35-.12 2.7-.33 3.98-.79.58-.2 1.07-.4 1.52-.63 1.42-.7 2.7-1.88 3-3.44a4.1 4.1 0 0 0-.22-2.12 4.86 4.86 0 0 0-2.38-2.59c-2.3-1.25-3.2-3.86-3.37-6.47a11.1 11.1 0 0 0-.35-2.1c-.1-.36-.15-.73-.15-1.1v-.77c0-1.28.8-2.3 1.91-2.95.67-.39 1.1-1.17 1.4-1.89.13-.34.31-.65.55-.99a6.68 6.68 0 0 0 1.36-3.09c.35-3.1.37-5.44.04-8.62-.14-1.34.3-2.7 1.26-3.65l.17-.17c.53-.53.88-1.2 1-1.94a3.7 3.7 0 0 1 2.02-2.69c1.93-.95 3.29-1.8 4.24-2.83 1.42-1.54 1.07-4.01-.5-5.4-.62-.55-1.32-1-2.17-1.44a4 4 0 0 1-2.28-3.5c0-.34-.05-.67-.13-1-.43-1.57-.7-2.68-1.48-4.1-.54-.97-2.06-2.52-2.78-3.37-3.53-4.1-3.99-9.27-7.94-12.96L167.1 129.1a24 24 0 0 1-7.6-17.52V19.5a4 4 0 0 0-4-4Z" stroke="#000"/></g></svg>
