<svg width="1600" height="1066" viewBox="0 0 1600 1066" fill="none" xmlns="http://www.w3.org/2000/svg">
<path d="M970.59 646.81C970.4 645.78 969.94 644.83 969.19 644.14C971.61 638.68 971.16 632.18 966.96 627.17C964.75 624.53 960.77 625.75 959.11 628.18C952.81 637.39 940.7 630.53 942.03 620.58C942.49 617.14 938.99 615.44 936.1 615.81C937.86 611.81 933.66 606.33 929.21 609.34C922.19 614.09 915.29 620.5 910.78 628.03C904.37 629.15 898.78 635.38 901.52 642.7C902.82 646.17 905.76 648.79 909.19 650.18C909.54 650.58 909.94 650.93 910.36 651.18C914.14 653.51 918.38 653.63 922.18 652.22C924.32 652.85 926.41 653.35 928.24 653.79C936.98 655.85 947.76 657.54 956.76 654.63C960.17 655.45 964.13 662.08 967.63 661.77C970.32 661.53 972.18 653.32 972.18 650.45C972.18 649.14 971.56 647.78 970.58 646.81H970.59Z" fill="#C7C7C7"/>
<path d="M1280.61 568.08C1279.88 557.44 1275.61 547.79 1267.97 540.31C1267.94 540.26 1267.92 540.21 1267.88 540.17C1263.55 533.75 1257.3 530.07 1250.33 527.07C1242.02 523.5 1233.58 520.19 1225.09 517.06C1207.85 510.7 1190.21 505.29 1172.15 501.83C1154.27 498.41 1135.94 496.78 1117.74 498.01C1101.05 499.14 1082.08 501.58 1067.8 510.94C1067.28 511.28 1043.59 520.22 1032.66 525.89C1022.56 531.13 1000.69 540.46 999.06 540.53C994.9 540.7 980.71 556.51 981.19 558.46C980.79 558.85 984.55 576.5 986.46 579.92C984.06 582.96 987.38 589.14 992.28 588.76C1010.88 587.34 1027.93 590.94 1046.53 589.51C1084.5 588.5 1119.1 587.73 1156.53 594.5C1158.32 596.22 1164.97 596.75 1166.47 598.91C1175.47 611.89 1173.16 629.5 1174.04 644.76C1174.16 646.8 1172.38 658.96 1175.85 659.53C1179.76 660.18 1191.1 655.83 1195 656.53C1197.66 657.01 1204.29 661.78 1205.33 662.09C1206.98 664.93 1208.3 667.87 1209.25 670.55C1214.86 686.37 1214.98 704.74 1212.17 721.12C1211.8 723.3 1212.84 725.83 1214.68 726.96C1215.7 729.58 1218.61 731.44 1221.66 729.49C1223.06 728.59 1274.72 702.21 1279.09 696.65C1283.41 691.15 1282.23 688.25 1283.14 681.54C1287.16 651.75 1280.68 569.15 1280.61 568.06V568.08Z" fill="#C7C7C7"/>
<path d="M848.54 847.45C848.22 844.01 842.11 841.66 838.71 842.26C831.13 843.6 709.74 850.16 675.56 850.36C658.63 850.46 609.49 848.87 601.63 848.18C593.44 847.46 586.08 845.08 578.21 842.95C575 842.08 571.74 841.63 568.44 842.14C564.99 842.67 561.6 844.94 558.11 844.93C551.64 844.93 544.95 836.06 540.63 832.09C534.34 826.32 528.04 820.54 521.75 814.77C518.85 812.1 515.93 809.45 513.04 806.77C511.88 805.7 509.7 804.27 509.35 802.66C508.92 800.71 510.6 798.46 511.55 796.9C527.02 771.32 521.88 740.53 512.65 714.26C507.2 698.74 494.48 666.17 492.75 663.29C484.44 649.43 479.59 636.07 471.28 622.21C467.14 614.96 464.01 607.77 460.17 600.37C460.52 599.48 436.84 547.76 427.38 523.28C423.72 509.73 420.8 495.97 418.69 482.07C415.63 461.97 419.06 441.93 417.5 421.74C416.23 405.34 407.21 386.84 390.99 379.41C387.8 377.95 384.4 377.2 381.02 377.07C382.32 376.32 387.09 373.22 387.17 371.2C387.58 361.14 384.54 339.16 384.65 338.33C401.23 328.38 411.04 307.97 417.11 290.19C425.67 265.11 428.13 235.86 417.16 211.08C414.62 205.33 410.66 200.32 404.38 198.52C397.4 196.51 388.91 197.67 381.84 198.68C372.38 200.03 360.21 203.32 355.38 211.11C349.17 220.99 347.05 231.3 345.63 238.51C342.85 252.6 342.47 267.33 342.41 281.66C342.35 296.83 342.92 312.3 345.13 327.33C345.83 332.09 347.24 336.92 350.85 340.31C355.46 344.65 362.47 344.83 368.38 344.04C370.35 343.78 372.24 343.37 374.08 342.87C373.01 352.84 372.73 362.86 373.36 372.92C373.5 375.16 374.74 376.6 376.29 377.28C369.94 378.13 364 381.18 360 386C358.8 386.5 355.31 395.37 355.05 397.81C351.46 411.23 347.87 424.64 344.29 438.06C340.16 453.5 335.42 468.93 332.53 484.67C329.78 499.66 329.63 514.53 333.16 529.42C336.52 543.55 342.49 556.94 348.62 570.05C361.57 597.75 370.99 628.16 379.66 657.52C388.29 686.77 396.81 714.09 402.85 743.97C408.92 773.99 410.02 805.72 416.36 835.69C419.41 850.1 424.89 842.94 428.78 857.15C429.5 859.78 428.51 876.26 429.34 878.89C428.32 879.96 431.53 887.7 432.1 889.58C439.57 914.1 441.96 935.98 464.07 950.89C475.13 958.34 495.35 964.33 508.52 964.55C523.78 964.81 539.09 964.33 554.36 964.18C615.78 963.58 677.24 963.59 738.63 961.71C771.54 960.7 842.64 956.03 845.35 956.12C848.03 956.21 853.09 954.39 853.06 951.76C852.71 917.02 851.73 882.05 848.55 847.46L848.54 847.45Z" fill="#C7C7C7"/>
<path d="M949.26 463.99C947.78 463.96 946.3 463.95 944.81 463.96C944.64 463.79 944.46 463.63 944.27 463.48C940.65 460.74 936.26 461.39 932.86 463.92C930.7 463.47 928.29 464.17 925.64 464.88C923.84 465.36 922.05 465.89 920.26 466.43C918.37 466.8 916.49 467.19 914.61 467.64C908.83 469.04 892.21 471.67 892.53 480.06C891.47 482.12 891.72 484.45 894.26 487.03C897.04 489.85 901.07 489.59 904.65 488.91C910.15 487.87 915.64 486.54 921.06 485.14C931.73 482.38 942.15 478.72 951.78 473.29C956.19 470.8 954.12 464.08 949.26 463.97V463.99Z" fill="#91D1E5"/>
<path d="M1209.24 711.62C1208.75 696.99 1211.13 667.71 1195.95 659.05C1195.62 657.61 1194.55 656.41 1192.46 656.08C1190.11 655.71 1187.76 655.33 1185.41 654.96C1182.38 654.48 1179.8 656.61 1179.18 659.07C1179.03 659.26 1179.73 667.02 1180.39 667.57C1186.66 715.94 1190.12 764.65 1190.63 813.42C1190.69 819.3 1190.74 825.18 1190.69 831.05C1190.65 835.44 1190.74 840.57 1188.42 844.48C1186.02 848.53 1181.01 849.25 1176.8 850.3C1170.93 851.76 1077.84 855.51 1059.43 856.08C1059.05 856.05 1023.84 856.5 1018.07 855.46C1015.5 855 1004.12 853.83 1000.68 850.66C990.01 840.84 985.28 828 982.44 814.08C977.11 787.99 977.44 762.44 974.42 735.93C972.82 713.01 972.34 688.7 972.54 665.72C978.53 665.55 974.04 656.37 967.77 656.08C961.87 655.81 955.96 655.54 950.06 655.27C948.1 655.18 946.68 656.22 945.89 657.66C919.68 657.02 893.47 656.39 867.26 655.75C865.54 655.12 859.83 658.83 856.35 660.81C841.06 671.88 843.62 696.15 843.48 713.15C843.25 739.79 845.43 766.43 847.03 793C850.24 846.36 853.45 899.71 856.66 953.07C857.1 960.36 857.54 967.65 857.98 974.94C858.35 981.17 858.28 987.69 859.82 993.78C861.66 1001.08 861.87 1008.14 868.64 1009.45C869.44 1010.31 875.88 1009.92 877.4 1009.95C965.62 1011.4 1053.85 1011.45 1142.07 1010.08C1154.39 1009.89 1166.7 1009.68 1179.02 1009.42C1186.15 1009.27 1192.31 1012.16 1198.53 1009.2C1201.12 1011.73 1207.83 1007.34 1208.18 1002.48C1215.1 905.66 1212.53 808.54 1209.26 711.63L1209.24 711.62Z" fill="#C7C7C7"/>
<path d="M929.07 601.18C920.14 609.9 911.04 618.67 903.36 628.53C899.84 633.05 896.31 638.27 896.51 644.26C896.69 649.65 899.61 654.7 903.98 657.73C908.75 661.04 913.25 653.25 908.52 649.96C899.68 643.82 911.93 631.96 916.3 627.12C922.41 620.34 928.91 613.92 935.43 607.55C939.58 603.5 933.21 597.13 929.07 601.19V601.18Z" fill="#101010"/>
<path d="M992.36 551.35C1009.23 542 1026.98 534.41 1043.88 525.08C1060.14 516.1 1076.95 507.58 1095.29 503.84C1113.63 500.1 1133.22 501.99 1151.97 504.08C1168.84 505.97 1185.7 508.37 1202.2 512.43C1218.07 516.33 1233.52 521.82 1248.02 529.39C1254.1 532.56 1261.11 535.77 1265.99 540.64C1269.6 544.25 1272.76 548.87 1274.87 553.55C1277.73 559.9 1277.13 567.75 1277.43 574.53C1277.89 584.83 1278.27 595.13 1278.57 605.44C1279.18 626.05 1279.49 646.67 1279.49 667.3C1279.49 673.46 1279.43 679.61 1279.34 685.77C1279.23 693.15 1274.54 695.64 1268.82 699.36C1251.49 710.6 1233.26 720.83 1214.1 728.61C1208.8 730.76 1211.12 739.47 1216.49 737.29C1234.58 729.95 1251.88 720.71 1268.39 710.32C1274.45 706.51 1282.59 702.78 1286.17 696.22C1288.58 691.81 1288.33 686.56 1288.41 681.71C1288.69 662.95 1288.45 644.16 1288.07 625.4C1287.64 604.04 1287.85 582.24 1285.7 560.97C1284.6 550.12 1278.66 539.3 1270.3 532.23C1263.8 526.73 1255.07 522.75 1247.45 519.05C1239.68 515.28 1231.66 512.01 1223.49 509.24C1206.61 503.52 1189.09 500.03 1171.47 497.54C1152.38 494.84 1132.8 492.1 1113.48 492.79C1090.99 493.59 1070.39 501.05 1050.57 511.3C1040.21 516.65 1030.22 522.68 1019.76 527.82C1009.3 532.96 998.22 537.83 987.83 543.59C982.76 546.4 987.3 554.17 992.37 551.36L992.36 551.35Z" fill="#101010"/>
<path d="M1259.29 545.04C1233.33 561.15 1207.36 577.27 1181.4 593.38C1176.49 596.43 1181 604.22 1185.94 601.15C1211.9 585.04 1237.87 568.92 1263.83 552.81C1268.74 549.76 1264.23 541.97 1259.29 545.04Z" fill="#101010"/>
<path d="M1014.98 566.48C1029.49 557.03 1044.55 548.47 1060.14 540.94C1076.49 533.05 1093.04 525.38 1111.6 526.25C1129.15 527.07 1147.07 530.5 1164.33 533.7C1181.57 536.9 1198.58 541.22 1214.82 547.88C1214.46 545.14 1214.1 542.4 1213.75 539.66C1197.65 551.95 1181.12 563.66 1164.18 574.77C1159.36 577.93 1163.86 585.73 1168.72 582.54C1185.66 571.43 1202.19 559.73 1218.29 547.43C1221.52 544.97 1220.96 540.74 1217.22 539.21C1200.11 532.2 1182.16 527.79 1164 524.53C1146.25 521.35 1127.73 517.66 1109.68 517.19C1091.5 516.72 1075.07 523.99 1058.96 531.59C1042.18 539.5 1026 548.6 1010.45 558.72C1005.61 561.87 1010.12 569.66 1014.99 566.49L1014.98 566.48Z" fill="#101010"/>
<path d="M1117.38 560.64C1121.03 558.02 1124.68 555.4 1128.33 552.78C1129.91 551.64 1131.56 550.08 1133.37 549.31C1135.39 548.46 1137.55 548.98 1139.68 549.23C1144.39 549.77 1149.09 550.37 1153.76 551.16C1155.66 551.48 1157.55 551.83 1159.44 552.22C1160 552.34 1165.77 553.72 1165.37 552.97V548.43C1164.13 550.19 1161.39 551.73 1159.72 553.11C1157.78 554.72 1155.85 556.33 1153.91 557.94C1152.67 558.97 1149.64 562.54 1148.1 562.77C1149.06 562.63 1144.56 561.56 1143.85 561.4C1139.2 560.34 1134.56 559.28 1129.91 558.21C1127.43 557.64 1124.95 557.08 1122.47 556.51C1121.25 556.23 1117.96 556.06 1117.19 555.09L1114.01 562.77L1111.54 561.34C1114.84 566.05 1122.64 561.56 1119.31 556.8C1117.99 554.91 1116.35 553.87 1114.01 553.77C1109.72 553.6 1108.59 558.63 1110.83 561.45C1113.9 565.33 1121.21 565.44 1125.65 566.46C1132.45 568.01 1139.24 569.83 1146.1 571.13C1151.81 572.22 1154.66 568.95 1158.82 565.5C1163.44 561.66 1169.67 557.89 1173.14 552.96C1174.07 551.64 1173.86 549.76 1173.14 548.42C1170.89 544.23 1164.11 543.97 1159.95 543.16C1154.19 542.05 1148.37 541.29 1142.56 540.57C1137.35 539.93 1132.8 539.14 1128.1 541.93C1122.79 545.09 1117.87 549.25 1112.85 552.86C1108.19 556.21 1112.67 564.02 1117.39 560.63L1117.38 560.64Z" fill="#101010"/>
<path d="M1107.79 543.9L1106.66 543.33C1106.14 543 1105.59 542.82 1104.99 542.8C1104.39 542.67 1103.79 542.69 1103.2 542.88C1102.61 543.02 1102.1 543.29 1101.67 543.69C1101.18 544.01 1100.79 544.43 1100.51 544.95L1100.06 546.02C1099.85 546.82 1099.85 547.62 1100.06 548.41L1100.51 549.48C1100.91 550.16 1101.45 550.69 1102.12 551.09L1103.25 551.66C1103.77 551.99 1104.32 552.17 1104.92 552.19C1105.52 552.32 1106.12 552.3 1106.71 552.11C1107.3 551.97 1107.81 551.7 1108.24 551.3C1108.73 550.98 1109.12 550.56 1109.4 550.04L1109.85 548.97C1110.06 548.17 1110.06 547.37 1109.85 546.58L1109.4 545.51C1109 544.83 1108.46 544.3 1107.79 543.9Z" fill="#101010"/>
<path d="M1085.67 539.42C1085.67 539.42 1085.59 539.43 1085.55 539.44L1086.75 539.28C1086.59 539.3 1086.43 539.31 1086.27 539.3L1087.47 539.46C1087.37 539.45 1087.29 539.43 1087.2 539.39L1088.27 539.84C1088.22 539.81 1088.18 539.79 1088.13 539.75L1089.04 540.45C1089.04 540.45 1088.99 540.4 1088.96 540.37L1089.66 541.28C1089.66 541.28 1089.62 541.23 1089.61 541.2L1090.06 542.27C1090.06 542.27 1090.04 542.22 1090.04 542.19L1090.2 543.39C1090.2 543.39 1090.2 543.34 1090.2 543.31L1090.04 544.51C1090.04 544.51 1090.05 544.46 1090.06 544.43L1089.61 545.5C1089.61 545.5 1089.65 545.43 1089.67 545.4L1088.97 546.31C1088.97 546.31 1089.02 546.25 1089.06 546.22L1088.15 546.92C1088.15 546.92 1088.24 546.86 1088.28 546.84L1087.21 547.29C1087.21 547.29 1087.26 547.27 1087.28 547.27L1086.08 547.43C1086.08 547.43 1086.12 547.43 1086.15 547.43L1084.95 547.27C1084.95 547.27 1084.99 547.27 1085.01 547.29L1083.94 546.84L1083.97 546.86L1083.06 546.16L1083.08 546.18L1082.38 545.27C1082.38 545.27 1082.41 545.31 1082.42 545.33L1081.97 544.26V544.3C1082.12 544.89 1082.39 545.4 1082.79 545.83C1083.11 546.32 1083.53 546.71 1084.05 546.99C1084.57 547.32 1085.12 547.5 1085.72 547.52C1086.32 547.65 1086.92 547.63 1087.51 547.44L1088.58 546.99C1089.26 546.59 1089.79 546.05 1090.19 545.38L1090.64 544.31C1090.85 543.51 1090.85 542.71 1090.64 541.92C1090.57 541.68 1090.3 541.03 1090.17 540.81C1090.16 540.79 1090.15 540.77 1090.13 540.75C1090.01 540.55 1089.56 539.98 1089.4 539.82C1088.83 539.21 1088.57 539.15 1087.93 538.87C1087.76 538.8 1087.55 538.68 1087.35 538.63C1087.25 538.6 1086.22 538.47 1086.12 538.47C1085.92 538.47 1085.42 538.56 1085.47 538.55C1085.18 538.59 1085.04 538.58 1084.82 538.64C1084.68 538.68 1083.84 539.04 1083.71 539.11C1083.68 539.13 1083.65 539.14 1083.62 539.16C1083.42 539.28 1082.85 539.72 1082.68 539.89C1082.66 539.91 1082.64 539.93 1082.62 539.95C1082.45 540.12 1082.02 540.68 1081.89 540.89C1081.88 540.91 1081.86 540.93 1081.85 540.96C1081.73 541.16 1081.45 541.84 1081.38 542.07C1081.31 542.3 1081.32 542.46 1081.28 542.74C1081.26 542.86 1081.2 543.18 1081.2 543.4C1081.2 543.54 1081.33 544.5 1081.37 544.63C1081.42 544.83 1081.55 545.06 1081.61 545.22C1081.75 545.56 1081.75 545.62 1081.87 545.82C1081.98 546.01 1082.46 546.62 1082.61 546.77C1082.76 546.92 1082.92 547.02 1083.12 547.18C1083.29 547.31 1083.47 547.47 1083.66 547.59L1083.71 547.61L1084.78 548.06C1084.85 548.09 1084.92 548.11 1085 548.12C1085.37 548.19 1085.87 548.26 1086.25 548.29C1086.29 548.29 1086.33 548.29 1086.37 548.29C1086.46 548.29 1086.55 548.29 1086.64 548.28C1087.11 548.23 1087.58 548.17 1088.04 548.09C1088.63 547.95 1089.14 547.68 1089.57 547.28C1090.06 546.96 1090.45 546.54 1090.73 546.02C1091.06 545.5 1091.24 544.95 1091.26 544.35C1091.39 543.75 1091.37 543.15 1091.18 542.56L1090.73 541.49C1090.33 540.81 1089.79 540.28 1089.12 539.88L1088.05 539.43C1087.25 539.22 1086.45 539.22 1085.66 539.43L1085.67 539.42Z" fill="#101010"/>
<path d="M1060.01 555.71L1059.87 555.65C1060.41 557.7 1060.95 559.75 1061.48 561.81L1061.55 561.68L1056.47 563.75C1069.98 566.74 1083.14 570.91 1095.92 576.25C1101.26 578.48 1103.59 569.78 1098.31 567.57C1085.54 562.23 1072.38 558.07 1058.86 555.07C1056.98 554.65 1054.73 555.33 1053.78 557.14L1053.71 557.27C1052.66 559.26 1053.04 562.38 1055.32 563.43L1055.46 563.49C1060.69 565.89 1065.27 558.13 1060 555.72L1060.01 555.71Z" fill="#101010"/>
<path d="M1183.82 121.61C1176.27 118.11 1167.97 120.62 1162.78 127.03C1156.75 134.47 1156.91 144.83 1156.56 153.9C1155.65 177.81 1154.96 201.73 1154.51 225.66C1153.61 273.18 1153.63 320.72 1154.56 368.23C1155.09 395.15 1155.92 422.06 1157.02 448.95C1157.26 454.72 1166.26 454.75 1166.02 448.95C1162.44 361.94 1161.88 274.82 1164.41 187.77C1164.76 175.81 1165.16 163.85 1165.63 151.9C1165.84 146.57 1165.78 140.92 1167.9 135.92C1169.63 131.83 1174.43 127.13 1179.27 129.37C1184.49 131.79 1189.07 124.03 1183.81 121.6L1183.82 121.61Z" fill="#91D1E5"/>
<path d="M1070.85 137.96C1076.27 138.28 1086.72 137.08 1089.58 143.08C1091.91 147.96 1091.48 155.08 1091.7 160.31C1092.18 171.52 1092.4 182.78 1092.4 194C1092.4 236.85 1093.73 279.67 1094.77 322.5C1095.39 348.23 1095.88 373.96 1095.89 399.7C1095.89 405.49 1104.89 405.5 1104.89 399.7C1104.87 351.23 1103.11 302.79 1102.09 254.33C1101.39 221.1 1102.79 187.47 1100.36 154.28C1099.9 147.95 1099.67 140.05 1094.97 135.19C1088.84 128.86 1078.94 129.43 1070.84 128.95C1065.05 128.61 1065.07 137.61 1070.84 137.95L1070.85 137.96Z" fill="#91D1E5"/>
<path d="M991.48 123.65C949.32 123.65 907.15 123.68 864.99 123.72C816.97 123.76 768.94 123.82 720.92 123.88C677.38 123.93 633.84 123.99 590.3 124.06C560.98 124.1 531.66 124.15 502.34 124.19C496.27 124.19 490.2 124.21 484.13 124.22C479.29 124.22 474.45 124.51 469.76 125.83C456.26 129.62 447.67 140.07 445.85 153.84C444.93 160.78 445.37 167.77 445.67 174.73C445.92 180.5 454.93 180.53 454.67 174.73C454.07 161.17 452.41 144.28 466.43 136.75C471.81 133.86 477.79 133.22 483.79 133.21C489.3 133.21 494.82 133.19 500.33 133.18C528.08 133.14 555.83 133.09 583.58 133.05C625.69 132.99 667.81 132.93 709.92 132.88C756.9 132.82 803.88 132.77 850.86 132.72C893.21 132.68 935.57 132.65 977.92 132.64C982.44 132.64 986.95 132.64 991.47 132.64C997.26 132.64 997.27 123.64 991.47 123.64L991.48 123.65Z" fill="#91D1E5"/>
<path d="M1024.82 71.41C1021.66 65.03 1016.94 65.89 1011.21 68.03C1005.48 70.17 1000.37 72.41 995.17 75.03C992.37 76.44 988.38 78.04 988.34 81.74C988.32 83.41 989.23 85.23 989.78 86.76C996.68 105.99 1004.32 124.98 1011.76 144C1016.43 155.94 1021.13 167.87 1025.86 179.79C1027.81 184.71 1029.67 189.69 1031.75 194.56C1034.84 201.79 1040.22 203.2 1047.58 202.55C1054.94 201.9 1062.09 199.93 1066.49 193.72C1071.01 187.34 1068.8 180.17 1066.56 173.37C1062.6 161.37 1057.98 149.59 1053.26 137.88C1044.24 115.53 1034.53 93.48 1024.82 71.42C1022.49 66.13 1014.74 70.71 1017.05 75.96C1030.99 107.65 1045.38 139.32 1056.64 172.09C1058.06 176.23 1061.47 182.8 1059.95 187.14C1058.79 190.43 1055.1 192.06 1052.01 192.86C1049.85 193.42 1043.7 194.8 1041.68 193.56C1039.02 191.93 1037.82 185.62 1036.69 182.79C1034.92 178.35 1033.16 173.91 1031.4 169.47C1024.17 151.2 1017.01 132.91 1009.93 114.58C1006.87 106.65 1003.81 98.72 1000.83 90.76C999.93 88.35 999.02 85.94 998.16 83.51C997.93 82.86 997.76 82.16 997.48 81.54C997.09 80.64 997.53 80.23 997.35 81.64L996.03 84.82C995.84 85.05 997.94 83.72 998.89 83.22C1001.14 82.05 1003.45 80.98 1005.76 79.95C1008.34 78.79 1010.96 77.7 1013.61 76.71C1014.6 76.34 1015.63 76.06 1016.6 75.66C1017.18 75.47 1017.76 75.29 1018.34 75.13C1016.48 74.41 1016.05 74.68 1017.05 75.96C1019.62 81.15 1027.38 76.6 1024.82 71.42V71.41Z" fill="#91D1E5"/>
<path d="M975.67 93.15C931.03 93.15 886.39 93.11 841.76 93.05C791.29 92.99 740.81 92.91 690.34 92.83C645.78 92.76 601.23 92.67 556.67 92.59C529.78 92.54 502.89 92.48 476.01 92.43C468.48 92.41 462.36 92.66 454.78 94.49C439.6 98.15 428.33 107.73 422.2 122.08C416.92 134.43 415.98 148.55 415.27 161.82C414.92 168.43 414.77 175.07 415.13 181.69C415.45 187.45 424.45 187.49 424.13 181.69C423.38 168.23 424.18 154.34 426.29 141.04C428.48 127.24 434.28 113 447.52 106.47C456.19 102.2 464.98 101.41 474.27 101.43C499.49 101.48 524.71 101.53 549.93 101.58C592.69 101.66 635.45 101.74 678.21 101.82C727.77 101.9 777.34 101.98 826.9 102.04C871.79 102.1 916.67 102.14 961.56 102.15C966.27 102.15 970.98 102.15 975.68 102.15C981.47 102.15 981.48 93.15 975.68 93.15H975.67Z" fill="#91D1E5"/>
<path d="M1060.65 106.43C1082.46 103.56 1114.34 107.26 1117.12 134.93C1117.57 139.36 1117.52 143.88 1117.66 148.33C1118.28 169.28 1118.67 190.23 1119.08 211.19C1120.14 265.38 1121.03 319.57 1121.89 373.76C1122.1 386.85 1122.3 399.94 1122.5 413.03C1122.59 418.82 1131.59 418.83 1131.5 413.03C1130.94 376.21 1130.34 339.4 1129.72 302.58C1128.85 251.33 1128.18 200.06 1126.67 148.82C1126.48 142.29 1126.74 135.34 1125.18 128.96C1118.1 99.98 1086.11 94.08 1060.65 97.43C1054.99 98.17 1054.92 107.18 1060.65 106.43Z" fill="#91D1E5"/>
<path d="M385 133.8V180.11C385 185.9 394 185.91 394 180.11V133.8C394 128.01 385 128 385 133.8Z" fill="#91D1E5"/>
<path d="M685.68 292.71C682.44 282.33 680.77 273 683.88 261.84C685.91 254.56 691.42 247.61 688.59 239.82C685.14 230.33 672.23 229.83 664.56 227.69C656.61 225.46 652.33 223.67 649.06 216.11C647.26 211.95 645.73 207.89 645.3 203.5C644.95 199.88 642.5 191.83 639.09 189.95C634.33 187.32 628.33 193.51 623.8 195.15L608.73 200.57C606.16 200.38 601.25 202.03 600.95 204.92C600.62 206.28 601.39 210.21 602.01 211.41C602.6 217.3 601.7 221.01 596.85 224.63C591.91 228.32 585.91 229.72 584.23 236.48C583.67 238.74 582.71 240.7 581.3 242.47C580.16 243.89 579.34 246.6 577.7 247.02C575.09 247.69 572.65 248.45 570.47 249.64C567.16 247.1 562.43 246.44 558.36 248.25C550.89 251.57 547.42 260.55 546.74 268.19C545.34 283.94 552.79 299.58 567.37 303.08C567.46 306.32 568.02 310.49 567.47 311.02C558.68 319.38 548.65 325.98 541.58 335.83C539.05 339.35 545.4 347.07 549.37 345.73C570.22 338.68 593.23 354.3 613.67 357.67C618.21 358.42 622.94 343.39 624.59 343.36C629.51 343.27 633.51 341.47 638.44 341.33C647.93 341.07 661.24 341.84 669.77 337.52C685.27 329.66 691.02 309.79 685.68 292.72V292.71Z" fill="#FFE5BB"/>
<path d="M1016.84 425.27C1005.79 419.18 993.9 415.26 981.68 413.51C980.89 412.32 979.59 411.44 977.74 411.34C944.15 409.61 912.83 423.57 884 439.33C868.98 447.54 854.22 456.19 838.92 463.87C823.41 471.66 807.61 478.85 792.2 486.84C784.29 490.94 776.27 496.52 767.35 498.09C760.54 499.29 752.29 496.8 750.6 489.42C752.17 484.46 743.52 477.83 740.39 482.89C737.97 486.8 729.02 487.57 725.71 490.8C719.89 496.45 726.25 506.85 727.85 513.72C732.04 531.78 734.7 551.04 738.89 569.1C739.36 571.13 741.67 572.98 743.78 572.86C751.79 572.41 761.25 570.68 769.26 570.23C772.45 570.05 778.96 567.85 778.04 564.58C772.61 545.3 784.06 528.91 799.12 517.9C815.58 505.86 832.3 495.21 851.44 488.58C860.96 485.28 870.8 482.82 880.04 478.73C889.09 474.72 896.4 467.54 906.09 464.98C916.34 462.26 920.61 461.41 931.06 459.69C942.27 457.85 951.97 467.87 965.13 461.76C970.65 459.2 980.14 457.44 986.23 457.29C990.04 457.2 1000.47 455.86 1002.42 452.02C1004.11 448.69 1004.71 440.74 1002.42 438.09C1008.8 437.08 1010.91 436.82 1016.85 433.91C1020.23 432.25 1019.98 427 1016.85 425.28L1016.84 425.27Z" fill="#FFE5BB"/>
<path d="M886.83 587.16C885.81 576.5 878.56 570.35 872.84 561.29C871.53 559.21 869.49 558.66 867.19 558.99C838.84 563.07 810.49 567.09 782.12 571.04C768.25 572.97 755.09 573.28 741.13 574.37C734.56 574.88 731.21 568.61 727.2 564.21C722.4 558.94 715.92 555.15 711.11 549.88C709.63 548.26 702.44 543.59 699.42 545.9C668.23 569.76 638.25 595.14 609.64 622.04C606.64 624.86 608.56 629.07 611.85 630.4C672.36 654.8 730.55 658.5 793.28 645.9C793.43 645.87 855.36 626.82 861.21 625.11C866.31 623.62 873.1 618.71 877.41 615.41C884.63 609.89 887.59 595.25 886.82 587.17L886.83 587.16Z" fill="#FFE5BB"/>
<path d="M991.67 524.13C979.25 527.79 966.83 531.44 954.41 535.1C959.33 530.25 966.33 526.15 970.41 520.53C973.6 516.13 978.6 509.08 974.17 503.97C969.89 499.02 960.23 502.32 956.2 505.44C946.21 513.17 940.77 525.39 927.85 528.9C921.26 530.69 914.69 531.77 908.52 534.87C902.4 537.95 897.07 542.49 892.87 547.87C891.75 549.3 891.53 550.91 891.87 552.35C891.46 554.18 892.06 556.16 894.25 557.31C906.57 563.75 907.03 578.98 907.31 591.19C907.38 594.11 910.51 597.28 913.64 596.01C946.67 582.6 987.46 557.4 1003.89 523.92C1005.73 520.18 996.07 522.83 991.64 524.14L991.67 524.13Z" fill="#FFE5BB"/>
<path d="M885.93 499.45C885.97 499.24 886 499.02 886.02 498.82C886.04 498.65 886.05 498.49 886.07 498.32C886.29 496.15 884.36 494.06 882.4 493.5C878.73 492.45 876.27 494.37 873.19 496.23C869.77 498.3 866.36 500.36 862.94 502.43C861.43 503.34 859.91 504.26 858.4 505.17C839.85 511.64 822.28 520.8 806.36 532.42C804.41 533.84 803.92 535.96 804.33 537.85C801.66 539.47 798.99 541.08 796.31 542.7C791.42 545.65 794.84 552.8 799.54 552.02C798.88 555.46 802.36 559.39 806.04 556.93C806.13 556.87 806.21 556.81 806.3 556.76C807.13 557.26 808.15 557.47 809.28 557.26C818.92 561.7 830.65 550.97 838.25 545.65C846.08 540.17 855.02 536.63 861.83 530.01C867.18 526.24 872.54 522.46 877.89 518.69C881.32 516.27 890.02 511.38 887.33 506.31C888.67 504.22 887.97 501.07 885.93 499.46V499.45Z" fill="#FFE5BB"/>
<path d="M699.38 527.51C694.58 524.06 688.65 519.78 686.77 513.87C685.56 510.06 687.17 506.63 688.08 502.96C688.91 499.61 689.35 496.14 689.47 492.69C689.74 485.01 688.35 477.32 687.24 469.75C686.14 462.23 685.02 454.71 683.77 447.22C678.81 417.61 671.52 388.05 656.16 361.96C654.97 359.93 652.72 359.23 650.51 359.66C642.43 361.23 634.3 357.3 630.15 350.3C627.4 345.66 621.41 348.19 620.83 352.82C620.32 356.86 614.55 357.6 611.48 357.27C606.65 356.74 601.99 354.65 597.34 353.36C588.51 350.93 579.33 349.54 570.18 349.19C565.2 349 560.2 349.13 555.23 349.6C551.89 349.91 547.59 345.75 545.05 348.1C543.68 349.37 542.14 355.4 541.04 356.91C539.78 358.63 538.33 360.21 536.79 361.67C535.87 362.55 534.9 363.35 533.89 364.1C531.48 363.8 526.85 368.29 526.37 368.51C522.54 370.28 525.6 377.96 525.27 378.6C523.52 382.04 520.4 383.28 517.05 384.75C509.95 387.88 505.15 392.57 500.91 399.03C499.72 400.85 485.56 415.94 482.97 420.87C462.7 455.72 446.04 493.79 444.98 534.51C444.68 546.12 445.45 558.14 449.07 569.25C452.74 580.5 459.2 590.55 464.92 600.82C476.78 622.15 487.31 644.23 496.27 666.93C506.48 692.8 514.72 719.41 521.04 746.49C521.61 748.93 524.74 750.93 527.19 749.98C534.86 747.01 543.32 748.81 551.54 748.2C558.78 747.65 573.78 745.94 580.98 744.85C594.44 742.81 595.07 730.66 602.26 720.06C605.92 714.66 609.21 709.04 612.36 703.32C623.85 687.12 634.24 670.2 643.51 652.63C644.31 651.33 645.12 650.02 645.92 648.72C648.75 644.12 612.5 634.72 600.56 626.84C635.38 597.48 673.82 574.27 702.21 539.97C704.4 537.32 702.14 529.53 699.36 527.53L699.38 527.51Z" fill="#38ABD0"/>
<path d="M742.03 465.42C738.97 460.51 734.84 456.01 731.32 451.41C727.35 446.22 723.39 441.03 719.42 435.84C718.78 435.01 718.02 434.45 717.19 434.12C716.86 432.53 709.92 426.31 709.58 424.72C708.27 418.42 705.24 425.72 706.55 432.01C708.89 443.22 710.78 454.65 713.91 465.67C715.81 472.35 719.17 493.04 729.24 489.12C733.2 487.58 740.1 478.62 742.88 475.56C745.75 472.4 744.42 469.29 742.01 465.42H742.03Z" fill="#38ABD0"/>
<path d="M724.22 507.67C724.31 503.99 724.3 500.3 724.17 496.6C723.96 490.18 713.95 490.15 714.17 496.6C714.27 499.58 714.28 502.55 714.25 505.53C714.04 506.1 713.93 506.74 713.96 507.47C714.01 508.58 714.07 509.68 714.13 510.79C714.01 514.04 716.44 517.74 716.13 520.98C715.76 524.99 718.21 528.16 717.54 532.13C717.45 532.64 718.62 537.55 718.53 538.06C715.5 537.21 716.37 546.49 716.84 550.48C717.18 553.4 706.41 544.22 707.22 547.05C707.72 548.83 709.33 550.33 711.17 550.65C713.44 554.37 716.06 557.85 719.03 561.07C719.05 561.23 721.25 565.2 723.19 565.17C723.58 565.52 723.95 565.89 724.36 566.24C727.7 569.12 732.63 567.16 732.9 562.7C734.04 543.89 729.29 525.61 724.23 507.66L724.22 507.67Z" fill="#38ABD0"/>
<path d="M731.48 651.54C721.77 652.27 712.06 653.01 702.35 653.74C702.15 649.13 689.64 655.07 687.69 660.38C682.44 674.64 679.05 680.18 670.45 692.63C661.31 705.87 651.85 718.89 642.53 732C639.54 736.2 645.29 741.27 649.37 738.84C683.42 718.53 712.78 691.33 735.79 659.06C737.93 656.06 735.09 651.26 731.47 651.54H731.48Z" fill="#38ABD0"/>
<path d="M624.89 161.7C615.36 154.51 603.35 151.29 591.7 149.65C565.05 145.9 537.48 151.47 512.91 161.95C487.5 172.8 464.01 192.41 458.65 220.81C458.15 223.48 459.6 225.5 461.52 226.46C461.21 234.26 462.36 242.06 465.03 249.57C466.19 252.83 469.3 253.97 472.37 252.56C499.58 240.1 527.18 228.51 555.16 217.86C569.2 212.52 583.32 207.4 597.53 202.52C604.18 200.24 610.85 198 617.53 195.82C623.15 193.99 630.61 192.88 634.83 188.39C642.9 179.81 631.8 166.93 624.89 161.71V161.7Z" fill="#38ABD0"/>
<path d="M554.4 751.63C546.25 752.44 538.12 753.36 530 754.4C527.14 752.07 521.63 753.29 521.68 758.08C521.76 765.67 517.02 777.99 517.52 785.56C518 792.83 528.65 791.42 533.87 795.54C536.27 797.43 540.05 797.64 541.72 794.53C543.48 791.26 546.75 792.41 548.76 789.33C550.13 789.61 571.23 764.06 571.35 763.73C571.81 763.35 581.05 748.67 581.51 748.29C585.87 744.7 558.92 749.58 554.39 751.63H554.4Z" fill="#045073"/>
<path d="M846.31 790.48C845.38 782.06 843.35 704.1 843.17 673.75C843.16 671.49 840.07 670.05 837.95 669.4C818.69 663.43 799.1 658.55 779.27 654.91C770.58 653.31 760.94 650.7 752.05 651.34C743.07 651.98 736.84 655.39 732.12 662.45C712.55 691.7 688.38 717.58 656.12 732.08C652.73 733.61 639.93 733.89 638.38 736.61C637.45 738.23 635.21 741.79 634.24 743.39C632.77 744.71 609.65 774.7 608.26 776.14C602.49 782.11 595.14 790.49 588.68 795.72C583.23 800.13 578.04 803.97 574.39 810.2C570.19 817.35 573.9 826.13 575.72 833.43C576.58 836.88 577.14 840.54 580.1 842.85C583.34 845.38 614.81 850.55 623.3 850.97C634.69 851.54 646.11 851.14 657.51 850.87L727.08 849.22C750.6 848.66 774.12 848.1 797.64 847.54C808.58 847.28 819.81 847.73 830.71 846.64C838.93 845.82 846.91 846.75 846.49 837.56C846.27 832.64 846.52 823.84 845.43 818.97C845.92 818.73 847.25 798.88 846.33 790.48H846.31Z" fill="#045073"/>
<path d="M592.65 208.43C591.17 209.46 586.09 211.58 584.76 212.76C584.12 212.7 583.41 212.79 582.64 213.07C554.25 223.39 525.86 233.71 497.47 244.03C486.85 247.89 472.68 250.87 466.95 261.78C462.41 270.41 463.81 280.21 462.45 289.51C461.83 293.73 460.55 297.49 456.85 299.85C452.15 302.84 447.1 304.39 445 310.08C443.46 314.25 444.19 318.7 445.34 322.88C446.48 327.02 449.54 332.86 447.05 337.02C444.44 341.39 438.6 343.43 435.54 347.67C432.43 351.97 430.81 357.43 431.02 362.73C431.23 367.9 433.07 372.2 435.94 376.39C438.17 379.66 438.55 381.13 436.77 384.83C435.41 387.66 434.01 390.35 433.37 393.47C431.96 400.3 433.45 406.73 436.75 412.74C438.78 416.43 438.87 418.22 437.27 421.97C435.98 425 434.63 427.92 434.53 431.28C434.37 436.65 436.89 441.56 439.51 446.08C441.21 449.02 443.55 452.15 444.01 455.49C441.91 461.07 441.07 466.98 442.65 473.28C443.89 478.22 450.87 477.85 452.29 473.28C453.82 468.35 455.35 463.43 456.88 458.5C457.49 457.23 457.95 455.86 458.17 454.35C458.4 452.81 462.47 449.92 461.78 448.89C464.61 444.35 463.56 441.65 466.19 437.86C473.61 427.16 481.17 416.55 488.87 406.04C492.33 401.31 495.81 396.59 499.35 391.92C500.91 389.86 502.5 387.38 504.68 385.9C506.95 384.35 509.85 384 512.21 382.55C515.48 380.54 519.47 379.13 520.52 375.53C521.34 372.74 518.93 365.47 521.11 363.34C522.79 361.7 526.46 362.19 528.66 361.49C530.36 360.95 531.98 360.06 533.33 358.9C535.84 356.75 539.09 354.63 540 351.49C541.89 344.92 538.72 336.55 541.51 330.26C543.12 326.64 546.57 326.13 549.91 324.64C553.71 322.94 556.57 320.29 558.06 316.54C558.66 316.31 559.21 315.97 559.6 315.48C560.34 314.55 561.09 313.62 561.83 312.69C562.69 311.62 563.29 310.58 563.29 309.15C563.29 307.92 562.75 306.46 561.83 305.61C560.88 304.74 559.63 304.09 558.29 304.15C558.22 304.15 558.14 304.16 558.06 304.17C556.1 298.72 552.01 293.89 548.96 288.81C542.98 278.87 541.1 265.5 546.93 255.05C552.3 245.42 562.11 243 572.88 245.98C575.31 246.65 580.33 241.87 580.82 239.21C582.38 230.62 586.8 223.09 594.02 218.07C599.26 214.42 597.95 204.74 592.65 208.43Z" fill="#935E00"/>
<path d="M678.23 653.33C672.27 653.8 666.45 653.56 660.61 652.49C662.71 646.83 654.41 642.09 651.83 647.82C625.91 705.24 584.71 753.85 537.67 795.18C532.04 789.26 524.64 784.92 516.58 790.16C512.71 792.67 510.67 797.38 511.84 801.91C513.33 807.66 518.95 811.69 523.04 815.6C528.1 820.43 533.16 825.26 538.22 830.1C542.67 834.35 546.97 839.19 552.16 842.57C559.74 847.5 572.73 847.09 575.62 836.73C576.62 833.13 575.62 829.39 573.63 826.33C571.91 823.69 566.21 819.92 565.71 816.76C565.17 813.3 572.57 809.2 574.86 807.12C580.26 802.21 585.31 796.92 590.19 791.5C607.19 772.62 623.78 753.19 639.27 733.06C656.74 710.36 674.52 685.46 685.42 658.89C686.61 655.99 681.2 653.11 678.22 653.35L678.23 653.33Z" fill="#101010"/>
<path d="M1029.88 442.69C1026.5 448.75 1018.39 449.46 1011.24 449.75C1010.32 449.2 1009.44 452.41 1008.16 452.81C1007.13 453.13 1006.1 453.44 1005.06 453.76C1003.05 454.38 1002.08 455.82 1001.9 457.36C997.06 460.28 991.14 461.55 985.82 463.19C977.66 465.71 975.91 462.48 967.75 465C962.23 466.7 966.99 477.16 972.55 475.45C981.92 472.56 982.47 473.64 991.84 470.76C998.63 468.67 1005.87 469.26 1011.23 464.54C1021.4 463.32 1032.23 461.76 1038.03 451.36C1040.86 446.3 1032.69 437.64 1029.86 442.71L1029.88 442.69Z" fill="#FFE5BB"/>
<path d="M967.76 454.01C967.55 453.99 967.35 454 967.14 453.99C965.75 453.13 963.94 453 962.47 453.87C962.06 454.12 961.64 454.36 961.23 454.61C959.26 455.11 957.35 455.9 955.58 456.93C952.47 458.75 952.99 462.62 955.27 464.38C955.33 464.44 955.38 464.5 955.45 464.56C955.86 464.92 956.27 465.27 956.68 465.63C958.51 467.23 961.24 467.43 963.04 465.63C963.66 465.01 964.07 464.16 964.25 463.27L964.52 463.11C965.56 462.95 966.63 462.91 967.77 463C970.2 463.18 972.27 460.8 972.27 458.5C972.27 455.92 970.2 454.18 967.77 454L967.76 454.01Z" fill="#101010"/>
<path d="M985.94 578.97C984.47 575.65 980.55 565.89 979.24 564.48C976 561.01 951.03 579.41 943.64 583.77C941.15 585.24 926.8 589.84 927.97 594.22C928.42 595.89 929.69 603.1 931.07 605.15C931.72 606.12 940.39 633.36 943.33 632.62C948.44 631.35 953.55 630.07 958.66 628.8C962.44 627.86 966.91 627.39 970.42 625.64C977.18 622.25 976.15 610.92 977.86 604.69C978.9 600.89 980.57 597.97 984.03 596C986.85 594.4 989.15 593.06 989.46 589.48C989.77 585.88 987.35 582.15 985.95 578.98L985.94 578.97Z" fill="#101010" stroke="#101010" stroke-miterlimit="10"/>
<path d="M1107.21 442.55C1107.28 438.69 1104.53 436.67 1102.46 433.09C1100.85 430.3 1092.22 428.88 1090.57 427.77C1089.23 426.88 1066.19 423.01 1058.64 425.22C1052.68 425.26 1046.82 426.07 1041.05 427.63C1039.54 428.04 1019.69 436.02 1010.54 439.16C1005.58 440.86 1006.71 447.49 1011.74 448C1011.9 448.02 1033.68 442.64 1041.45 440.33C1042.78 439.93 1077.77 438.96 1078.09 439.62C1079.05 441.55 1079.71 443.5 1080.19 445.52C1079.26 446.2 1078.81 450.36 1078.04 451.19C1073.12 453.33 1051.47 464.66 1046.65 468.15C1046.63 468.16 1046.6 468.17 1046.58 468.18C1033.82 473.45 1021.49 479.56 1009.66 486.59C1006.05 488.57 996.65 491.55 995.2 492.04C991.61 493.26 986.5 494.12 983.32 496.72C980.63 498.1 978.35 499.88 977.33 502.49C976.57 504.42 980.13 509.92 979.99 510.82C979.88 511.52 979.74 512.21 979.59 512.9C978.89 513.86 978.23 514.86 977.63 515.89C976.05 516.81 974.47 517.72 972.91 518.66C968.7 521.19 971.22 527.71 975.88 526.97C977.32 528.05 1043.09 497.83 1048.89 494.26C1052.14 493.75 1083.15 481.51 1085.33 479.5C1089.52 475.65 1113.95 454.82 1107.22 442.52L1107.21 442.55Z" fill="#101010" stroke="#101010" stroke-miterlimit="10"/>
<path d="M902.62 511.14C908.41 511.14 908.42 502.14 902.62 502.14C896.82 502.14 896.82 511.14 902.62 511.14Z" fill="black"/>
<path d="M956.74 494.36C956.31 490.98 955.87 487.6 955.44 484.21C955.69 481.51 955.37 478.84 954.4 476.13C953.31 473.08 949.18 472.26 946.96 473.81C944.57 473.68 927.11 483.98 926.42 483.79C920.3 485.62 913.43 487.41 908.54 488.73C898.09 488.82 894.14 486.47 892.07 485.78C890.24 485.78 888.54 486.7 888.23 488.92C887.49 494.23 891.97 509.57 892.31 509.95C893.45 511.26 909.02 521.35 909.57 523.45C910.17 525.74 913 527.28 915.25 526.66C919.32 527.75 923.56 525.11 927.11 522.95C933.45 519.09 939.66 515 945.75 510.76C947.5 509.54 948.07 507.88 947.84 506.36C949.39 504.02 957.15 497.43 956.75 494.34L956.74 494.36Z" fill="#101010" stroke="#101010" stroke-miterlimit="10"/>
<path d="M904.75 597.28C904.46 593.66 904.66 590.06 904.76 586.45C905.07 574.76 902.05 562.76 891.64 555.99C890.98 555.56 890.31 555.36 889.65 555.31C888.92 554.43 888.13 553.59 887.21 552.8C885.08 550.96 882.29 551.45 880.72 553.06C877.21 553.06 874.1 557.58 877.36 560.69C878.78 562.04 880.35 563.22 881.93 564.38C881.93 564.76 881.94 565.14 882.03 565.56C883.63 573.44 884.68 581.39 885.08 589.43C885.44 596.62 884.38 604.15 886.06 611.2C886.89 614.69 891.15 615.3 893.58 613.19C895.53 611.49 898.12 611.95 900.12 610.46C901.76 609.24 903.51 606.74 904.27 604.86C905.29 602.36 904.96 599.92 904.75 597.29V597.28Z" fill="white"/>
<path d="M637.66 193.29C641.49 199.46 643.86 206.62 645.31 213.71C646.76 220.8 647.22 225.14 654.55 227.65C662.4 230.33 671.17 231 678.28 235.55C685.91 240.44 687.49 247.73 683.27 255.64C681.5 258.95 678.8 261.88 677.77 265.55C676.63 269.64 677.92 273.89 678.79 277.9C680.79 287.13 683.75 296.69 684.31 306.15C685.35 323.63 670.32 333.34 654.94 336.58C644.83 338.71 634.43 338.72 624.2 339.96C621.08 340.34 618.09 340.66 616.33 343.62C614.44 346.81 613.58 350.93 612.29 354.39C610.26 359.82 618.95 362.17 620.97 356.78C621.61 355.07 622.22 353.35 622.84 351.63C623.52 349.75 623.37 349.42 625.11 348.85C629.43 347.44 635.25 347.94 639.78 347.56C648.56 346.83 657.57 345.93 665.89 342.85C679.27 337.89 691.4 327.6 693.11 312.7C694.19 303.25 691.42 293.73 689.43 284.57C688.45 280.07 686.77 275.19 686.47 270.6C686.17 266.01 690.26 262.03 692.16 257.9C699.11 242.84 690.21 229.85 675.81 224.37C671.28 222.64 666.53 221.64 661.85 220.4C660.06 219.92 656.2 219.48 655.06 217.83C654.28 216.7 654.48 214.03 654.23 212.62C652.74 204.39 649.84 195.87 645.41 188.74C642.36 183.83 634.57 188.34 637.64 193.28L637.66 193.29Z" fill="#101010"/>
<path d="M655.67 282.5C663.81 290.62 674.66 294.97 686.16 294.61C691.94 294.43 691.96 285.43 686.16 285.61C676.95 285.9 668.56 282.66 662.03 276.14C657.92 272.04 651.56 278.41 655.67 282.5Z" fill="#101010"/>
<path d="M636.63 203.62C626.04 200.01 618.3 210.25 615.15 218.88C613.16 224.33 621.86 226.68 623.83 221.27C625.32 217.18 628.86 210.46 634.24 212.29C639.62 214.12 642.09 205.47 636.63 203.61V203.62Z" fill="#101010"/>
<path d="M633.13 223.46C633.99 227.3 634.43 231.12 634.51 235.06C634.62 240.84 643.63 240.86 643.51 235.06C643.42 230.35 642.84 225.66 641.81 221.07C640.54 215.42 631.86 217.81 633.13 223.46Z" fill="#101010"/>
<path d="M638.28 268.91C636.4 278.19 631.4 286.23 623.54 291.63C618.8 294.89 623.29 302.69 628.08 299.4C637.8 292.71 644.6 282.92 646.95 271.3C648.1 265.65 639.42 263.23 638.27 268.91H638.28Z" fill="#101010"/>
<path d="M469.49 260.41C529.86 234.49 590.85 210.01 652.4 187.02C669.78 180.52 687.21 174.15 704.68 167.89C710.09 165.95 707.76 157.25 702.29 159.21C639.77 181.63 577.79 205.53 516.42 230.93C499.22 238.05 482.06 245.29 464.95 252.64C459.64 254.92 464.22 262.67 469.49 260.41Z" fill="#101010"/>
<path d="M515.47 153.27C494.67 160.46 475.02 172.77 463.53 192.06C457.93 201.46 454.48 212.23 454.04 223.18C453.53 235.6 457.77 247.11 462.58 258.35C464.85 263.66 472.61 259.08 470.35 253.81C466.17 244.04 462.6 233.96 463.04 223.18C463.45 213.24 466.91 203.57 472.17 195.19C482.5 178.74 499.86 168.17 517.87 161.95C523.31 160.07 520.97 151.37 515.48 153.27H515.47Z" fill="#101010"/>
<path d="M515.72 162.69C539.03 153.3 565.37 149.79 590.39 152.06C601.79 153.09 614.11 156.15 623.12 163.58C630.72 169.84 634.1 178.91 636.87 188.06C638.54 193.59 647.23 191.23 645.55 185.67C642.54 175.73 638.72 165.73 630.94 158.49C621.7 149.9 609.09 145.62 596.81 143.82C569.38 139.79 538.99 143.66 513.32 154C508.02 156.14 510.33 164.85 515.71 162.68L515.72 162.69Z" fill="#101010"/>
<path d="M578.82 249.11C574.02 239.69 561.92 237.9 553.41 243.32C543.28 249.77 539.02 263.94 539.31 275.41C539.84 296.54 567.65 319.53 585.35 299.81C589.21 295.51 582.86 289.12 578.99 293.45C567.34 306.43 550.23 290.26 548.48 277.37C547.49 270.03 549.82 259.85 554.63 254.11C558.88 249.04 567.44 246.56 571.05 253.66C573.68 258.82 581.44 254.27 578.82 249.12V249.11Z" fill="#101010"/>
<path d="M594.48 208.41C596.37 211.99 595.91 216.24 592.71 218.91C589.89 221.26 585.88 220.75 583.13 223.4C580.91 225.53 579.96 228.57 579.58 231.53C579.38 233.11 579.46 234.7 579.29 236.28C578.95 239.44 577.25 240.72 574.72 242.32C569.84 245.41 574.35 253.2 579.26 250.09C583.58 247.36 586.94 244.35 587.97 239.13C588.43 236.8 587.72 233.5 588.7 231.34C589.8 228.91 593.56 228.85 595.76 227.65C604.47 222.87 606.71 212.33 602.24 203.88C599.53 198.76 591.76 203.3 594.47 208.42L594.48 208.41Z" fill="#101010"/>
<path d="M560.71 304.96C561.35 310.12 559.83 315.07 555.46 318.19C551.98 320.68 547.8 321.96 544.41 324.62C536.49 330.85 538.57 339.04 539 347.8C539.26 353.06 536.68 354.87 532.04 356.51C528.27 357.84 524.32 359.08 521.45 362.04C517.9 365.71 518.96 369.77 518.31 374.29C517.77 378.05 512.33 381.92 508.5 381.31C502.83 380.41 500.39 389.08 506.11 389.99C515 391.4 526.05 385.14 527.18 375.65C527.53 372.71 526.52 369.58 528.97 367.47C530.69 365.99 533.59 365.53 535.65 364.78C540.22 363.12 544.41 360.81 546.6 356.25C548.79 351.69 547.93 347.06 547.42 342.42C547.14 339.9 546.59 336.76 547.68 334.34C548.77 331.92 551.68 330.49 553.99 329.26C563.62 324.16 571.19 316.83 569.72 304.95C569.02 299.28 560.01 299.21 560.72 304.95L560.71 304.96Z" fill="#101010"/>
<path d="M503.52 383.8C483.38 406.17 466.33 431.31 455.21 459.39C445.56 483.77 442.19 510.72 442.02 536.82C441.93 550.89 442.9 565.13 446.14 578.86C447.47 584.49 456.15 582.11 454.82 576.47C451.29 561.51 450.67 545.93 451.13 530.61C451.63 514.32 453.49 497.98 457.36 482.13C465.81 447.53 486.28 416.37 509.87 390.18C513.74 385.89 507.39 379.5 503.51 383.82L503.52 383.8Z" fill="#101010"/>
<path d="M465.76 253.34C460.16 258.96 456.77 267.26 455.59 275.02C454.96 279.16 455.42 282.82 456.33 286.88C456.83 289.11 457.9 292.29 456.33 294.38C454.89 296.28 451.67 297.06 449.69 298.15C442.04 302.33 437.24 310.98 437.83 319.7C438.15 324.44 440.58 328.59 441.18 333.22C441.86 338.42 434.5 340.23 431.31 343.55C425.79 349.29 423.56 358.02 425.35 365.75C426.34 370 428.6 372.82 431.04 376.28C434.68 381.45 429.84 385.39 427.44 390.06C422.58 399.49 425.93 407.5 431.77 415.32C432.83 416.74 434.54 418.53 434.46 420.43C434.38 422.56 431.62 424.78 430.47 426.43C427.91 430.09 426.88 434.55 427.69 438.96C428.09 441.13 428.9 443.24 430.11 445.1C431.45 447.15 433.72 448.37 435.06 450.33C436.81 452.89 434.39 456.01 433.79 458.73C433.34 460.78 433.18 462.92 433.33 465.01C433.99 474.57 440.1 482.5 448.91 485.98C454.3 488.11 456.63 479.41 451.3 477.3C442.77 473.93 441.17 464.76 443.84 457.06C445.13 453.33 445.63 449.88 443.41 446.36C441.19 442.84 436.64 441.06 436.4 436.41C436.18 432.01 440.08 429.49 441.97 425.94C443.86 422.39 443.79 418.17 441.94 414.47C440.25 411.09 437.3 408.58 435.46 405.3C432.49 400.02 434.66 395.35 437.57 390.69C439.64 387.37 441.67 383.9 441.72 379.87C441.78 375.08 438.91 372.31 436.38 368.66C432.14 362.55 433.08 353.36 439.04 348.61C442.53 345.82 446.74 344.83 448.98 340.59C451 336.77 450.39 332.38 449.28 328.4C448.17 324.42 446.16 320.35 446.95 315.97C447.79 311.31 450.73 307.78 454.83 305.61C458.93 303.44 462.79 301.87 464.89 297.5C466.99 293.13 465.82 288.24 464.84 283.73C463.09 275.66 466.29 265.58 472.14 259.71C476.23 255.6 469.87 249.24 465.78 253.35L465.76 253.34Z" fill="#101010"/>
<path d="M545.77 350.04C578.63 351.1 612.09 359.23 640.63 375.86C645.64 378.78 650.18 371.01 645.17 368.09C615.27 350.67 580.2 342.15 545.77 341.05C539.98 340.86 539.98 349.86 545.77 350.05V350.04Z" fill="#101010"/>
<path d="M531.61 366.37C558.81 375.47 585.54 386.06 611.64 397.93C617.81 400.73 623.9 403.67 630.01 406.61C634.23 408.64 639.3 410.63 643.95 408.77C649.47 406.56 649.68 401.16 649.88 396.01C650.19 388.19 650.71 380.46 649.85 372.65C649.22 366.96 640.21 366.89 640.85 372.65C641.57 379.19 641.37 385.67 641.05 392.23C640.99 393.45 641.4 399.74 640.37 400.38C638.84 401.33 635.16 399.12 633.82 398.48C623.17 393.36 612.47 388.4 601.62 383.71C579.44 374.14 556.91 365.35 534 357.69C528.49 355.85 526.13 364.54 531.61 366.37Z" fill="#101010"/>
<path d="M654.56 364.91C676.67 411.62 685.3 463.7 685.89 515.08C685.96 520.87 694.96 520.88 694.89 515.08C694.27 462.04 685.13 408.57 662.33 360.37C659.85 355.14 652.09 359.7 654.56 364.91Z" fill="#101010"/>
<path d="M657.64 366.02C686.02 369.49 693.44 407.53 699.37 430.07C706.26 456.27 711.48 483.11 713.51 510.15C714.58 524.37 714.88 538.86 712.98 553.03C712.22 558.69 720.89 561.14 721.66 555.42C725.47 527.15 722.28 498.24 717.4 470.29C714.85 455.71 711.65 441.25 707.86 426.94C704.22 413.2 700.49 399.06 694.28 386.23C687.06 371.31 674.62 359.09 657.64 357.01C651.9 356.31 651.95 365.32 657.64 366.01V366.02Z" fill="#101010"/>
<path d="M686.03 653.57C653.9 713.2 612.28 768.87 563.25 815.67C559.05 819.68 565.42 826.03 569.61 822.03C619.15 774.75 661.33 718.36 693.8 658.11C696.55 653.01 688.78 648.46 686.03 653.57Z" fill="#101010"/>
<path d="M645.94 645.81C617.03 700.34 580.08 751.11 536.62 794.96C532.54 799.08 538.9 805.45 542.98 801.32C586.94 756.96 624.46 705.51 653.71 650.35C656.42 645.24 648.66 640.68 645.94 645.81Z" fill="#101010"/>
<path d="M542.37 794.86C539.47 792.46 536.49 790.15 533.56 787.77C531.46 786.07 529.39 783.9 526.63 783.36C519.55 781.97 514.45 789.55 510.19 793.9C507.85 796.29 504.92 798.44 504.89 802.14C504.87 805.27 507.14 807.55 509.11 809.68C515.39 816.48 521.94 823.06 528.57 829.53C535.2 836 542 842.37 548.97 848.52C551.29 850.57 553.6 852.8 556.77 853.34C560.83 854.03 563.97 851.83 567.06 849.53C570.51 846.97 573.96 844.41 577.37 841.8C580 839.78 582.48 837.51 582.68 833.96C582.88 830.41 580.42 827.49 578.44 824.89C575.83 821.46 572.96 818.25 570.45 814.75C567.01 809.95 558.97 814.57 562.45 819.42C565.47 823.64 569.01 827.45 572.01 831.68C572.34 832.12 572.65 832.57 572.94 833.04C573.54 833.56 573.49 833.8 572.77 833.73C572.46 834.48 570.41 835.52 569.74 836.02C567.29 837.86 564.84 839.71 562.38 841.54C559.92 843.37 558.71 844.72 556.21 842.59C553.86 840.58 551.58 838.46 549.3 836.37C544.96 832.4 540.67 828.37 536.45 824.28C532.45 820.41 528.51 816.48 524.62 812.51C522.46 810.3 520.32 808.08 518.2 805.84C517.35 804.94 516.51 804.04 515.66 803.15C513.15 800.48 514.58 802.77 515.31 801.86C516.84 799.96 522.46 792.53 525.04 792.69C526.23 792.76 529.42 796.24 530.44 797.05C532.25 798.49 534.06 799.93 535.84 801.41C540.4 805.19 546.98 798.67 542.39 794.86H542.37Z" fill="#101010"/>
<path d="M625.82 349.81C632.32 357.44 637.47 365.94 641.56 375.08C643.92 380.36 651.68 375.78 649.33 370.54C644.91 360.67 639.19 351.68 632.18 343.45C628.42 339.04 622.08 345.43 625.82 349.81Z" fill="#101010"/>
<path d="M637.19 360.23C643.6 362.79 650.21 365.3 656.07 369C660.98 372.1 665.5 364.31 660.61 361.23C654.11 357.13 646.69 354.4 639.58 351.55C634.2 349.4 631.87 358.1 637.19 360.23Z" fill="#101010"/>
<path d="M695.86 412.73C713.71 431.96 730.22 452.34 745.28 473.81V469.27C739.85 476.86 732.88 482.93 724.77 487.49C719.72 490.33 724.25 498.1 729.31 495.26C738.82 489.92 746.72 482.67 753.05 473.81C753.91 472.61 753.89 470.47 753.05 469.27C737.55 447.17 720.58 426.15 702.22 406.36C698.27 402.11 691.92 408.48 695.86 412.72V412.73Z" fill="#101010"/>
<path d="M706.93 459.64C714.98 476.38 718.89 495.52 722.83 513.56C726.77 531.6 730.42 550.54 732.64 569.23C733.32 574.91 742.32 574.98 741.64 569.23C739.32 549.73 735.7 530.34 731.5 511.17C727.3 492 723.11 472.61 714.69 455.1C712.18 449.88 704.42 454.44 706.92 459.64H706.93Z" fill="#101010"/>
<path d="M513.08 441.75C537.48 417.61 575.22 411.74 605.54 428.17C620.61 436.34 633.25 449.61 643.27 463.33C652.16 475.51 661.79 487.14 671.21 498.91C681.77 512.11 692.47 525.38 701.29 539.84C704.3 544.78 712.09 540.26 709.06 535.3C692.05 507.4 669.06 483.64 649.92 457.25C639.31 442.62 625.45 428.54 609.35 420.01C593.25 411.48 575.52 408.13 557.9 410.37C538.55 412.83 520.56 421.69 506.71 435.4C502.59 439.48 508.95 445.84 513.07 441.76L513.08 441.75Z" fill="#101010"/>
<path d="M701.43 536.07C662.58 569.96 622.44 602.32 583.59 636.21C579.22 640.02 585.6 646.37 589.95 642.57C628.8 608.68 668.94 576.32 707.79 542.43C712.16 538.62 705.78 532.27 701.43 536.07Z" fill="#101010"/>
<path d="M500.28 493.79C497.03 508.38 500.81 522.6 506.57 536.06C512.3 549.45 519.3 562.37 527.02 574.71C542.3 599.14 560.91 621.41 582.2 640.82C586.47 644.72 592.85 638.37 588.56 634.46C568.66 616.32 551.14 595.73 536.61 573.05C529.56 562.05 523.21 550.59 517.62 538.78C511.39 525.61 505.67 510.93 508.96 496.18C510.22 490.54 501.54 488.13 500.28 493.79Z" fill="#101010"/>
<path d="M669.29 528.68C639.04 550.59 609.78 573.83 581.61 598.35C577.23 602.16 583.62 608.5 587.97 604.71C615.57 580.69 644.2 557.91 673.83 536.45C678.48 533.08 673.99 525.27 669.29 528.68Z" fill="#101010"/>
<path d="M550 531.55C555.89 539.18 561.51 545.96 567.41 553.59C568.17 554.58 569.04 555.63 570.26 555.88C571.74 556.18 573.14 555.2 574.33 554.27C593.17 539.58 612.02 524.89 630.86 510.2C625.47 501.45 619.61 492.99 613.32 484.86C592.32 499.08 571.86 514.07 551.97 529.81L549.99 531.56L550 531.55Z" fill="#91D1E5"/>
<path d="M546.82 534.73C549.88 538.67 552.99 542.57 556.1 546.47C559.03 550.14 561.72 554.43 565.03 557.75C571.72 564.43 579.2 556.14 584.58 551.94C601.07 539.09 617.56 526.23 634.05 513.38C635.56 512.2 635.71 509.47 634.75 507.93C629.32 499.19 623.48 490.75 617.21 482.59C615.81 480.77 613.27 479.47 611.05 480.98C599.25 488.99 587.6 497.22 576.13 505.7C566.25 513.01 556.03 520.23 546.82 528.37C542.47 532.21 548.86 538.56 553.18 534.73C572.4 517.75 594.4 503.12 615.59 488.74L609.43 487.13C615.7 495.28 621.54 503.73 626.97 512.47L627.67 507.02C613.8 517.83 599.93 528.65 586.06 539.46C582.66 542.11 579.26 544.77 575.85 547.42C574.86 548.19 571.96 551.06 570.79 551.29C571.73 551.59 571.66 551.29 570.57 550.42C569.99 549.66 569.4 548.91 568.81 548.16C563.63 541.54 558.32 535.03 553.16 528.39C549.61 523.82 543.29 530.23 546.8 534.75L546.82 534.73Z" fill="#101010"/>
<path d="M898.25 552.9C899.47 547.19 902.19 542.22 906.58 538.33C911.55 533.92 917.22 532.77 923.55 531.58C934.3 529.55 941.54 523.03 949.02 515.49C952.43 512.05 955.86 508.5 960.08 506.04C964.3 503.58 972.67 500.99 973 508.28C973.27 514.24 966.91 518.81 962.98 522.35C957.19 527.56 951.39 532.76 945.6 537.97C941.28 541.85 947.66 548.2 951.96 544.33C959.01 537.99 966.28 531.82 973.13 525.27C978.23 520.39 982.57 514.37 981.91 506.97C981.33 500.36 976.63 495.26 969.95 494.55C963.27 493.84 957.35 496.73 952.34 500.4C947.33 504.07 942.97 508.97 938.38 513.38C932.57 518.96 927.32 521.74 919.37 523.2C904.71 525.88 892.78 535.46 889.57 550.5C888.36 556.15 897.04 558.56 898.25 552.89V552.9Z" fill="#101010"/>
<path d="M898.99 605.98C892.73 610.44 884.65 611.33 877.72 614.45L884.33 619.53C888.29 606.88 892.82 595.83 890.33 582.32C889.28 576.62 887.2 570.97 884.1 566.06C882.6 563.68 880.84 561.4 878.88 559.4C876.74 557.22 873.14 555.47 871.6 552.88L868.91 559.49C874.04 557.44 880.17 555.38 885.75 556.46C892.55 557.78 896.89 563.61 899.06 569.82C903.31 582.03 902.61 596.24 897.67 608.1C895.45 613.44 904.15 615.77 906.35 610.49C912.49 595.73 912.76 576.16 905.35 561.75C897.4 546.29 881.27 544.9 866.52 550.8C863.88 551.85 862.21 554.68 863.83 557.41C866.58 562.05 871.87 564.4 875.11 568.76C878.28 573.03 880.24 578.08 881.36 583.24C884 595.42 879.21 605.76 875.65 617.13C874.37 621.23 878.93 623.71 882.26 622.21C889.26 619.06 897.15 618.29 903.53 613.74C908.21 610.41 903.72 602.6 898.99 605.97V605.98Z" fill="#101010"/>
<path d="M878.85 609.56C846.51 625.05 813.09 638.34 777.75 645.05C741.32 651.97 702.56 653.48 666.23 645.37C645.62 640.77 625.61 633.65 606.65 624.38C601.47 621.85 596.9 629.61 602.11 632.15C636.63 649.02 674.67 659.61 713.26 659.68C751.3 659.75 788.95 654.07 824.98 641.78C844.98 634.96 864.36 626.45 883.41 617.33C888.63 614.83 884.07 607.07 878.87 609.56H878.85Z" fill="#101010"/>
<path d="M699.98 545.55C711.52 556.14 723.32 566.47 735.52 576.29C736.93 577.43 738.57 579.23 740.4 579.72C743.34 580.51 747.29 578.83 750.22 578.26C758.02 576.75 765.84 575.33 773.68 574C805.08 568.66 836.72 564.77 868.52 562.79C874.27 562.43 874.31 553.43 868.52 553.79C825.48 556.47 782.69 562.62 740.41 571.04L743.88 571.49C730.77 561.55 718.47 550.29 706.36 539.18C702.1 535.27 695.72 541.62 700 545.54L699.98 545.55Z" fill="#101010"/>
<path d="M908.67 601.41C953.6 592.01 994.26 558.39 1013.81 517.1C1016.28 511.89 1008.52 507.32 1006.04 512.56C987.39 551.94 949.17 583.75 906.28 592.73C900.61 593.92 903.01 602.59 908.67 601.41Z" fill="#101010"/>
<path d="M740.46 484.96L759.34 500.11C763.82 503.7 770.22 497.37 765.7 493.75C759.41 488.7 753.11 483.65 746.82 478.6C742.34 475.01 735.94 481.34 740.46 484.96Z" fill="#101010"/>
<path d="M960.56 428.05C967.75 428.91 974.94 429.77 982.12 430.63C987.77 431.31 993.65 432.06 998.42 435.16C1003.19 438.26 1006.47 444.46 1004.37 449.75C1001.97 455.79 994.32 457.61 987.82 457.61C982.02 457.61 976.23 456.83 970.63 455.31C968.04 454.61 966.45 457.55 964.55 459.45C960.03 463.97 957.21 466.18 951.94 464.86" fill="#FFE5BB"/>
<path d="M960.56 432.55C970.06 433.69 980.1 434.04 989.41 436.32C993.73 437.38 998.71 439.46 1000.14 444.15C1001.38 448.21 998.81 450.78 995.2 452.04C991.59 453.3 987.7 453.21 983.96 452.99C979.35 452.72 974.56 450.67 970.03 450.77C962.8 450.92 960.41 461.95 953.15 460.52C947.49 459.4 945.07 468.07 950.76 469.2C955.53 470.14 959.52 469.45 963.44 466.49C965.54 464.91 967.1 462.65 969.14 461.09C971.52 459.27 975.37 461.01 978.21 461.4C987.52 462.69 1000.36 463.19 1006.69 454.68C1013.02 446.17 1007.67 435.02 999.24 430.42C993.99 427.55 987.98 426.85 982.13 426.14C974.95 425.26 967.75 424.42 960.57 423.56C954.83 422.87 954.88 431.88 960.57 432.56L960.56 432.55Z" fill="#101010"/>
<path d="M763.53 501.22C781.69 497.29 797.69 487.52 813.84 478.79C830.88 469.59 848.11 460.75 865.53 452.3C882.95 443.85 901.13 435.5 919.2 427.7C936.11 420.4 953.78 411.9 972.67 413.28C991.87 414.68 1010.29 423.86 1025.72 434.9C1030.44 438.28 1034.94 430.47 1030.26 427.13C1016.33 417.16 1000.3 409.12 983.4 405.76C964.82 402.07 947.79 406.14 930.53 413.21C893.21 428.47 856.71 445.95 821.05 464.75C801.75 474.93 782.72 487.88 761.13 492.55C755.47 493.77 757.87 502.45 763.52 501.23L763.53 501.22Z" fill="#101010"/>
<path d="M1005.83 442.66C1013.9 440.46 1022.08 438.68 1030.2 436.67C1038.32 434.66 1045.76 431.79 1053.66 429.87C1062.23 427.78 1071.31 427.45 1080.07 428.25C1087.07 428.89 1095.09 430.42 1099.53 436.43C1111.79 453.02 1092.83 471.75 1078.86 478.87C1060.18 488.39 1040.81 496.87 1021.63 505.3C999.54 515 977.09 523.89 954.11 531.28C948.62 533.04 950.97 541.74 956.5 539.96C979.33 532.62 1001.62 523.78 1023.6 514.2C1034.72 509.35 1045.75 504.31 1056.74 499.19C1067.04 494.39 1078.14 490.15 1087.81 484.16C1103.76 474.27 1117.88 455.87 1109.75 436.47C1102.68 419.57 1081.62 418.05 1065.74 419.1C1054.99 419.8 1045.51 423.29 1035.24 426.09C1024.97 428.89 1013.98 431.13 1003.44 434C997.86 435.52 1000.23 444.2 1005.83 442.68V442.66Z" fill="#101010"/>
<path d="M887.5 472.8C862.47 480.94 836.73 490.64 813.7 503.48C799.87 511.2 785.97 521.03 776.58 533.97C767.91 545.91 766.33 561.58 779.51 571C784.23 574.37 788.73 566.57 784.05 563.23C770.55 553.58 784.45 537.1 792.62 529.48C802.15 520.59 813.4 513.5 825.04 507.7C845.83 497.34 867.81 488.67 889.89 481.48C895.37 479.7 893.03 471 887.5 472.8Z" fill="#101010"/>
<path d="M947.6 464.68C951.34 474.82 953.28 485.51 957.02 495.65C959.01 501.04 967.71 498.71 965.7 493.26C961.96 483.12 960.02 472.43 956.28 462.29C954.29 456.9 945.59 459.23 947.6 464.68Z" fill="#101010"/>
<path d="M957.85 464.5C951.33 454 938.34 454.34 927.5 455.91C914.14 457.84 900.81 462.27 889.87 470.37C885.5 473.61 881.64 478.22 882.94 484.11C884.24 490 890.79 492.99 896.33 493.5C902.87 494.09 909.43 491.9 915.66 490.22C922.74 488.32 929.79 486.26 936.6 483.54C942.87 481.04 950.18 478.62 954.03 472.74C956.63 468.77 958.67 461.92 953.38 459.14C948.09 456.36 943.7 464.21 948.84 466.91C945.22 465.01 948.93 464.57 947.38 466.26C946.77 466.93 946.53 468.03 945.91 468.73C944.2 470.66 941.14 471.77 938.8 472.86C933.32 475.43 927.58 477.39 921.79 479.13C916.44 480.74 911.02 482.23 905.59 483.55C902.82 484.22 889.73 486.44 892.36 480.17C893.23 478.1 896.6 476.54 898.48 475.35C900.79 473.9 903.2 472.58 905.67 471.42C910.79 469.02 916.23 467.32 921.74 466.07C929.55 464.3 944.8 460.53 950.08 469.03C953.13 473.94 960.92 469.43 957.85 464.49V464.5Z" fill="#101010"/>
<path d="M880.9 483.93C881.94 494.32 884.31 504.33 888.3 513.99C890.51 519.35 897.86 517.38 896.98 511.6L896.71 509.82C895.84 504.11 887.16 506.54 888.03 512.21L888.3 513.99L896.98 511.6C893.31 502.72 890.85 493.5 889.9 483.93C889.33 478.22 880.32 478.16 880.9 483.93Z" fill="#101010"/>
<path d="M889.62 516.68C896.86 529.05 914.77 520.97 925.33 517.86C939.24 513.75 952.88 508.73 963.91 499C968.26 495.16 961.88 488.82 957.55 492.64C949.01 500.16 938.42 504.38 927.69 507.74C922.53 509.36 917.32 510.89 912.08 512.25C908.04 513.3 900.02 516.63 897.4 512.13C894.48 507.13 886.69 511.66 889.63 516.67L889.62 516.68Z" fill="#101010"/>
<path d="M1006.79 455.5C1021 450.53 1035.59 446.75 1050.39 444.02C1055.17 443.14 1071.67 438.25 1073.59 445.88C1075 451.48 1063.4 456.5 1059.91 458.3C1047.16 464.88 1033.48 469.41 1020.33 475.08C1004.27 482 988.23 488.96 972.17 495.91C966.87 498.2 971.45 505.96 976.71 503.68C995.89 495.39 1014.94 486.66 1034.35 478.93C1042.14 475.83 1049.99 472.9 1057.62 469.4C1064.6 466.2 1072.36 462.88 1077.7 457.18C1082.33 452.24 1084.59 446.1 1080.56 439.98C1075.79 432.73 1066.79 432.43 1059.06 433.51C1040.49 436.12 1022.09 440.63 1004.39 446.82C998.96 448.72 1001.3 457.42 1006.78 455.5H1006.79Z" fill="#101010"/>
<path d="M881.36 491.69C856.01 500.72 831.24 512.63 808.53 527.08C799.61 532.75 790.83 543.11 793.9 554.47C797.04 566.07 809.13 565.04 818.66 565.29C824.45 565.44 824.45 556.44 818.66 556.29C814.86 556.19 810.73 556.78 807 555.89C802.17 554.74 801.55 549.99 803.1 545.82C806.6 536.4 818.38 531.48 826.5 526.88C844.81 516.51 863.93 507.44 883.76 500.37C889.18 498.44 886.84 489.74 881.37 491.69H881.36Z" fill="#101010"/>
<path d="M961.05 472.95C972.38 467.69 984.94 465.48 996.62 461.15C1002 459.15 999.67 450.45 994.23 452.47C981.79 457.08 968.59 459.58 956.51 465.18C951.26 467.61 955.83 475.37 961.05 472.95Z" fill="#101010"/>
<path d="M898.59 514.18C901.26 518.04 903.56 522.13 905.27 526.5C906.16 528.76 908.29 530.34 910.81 529.64C912.97 529.05 914.84 526.38 913.95 524.1C911.95 518.99 909.49 514.15 906.36 509.63C903.23 505.11 895.28 509.39 898.59 514.17V514.18Z" fill="#101010"/>
<path d="M925.59 596.07C930.03 609.35 935.03 622.41 940.52 635.29C941.07 636.58 943.03 637.68 944.41 637.52C955.32 636.24 965.54 633.01 975.08 627.55C980.11 624.67 975.58 616.89 970.54 619.78C962.44 624.41 953.69 627.43 944.41 628.52L948.3 630.75C943.12 618.59 938.47 606.22 934.28 593.68C932.45 588.21 923.76 590.56 925.6 596.07H925.59Z" fill="#101010"/>
<path d="M975.02 565.75C979.08 574.86 983.14 583.98 987.2 593.09C989.55 598.37 997.31 593.8 994.97 588.55C990.91 579.44 986.85 570.32 982.79 561.21C980.44 555.93 972.68 560.5 975.02 565.75Z" fill="#101010"/>
<path d="M731.78 653.01C709.69 691.19 674.66 721.24 633.4 736.96C628.04 739 630.37 747.71 635.79 745.64C679.28 729.08 716.23 697.87 739.55 657.56C742.46 652.54 734.68 648 731.78 653.02V653.01Z" fill="#101010"/>
<path d="M400.6 192.66C387.27 190.49 372.26 193.08 360.42 199.55C349.18 205.69 342.41 216.41 339.86 228.77C337.05 242.38 338.13 256.53 338.44 270.31C338.82 286.78 338.98 303.27 339.58 319.74C340.04 332.35 344.15 344.05 357.27 348.09C370.39 352.13 383.68 345.55 393.82 337.68C415.34 320.97 426.2 294.68 429.09 268.18C430.05 259.42 430.15 250.58 429.66 241.79C429.21 233.73 428.64 225.37 426.2 217.63C422.06 204.5 414.22 195.72 400.6 192.67C394.96 191.41 392.55 200.08 398.21 201.35C408.78 203.72 414.28 209.75 417.52 220.03C421.2 231.71 421.26 245.15 420.85 257.29C420.07 280.56 413.47 304.46 397.52 322.03C390.19 330.1 380.31 338.17 369.26 339.99C364.34 340.8 358.91 340.1 354.82 337.03C349.66 333.15 348.87 326.53 348.6 320.54C347.99 307.09 347.96 293.59 347.65 280.13C347.38 268.24 346.69 256.26 347.11 244.37C347.52 232.81 349.5 220.07 358.47 211.86C368.26 202.9 385.29 199.25 398.2 201.35C403.87 202.27 406.3 193.6 400.59 192.67L400.6 192.66Z" fill="#101010"/>
<path d="M368.14 347.35C369.49 356.04 369.94 364.79 369.67 373.58C369.54 377.83 376.17 380 378.06 375.85L378.74 374.36C381.11 369.13 373.36 364.54 370.97 369.82L370.29 371.31L378.68 373.58C378.97 363.96 378.3 354.46 376.83 344.95C375.94 339.24 367.27 341.67 368.15 347.34L368.14 347.35Z" fill="#101010"/>
<path d="M383.9 338.22C383.55 349.91 383.96 361.58 385.13 373.22C385.71 378.93 394.71 378.99 394.13 373.22C392.95 361.58 392.54 349.92 392.9 338.22C393.08 332.43 384.08 332.43 383.9 338.22Z" fill="#101010"/>
<path d="M520.66 793.73C534.29 725.28 498.61 660.46 467.92 601.99C452.1 571.85 436.71 540.97 429.18 507.56C421.65 474.15 426.35 439.94 419.96 406.47C415.84 384.9 394.38 363.15 371.18 372.58C357.47 378.15 349.96 390.99 345.63 404.53C340.15 421.63 336.9 439.63 332.77 457.1C328.64 474.57 322.47 493.09 324.91 511.45C327.35 529.81 335.36 545.91 341.66 562.57C354.62 596.88 366.14 631.72 376.19 666.99C386.24 702.26 394.81 737.95 401.89 773.93C405.43 791.92 408.58 809.99 411.36 828.11C413.53 842.27 416.32 857.39 432.27 861.71C439.28 863.61 446.62 862.53 453.57 860.94C459.21 859.65 456.83 850.97 451.18 852.26C444.36 853.82 436.64 855.01 430.31 851.19C423.98 847.37 422.35 840.16 421.2 833.32C418.42 816.76 415.97 800.16 412.88 783.65C406.55 749.78 398.89 716.15 389.93 682.88C381.05 649.91 370.89 617.29 359.47 585.11C353.77 569.06 347.57 553.22 341.5 537.31C338.52 529.5 335.72 521.54 334.24 513.3C332.62 504.28 333.29 495.39 335.15 486.46C338.78 468.99 343.3 451.66 347.4 434.29C350.87 419.61 353.08 402.55 362.45 390.2C369.57 380.83 383.15 375.23 393.54 382.58C402.28 388.76 408.34 395.75 410.77 406.41C417.74 437.06 413.15 468.87 418.47 499.72C423.79 530.63 436.44 559.75 450.42 587.63C478.77 644.16 516.25 701.9 514.61 767.65C514.41 775.62 513.54 783.51 511.98 791.33C510.85 796.99 519.53 799.41 520.66 793.72V793.73Z" fill="#101010"/>
<path d="M518.57 806.14C511.67 801.74 503.24 804.33 496.81 808.4C488.45 813.68 481.5 821.67 474.29 828.38C470.2 832.19 466.1 836 462.01 839.8C458.42 843.14 454.28 846.33 451.53 850.43C445.92 858.8 451.33 866.18 456.05 873.47C461.29 881.57 467.08 889.32 473.34 896.65C479.6 903.98 486.28 912.26 494.15 917.55C502.37 923.07 509.62 915.51 515.89 910.59C523.18 904.87 530.31 898.85 536.32 891.76C542.76 884.17 548.59 875.19 553.59 866.59C558.53 858.09 559.48 849.49 554.25 840.87C551.25 835.93 543.46 840.45 546.48 845.41C550.38 851.83 548.8 857.25 545.05 863.33C541.3 869.41 537.35 875.42 533.25 881.18C529.15 886.94 523.85 892.19 518.43 896.92C515.95 899.08 513.4 901.16 510.83 903.21C508.26 905.26 504.76 909.14 501.58 910.18C498.4 911.22 494.78 906.21 492.75 904.23C490.06 901.6 487.43 898.9 484.89 896.13C479.66 890.45 474.74 884.48 470.2 878.23C467.99 875.18 465.86 872.08 463.82 868.92C461.96 866.04 458.73 862.31 458.18 858.88C457.61 855.29 461.66 852.41 464.04 850.19C467.16 847.27 470.3 844.37 473.43 841.45C480.41 834.95 487.39 828.46 494.38 821.96C498.91 817.75 507.4 809.67 514.03 813.9C518.93 817.02 523.45 809.24 518.57 806.13V806.14Z" fill="#101010"/>
<path d="M570 844.5C601.2 858.65 635.81 856.37 669.17 855.04C706.59 853.55 744.01 852.05 781.44 850.56C802.97 849.7 824.49 848.84 846.02 847.98C851.79 847.75 851.82 838.75 846.02 838.98C809.26 840.45 772.5 841.91 735.74 843.38C700.53 844.78 665.08 847.54 629.84 847.04C610.98 846.77 591.89 844.59 574.55 836.72C569.32 834.35 564.73 842.1 570.01 844.49L570 844.5Z" fill="#101010"/>
<path d="M725.52 677.02C764.32 674.64 802.57 678.81 839.97 689.44C845.55 691.03 847.93 682.34 842.36 680.76C804.26 669.93 765.07 665.59 725.52 668.02C719.77 668.37 719.73 677.38 725.52 677.02Z" fill="#101010"/>
<path d="M656.88 731.24C655.39 758.01 641.6 783.46 619.85 799.19C621.67 801.55 623.49 803.9 625.3 806.26C626.07 805.66 626.84 805.06 627.6 804.47C632.16 800.91 625.75 794.59 621.24 798.11C620.47 798.71 619.7 799.31 618.94 799.9C614.95 803.01 620.25 809.96 624.39 806.97C648.87 789.28 664.2 761.44 665.88 731.25C666.2 725.46 657.2 725.48 656.88 731.25V731.24Z" fill="#101010"/>
<path d="M668.53 784.51L664.32 783.92L663.12 792.76C680.23 792.98 697.34 793.21 714.45 793.43C722.11 793.53 730 794.09 737.57 792.61C745.14 791.13 750.64 786.41 757.42 783.19C760.46 781.75 764.83 780.34 768.08 782.11C770.51 783.43 771.68 786.18 772.97 788.47C775.47 792.94 778.23 797.32 783.49 798.75C789.92 800.5 795.39 796.68 800.94 794.09C807.34 791.1 814.54 792.05 819.79 796.85C824.05 800.76 830.44 794.41 826.15 790.49C821.39 786.13 815.5 783.54 809.01 783.32C801.45 783.07 796.56 787.34 789.8 789.58C782.76 791.91 781.19 783.76 777.93 779.27C774.24 774.19 768.71 771.85 762.46 772.49C755.25 773.23 749.75 777.43 743.59 780.82C735.75 785.15 727.07 784.59 718.41 784.47C699.98 784.23 681.56 783.99 663.13 783.75C658.22 783.69 656.8 791.87 661.93 792.59L666.14 793.18C671.8 793.97 674.25 785.3 668.53 784.5V784.51Z" fill="#101010"/>
<path d="M522.21 756.29C544.53 755.51 566.7 752.61 588.47 747.66C594.12 746.37 591.73 737.7 586.08 738.98C565.07 743.76 543.74 746.54 522.21 747.29C516.43 747.49 516.41 756.49 522.21 756.29Z" fill="#101010"/>
<path d="M764.54 656.67C778.21 657.68 791.99 658.58 805.38 661.65C818.67 664.7 831.06 670.1 843.09 676.43C848.21 679.13 852.76 671.36 847.63 668.66C834.95 661.98 821.79 656.18 807.78 652.97C793.77 649.76 779 648.73 764.54 647.66C758.76 647.23 758.79 656.23 764.54 656.66V656.67Z" fill="#101010"/>
<path d="M708.74 452.58C706.01 437.96 702.63 423.45 698.51 409.16C695.09 397.32 690.69 385.69 681.97 376.69C680.75 375.43 679.32 375.14 678.03 375.45C677.24 372.98 676.44 370.52 675.6 368.06C673.74 362.61 662.48 364.12 664.35 369.63C674.53 399.53 683.9 431.39 686.74 462.86C688.07 477.53 687.27 492.66 690.01 507.16C691.24 513.65 693.6 519.78 697.18 525.33C701.01 531.28 705.9 536.63 708.16 543.45C709.72 548.15 717 547.5 717 542.25C717 512.18 714.26 482.14 708.74 452.57V452.58Z" fill="#101010" stroke="#101010" stroke-miterlimit="10"/>
<path d="M432.46 854.43C420.73 860.54 423.63 875.82 425.61 886.4C428.23 900.42 431.46 914.51 437.84 927.36C444.22 940.21 453.42 950.09 465.71 956.43C478.52 963.04 492.98 965.36 507.23 966.25C523.98 967.3 540.86 966.76 557.64 966.91C576.15 967.07 594.66 967.36 613.17 967.66C650.84 968.26 688.51 968.88 726.18 968.51C768.41 968.09 810.65 966.38 852.68 962.08C858.39 961.5 858.45 952.49 852.68 953.08C783.33 960.19 713.55 960.13 643.91 959.14C608.88 958.64 573.85 957.92 538.81 957.8C512.09 957.71 479.31 960.07 458.24 940.3C447.22 929.97 441.65 915.54 437.98 901.21C436.15 894.07 434.72 886.82 433.47 879.56C432.53 874.1 431.07 865.3 437 862.21C442.14 859.53 437.59 851.76 432.46 854.44V854.43Z" fill="#101010"/>
<path d="M731.88 885.38C726.93 884.58 721.46 883.79 716.83 886.33C711.38 889.32 711.88 894.58 711.94 900.1C712.01 906.8 712.41 913.49 713.13 920.15C713.64 924.89 714.22 930.05 719.91 930.89C724.02 931.5 731.87 931.21 735.49 929.01C739.83 926.36 739.81 921.14 739.54 916.68C739.12 909.75 738.65 902.82 738.21 895.89C737.9 891.1 737.35 889.52 733.87 886.55C729.49 882.81 723.09 889.15 727.51 892.91L730.29 895.28L728.97 892.1C729.41 899.03 729.86 905.96 730.3 912.89C730.41 914.58 731.62 920.14 730.32 921.23C729.15 922.22 723.4 922.07 721.81 921.96L722.5 922.99C722.35 922.05 722.23 921.11 722.14 920.16C721.96 918.58 721.81 916.99 721.68 915.4C721.36 911.59 721.14 907.77 721.03 903.94C720.98 902.21 719.92 895.67 720.97 894.37C722.42 892.59 727.75 893.78 729.5 894.07C735.17 894.99 737.6 886.32 731.89 885.39L731.88 885.38Z" fill="#101010"/>
<path d="M769.79 883.55C764.41 882.03 758.02 882.4 753.46 885.98C748.9 889.56 749.53 896.25 749.42 901.5C749.28 908.37 749.69 915.27 750.71 922.06C751.6 927.98 754.45 930.82 760.49 931.36C765.61 931.82 772.26 932.37 775.97 928.03C780.01 923.32 779.36 915.44 779.26 909.7C779.16 903.47 779.97 896.2 778.17 890.17C776.98 886.18 773.55 884.53 769.79 883.54C764.18 882.07 761.79 890.75 767.4 892.22C767.93 892.36 768.55 892.47 769.05 892.72C770.17 893.28 769.45 892.09 769.82 893.93C770.48 897.23 770.09 900.97 770.17 904.34C770.25 907.94 770.43 911.56 770.31 915.16C770.26 916.62 770.44 919.93 769.56 921.19C768.28 923.02 766.2 922.59 764.35 922.55C762.75 922.51 760.68 922.98 759.67 921.5C758.83 920.28 759.05 916.75 758.92 915.35C758.58 911.67 758.4 907.97 758.4 904.27C758.4 901.48 757.73 896.74 758.81 894.11C760.05 891.09 764.56 891.42 767.42 892.23C773 893.81 775.39 885.13 769.81 883.55H769.79Z" fill="#101010"/>
<path d="M808.73 884.06C803.93 883.31 796.1 882.78 791.92 885.84C787.47 889.09 788.44 895.2 788.48 900.02C788.54 907.46 788.48 914.93 789.31 922.34C789.84 927.11 790.35 931.82 796.07 932.3C800.97 932.72 809.4 931.97 813.37 928.79C817.34 925.61 816.5 918.82 816.58 914.19C816.7 907.51 816.65 900.79 816.05 894.13C815.61 889.27 813.74 885.45 808.72 884.07C803.13 882.52 800.74 891.2 806.33 892.75C808.69 893.4 807.63 910.15 807.61 912.47C807.59 914.08 808.23 920.89 807.03 921.9C805.55 923.14 797.86 923.87 796.14 923.16L798.83 925.23C797.39 923.08 797.86 917.57 797.74 914.98C797.57 911.28 797.54 907.58 797.51 903.88C797.5 902.26 796.34 894.19 797.45 893.04C798.22 892.25 805.12 892.57 806.33 892.76C812 893.64 814.44 884.97 808.72 884.08L808.73 884.06Z" fill="#101010"/>
<path d="M884 485.63C883.7 482.67 879.93 480.84 877.18 482.28C876.21 482.79 854.87 489.15 854.19 489.4C845.48 492.68 837.38 496.95 829.67 501.85C828.41 499.86 795.96 519.83 794.13 521.99C787.68 529.6 774.8 549.07 774.62 550.75C774.13 555.52 774.09 560.97 777.63 564.71C780.37 567.6 795.56 567.61 798.03 567.72C801.72 567.89 804.25 562.52 801.21 560.04C799.5 558.64 798.18 557.14 797.18 555.45C797.33 554.55 795.41 550.28 794.76 549.1C794.62 548.85 821.43 521.78 822.76 521.07C822.76 521.07 879.44 495.35 880.82 494.1C881.43 493.94 882.03 493.78 882.64 493.63C886.73 492.56 886.56 487.63 883.98 485.64L884 485.63Z" fill="#101010"/>
<path d="M876.83 516.63C857.91 533.94 836.4 547.99 813.03 558.53C807.76 560.91 812.33 568.66 817.57 566.3C841.63 555.46 863.73 540.81 883.2 523C887.48 519.08 881.1 512.73 876.84 516.64L876.83 516.63Z" fill="#101010"/>
<path d="M963.26 472.6C967.78 477.55 973.89 481.53 980.86 481.14C987.41 480.78 992.5 476.89 994.86 470.89L989.32 474.03C1000.82 478.14 1015.65 475.36 1019.04 461.97C1017.99 463.02 1016.94 464.07 1015.9 465.11C1019.42 464.35 1023.28 464.98 1026.93 464.22C1031.01 463.37 1035.02 461.51 1038.06 458.62C1043.66 453.31 1045.32 444.49 1040.61 438.07C1037.22 433.45 1029.41 437.93 1032.84 442.61C1036.68 447.84 1032.31 453.05 1027.07 454.89C1022.62 456.45 1018 455.46 1013.51 456.43C1012.03 456.75 1010.73 458.13 1010.37 459.57C1008.19 468.18 998.44 467.75 991.72 465.34C989.26 464.46 987.02 466.36 986.18 468.48C983.02 476.49 973.09 470.02 969.62 466.22C965.71 461.93 959.36 468.31 963.26 472.58V472.6Z" fill="#101010"/>
<path d="M482.2 288C479.19 293.77 480.52 299.1 481.02 305.26C481.29 308.58 481 311.07 478.51 313.42C476.38 315.43 473.66 316.74 471.53 318.77C467.23 322.88 464.73 329 465.03 334.95C465.34 341.09 470.29 347.19 469.48 353.23C468.81 358.24 462.95 361.6 460.08 365.43C456.85 369.75 456.01 374.61 457.87 379.71C458.92 382.58 460.79 384.95 462.12 387.67C463.75 391 463.22 393.68 462.08 397.05C460.19 402.65 458.59 408.78 462.51 413.94C465.97 418.49 473.79 414.01 470.28 409.4C466.77 404.79 472.25 397.54 472.37 392.18C472.49 386.82 469.35 382.86 467.04 378.22C464.14 372.37 468.51 369.48 472.3 365.51C475.63 362.02 478.35 358.1 478.55 353.11C478.79 347.18 475.45 342.31 474.31 336.69C472.89 329.67 477.15 325.65 482.26 321.85C486.52 318.68 489.58 314.89 490.06 309.44C490.54 303.99 487.4 297.47 489.97 292.55C492.54 287.63 484.88 282.87 482.2 288.01V288Z" fill="#101010"/>
<path d="M510.93 256.93C505.8 262.28 502.08 268.88 500.57 276.18C498.86 284.48 500.43 291.61 502.61 299.6C504.01 304.72 502.76 307.95 500.08 312.28C497.99 315.65 496.03 318.96 495.18 322.89C493.33 331.43 495.65 340.04 498.16 348.2C499.86 353.72 508.55 351.36 506.84 345.81C504.63 338.64 501.79 330.26 504.52 322.84C507.04 315.99 512.72 311.36 512.39 303.5C512.09 296.3 508.37 290.02 508.75 282.67C509.13 275.32 512.26 268.55 517.3 263.29C521.31 259.11 514.95 252.74 510.94 256.93H510.93Z" fill="#101010"/>
<path d="M559.9 229.78C559.4 233.75 558.05 237.57 556.13 241.07C553.35 246.16 561.12 250.7 563.9 245.61C566.68 240.52 568.19 235.4 568.89 229.78C569.19 227.36 566.6 225.28 564.39 225.28C561.71 225.28 560.19 227.36 559.89 229.78H559.9Z" fill="#101010"/>
<path d="M449.63 392.73C444.58 400.72 444.45 410.65 449.07 418.86C451.91 423.91 459.68 419.38 456.84 414.32C453.74 408.81 454.04 402.59 457.4 397.27C460.51 392.36 452.72 387.84 449.63 392.73Z" fill="#101010"/>
<path d="M490.5 564.88C499.5 578 511.48 588.54 525.82 595.49C531.01 598.01 535.58 590.25 530.36 587.72C517.43 581.45 506.41 572.21 498.27 560.34C495.01 555.59 487.21 560.09 490.5 564.88Z" fill="#101010"/>
<path d="M611.58 676.89C597.42 683.57 583.26 690.25 569.09 696.93C563.86 699.4 568.42 707.16 573.63 704.7C587.79 698.02 601.95 691.34 616.12 684.66C621.35 682.19 616.79 674.43 611.58 676.89Z" fill="#101010"/>
<path d="M1164.51 764.89C1163.23 742.71 1160.43 720.92 1158.37 698.8C1156.34 676.95 1155.06 654.75 1151.6 633.08C1150.15 624 1148.66 614.97 1138.42 611.84C1128.33 608.76 1056.89 609.74 1031.37 610.45C1030.19 610.48 1023.73 610.85 1023.03 611.47C1014.91 615.38 1019.27 624.22 1019.32 632.61C1019.4 645.9 1020.35 659.18 1021.38 672.42C1023.42 698.82 1025.52 725.21 1027.59 751.61C1028.6 764.47 1029.61 777.34 1030.62 790.2C1031.34 799.35 1030.24 811.97 1036.08 819.77C1042.71 828.62 1057.06 826.74 1066.51 826.43C1079.83 825.98 1093.48 826.69 1106.79 826.24C1121.44 825.75 1159 827.11 1162.9 824.09C1165.7 821.91 1168.09 820.82 1168.9 816.83C1170.12 813.76 1165.14 775.99 1164.5 764.9L1164.51 764.89Z" fill="#207894"/>
<path d="M1191.97 816.22C1191.5 808.34 1190.84 800.47 1190.06 792.61C1187.01 761.86 1182.47 731.24 1178.41 700.61C1174.49 671 1171.31 641.19 1166.61 611.69C1164.39 597.72 1153.54 593.32 1140.67 592.35C1123.94 591.08 1107.1 590.61 1090.33 590.14C1073.33 589.67 1056.33 589.46 1039.33 589.53C1025.23 589.59 1010.96 589.62 997.17 592.67C996.06 592.34 994.79 592.4 993.49 593.06C992.9 593.36 992.33 593.69 991.78 594.03C991.2 594.19 990.62 594.35 990.05 594.53C988.03 595.15 986.97 596.62 986.66 598.23C980.2 605.07 977.15 615.23 975.12 624.13C971.93 638.17 972.24 652.41 972.94 666.69C974.44 697.44 975.46 728.29 978.44 758.95C979.86 773.57 981.69 788.18 984.55 802.59C987.02 815.05 989.9 828.2 998.01 838.34C1006.38 848.81 1017.16 851.61 1030.11 851.47C1045.59 851.3 1061.08 851.11 1076.56 850.93C1106.39 850.59 1136.36 851.09 1166.17 849.86C1176.53 849.43 1188.36 846.5 1191.55 835.17C1193.26 829.11 1192.36 822.41 1191.98 816.23L1191.97 816.22ZM1022.84 707.27C1022.78 702.33 1017.2 626.55 1016.88 625.16C1014.88 616.64 1023.38 610.6 1030.62 608.84C1039.85 606.59 1050.07 607.73 1059.47 607.85C1080.52 608.11 1101.58 608.38 1122.63 608.64C1130.72 608.74 1142.02 607.34 1147.52 614.71C1152.87 621.89 1156.62 681.44 1158.35 700.97C1161.92 741.15 1170.13 782.08 1167.04 822.67C1166.87 824.85 1162.42 826.93 1160.18 827.34C1154.99 828.28 1149.52 827.29 1144.26 827.56C1133.92 828.09 1123.36 828.61 1113.01 828.5C1091.74 828.27 1070.85 828.4 1049.6 827.45C1044.49 827.22 1038.39 827.81 1035.27 822.95C1032.88 819.22 1032.28 814.21 1031.48 809.95C1029.33 798.43 1028.1 786.77 1027.1 775.1C1025.16 752.31 1022.86 707.36 1022.84 707.28V707.27ZM1155.16 608.33C1154.22 607.11 1153.19 606.05 1152.1 605.12C1153.47 605.99 1154.45 607.08 1155.16 608.33Z" fill="#FEBD28"/>
<path d="M1189.12 774.72H1200.79C1206.58 774.72 1206.59 765.72 1200.79 765.72H1189.12C1183.33 765.72 1183.32 774.72 1189.12 774.72Z" fill="#101010"/>
<path d="M899.16 774.72C925.37 774.72 951.58 774.72 977.8 774.72C983.59 774.72 983.6 765.72 977.8 765.72C951.59 765.72 925.38 765.72 899.16 765.72C893.37 765.72 893.36 774.72 899.16 774.72Z" fill="#101010"/>
<path d="M1164.49 815.39C1164.69 821.38 1160.28 822.05 1155.75 822.07L1143.14 822.13C1129.28 822.19 1115.41 822.25 1101.55 822.32C1087.55 822.38 1073.55 822.45 1059.55 822.51C1052.86 822.54 1039.54 825.14 1037.65 816.09C1036.79 811.94 1036.93 807.32 1036.59 803.11C1035.69 791.95 1034.78 780.79 1033.88 769.63C1031.47 739.86 1029.05 710.08 1026.64 680.31C1025.09 661.17 1023.33 642.04 1021.99 622.89C1021.71 618.83 1022.81 615.26 1027.64 614.89C1029.69 614.73 1031.84 614.93 1033.89 614.95C1045.92 615.06 1057.95 615.17 1069.99 615.28C1084.82 615.42 1099.65 615.55 1114.47 615.69C1122.2 615.76 1130.26 615.18 1137.97 615.91C1146.42 616.71 1146 624.52 1146.61 630.75C1147.58 640.74 1148.55 650.74 1149.51 660.73C1154.39 711.15 1159.28 761.57 1164.16 811.99C1164.27 813.13 1164.38 814.27 1164.49 815.41C1165.04 821.12 1174.05 821.18 1173.49 815.41C1168.85 767.51 1164.21 719.62 1159.57 671.72C1158.42 659.84 1157.27 647.96 1156.12 636.08C1155.62 630.88 1155.68 625.14 1154.43 620.03C1151.11 606.42 1138.24 606.9 1127.34 606.8C1113.51 606.67 1099.67 606.55 1085.84 606.42C1071.11 606.28 1056.37 606.15 1041.64 606.01C1032.94 605.93 1021.03 603.83 1015.37 612.21C1011.51 617.93 1013.18 625.34 1013.7 631.77C1014.58 642.63 1015.46 653.5 1016.34 664.36C1020.42 714.7 1023.6 765.2 1028.58 815.45C1029.27 822.4 1033.28 828.57 1040.19 830.77C1043.22 831.74 1046.37 831.56 1049.5 831.55C1061.6 831.5 1073.7 831.44 1085.79 831.39C1110.01 831.28 1134.41 832.06 1158.6 831.06C1167.36 830.7 1173.78 824.3 1173.47 815.4C1173.27 809.62 1164.27 809.6 1164.47 815.4L1164.49 815.39Z" fill="#101010"/>
<path d="M1190.7 661.03C1201.66 660.95 1205.55 673.03 1206.35 682.01C1207.34 693.04 1207.29 704.24 1207.67 715.3C1208.44 737.66 1209.15 760.02 1209.7 782.39C1210.81 826.94 1211.32 871.52 1210.64 916.08C1210.31 937.79 1210.01 959.57 1208.76 981.25C1208.39 987.68 1208.65 995.02 1205.5 1000.8C1202.82 1005.73 1196.98 1004.58 1192.1 1004.59C1147.34 1004.61 1102.59 1004.59 1057.83 1004.59C1013.13 1004.59 968.42 1004.59 923.72 1004.59H889.31C882.56 1004.59 874.73 1005.57 867.99 1004.48C861.53 1003.43 862.37 997.56 861.79 992.41C860.8 983.64 860.7 974.72 860.24 965.91C857.81 919.98 855.38 874.05 852.95 828.12C850.56 782.93 846.38 737.39 847.53 692.11C847.77 682.78 848.15 672.82 855.19 665.84C859.62 661.45 865.43 659.3 871.6 659.19C877.77 659.08 883.93 659.19 890.09 659.19H954.21C960 659.19 960.01 650.19 954.21 650.19H874.23C862.88 650.19 852.43 653.9 845.5 663.38C840.02 670.88 838.92 680.15 838.6 689.19C838.18 701.19 838.34 713.21 838.73 725.2C839.51 749.53 841.06 773.85 842.35 798.16C844.96 847.42 847.57 896.67 850.17 945.93C851.13 964.08 851.53 982.32 853.68 1000.37C855.71 1017.41 877.09 1013.59 889.3 1013.59H1032.86C1080.66 1013.59 1128.45 1013.59 1176.25 1013.59C1184.37 1013.59 1192.57 1013.91 1200.68 1013.42C1208.61 1012.94 1213.1 1007.36 1215.41 1000.2C1217.38 994.1 1217.41 987.37 1217.77 981.01C1218.45 969.13 1218.69 957.21 1219.02 945.32C1220.31 897.76 1220.14 850.17 1219.16 802.6C1218.67 778.73 1217.98 754.86 1217.19 730.99C1216.8 719.18 1216.39 707.37 1215.97 695.56C1215.6 685.26 1215.95 673.97 1210.82 664.65C1206.75 657.24 1199.28 651.97 1190.69 652.03C1184.9 652.07 1184.89 661.07 1190.69 661.03H1190.7Z" fill="#101010"/>
<path d="M1165.83 857.89C1171.8 857.49 1179.1 857.19 1184.39 854.18C1192.59 849.51 1195.89 840.88 1196.83 831.92C1197.7 823.59 1196.77 815.14 1196.16 806.82C1193.72 773.23 1190.6 739.68 1187.16 706.18C1185.28 687.87 1183.28 669.56 1180.93 651.31C1179.98 643.92 1178.97 636.54 1177.86 629.18C1176.28 618.72 1175.97 607.04 1169.39 598.23C1157.71 582.6 1134.55 585.47 1117.29 585.36C1089.72 585.18 1062.15 585.01 1034.58 584.83C1024.86 584.77 1015.13 584.71 1005.41 584.64C994.2 584.57 984.27 587.3 977.21 596.87C969.65 607.11 969.02 620.41 968.65 632.66C968.2 647.35 968.08 662.06 968.26 676.76C968.62 705.51 970.17 734.24 972.92 762.86C974.29 777.12 975.89 791.37 977.92 805.55C979.73 818.18 982.51 831.33 990.15 841.86C996.51 850.63 1005.86 857.89 1017 858.6C1020.63 858.83 1024.3 858.66 1027.93 858.65C1072.46 858.49 1116.99 858.17 1161.51 857.93C1162.95 857.93 1164.39 857.91 1165.83 857.91C1171.62 857.88 1171.63 848.88 1165.83 848.91C1123.92 849.14 1082.02 849.36 1040.11 849.59C1035.46 849.62 1030.81 849.65 1026.16 849.66C1023.68 849.66 1021.17 849.75 1018.69 849.66C1012.27 849.42 1006.85 846.58 1002.23 842.19C993.22 833.61 989.67 821.36 987.57 809.46C982.84 782.58 980.82 754.92 979.14 727.7C977.46 700.48 976.83 672.2 977.36 644.43C977.7 626.16 975.96 594.31 1001.52 593.63C1007.06 593.48 1012.63 593.7 1018.17 593.74C1043.86 593.9 1069.54 594.07 1095.23 594.23C1110.26 594.33 1125.37 594 1140.4 594.53C1147.31 594.77 1155.07 596.57 1160.23 601.42C1167.87 608.59 1167.68 621.51 1169.12 631.15C1171.4 646.4 1173.29 661.7 1175.02 677.02C1178.94 711.63 1182.22 746.32 1185.12 781.03C1186.1 792.74 1187.06 804.45 1187.8 816.17C1188.38 825.43 1189.9 838.25 1182.15 844.85C1177.93 848.45 1171.14 848.56 1165.83 848.92C1160.08 849.31 1160.04 858.31 1165.83 857.92V857.89Z" fill="#101010"/>
<path d="M1010.86 584.73C995.12 585.13 990.11 599.04 990.24 612.77C990.45 634.71 992.16 656.72 993.85 678.59C997.22 722.42 1001.25 766.2 1004.4 810.05C1005.68 827.88 1007.21 854.37 1029.38 858.53C1035.04 859.59 1037.47 850.92 1031.77 849.85C1013.71 846.47 1014.26 822.15 1013.26 808.12C1011.88 788.93 1010.54 769.75 1008.93 750.58C1005.72 712.13 1001.91 673.71 1000.06 635.16C999.62 625.93 998.46 616.24 999.43 607.02C1000.17 599.95 1003 593.93 1010.85 593.73C1016.63 593.58 1016.65 584.58 1010.85 584.73H1010.86Z" fill="#101010"/>
<path d="M902.66 825.69C902.58 867.72 902.51 909.75 902.43 951.78C902.42 957.72 902.41 963.66 902.4 969.6C902.39 975.54 911.39 975.4 911.4 969.6C911.48 927.57 911.55 885.54 911.63 843.51C911.64 837.57 911.65 831.63 911.66 825.69C911.67 819.75 902.67 819.89 902.66 825.69Z" fill="#101010"/>
<path d="M908.47 974.62C942.92 974.62 977.36 974.62 1011.81 974.62C1017.6 974.62 1017.61 965.62 1011.81 965.62C977.36 965.62 942.92 965.62 908.47 965.62C902.68 965.62 902.67 974.62 908.47 974.62Z" fill="#101010"/>
<path d="M1016.34 968.4C1018.07 936.22 1019.79 904.05 1021.52 871.87C1021.83 866.08 1012.83 866.1 1012.52 871.87C1010.79 904.05 1009.07 936.22 1007.34 968.4C1007.03 974.19 1016.03 974.17 1016.34 968.4Z" fill="#101010"/>
<path d="M907.16 829.49C925.67 829.49 944.17 829.49 962.68 829.49C968.47 829.49 968.48 820.49 962.68 820.49C944.17 820.49 925.67 820.49 907.16 820.49C901.37 820.49 901.36 829.49 907.16 829.49Z" fill="#101010"/>
<path d="M927.67 872.35C946.68 872.63 965.69 872.55 984.7 872.1C989.04 872 989.05 865.25 984.7 865.35C965.69 865.8 946.68 865.88 927.67 865.6C923.32 865.54 923.32 872.29 927.67 872.35Z" fill="#101010"/>
<path d="M927.67 894.04C947.15 894.13 966.63 894.22 986.12 894.3C990.46 894.32 990.47 887.57 986.12 887.55C966.64 887.46 947.16 887.37 927.67 887.29C923.33 887.27 923.32 894.02 927.67 894.04Z" fill="#101010"/>
<path d="M927.67 915.98H973.98C978.32 915.98 978.33 909.23 973.98 909.23H927.67C923.33 909.23 923.32 915.98 927.67 915.98Z" fill="#101010"/>
<path d="M927.67 937.92C938.21 937.92 948.75 937.92 959.29 937.92C963.63 937.92 963.64 931.17 959.29 931.17C948.75 931.17 938.21 931.17 927.67 931.17C923.33 931.17 923.32 937.92 927.67 937.92Z" fill="#101010"/>
<path d="M859.45 681.15C862.17 706.06 865.22 730.97 867.27 755.95C867.74 761.68 876.74 761.73 876.27 755.95C874.22 730.98 871.18 706.06 868.45 681.15C867.83 675.45 858.82 675.39 859.45 681.15Z" fill="#101010"/>
<path d="M868.07 787.95C868.07 851.45 868.07 914.95 868.07 978.44C868.07 984.23 877.07 984.24 877.07 978.44C877.07 914.94 877.07 851.44 877.07 787.95C877.07 782.16 868.07 782.15 868.07 787.95Z" fill="#101010"/>
<path d="M1123.62 724.19C1112.91 735.02 1096.34 738.98 1081.55 736.66C1068.69 734.65 1055.63 727.75 1049.79 715.6C1047.3 710.41 1046.57 704.37 1047.84 698.75C1049.16 692.88 1052.43 687.71 1056.75 683.58C1067.14 673.65 1082.47 670.14 1096.47 671.79C1109.67 673.35 1123.39 680.37 1129.5 692.66C1130.02 693.71 1130.45 694.8 1130.87 695.9C1131.29 697 1132.38 697.82 1133.64 697.47C1134.72 697.17 1135.65 695.84 1135.21 694.7C1132.76 688.36 1129.07 682.89 1123.8 678.52C1117.83 673.57 1110.66 670.19 1103.12 668.43C1087.81 664.85 1070.33 667.4 1057.61 677.01C1052.04 681.22 1047.51 686.6 1044.89 693.11C1042.4 699.29 1042.08 706.3 1043.91 712.7C1047.93 726.7 1061.02 736.11 1074.57 739.77C1090.68 744.12 1109.24 741.45 1122.57 731.1C1124.06 729.94 1125.47 728.71 1126.8 727.37C1128.84 725.31 1125.66 722.13 1123.62 724.19Z" fill="white"/>
<path d="M1062.53 703.1C1062.14 702.59 1062.55 703.16 1062.62 703.27C1062.73 703.44 1062.83 703.61 1062.93 703.79C1063.03 703.97 1063.11 704.15 1063.2 704.33C1063.3 704.55 1063.28 704.51 1063.15 704.21C1063.19 704.3 1063.22 704.4 1063.26 704.49C1063.4 704.87 1063.51 705.26 1063.59 705.66C1063.63 705.86 1063.67 706.06 1063.7 706.26C1063.74 706.51 1063.73 706.46 1063.68 706.12C1063.69 706.22 1063.7 706.32 1063.71 706.43C1063.78 707.26 1063.77 708.09 1063.68 708.92C1063.67 709.02 1063.66 709.13 1063.64 709.23C1063.69 708.89 1063.69 708.85 1063.65 709.1C1063.61 709.3 1063.58 709.51 1063.54 709.71C1063.46 710.12 1063.36 710.52 1063.25 710.92C1062.93 712.05 1063.64 713.42 1064.82 713.69C1066 713.96 1067.25 713.33 1067.59 712.12C1068.13 710.2 1068.4 708.13 1068.17 706.14C1068.05 705.1 1067.88 704.08 1067.5 703.1C1067.05 701.92 1066.47 700.93 1065.69 699.93C1065.36 699.51 1064.6 699.27 1064.1 699.27C1063.55 699.27 1062.89 699.52 1062.51 699.93C1062.13 700.34 1061.82 700.92 1061.85 701.52C1061.88 702.16 1062.12 702.61 1062.51 703.11L1062.53 703.1Z" fill="white"/>
<path d="M1069.77 696.17C1072.26 698.13 1073.21 701.27 1073.74 704.28C1074.34 707.66 1074.05 711.16 1073.1 714.45C1072.29 717.24 1076.63 718.43 1077.44 715.65C1078.62 711.56 1078.82 707.28 1078.08 703.09C1077.43 699.4 1075.98 695.39 1072.95 692.99C1072 692.24 1070.7 692.06 1069.77 692.99C1068.99 693.77 1068.81 695.42 1069.77 696.17Z" fill="white"/>
<path d="M1078.41 689.64C1085.63 696.94 1087.79 708.13 1083.51 717.53C1083.01 718.64 1083.19 719.95 1084.32 720.61C1085.29 721.18 1086.89 720.91 1087.4 719.8C1092.53 708.54 1090.34 695.29 1081.6 686.45C1079.56 684.39 1076.38 687.57 1078.42 689.63L1078.41 689.64Z" fill="white"/>
<path d="M1088.54 685.31C1093.33 688.96 1096.16 694.7 1097.2 700.54C1098.46 707.65 1096.8 715 1094.09 721.57C1093.63 722.69 1094.59 724.04 1095.66 724.34C1096.95 724.7 1097.96 723.9 1098.43 722.77C1101.52 715.28 1103.01 707 1101.47 698.97C1100.14 692.03 1096.44 685.73 1090.81 681.44C1089.84 680.7 1088.29 681.29 1087.73 682.25C1087.05 683.41 1087.57 684.59 1088.54 685.33V685.31Z" fill="white"/>
<path d="M1137.14 706.25C1135.03 703.22 1131.77 700.06 1127.9 699.64C1125.95 699.43 1124.08 700.39 1123.04 702.03C1121.9 703.8 1122.09 705.97 1122.92 707.82C1123.75 709.66 1125.15 711.12 1126.83 712.2C1127.22 712.45 1127.62 712.68 1128.04 712.88C1128.22 712.97 1128.53 713.23 1128.72 713.21C1129.13 713.17 1128.46 712.67 1128.53 712.66C1128.47 712.66 1128.19 715.69 1128.16 715.99C1127.69 720.14 1128 724.43 1130.45 727.96C1133.09 731.78 1137.42 733.8 1142.03 733.13C1143.03 732.98 1143.59 731.71 1143.34 730.82C1143.04 729.75 1142.04 729.36 1141.03 729.51C1137.32 730.05 1133.97 727.37 1132.59 724.1C1131.84 722.34 1131.63 720.43 1131.7 718.54C1131.74 717.45 1131.86 716.37 1131.99 715.29C1132.12 714.21 1132.41 713.12 1132.22 712.09C1131.85 710 1129.59 709.7 1128.14 708.55C1127.01 707.66 1125.38 705.7 1126.13 704.14C1126.88 702.58 1128.77 703.65 1129.81 704.24C1131.46 705.18 1132.81 706.57 1133.89 708.12C1135.26 710.09 1138.51 708.21 1137.13 706.23L1137.14 706.25Z" fill="white"/>
<path d="M1106.44 690.92C1106.35 693.23 1106.35 695.54 1106.44 697.85C1106.49 699.03 1106.53 700.21 1106.65 701.38C1106.78 702.7 1107.33 703.85 1108.73 704.17C1109.84 704.42 1111.09 704.34 1112.23 704.4C1113.37 704.46 1114.47 704.52 1115.59 704.57C1117.92 704.69 1120.25 704.81 1122.59 704.93C1123.6 704.98 1124.47 704.03 1124.47 703.05C1124.47 701.99 1123.61 701.23 1122.59 701.17C1118.58 700.96 1114.57 700.75 1110.55 700.55C1110.32 700.54 1110.08 700.53 1109.85 700.51C1109.71 700.51 1109.57 700.5 1109.43 700.49L1110.39 701.26C1110.41 701.42 1110.41 701.41 1110.39 701.23C1110.38 701.09 1110.37 700.95 1110.36 700.81C1110.34 700.57 1110.33 700.34 1110.31 700.1C1110.25 699.11 1110.2 698.12 1110.17 697.13C1110.11 695.06 1110.12 692.98 1110.2 690.91C1110.24 689.9 1109.31 689.03 1108.32 689.03C1107.27 689.03 1106.48 689.89 1106.44 690.91V690.92Z" fill="white"/>
<path d="M1108.5 692.05C1113.65 691.92 1118.83 691.86 1123.95 692.58L1122.57 690.77C1123.02 694.46 1122.9 698.21 1122.92 701.93C1122.93 704.34 1126.68 704.35 1126.67 701.93C1126.65 698.22 1126.77 694.47 1126.32 690.77C1126.23 690.03 1125.81 689.08 1124.94 688.96C1119.48 688.19 1114 688.16 1108.5 688.29C1106.09 688.35 1106.08 692.1 1108.5 692.04V692.05Z" fill="white"/>
<path d="M1116.78 702.13C1115.04 703.9 1114.73 706.62 1115.86 708.81C1116.4 709.86 1117.31 710.65 1118.37 711.13C1119.65 711.7 1121.12 711.66 1122.37 712.25C1122.52 711.11 1122.67 709.97 1122.82 708.82C1120.05 709.54 1117.98 712.27 1118.27 715.17C1118.57 718.26 1121.37 720.61 1124.44 720.55L1123.11 717.35C1120.72 719.52 1121.04 723.27 1123.15 725.5C1124.18 726.6 1125.6 727.36 1127.04 727.76C1128.48 728.16 1129.86 727.96 1131.33 727.94C1133.74 727.91 1133.75 724.16 1131.33 724.19C1129.54 724.21 1127.97 724.5 1126.4 723.39C1125.3 722.61 1124.6 721.04 1125.76 720C1126.97 718.9 1126.02 716.77 1124.43 716.8C1121.67 716.85 1121.14 713.13 1123.82 712.44C1125.29 712.06 1125.76 709.72 1124.27 709.01C1123.36 708.58 1122.47 708.34 1121.49 708.14C1120.8 708 1119.92 707.92 1119.41 707.38C1118.74 706.68 1118.76 705.45 1119.43 704.77C1121.12 703.05 1118.47 700.4 1116.78 702.12V702.13Z" fill="white"/>
<path d="M1126.02 696.47C1131.26 696.22 1136.32 699.94 1139.29 704C1141.06 706.43 1141.98 709.24 1142.95 712.05C1144.11 715.43 1145.26 718.81 1146.42 722.19L1146.61 720.75C1144.63 723.7 1142.74 726.73 1140.51 729.5C1139.87 730.3 1139.75 731.37 1140.51 732.15C1141.16 732.81 1142.53 732.94 1143.16 732.15C1144.69 730.24 1146.1 728.24 1147.47 726.2C1148.17 725.15 1148.93 724.12 1149.58 723.04C1150.3 721.85 1149.99 721.07 1149.56 719.81C1147.98 715.2 1146.62 710.43 1144.68 705.96C1141.66 698.97 1134.01 692.33 1126.02 692.71C1123.62 692.83 1123.6 696.58 1126.02 696.46V696.47Z" fill="white"/>
<path d="M1046.17 636.1H1128.42C1131.69 636.1 1134.35 638.76 1134.35 642.03V643.81C1134.35 646.57 1132.11 648.81 1129.35 648.81H1046.17C1043.41 648.81 1041.17 646.57 1041.17 643.81V641.1C1041.17 638.34 1043.41 636.1 1046.17 636.1Z" stroke="white" stroke-width="5" stroke-miterlimit="10"/>
<path d="M1074.87 767.2C1089.43 767.2 1103.98 767.2 1118.54 767.2C1121.92 767.2 1121.92 761.95 1118.54 761.95C1103.98 761.95 1089.43 761.95 1074.87 761.95C1071.49 761.95 1071.49 767.2 1074.87 767.2Z" fill="white"/>
<path d="M1054.91 788.28C1085.03 788.28 1115.15 788.28 1145.26 788.28C1148.64 788.28 1148.64 783.03 1145.26 783.03C1115.14 783.03 1085.02 783.03 1054.91 783.03C1051.53 783.03 1051.53 788.28 1054.91 788.28Z" fill="white"/>
</svg>
