<svg width="357" height="357" viewBox="0 0 357 357" fill="none" xmlns="http://www.w3.org/2000/svg">
<circle cx="178.5" cy="178.5" r="178.5" fill="#E4F2F2"/>
<path d="M300 240L349.6 240" stroke="#323A45" stroke-width="1.4" stroke-linecap="round" stroke-linejoin="round"/>
<path d="M49 240H292.5" stroke="#323A45" stroke-width="1.4" stroke-linecap="round" stroke-linejoin="round"/>
<path d="M7 240L42 240" stroke="#323A45" stroke-width="1.4" stroke-linecap="round" stroke-linejoin="round"/>
<mask id="mask0" mask-type="alpha" maskUnits="userSpaceOnUse" x="0" y="0" width="357" height="357">
<circle cx="178.5" cy="178.5" r="178.5" fill="#F3F3F4"/>
</mask>
<g mask="url(#mask0)">
<path d="M300 240L349.6 240" stroke="#323A45" stroke-width="1.4" stroke-linecap="round" stroke-linejoin="round"/>
<path d="M49 240H292.5" stroke="#323A45" stroke-width="1.4" stroke-linecap="round" stroke-linejoin="round"/>
<path d="M7 240L42 240" stroke="#323A45" stroke-width="1.4" stroke-linecap="round" stroke-linejoin="round"/>
<rect x="-5" y="241" width="416" height="108" fill="#F3F3F4"/>
<path d="M86.6016 312L37.0016 312" stroke="#323A45" stroke-width="1.4" stroke-linecap="round" stroke-linejoin="round"/>
<path d="M307.602 312H94.1016" stroke="#323A45" stroke-width="1.4" stroke-linecap="round" stroke-linejoin="round"/>
<path d="M349.602 312L314.602 312" stroke="#323A45" stroke-width="1.4" stroke-linecap="round" stroke-linejoin="round"/>
<rect x="-5" y="311" width="416" height="48" fill="#A9DEC3"/>
<path d="M86.6016 312L37.0016 312" stroke="#323A45" stroke-width="1.4" stroke-linecap="round" stroke-linejoin="round"/>
<path d="M307.602 312H94.1016" stroke="#323A45" stroke-width="1.4" stroke-linecap="round" stroke-linejoin="round"/>
<path d="M349.602 312L314.602 312" stroke="#323A45" stroke-width="1.4" stroke-linecap="round" stroke-linejoin="round"/>
<mask id="mask1" mask-type="alpha" maskUnits="userSpaceOnUse" x="125" y="105" width="156" height="148">
<path d="M125.457 170.735C125.457 166.633 127.303 162.749 130.483 160.158L192.405 109.715C198.676 104.606 207.673 104.606 213.944 109.715L275.866 160.158C279.046 162.749 280.892 166.633 280.892 170.735V235.912C280.892 245.33 273.257 252.964 263.84 252.964H142.509C133.091 252.964 125.457 245.33 125.457 235.912V170.735Z" fill="#C4C4C4"/>
</mask>
<g mask="url(#mask1)">
<path d="M126.157 171.849C126.157 167.368 128.474 163.207 132.283 160.847L194.563 122.264C199.839 118.996 206.51 118.996 211.786 122.264L274.066 160.847C277.874 163.207 280.192 167.368 280.192 171.849V235.912C280.192 244.943 272.871 252.264 263.84 252.264H142.509C133.478 252.264 126.157 244.943 126.157 235.912V171.849Z" fill="#88BCCC" stroke="#323A45" stroke-width="1.4"/>
<path d="M203.429 195.233L280.192 165.277V252.264H126.157V165.277L202.92 195.233L203.174 195.333L203.429 195.233Z" fill="#E2C8A1" stroke="#323A45" stroke-width="1.4"/>
<line x1="302.379" y1="156.185" x2="106" y2="233.523" stroke="#323A45" stroke-width="1.4"/>
<line y1="-0.7" x2="211.058" y2="-0.7" transform="matrix(0.930445 0.36643 0.36643 -0.930445 103.47 155.533)" stroke="#323A45" stroke-width="1.4"/>
<path d="M126.157 171.849C126.157 167.368 128.474 163.207 132.283 160.847L194.563 122.264C199.839 118.996 206.51 118.996 211.786 122.264L274.066 160.847C277.874 163.207 280.192 167.368 280.192 171.849V235.912C280.192 244.943 272.871 252.264 263.84 252.264H142.509C133.478 252.264 126.157 244.943 126.157 235.912V171.849Z" stroke="#323A45" stroke-width="1.4"/>
</g>
<path d="M126.157 171.613C126.157 167.28 128.398 163.256 132.081 160.974L196.583 121.014C200.621 118.512 205.727 118.512 209.765 121.014L274.267 160.974C277.951 163.256 280.192 167.28 280.192 171.613V239.751C280.192 246.662 274.588 252.266 267.676 252.266H138.672C131.76 252.266 126.157 246.662 126.157 239.751V171.613Z" stroke="#323A45" stroke-width="1.4"/>
<path d="M137.859 93.8212C137.859 90.4408 140.599 87.7005 143.98 87.7005L262.338 87.7005C265.719 87.7005 268.459 90.4408 268.459 93.8212L268.459 235.18C268.459 238.56 265.719 241.3 262.338 241.3L143.98 241.3C140.599 241.3 137.859 238.56 137.859 235.18L137.859 93.8212Z" fill="white" stroke="#323A45" stroke-width="1.4"/>
<rect x="191" y="114" width="9" height="3" rx="1.5" fill="#323A45"/>
<path d="M229.576 104.867L218.675 104.115C217.708 104.049 216.832 104.684 216.597 105.624L215.114 111.543C215.039 111.843 215.035 112.16 215.103 112.462C217.147 121.457 220.192 127.019 227.599 136.963C227.857 137.309 228 137.733 228 138.166L228 140.716C228 141.498 228.456 142.209 229.167 142.534L239.211 147.138C239.714 147.369 240.099 147.798 240.275 148.324L240.956 150.367C241.269 151.306 242.221 151.874 243.196 151.705L251.568 150.249C252.422 150.1 253.083 149.419 253.206 148.561L253.887 143.793C253.959 143.284 253.833 142.766 253.534 142.348L251.603 139.645C251.535 139.548 251.457 139.458 251.373 139.375L231.633 120.117C231.23 119.724 231.011 119.179 231.031 118.616L231.437 106.931C231.474 105.854 230.651 104.941 229.576 104.867Z" fill="#575C65" stroke="#323A45" stroke-width="1.4"/>
<rect x="153" y="104" width="15" height="3" rx="1.5" fill="#575C65"/>
<rect x="153" y="126" width="25" height="3" rx="1.5" fill="#575C65"/>
<rect x="153" y="148" width="15" height="3" rx="1.5" fill="#575C65"/>
<rect x="153" y="114" width="35" height="3" rx="1.5" fill="#575C65"/>
<rect x="153" y="136" width="35" height="3" rx="1.5" fill="#575C65"/>
<rect x="153" y="158" width="35" height="3" rx="1.5" fill="#575C65"/>
<rect x="153" y="168" width="61" height="3" rx="1.5" fill="#575C65"/>
<rect x="153" y="178" width="71" height="3" rx="1.5" fill="#575C65"/>
<rect x="220" y="168" width="31" height="3" rx="1.5" fill="#575C65"/>
<rect x="172" y="104" width="21" height="3" rx="1.5" fill="#575C65"/>
<rect x="182" y="126" width="21" height="3" rx="1.5" fill="#575C65"/>
<rect x="172" y="148" width="21" height="3" rx="1.5" fill="#575C65"/>
<rect x="197" y="148" width="11" height="3" rx="1.5" fill="#575C65"/>
<rect x="191" y="136" width="15" height="3" rx="1.5" fill="#575C65"/>
<rect x="191" y="158" width="15" height="3" rx="1.5" fill="#575C65"/>
<mask id="mask2" mask-type="alpha" maskUnits="userSpaceOnUse" x="125" y="105" width="156" height="148">
<path d="M125.457 170.735C125.457 166.633 127.303 162.749 130.483 160.158L192.405 109.715C198.676 104.606 207.673 104.606 213.944 109.715L275.866 160.158C279.046 162.749 280.892 166.633 280.892 170.735V235.912C280.892 245.33 273.257 252.964 263.84 252.964H142.509C133.091 252.964 125.457 245.33 125.457 235.912V170.735Z" fill="#C4C4C4"/>
</mask>
<g mask="url(#mask2)">
<path d="M125.457 164.252L203.174 194.581L280.892 164.252V252.964H125.457V164.252Z" fill="#88BCCC"/>
<mask id="mask3" mask-type="alpha" maskUnits="userSpaceOnUse" x="125" y="164" width="156" height="89">
<path d="M203.429 195.233L280.192 165.277V252.264H126.157V165.277L202.92 195.233L203.174 195.333L203.429 195.233Z" fill="#88BCCC" stroke="#323A45" stroke-width="1.4"/>
</mask>
<g mask="url(#mask3)">
<ellipse cx="26.5498" cy="253.15" rx="99" ry="186.522" transform="rotate(71.0722 26.5498 253.15)" fill="#71A9C1"/>
</g>
<path d="M203.429 195.233L280.192 165.277V252.264H126.157V165.277L202.92 195.233L203.174 195.333L203.429 195.233Z" stroke="#323A45" stroke-width="1.4"/>
<line x1="302.378" y1="156.185" x2="106" y2="233.523" stroke="#323A45" stroke-width="1.4"/>
<line y1="-0.7" x2="211.058" y2="-0.7" transform="matrix(0.930445 0.36643 0.36643 -0.930445 103.469 155.533)" stroke="#323A45" stroke-width="1.4"/>
</g>
<path d="M75 134.3H74.3V135V251C74.3 252.491 75.5088 253.7 77 253.7H79C80.4912 253.7 81.7 252.491 81.7 251V135V134.3H81H75Z" fill="#575C65" stroke="#323A45" stroke-width="1.4"/>
<circle cx="78" cy="129" r="27.3" fill="#046B99" stroke="#323A45" stroke-width="1.4"/>
<circle cx="78" cy="129" r="22.3" fill="white" stroke="#323A45" stroke-width="1.4"/>
<path d="M68.5 120.22C68.5 118.34 69.8106 116.718 71.6732 116.462C73.4017 116.225 75.6614 116 78 116C80.3386 116 82.5983 116.225 84.3268 116.462C86.1894 116.718 87.5 118.34 87.5 120.22V136C87.5 137.105 86.6046 138 85.5 138H70.5C69.3954 138 68.5 137.105 68.5 136V120.22Z" fill="#323A45"/>
<path d="M70 139H73V140.5C73 141.328 72.3284 142 71.5 142C70.6716 142 70 141.328 70 140.5V139Z" fill="#323A45"/>
<path d="M83 139H86V140.5C86 141.328 85.3284 142 84.5 142C83.6716 142 83 141.328 83 140.5V139Z" fill="#323A45"/>
<path d="M72 119.449C72 118.917 72.417 118.477 72.9486 118.451C76.7551 118.261 79.2469 118.259 83.054 118.45C83.5843 118.477 84 118.916 84 119.447C84 120.019 83.5181 120.475 82.946 120.447C79.0085 120.258 76.9899 120.274 73.0516 120.451C72.48 120.477 72 120.021 72 119.449Z" fill="white"/>
<rect x="70" y="122.5" width="7.25" height="7" rx="1.5" fill="white"/>
<rect x="70" y="132" width="3" height="2.5" rx="1" fill="white"/>
<rect x="83" y="132" width="3" height="2.5" rx="1" fill="white"/>
<rect x="78.75" y="122.5" width="7.25" height="7" rx="1.5" fill="white"/>
</g>
</svg>
