<svg width="30" height="40" viewBox="0 0 30 40" fill="none" xmlns="http://www.w3.org/2000/svg">
<path fill-rule="evenodd" clip-rule="evenodd" d="M0 6.95652C0 3.11454 2.98477 0 6.66667 0H23.3333C27.0152 0 30 3.11454 30 6.95652V33.0435C30 36.8855 27.0152 40 23.3333 40H6.66667C2.98477 40 0 36.8855 0 33.0435V6.95652ZM4.16667 7.82609C4.16667 6.38534 5.28595 5.21739 6.66667 5.21739H23.3333C24.714 5.21739 25.8333 6.38534 25.8333 7.82609V16.5217C25.8333 17.9625 24.714 19.1304 23.3333 19.1304H6.66667C5.28595 19.1304 4.16667 17.9625 4.16667 16.5217V7.82609ZM16.3766 34.3197C16.4199 34.5099 16.626 34.7092 16.8295 34.7577C16.918 34.7788 17.0209 34.7883 17.0583 34.7791C17.0955 34.7696 17.1567 34.7619 17.1942 34.7619C17.3817 34.7619 17.6057 34.5119 17.9624 33.9043C18.5526 32.8991 18.9213 31.873 19.1052 30.7231C19.2048 30.0997 19.18 28.8091 19.0553 28.1282C18.8537 27.0278 18.4453 25.9707 17.8493 25.0072C17.6989 24.7639 17.5191 24.521 17.45 24.4675C17.2701 24.3284 16.8941 24.3067 16.6698 24.4227C16.5062 24.5072 16.3551 24.7227 16.3551 24.8714C16.3551 24.9117 16.5014 25.1902 16.6802 25.4901C17.5131 26.8872 17.8484 28.0529 17.8484 29.5511C17.8484 31.1013 17.4697 32.3785 16.5984 33.7664C16.3828 34.1098 16.3483 34.1958 16.3766 34.3197ZM13.9573 33.0869C13.8672 33.3231 14.0921 33.6382 14.4041 33.713C14.8674 33.824 15.1954 33.5446 15.6625 32.6412C16.5745 30.8775 16.6831 28.9502 15.9714 27.1549C15.7564 26.6124 15.1993 25.6545 15.0202 25.5192C14.7618 25.324 14.2698 25.3613 14.0727 25.5909C13.8654 25.8325 13.882 25.9255 14.2385 26.5255C14.7699 27.4198 14.9809 28.0311 15.0927 29.0002C15.2287 30.1797 14.9511 31.3811 14.2837 32.5017C14.1261 32.7664 13.9792 33.0298 13.9573 33.0869ZM11.4993 32.2449C11.5444 32.4141 11.7103 32.5819 11.9031 32.6535C11.9894 32.6855 12.1344 32.7033 12.2255 32.693C12.5241 32.6593 12.6715 32.5279 12.9698 32.0301C13.4906 31.1606 13.6772 30.514 13.6789 29.572C13.6805 28.6556 13.4809 27.9403 12.9935 27.1158C12.6765 26.5798 12.4926 26.433 12.1379 26.433C11.9264 26.433 11.8625 26.4537 11.7119 26.5706C11.4068 26.8076 11.4148 26.9272 11.7755 27.5282C12.5969 28.8964 12.5878 30.2457 11.7478 31.6465C11.5191 32.0279 11.4717 32.1419 11.4993 32.2449ZM9.19032 31.2947C9.24217 31.4434 9.41652 31.6145 9.56921 31.6666C9.90236 31.7801 10.2199 31.6519 10.5047 31.289C11.3121 30.2605 11.3122 28.8748 10.5051 27.8375C10.2264 27.4793 10.0181 27.3679 9.715 27.4147C9.35735 27.47 9.0911 27.7924 9.18605 28.0555C9.20882 28.1184 9.30916 28.2805 9.40909 28.4159C9.70391 28.8151 9.77254 29.0294 9.77254 29.551C9.77254 30.0728 9.70391 30.287 9.40909 30.6861C9.17985 30.9965 9.13247 31.1285 9.19032 31.2947Z" fill="#046B99"/>
<path fill-rule="evenodd" clip-rule="evenodd" d="M19.5476 8.73295C19.873 9.07254 19.873 9.62311 19.5476 9.9627L14.1309 15.6149C13.8055 15.9545 13.2778 15.9545 12.9524 15.6149L10.4524 13.0062C10.127 12.6666 10.127 12.116 10.4524 11.7764C10.7778 11.4368 11.3055 11.4368 11.6309 11.7764L13.5417 13.7702L18.3691 8.73295C18.6945 8.39336 19.2222 8.39336 19.5476 8.73295Z" fill="#046B99"/>
</svg>
