<svg width="36" height="36" viewBox="0 0 36 36" fill="none" xmlns="http://www.w3.org/2000/svg">
<path fill-rule="evenodd" clip-rule="evenodd" d="M4.11429 0C1.84203 0 0 1.84203 0 4.11429V12.3429C0 14.6151 1.84203 16.4571 4.11429 16.4571H12.3429C14.6151 16.4571 16.4571 14.6151 16.4571 12.3429V4.11429C16.4571 1.84203 14.6151 0 12.3429 0H4.11429ZM12.3429 9.13171V7.32544H9.27016V4.11429H7.18698V7.32544H4.11429V9.13171H7.18698V12.3429H9.27016V9.13171H12.3429Z" fill="#00896B"/>
<path fill-rule="evenodd" clip-rule="evenodd" d="M23.6571 0C21.3849 0 19.5429 1.84203 19.5429 4.11429V12.3429C19.5429 14.6151 21.3849 16.4571 23.6571 16.4571H31.8857C34.158 16.4571 36 14.6151 36 12.3429V4.11429C36 1.84203 34.158 0 31.8857 0H23.6571ZM23.6571 7.2V9.25714H31.8857V7.2H23.6571Z" fill="#00896B"/>
<path fill-rule="evenodd" clip-rule="evenodd" d="M4.11429 19.5429C1.84203 19.5429 0 21.3849 0 23.6571V31.8857C0 34.158 1.84203 36 4.11429 36H12.3429C14.6151 36 16.4571 34.158 16.4571 31.8857V23.6571C16.4571 21.3849 14.6151 19.5429 12.3429 19.5429H4.11429ZM10.0052 25.5863C10.1885 25.6893 10.3096 25.7739 10.3682 25.8401L11.0393 24.604C10.7386 24.398 10.3829 24.2141 9.97219 24.0522C9.56883 23.883 9.13614 23.78 8.6741 23.7432V22.6286H7.93705V23.7432C7.46769 23.7874 7.04599 23.9088 6.67196 24.1074C6.29794 24.3061 6.00092 24.582 5.7809 24.9351C5.56089 25.2809 5.45088 25.7003 5.45088 26.1933C5.45088 26.5979 5.53155 26.9327 5.6929 27.1975C5.86157 27.4551 6.10726 27.6721 6.42995 27.8487C6.75997 28.0179 7.17433 28.1724 7.67303 28.3122C7.7317 28.3343 7.79037 28.3527 7.84905 28.3674C7.91505 28.3821 7.97739 28.4005 8.03606 28.4226V30.3208C7.68403 30.2766 7.35401 30.1957 7.04599 30.078C6.73797 29.9529 6.47395 29.8278 6.25393 29.7028C6.04125 29.5703 5.89458 29.4636 5.8139 29.3827L5.14286 30.696C5.53155 30.9682 5.96791 31.1926 6.45195 31.3692C6.93598 31.5384 7.43102 31.6451 7.93705 31.6893V32.9143H8.6741V31.7003C9.1508 31.6782 9.58717 31.5863 9.98319 31.4244C10.3866 31.2625 10.7092 31.0161 10.9513 30.685C11.1933 30.3465 11.3143 29.9124 11.3143 29.3827C11.3143 28.9045 11.2116 28.5219 11.0063 28.235C10.8009 27.9407 10.5112 27.7052 10.1372 27.5286C9.76318 27.3521 9.31948 27.1975 8.80611 27.0651C8.76211 27.0504 8.71811 27.0394 8.6741 27.032C8.63743 27.0173 8.60076 27.0063 8.5641 26.9989V25.0896C8.84278 25.1191 9.1068 25.1816 9.35615 25.2773C9.61283 25.3729 9.82918 25.4759 10.0052 25.5863ZM7.27701 26.5133C7.10833 26.3809 7.02399 26.1933 7.02399 25.9505C7.02399 25.4281 7.36134 25.1375 8.03606 25.0786V26.8554C7.6987 26.7524 7.44568 26.6384 7.27701 26.5133ZM9.38915 28.9523C9.5945 29.0921 9.69717 29.2871 9.69717 29.5372C9.69717 30.0449 9.31948 30.3134 8.5641 30.3429V28.5771C8.91612 28.6874 9.19114 28.8125 9.38915 28.9523Z" fill="#00896B"/>
<path fill-rule="evenodd" clip-rule="evenodd" d="M23.6571 19.5429C21.3849 19.5429 19.5429 21.3849 19.5429 23.6571V31.8857C19.5429 34.158 21.3849 36 23.6571 36H31.8857C34.158 36 36 34.158 36 31.8857V23.6571C36 21.3849 34.158 19.5429 31.8857 19.5429H23.6571ZM26.6308 23.1429V25.5174H28.9324V23.1429H26.6308ZM23.6571 26.7789V28.7639H31.8857V26.7789H23.6571ZM26.6308 30.0069V32.4H28.9324V30.0069H26.6308Z" fill="#00896B"/>
</svg>
