<svg width="72" height="72" viewBox="0 0 72 72" fill="none" xmlns="http://www.w3.org/2000/svg">
<path d="M29 0C13.0146 0 0 13.0146 0 29C0 44.9854 13.0146 58 29 58C44.9854 58 58 44.9854 58 29C58 13.0146 44.9854 0 29 0ZM29 55.1707C14.5707 55.1707 2.82927 43.429 2.82927 29C2.82927 14.571 14.571 2.82927 29 2.82927C43.429 2.82927 55.1707 14.571 55.1707 29C55.1707 43.429 43.429 55.1707 29 55.1707ZM44.4198 22.3513L34.6587 20.9367L30.2734 12.0243C29.8488 11.0342 28.1515 11.0342 27.7268 12.0243L23.3416 20.9367L13.5805 22.3513C13.0145 22.4927 12.5904 22.7759 12.4486 23.3414C12.3072 23.9073 12.4486 24.4733 12.8732 24.756L19.9463 31.6878L18.249 41.4489C18.1076 42.0149 18.3904 42.5808 18.815 42.8636C19.0977 43.0049 19.3809 43.1463 19.6637 43.1463C19.9464 43.1463 20.0882 43.1463 20.371 43.0049L29.1415 38.3364L37.912 43.0049C38.3365 43.2877 38.902 43.1463 39.4679 42.8636C39.8925 42.5808 40.1753 42.0149 40.0339 41.4489L38.3366 31.6878L45.4097 24.756C45.8343 24.3314 45.9757 23.766 45.8343 23.3414C45.4097 22.9168 44.9857 22.4927 44.4198 22.3513ZM35.6488 30.2731C35.366 30.5559 35.2242 31.1218 35.2242 31.5464L36.4975 39.1856L29.5657 35.5076C29.4248 35.3658 29.2829 35.3658 29.0002 35.3658C28.7174 35.3658 28.5756 35.3658 28.2929 35.5072L21.361 39.1851L22.6343 31.546C22.7757 31.1214 22.493 30.5559 22.2097 30.2727L16.6926 24.8968L24.3317 23.7649C24.7563 23.7649 25.1804 23.3404 25.4636 23.0576L28.8588 16.1258L32.2541 23.0576C32.3954 23.4822 32.82 23.7649 33.386 23.7649L41.0251 24.8968L35.6488 30.2731Z" fill="black"/>
</svg>
