<svg width="72" height="72" viewBox="0 0 72 72" fill="none" xmlns="http://www.w3.org/2000/svg">
<path d="M47.4316 5.75977C41.8515 5.75977 36.6587 7.6199 32.5511 10.7974H8.83519C8.21507 10.7974 7.67265 11.3399 7.67265 11.96C7.67265 12.5801 8.21507 13.1225 8.83519 13.1225H29.8385C27.8234 15.1375 26.196 17.4626 25.0334 20.0203H1.16254C0.542416 20.0203 0 20.5627 0 21.1828C0 21.803 0.542416 22.3454 1.16254 22.3454H24.1034C23.3284 24.5156 22.8634 26.8407 22.786 29.2431H8.83545C8.21533 29.2431 7.67291 29.7855 7.67291 30.4057C7.67291 31.0258 8.21533 31.5682 8.83545 31.5682H22.7085C22.7859 33.9707 23.2509 36.2958 24.0259 38.466H1.16254C0.542416 38.466 0 39.0084 0 39.6285C0 40.2486 0.542416 40.791 1.16254 40.791H25.0334C26.2734 43.3488 27.9009 45.6738 29.8385 47.6888H8.83519C8.21507 47.6888 7.67265 48.2312 7.67265 48.8513C7.67265 49.4715 8.21507 50.0139 8.83519 50.0139H32.4736C36.5813 53.1914 41.7739 55.0516 47.3541 55.0516C60.9946 55.0516 72 43.9687 72 30.4057C72 16.8427 60.9946 5.75977 47.4316 5.75977ZM48.5941 52.7265V48.8513C48.5941 48.2312 48.0517 47.6888 47.4316 47.6888C46.8115 47.6888 46.2691 48.2312 46.2691 48.8513V52.7265C34.8761 52.1063 25.6533 42.9611 25.1108 31.5682H28.9859C29.6061 31.5682 30.1485 31.0258 30.1485 30.4057C30.1485 29.7855 29.6061 29.2431 28.9859 29.2431H25.1108C25.6532 17.8502 34.8761 8.70487 46.2691 8.08485V11.96C46.2691 12.5801 46.8115 13.1225 47.4316 13.1225C48.0517 13.1225 48.5941 12.5801 48.5941 11.96V8.08485C59.9871 8.70498 69.1324 17.8502 69.7524 29.2431H65.8773C65.2571 29.2431 64.7147 29.7855 64.7147 30.4057C64.7147 31.0258 65.2571 31.5682 65.8773 31.5682H69.7524C69.1323 42.9611 59.9871 52.1065 48.5941 52.7265Z" fill="black"/>
<path d="M57.0448 29.2425H48.132L40.5367 15.3695C40.2266 14.827 39.529 14.5944 38.9866 14.9045C38.4442 15.2146 38.2116 15.9122 38.5217 16.4545L46.427 30.9476C46.6596 31.3351 47.0471 31.5677 47.4346 31.5677H57.1225C57.7426 31.5677 58.285 31.0253 58.285 30.4052C58.285 29.785 57.6652 29.2426 57.045 29.2426L57.0448 29.2425Z" fill="black"/>
</svg>
