<svg width="45" height="46" viewBox="0 0 45 46" fill="none" xmlns="http://www.w3.org/2000/svg">
<g id="Frame 4834">
<path id="Vector" fill-rule="evenodd" clip-rule="evenodd" d="M28.1055 5.83207C31.4942 5.83207 34.3409 8.15032 35.1491 11.2868H37.1963C39.2043 11.2868 40.8322 12.9147 40.8322 14.9227V20.3774C40.8322 21.3814 40.0191 22.1962 39.0151 22.1962C38.011 22.1962 37.1962 21.3814 37.1962 20.3774V14.9227H35.3774V38.5603C35.3774 39.9052 34.6478 41.0796 33.562 41.7086L33.5603 44.4684C33.5603 45.2218 32.9484 45.832 32.1966 45.832H29.4693C28.7158 45.832 28.1056 45.2218 28.1056 44.4684V42.1961H13.5586V44.4684C13.5586 45.2218 12.9484 45.832 12.1949 45.832H9.46756C8.71582 45.832 8.10389 45.2218 8.10389 44.4684V41.7103C7.01805 41.0813 6.28677 39.9052 6.28677 38.5602V14.9226H4.46796V20.3773C4.46796 21.3813 3.65316 22.1961 2.64914 22.1961C1.64513 22.1961 0.832031 21.3813 0.832031 20.3773V14.9226C0.832031 12.9146 2.45993 11.2867 4.46792 11.2867H6.51513C7.32312 8.15028 10.1698 5.83203 13.5587 5.83203L28.1055 5.83207ZM12.65 33.1056C11.1431 33.1056 9.92262 34.3261 9.92262 35.8329C9.92262 37.3381 11.1431 38.5603 12.65 38.5603C14.1568 38.5603 15.3773 37.3381 15.3773 35.8329C15.3773 34.3261 14.1568 33.1056 12.65 33.1056ZM29.0141 33.1056C27.5072 33.1056 26.2867 34.3261 26.2867 35.8329C26.2867 37.3381 27.5072 38.5603 29.0141 38.5603C30.5209 38.5603 31.7414 37.3381 31.7414 35.8329C31.7414 34.3261 30.5209 33.1056 29.0141 33.1056ZM29.9226 14.9227H11.7414C10.7374 14.9227 9.92262 15.7375 9.92262 16.7415V27.6509C9.92262 28.6549 10.7374 29.468 11.7414 29.468H29.9226C30.9266 29.468 31.7414 28.6549 31.7414 27.6509V16.7415C31.7414 15.7375 30.9266 14.9227 29.9226 14.9227ZM23.5594 9.46796H18.1047C17.6018 9.46796 17.1961 9.87535 17.1961 10.3765C17.1961 10.8793 17.6018 11.2867 18.1047 11.2867H23.5594C24.0622 11.2867 24.4679 10.8793 24.4679 10.3765C24.4679 9.87536 24.0622 9.46796 23.5594 9.46796Z" fill="#045B86"/>
<g id="Group 322">
<circle id="Ellipse 203" cx="33" cy="12" r="11" fill="#EAF8FB" stroke="#045B86" stroke-width="2"/>
<g id="Subtract">
<mask id="path-3-inside-1_8199_1162" fill="white">
<path fill-rule="evenodd" clip-rule="evenodd" d="M32.8333 19C33.7083 19 38.6667 14.055 38.6667 10.8333C38.6667 7.61167 36.055 5 32.8333 5C29.6117 5 27 7.61167 27 10.8333C27 14.055 31.9583 19 32.8333 19ZM32.8337 13C33.9383 13 34.8337 12.1046 34.8337 11C34.8337 9.89547 33.9383 9.00004 32.8337 9.00004C31.7291 9.00004 30.8337 9.89547 30.8337 11C30.8337 12.1046 31.7291 13 32.8337 13Z"/>
</mask>
<path fill-rule="evenodd" clip-rule="evenodd" d="M32.8333 19C33.7083 19 38.6667 14.055 38.6667 10.8333C38.6667 7.61167 36.055 5 32.8333 5C29.6117 5 27 7.61167 27 10.8333C27 14.055 31.9583 19 32.8333 19ZM32.8337 13C33.9383 13 34.8337 12.1046 34.8337 11C34.8337 9.89547 33.9383 9.00004 32.8337 9.00004C31.7291 9.00004 30.8337 9.89547 30.8337 11C30.8337 12.1046 31.7291 13 32.8337 13Z" fill="#045B86"/>
<path d="M37.5614 10.8333C37.5614 11.3812 37.3415 12.1084 36.8985 12.957C36.465 13.7873 35.866 14.6433 35.2247 15.4224C34.5843 16.2005 33.9241 16.8749 33.3865 17.3449C33.1157 17.5816 32.8945 17.7502 32.736 17.8525C32.656 17.9041 32.6117 17.926 32.5991 17.9315C32.5657 17.9462 32.6612 17.8947 32.8333 17.8947V20.1053C33.1148 20.1053 33.3517 20.0152 33.4869 19.9559C33.6432 19.8874 33.7951 19.7999 33.9344 19.71C34.2145 19.5292 34.5242 19.2864 34.8414 19.0091C35.4795 18.4513 36.2229 17.6881 36.9315 16.8272C37.6392 15.9673 38.3344 14.983 38.858 13.98C39.3721 12.9953 39.7719 11.8963 39.7719 10.8333H37.5614ZM32.8333 6.10526C35.4446 6.10526 37.5614 8.22209 37.5614 10.8333H39.7719C39.7719 7.00125 36.6654 3.89474 32.8333 3.89474V6.10526ZM28.1053 10.8333C28.1053 8.22209 30.2221 6.10526 32.8333 6.10526V3.89474C29.0013 3.89474 25.8947 7.00125 25.8947 10.8333H28.1053ZM32.8333 17.8947C33.0054 17.8947 33.101 17.9462 33.0675 17.9315C33.055 17.926 33.0106 17.9041 32.9307 17.8525C32.7722 17.7502 32.5509 17.5816 32.2802 17.3449C31.7426 16.8749 31.0823 16.2005 30.4419 15.4224C29.8007 14.6433 29.2016 13.7873 28.7682 12.957C28.3252 12.1084 28.1053 11.3812 28.1053 10.8333H25.8947C25.8947 11.8963 26.2946 12.9953 26.8086 13.98C27.3322 14.983 28.0274 15.9673 28.7352 16.8272C29.4437 17.6881 30.1871 18.4513 30.8253 19.0091C31.1424 19.2864 31.4521 19.5292 31.7322 19.71C31.8716 19.7999 32.0235 19.8874 32.1797 19.9559C32.315 20.0152 32.5519 20.1053 32.8333 20.1053V17.8947ZM33.7284 11C33.7284 11.4942 33.3278 11.8948 32.8337 11.8948V14.1053C34.5487 14.1053 35.9389 12.715 35.9389 11H33.7284ZM32.8337 10.1053C33.3278 10.1053 33.7284 10.5059 33.7284 11H35.9389C35.9389 9.28505 34.5487 7.89478 32.8337 7.89478V10.1053ZM31.939 11C31.939 10.5059 32.3395 10.1053 32.8337 10.1053V7.89478C31.1187 7.89478 29.7284 9.28505 29.7284 11H31.939ZM32.8337 11.8948C32.3395 11.8948 31.939 11.4942 31.939 11H29.7284C29.7284 12.715 31.1187 14.1053 32.8337 14.1053V11.8948Z" fill="#045B86" mask="url(#path-3-inside-1_8199_1162)"/>
</g>
</g>
</g>
</svg>
