<svg xmlns="http://www.w3.org/2000/svg" viewBox="0 0 21 21" aria-hidden="true">
    <path
    fill="#fff"
    stroke="#fff"
    stroke-width=".45"
    d="M10.224.225c-5.514 0-10 4.486-10 10a.922.922 0 0 0 1.842 0c0-4.499 3.66-8.159 8.158-8.159 4.499 0 8.159 3.66 8.159 8.159 0 4.498-3.66 8.158-8.159 8.158a8.12 8.12 0 0 1-6.127-2.774l.388-.29a.79.79 0 0 0 .313-.73.79.79 0 0 0-.475-.636l-2.721-1.167a.792.792 0 0 0-1.1.823l.349 2.94a.795.795 0 0 0 1.263.543l.504-.377a9.95 9.95 0 0 0 7.607 3.51c5.514 0 10-4.486 10-10s-4.487-10-10-10Z"
    />
    <path
    fill="#fff"
    stroke="#fff"
    stroke-width=".45"
    d="M14.771 12.483a1 1 0 0 0 .095-.127.79.79 0 0 0 .02-.82.84.84 0 0 0-.264-.276l-3.754-2.52a1.2 1.2 0 0 0-.29-.517l-.48-2.904a.78.78 0 0 0-.238-.475.78.78 0 0 0-1.315.643l.18 2.783a1.25 1.25 0 0 0 .093 1.701c.272.256.648.38 1.02.329l3.935 2.307c.32.2.74.15.998-.124ZM9.154 9.608a.698.698 0 0 1-.024-.98.694.694 0 0 1 .98-.025.71.71 0 0 1 .025.98.697.697 0 0 1-.981.025Z"
    />
</svg>
