 <svg xmlns="http://www.w3.org/2000/svg" viewBox="0 0 21 21" aria-hidden="true">
    <path
    stroke="currentcolor"
    stroke-width=".455"
    d="M4.351.228a.58.58 0 0 0-.542.368.6.6 0 0 0-.044.227v1.033h-1.78c-.993 0-1.758.874-1.758 1.878v11.77c0 1.005.765 1.878 1.757 1.878h7.703c.979 1.699 2.803 2.845 4.886 2.845 3.113 0 5.654-2.56 5.654-5.699 0-1.898-.93-3.583-2.353-4.618V3.734c0-1.004-.767-1.878-1.76-1.878h-1.78V.823a.6.6 0 0 0-.361-.55.584.584 0 0 0-.771.322.6.6 0 0 0-.045.228v1.033h-8.22V.823a.6.6 0 0 0-.361-.55.6.6 0 0 0-.225-.045ZM1.984 3.043h1.781v1.028a.6.6 0 0 0 .361.55.58.58 0 0 0 .45 0 .59.59 0 0 0 .361-.55V3.043h8.22v1.028a.6.6 0 0 0 .365.551.584.584 0 0 0 .768-.323.6.6 0 0 0 .044-.228V3.043h1.78c.306 0 .582.272.582.691v2.267H1.403V3.734c0-.419.276-.691.581-.691Zm-.581 4.145h15.293v2.064a5.6 5.6 0 0 0-2.123-.418c-3.114 0-5.65 2.556-5.65 5.694 0 .58.088 1.14.249 1.668H1.984c-.305 0-.581-.272-.581-.691zm13.17 2.832a4.45 4.45 0 0 1 2.433.72 4.5 4.5 0 0 1 2.044 3.788c0 2.498-2 4.514-4.477 4.514S10.1 17.026 10.1 14.528c0-2.497 1.995-4.508 4.473-4.508Zm-.33 1.5a.59.59 0 0 0-.414.175.6.6 0 0 0-.172.417v3.297a.586.586 0 0 0 .586.59h2.293a.585.585 0 0 0 .545-.364.597.597 0 0 0-.318-.777.6.6 0 0 0-.227-.045h-1.702v-2.7a.6.6 0 0 0-.365-.548.6.6 0 0 0-.226-.044Z"
    />
</svg>
