<svg width="48" height="48" viewBox="0 0 48 48" fill="none" xmlns="http://www.w3.org/2000/svg">
<path d="M28.578 19.8607C28.372 20.2351 27.824 20.339 27.4539 20.1338C27.1116 19.9221 26.691 19.7244 26.1918 19.5409C25.707 19.3574 25.1936 19.2374 24.6517 19.1809V22.8444C24.723 22.8585 24.7943 22.8797 24.8656 22.908C24.9512 22.9221 25.0368 22.9433 25.1223 22.9715C26.1205 23.2256 26.9833 23.5221 27.7106 23.8609C28.4378 24.1997 29.0011 24.6515 29.4004 25.2162C29.7997 25.7668 29.9993 26.5009 29.9993 27.4186C29.9993 28.435 29.764 29.268 29.2935 29.9174C28.8229 30.5527 28.1954 31.0256 27.4111 31.3362C26.9599 31.5182 26.4818 31.6541 25.9768 31.744C25.3606 31.8537 24.8656 32.3673 24.8656 33.0042V33.4655C24.8656 33.8684 24.5448 34.1951 24.1491 34.1951C23.7533 34.1951 23.4325 33.8684 23.4325 33.4655V32.9702C23.4325 32.3337 22.9521 31.8099 22.3365 31.6989C21.7309 31.5897 21.1337 31.4335 20.5448 31.2303C19.9837 31.0283 19.4556 30.7937 18.9604 30.5265C18.396 30.222 18.2246 29.5035 18.5225 28.9283L18.8151 28.3631C19.0594 27.8913 19.7113 27.7571 20.1598 28.0327C20.5876 28.2727 21.1009 28.5127 21.6999 28.7527C22.2988 28.9786 22.9405 29.1339 23.625 29.2186V25.5762C23.5109 25.5339 23.3897 25.4986 23.2614 25.4703C23.1473 25.4421 23.0332 25.4068 22.9191 25.3644C21.9494 25.0962 21.1437 24.7997 20.502 24.475C19.8746 24.1362 19.3968 23.7197 19.0689 23.2256C18.7551 22.7174 18.5983 22.075 18.5983 21.2985C18.5983 20.3527 18.8122 19.5479 19.24 18.8844C19.6678 18.2068 20.2453 17.6774 20.9726 17.2962C21.4265 17.0582 21.9166 16.8781 22.4428 16.7557C22.9964 16.6269 23.4325 16.1547 23.4325 15.5766V15.1881C23.4325 14.7852 23.7533 14.4585 24.1491 14.4585C24.5448 14.4585 24.8656 14.7852 24.8656 15.1881V15.5691C24.8656 16.1494 25.3065 16.6236 25.8662 16.7331C26.3959 16.8367 26.9038 16.9891 27.3897 17.1903C27.8008 17.3502 28.1836 17.5213 28.538 17.7037C29.0772 17.9811 29.2364 18.6638 28.9412 19.2004L28.578 19.8607ZM21.6571 20.8327C21.6571 21.2985 21.8211 21.6585 22.1491 21.9127C22.4771 22.1527 22.969 22.3715 23.625 22.5691V19.1597C22.3131 19.2726 21.6571 19.8303 21.6571 20.8327ZM26.8549 27.715C26.8549 27.235 26.6553 26.8609 26.256 26.5927C25.871 26.3244 25.3362 26.0844 24.6517 25.8727V29.2609C26.1205 29.2045 26.8549 28.6892 26.8549 27.715Z" fill="#5B559C"/>
<path fill-rule="evenodd" clip-rule="evenodd" d="M38.3077 24.3268C38.3077 16.2814 31.9019 9.75934 24 9.75934C19.4971 9.75934 15.48 11.8773 12.8573 15.1881L10.1986 12.5612C13.5005 8.55033 18.4577 6 24 6C33.9411 6 42 14.2052 42 24.3268H38.3077ZM9.69231 24.3268H6C6 34.4484 14.0589 42.6536 24 42.6536C29.1412 42.6536 33.7789 40.459 37.0589 36.9398L34.3328 34.4031C31.7285 37.1709 28.0619 38.8942 24 38.8942C16.0981 38.8942 9.69231 32.3722 9.69231 24.3268Z" fill="#5B559C"/>
<path d="M17.8084 15.5229L9.19228 8.28551L9.19245 17.1937L17.8084 15.5229Z" fill="#5B559C"/>
<path d="M29.2358 33.8069L37.616 40.6633L37.9969 32.2832L29.2358 33.8069Z" fill="#5B559C"/>
</svg>
