<svg width="44" height="46" viewBox="0 0 44 46" fill="none" xmlns="http://www.w3.org/2000/svg">
<path d="M32.2827 40.4746L37.6827 35.074C38.3843 34.3723 38.3843 33.2312 37.6827 32.5296L32.2827 27.1289C31.5811 26.4272 30.4402 26.4272 29.7386 27.1289C29.037 27.8306 29.037 28.9716 29.7386 29.6733L32.063 31.998L11.2 31.998C9.21575 31.998 7.6 30.3821 7.6 28.3976C7.6 26.4131 9.21575 24.7971 11.2 24.7971L32.8 24.7971C36.7685 24.7971 40 21.5652 40 17.5962C40 13.6272 36.7685 10.3953 32.8 10.3953L11.9441 10.3953L14.2756 8.07065C14.9772 7.36899 14.9772 6.22791 14.2756 5.52624C13.574 4.82458 12.4331 4.82458 11.7315 5.52624L6.33149 10.9269C5.97716 11.2813 5.80708 11.742 5.80708 12.2027C5.80708 12.6633 5.98425 13.124 6.33149 13.4784L11.7315 18.8791C12.4331 19.5807 13.574 19.5807 14.2756 18.8791C14.9772 18.1774 14.9772 17.0363 14.2756 16.3347L11.9441 13.9958L32.8 13.9958C34.7843 13.9958 36.4 15.6117 36.4 17.5962C36.4 19.5807 34.7843 21.1967 32.8 21.1967L11.2 21.1967C7.23149 21.1967 4 24.4286 4 28.3976C4 32.3666 7.23149 35.5984 11.2 35.5984L32.063 35.5984L29.7386 37.9231C28.6968 38.9508 29.3843 40.1203 29.7386 40.4675C30.4402 41.1763 31.5811 41.1763 32.2827 40.4746Z" fill="#524C8F"/>
</svg>
