<svg width="424" height="502" viewBox="0 0 424 502" fill="none" xmlns="http://www.w3.org/2000/svg">
<g clip-path="url(#clip0_7148_546)">
<circle cx="212" cy="212" r="212" fill="#F7F8FA"/>
<ellipse cx="309.044" cy="202.982" rx="9.24998" ry="12.2565" fill="#323A45"/>
<ellipse cx="306.867" cy="216.406" rx="9.24998" ry="9.33878" fill="#323A45"/>
<path d="M286.878 232.06C287.016 232.019 287.13 231.921 287.191 231.791L289.236 227.398C289.853 227.35 290.544 227.161 291.26 226.882C292.113 226.551 293.033 226.08 293.954 225.521C295.583 224.532 297.243 223.25 298.571 221.931L303.154 231.217C303.202 231.314 303.28 231.393 303.377 231.442L318.399 239.05C321.011 240.373 322.622 243.096 322.477 246.013C322.11 253.396 321.523 259.072 320.068 264.644C318.614 270.214 316.286 275.702 312.415 282.698C312.34 282.835 312.332 282.999 312.395 283.141C314.571 288.101 316.074 292.106 316.623 295.307C317.17 298.499 316.75 300.791 315.21 302.443C315.088 302.574 315.045 302.761 315.098 302.932C316.282 306.76 316.713 309.711 316.456 311.993C316.202 314.249 315.275 315.856 313.696 317.037C312.092 318.235 309.78 319.02 306.713 319.529C303.651 320.036 299.891 320.261 295.43 320.377L295.425 320.378C295.419 320.378 295.413 320.378 295.407 320.379C286.543 321.017 280.99 319.752 276.631 316.921C272.245 314.072 269.008 309.606 264.838 303.664C264.76 303.554 264.641 303.479 264.507 303.458C264.373 303.437 264.237 303.47 264.128 303.552L258.687 307.637C258.551 307.739 258.477 307.903 258.489 308.073L262.298 361.184C262.3 361.218 262.306 361.251 262.315 361.283C263.133 364.212 263.218 364.685 263.262 365.042C263.267 365.079 263.271 365.114 263.275 365.15C263.32 365.536 263.372 365.989 263.935 368.239C264.219 371.103 263.2 375.287 261.555 379.268C259.904 383.262 257.676 386.923 255.661 388.733C255.218 389.13 254.655 389.396 254.026 389.627C253.687 389.752 253.378 389.869 253.09 389.978L253.033 389.999L253.21 390.467L253.033 389.999C252.368 390.251 251.788 390.229 251.304 390.042C250.813 389.852 250.383 389.476 250.056 388.962C249.396 387.924 249.2 386.388 249.75 385.001C251.27 381.162 250.882 377.162 250.023 373.249L246.967 359.314C244.273 336.953 244.443 322.02 244.664 302.687C244.701 299.493 244.739 296.178 244.765 292.69C244.793 289.04 246.824 285.627 250.186 284.438C254.267 282.996 257.541 282.786 262.734 283.437C263.007 283.471 263.257 283.278 263.292 283.005L268.605 242.078C268.988 239.127 271.08 236.681 273.937 235.845L286.878 232.06Z" fill="#AF813D" stroke="#323A45" stroke-linecap="round" stroke-linejoin="round"/>
<mask id="mask0_7148_546" style="" maskUnits="userSpaceOnUse" x="243" y="225" width="80" height="167">
<path d="M268.109 242.014C268.518 238.866 270.749 236.257 273.796 235.366L286.737 231.58L288.912 226.911C291.328 226.928 292.464 226.428 294.353 225.16L301.429 229.829L318.642 238.6C321.418 240.014 323.132 242.913 322.977 246.024C322.242 260.822 320.624 268.897 312.853 282.941C317.206 292.863 318.96 299.155 315.576 302.784C320.343 318.2 313.304 320.413 295.443 320.877C277.589 322.164 272.745 315.8 264.429 303.952L258.988 308.037L262.796 361.149C263.882 365.818 263.188 363.199 264.429 368.153C264.824 371.975 263.31 377.305 261.37 381.963C259.183 387.214 255.305 390.83 249.67 391.611C248.26 391.807 246.464 390.35 247.17 389.113C247.842 387.937 248.404 386.857 248.88 385.78C250.704 381.664 250.208 376.987 249.018 372.646L245.385 359.398C242.238 333.288 243.919 317.279 244.247 292.686C244.298 288.869 246.421 285.239 250.02 283.967C254.192 282.492 257.548 282.283 262.796 282.941L268.109 242.014Z" fill="#C0C0C1"/>
</mask>
<g mask="url(#mask0_7148_546)">
<path d="M222.461 280.242L272.225 225.703C277.251 226.689 280.199 228.907 282.373 231.015C282.93 231.555 283.436 232.088 283.919 232.597L283.975 232.657C284.434 233.142 284.876 233.609 285.311 234.026C286.204 234.884 287.122 235.59 288.225 235.86C288.23 235.862 288.235 235.864 288.241 235.866C288.269 235.875 288.307 235.887 288.358 235.902C288.458 235.931 288.605 235.97 288.802 236.012C289.196 236.097 289.793 236.195 290.627 236.26C292.296 236.39 294.916 236.388 298.771 235.876C299.337 235.801 300.011 235.547 300.747 235.192C301.491 234.834 302.337 234.353 303.253 233.796C304.494 233.04 305.889 232.129 307.361 231.167C308.059 230.71 308.775 230.243 309.5 229.775C311.764 228.313 314.135 226.84 316.417 225.659C318.525 224.568 320.527 223.743 322.278 223.397L360.09 369.987H211.126L222.461 280.242Z" fill="#C03F4D" stroke="#323A45"/>
<rect x="243.206" y="341.305" width="39.1764" height="56.0298" fill="#323A45"/>
<path d="M235.044 275.353C288.5 300.497 315.808 310.052 350.941 303.952L274.22 358.23L245.382 365.234L235.044 275.353Z" fill="#046B99"/>
<path d="M286.878 232.06C287.016 232.019 287.13 231.921 287.191 231.791L289.234 227.402C289.85 227.367 290.601 227.23 291.4 227.035C292.354 226.802 293.41 226.477 294.444 226.114C296.249 225.48 298.035 224.711 299.12 224.078L304.832 231.875C304.877 231.937 304.936 231.988 305.004 232.024L318.472 239.027C321.045 240.364 322.623 243.065 322.48 245.953C322.113 253.355 321.528 259.041 320.074 264.621C318.62 270.199 316.292 275.693 312.415 282.698C312.34 282.835 312.332 282.999 312.395 283.141C314.571 288.101 316.074 292.106 316.623 295.307C317.17 298.5 316.751 300.791 315.21 302.443C315.088 302.575 315.045 302.761 315.098 302.932C316.282 306.76 316.713 309.711 316.456 311.993C316.202 314.249 315.275 315.856 313.696 317.037C312.092 318.235 309.78 319.02 306.713 319.529C303.652 320.037 299.891 320.261 295.43 320.378C295.423 320.378 295.415 320.378 295.407 320.379C286.543 321.018 280.99 319.752 276.632 316.921C272.245 314.072 269.008 309.606 264.838 303.664C264.76 303.554 264.641 303.479 264.507 303.458C264.373 303.437 264.237 303.471 264.128 303.552L258.687 307.637C258.551 307.739 258.477 307.903 258.489 308.073L262.295 361.185C262.309 361.382 262.439 361.553 262.626 361.62C263.43 361.907 263.72 362.136 263.832 362.31C263.93 362.462 263.953 362.663 263.876 363.153C263.858 363.27 263.836 363.395 263.812 363.53C263.641 364.487 263.386 365.919 263.901 368.1L262.346 371.431L260.179 375.505C260.132 375.593 260.112 375.692 260.123 375.791C260.449 378.952 260.399 381.227 259.904 383.272C259.421 385.273 258.503 387.092 257.032 389.33C253.764 390.45 251.409 391 246.338 391.491C249.119 386.956 250.442 384.127 251.318 379.332C251.332 379.252 251.327 379.17 251.303 379.093L245.331 359.877C243.035 340.801 243.571 326.881 244.178 311.088C244.4 305.321 244.632 299.303 244.738 292.694C244.797 289.04 246.824 285.627 250.186 284.438C254.267 282.996 257.541 282.786 262.734 283.437C263.007 283.471 263.257 283.278 263.292 283.005L268.605 242.078C268.988 239.127 271.08 236.681 273.937 235.846L286.878 232.06Z" stroke="#323A45" stroke-linecap="round" stroke-linejoin="round"/>
</g>
<mask id="mask1_7148_546" style="" maskUnits="userSpaceOnUse" x="217" y="278" width="90" height="116">
<path d="M306.323 310.955C296.032 299.037 289.922 292.969 278.573 283.524L267.147 278.855L255.72 284.691C251.691 324.415 249.271 335.095 244.838 345.974C240.484 356.646 238.437 362.424 231.235 374.572C225.901 379.645 222.708 382.879 218.736 387.268C217.227 388.936 217.343 391.694 219.395 392.618C221.446 393.541 223.705 393.594 227.426 392.665L236.132 387.996C239.489 386.196 241.407 382.573 243.05 379.137C244.16 376.814 245.629 374.686 246.471 371.654C250.279 363.483 252.694 361.322 257.897 352.978C269.257 337.953 270.027 326.568 270.412 305.703C278.749 321.871 286.955 322.339 306.323 319.71V310.955Z" fill="#C4C4C4"/>
</mask>
<g mask="url(#mask1_7148_546)">
<rect x="187.706" y="264.264" width="146.911" height="143.576" fill="#046B99"/>
<path d="M193.147 377.491L229.603 371.071L249.735 381.576L259.529 407.84H193.147V377.491Z" fill="#323A45"/>
</g>
<path d="M306.323 310.955C296.032 299.037 289.922 292.969 278.573 283.524L267.147 278.855L255.72 284.691C251.691 324.415 249.271 335.095 244.838 345.974C240.484 356.646 238.437 362.424 231.235 374.572C225.901 379.645 222.708 382.879 218.736 387.268C217.227 388.936 217.343 391.694 219.395 392.618C221.446 393.541 223.705 393.594 227.426 392.665L236.132 387.996V387.996C239.489 386.196 241.407 382.573 243.05 379.137C244.16 376.814 245.629 374.686 246.471 371.654C250.279 363.483 252.694 361.322 257.897 352.978C269.257 337.953 270.027 326.568 270.412 305.703C278.749 321.871 288.043 321.756 307.412 319.126" stroke="#323A45" stroke-linecap="round" stroke-linejoin="round"/>
<path d="M279.662 252.591L278.103 262.286C277.34 267.037 277.73 271.901 279.241 276.469L282.926 287.61" stroke="#323A45" stroke-linecap="round" stroke-linejoin="round"/>
<path d="M279.925 202.568L279.666 202.743L279.711 203.053L280.278 207.006C280.423 208.021 280.552 209.089 280.683 210.182C281.026 213.044 281.391 216.078 282.143 218.791C283.188 222.558 285.02 225.87 288.723 227.374L288.796 227.404L288.875 227.41C290.647 227.539 293.521 226.792 296.357 225.524C299.208 224.251 302.132 222.402 303.983 220.232L304.039 220.166L304.069 220.086C307.955 209.964 305.717 199.83 296.871 191.528L296.579 191.254L296.248 191.479L279.925 202.568Z" fill="#AF813D" stroke="#323A45"/>
<path d="M300.338 277.688C304.949 267.704 307.177 260.92 310.676 247.338H321.559C317.906 268.015 319.034 273.863 306.867 294.03C291.705 294.771 283.574 292.769 269.323 285.275L270.412 277.688C282.1 280.496 288.652 281.178 300.338 277.688Z" fill="#C03F4D"/>
<path d="M310.676 247.338C307.177 260.92 304.949 267.704 300.338 277.688C288.652 281.178 282.1 280.496 270.412 277.688L269.323 285.275C282.179 292.035 290.055 294.327 302.606 294.166C305.27 294.132 307.7 292.664 309.053 290.369C319.153 273.239 320.064 268.108 322.103 247.338" stroke="#323A45"/>
<path d="M288.912 219.547C289.891 219.741 290.902 219.523 291.736 218.938C292.569 218.353 293.16 217.446 293.386 216.405" stroke="#323A45" stroke-linecap="round" stroke-linejoin="round"/>
<path d="M283.47 209.401C284.015 211.152 286.191 211.152 286.735 209.401" stroke="#323A45" stroke-linecap="round" stroke-linejoin="round"/>
<path d="M290 209.401C290.544 211.152 292.72 211.152 293.264 209.401" stroke="#323A45" stroke-linecap="round" stroke-linejoin="round"/>
<path d="M293.264 196.561C285.54 198.091 282.999 200.53 279.659 207.651C277.771 198.47 281.588 192.855 286.735 189.558C291.207 186.976 293.815 186.711 298.705 187.807C303.489 189.762 305.501 194.136 306.867 198.896L310.676 214.071L308.5 223.409C304.691 226.327 304.147 220.491 303.059 231.58L299.25 224.576C301.408 222.647 303.296 220.361 304.048 217.566C305.388 212.588 305.383 206.924 303.602 206.483C301.971 206.079 301.521 206.088 300.848 207.68C300.362 208.831 298.811 209.029 298.152 207.967C295.154 203.135 293.803 200.333 293.264 196.561Z" fill="#323A45"/>
<path d="M279.659 207.651L279.169 207.751L279.472 209.226L280.112 207.863L279.659 207.651ZM293.264 196.561L293.759 196.491L293.684 195.968L293.167 196.071L293.264 196.561ZM298.152 207.967L297.727 208.231L298.152 207.967ZM300.848 207.68L300.387 207.486H300.387L300.848 207.68ZM303.602 206.483L303.482 206.969L303.602 206.483ZM304.048 217.566L304.531 217.696V217.696L304.048 217.566ZM299.25 224.576L298.916 224.204L298.621 224.467L298.811 224.815L299.25 224.576ZM303.059 231.58L302.619 231.819C302.724 232.012 302.943 232.114 303.158 232.07C303.373 232.026 303.535 231.847 303.556 231.629L303.059 231.58ZM308.5 223.409L308.804 223.806L308.946 223.697L308.987 223.522L308.5 223.409ZM310.676 214.071L311.163 214.184L311.191 214.066L311.161 213.949L310.676 214.071ZM286.735 189.558L286.485 189.125L286.475 189.13L286.465 189.137L286.735 189.558ZM298.705 187.807L298.894 187.344L298.855 187.328L298.814 187.319L298.705 187.807ZM306.867 198.896L307.352 198.774L307.35 198.766L307.348 198.758L306.867 198.896ZM280.112 207.863C281.775 204.317 283.208 202.01 285.139 200.393C287.063 198.78 289.534 197.81 293.361 197.052L293.167 196.071C289.27 196.843 286.609 197.857 284.497 199.626C282.391 201.39 280.883 203.864 279.206 207.438L280.112 207.863ZM292.769 196.632C293.323 200.509 294.72 203.383 297.727 208.231L298.577 207.704C295.589 202.886 294.283 200.156 293.759 196.491L292.769 196.632ZM301.308 207.875C301.647 207.073 301.86 206.87 302.042 206.801C302.139 206.764 302.281 206.746 302.523 206.773C302.768 206.8 303.073 206.867 303.482 206.969L303.722 205.998C303.316 205.897 302.952 205.814 302.633 205.779C302.311 205.743 301.992 205.751 301.689 205.865C301.07 206.098 300.721 206.695 300.387 207.486L301.308 207.875ZM303.482 206.969C303.669 207.015 303.923 207.234 304.138 207.863C304.345 208.466 304.468 209.314 304.495 210.337C304.55 212.375 304.224 214.987 303.565 217.436L304.531 217.696C305.211 215.168 305.553 212.459 305.495 210.31C305.466 209.239 305.338 208.277 305.084 207.539C304.84 206.827 304.426 206.172 303.722 205.998L303.482 206.969ZM298.811 224.815L302.619 231.819L303.498 231.341L299.689 224.337L298.811 224.815ZM303.556 231.629C303.828 228.854 304.064 227.174 304.317 226.156C304.579 225.106 304.82 224.943 304.941 224.896C305.029 224.862 305.151 224.848 305.382 224.853C305.589 224.857 305.898 224.876 306.226 224.856C306.927 224.814 307.771 224.597 308.804 223.806L308.196 223.012C307.324 223.68 306.671 223.828 306.166 223.858C305.89 223.875 305.667 223.858 305.401 223.853C305.158 223.848 304.863 223.853 304.577 223.965C303.95 224.209 303.612 224.849 303.347 225.914C303.074 227.012 302.833 228.761 302.561 231.531L303.556 231.629ZM308.987 223.522L311.163 214.184L310.189 213.957L308.013 223.295L308.987 223.522ZM286.465 189.137C283.831 190.824 281.515 193.119 280.105 196.189C278.692 199.263 278.207 203.072 279.169 207.751L280.149 207.55C279.223 203.048 279.702 199.46 281.013 196.606C282.326 193.749 284.492 191.588 287.005 189.979L286.465 189.137ZM286.985 189.991C289.192 188.716 290.898 188.038 292.632 187.798C294.367 187.558 296.174 187.752 298.596 188.295L298.814 187.319C296.346 186.766 294.403 186.544 292.495 186.808C290.583 187.072 288.75 187.817 286.485 189.125L286.985 189.991ZM298.516 188.27C303.072 190.132 305.027 194.299 306.387 199.034L307.348 198.758C305.974 193.973 303.906 189.393 298.894 187.344L298.516 188.27ZM311.161 213.949L307.352 198.774L306.382 199.018L310.191 214.192L311.161 213.949ZM303.565 217.436C302.85 220.096 301.044 222.302 298.916 224.204L299.583 224.949C301.772 222.992 303.742 220.627 304.531 217.696L303.565 217.436ZM297.727 208.231C298.627 209.681 300.685 209.351 301.308 207.875L300.387 207.486C300.038 208.311 298.994 208.377 298.577 207.704L297.727 208.231Z" fill="#323A45"/>
<rect x="64.5" y="277.683" width="296" height="131.837" rx="3.5" fill="#D5EEF5"/>
<rect x="64.5" y="277.683" width="296" height="131.837" rx="3.5" stroke="#212121"/>
<rect x="64.5" y="277.683" width="296" height="131.837" rx="3.5" stroke="black" stroke-opacity="0.2"/>
<path d="M63.7918 82.4418C64.0655 80.746 65.5293 79.4995 67.247 79.4995H357.292C358.995 79.4995 360.45 80.7244 360.741 82.4017L375.294 166.353C375.665 168.493 374.018 170.451 371.846 170.451H53.6973C51.5418 170.451 49.8986 168.521 50.2421 166.394L63.7918 82.4418Z" fill="#044869"/>
<path d="M63.7918 82.4418C64.0655 80.746 65.5293 79.4995 67.247 79.4995H357.292C358.995 79.4995 360.45 80.7244 360.741 82.4017L375.294 166.353C375.665 168.493 374.018 170.451 371.846 170.451H53.6973C51.5418 170.451 49.8986 168.521 50.2421 166.394L63.7918 82.4418Z" stroke="#212121"/>
<path d="M63.7918 82.4418C64.0655 80.746 65.5293 79.4995 67.247 79.4995H357.292C358.995 79.4995 360.45 80.7244 360.741 82.4017L375.294 166.353C375.665 168.493 374.018 170.451 371.846 170.451H53.6973C51.5418 170.451 49.8986 168.521 50.2421 166.394L63.7918 82.4418Z" stroke="black" stroke-opacity="0.2"/>
<rect x="79.5" y="170.557" width="6" height="107.198" fill="#FEDF95"/>
<rect x="79.5" y="170.557" width="6" height="107.198" stroke="#212121"/>
<rect x="79.5" y="170.557" width="6" height="107.198" stroke="black" stroke-opacity="0.2"/>
<rect x="79.1808" y="409.8" width="6.69527" height="19.5681" fill="#8F9399"/>
<rect x="79.1808" y="409.8" width="6.69527" height="19.5681" stroke="#212121"/>
<rect x="79.1808" y="409.8" width="6.69527" height="19.5681" stroke="black" stroke-opacity="0.2"/>
<rect x="339.5" y="170.557" width="7" height="107.198" fill="#FEDF95"/>
<rect x="339.5" y="170.557" width="7" height="107.198" stroke="#212121"/>
<rect x="339.5" y="170.557" width="7" height="107.198" stroke="black" stroke-opacity="0.2"/>
<rect x="339.721" y="409.8" width="6.69527" height="19.5681" fill="#8F9399"/>
<rect x="339.721" y="409.8" width="6.69527" height="19.5681" stroke="#212121"/>
<rect x="339.721" y="409.8" width="6.69527" height="19.5681" stroke="black" stroke-opacity="0.2"/>
<path d="M364.378 429.092L409.652 429.092" stroke="#323A45" stroke-linecap="round" stroke-linejoin="round"/>
<path d="M51.6285 429.091H356.931" stroke="#323A45" stroke-linecap="round" stroke-linejoin="round"/>
<path d="M0 429.091L44.6784 429.091" stroke="#323A45" stroke-linecap="round" stroke-linejoin="round"/>
<path d="M378.726 434.591L424 434.591" stroke="#323A45" stroke-linecap="round" stroke-linejoin="round"/>
<path d="M65.9767 434.59H371.279" stroke="#323A45" stroke-linecap="round" stroke-linejoin="round"/>
<path d="M14.3481 434.59L59.0266 434.59" stroke="#323A45" stroke-linecap="round" stroke-linejoin="round"/>
<path d="M118.456 40.6662C118.456 47.8139 112.772 53.5922 105.78 53.5922C98.7886 53.5922 93.1049 47.8139 93.1049 40.6662C93.1049 33.5185 98.7886 27.7402 105.78 27.7402C112.772 27.7402 118.456 33.5185 118.456 40.6662Z" fill="#FDB714"/>
<path d="M118.456 40.6662C118.456 47.8139 112.772 53.5922 105.78 53.5922C98.7886 53.5922 93.1049 47.8139 93.1049 40.6662C93.1049 33.5185 98.7886 27.7402 105.78 27.7402C112.772 27.7402 118.456 33.5185 118.456 40.6662Z" stroke="#212121"/>
<path d="M118.456 40.6662C118.456 47.8139 112.772 53.5922 105.78 53.5922C98.7886 53.5922 93.1049 47.8139 93.1049 40.6662C93.1049 33.5185 98.7886 27.7402 105.78 27.7402C112.772 27.7402 118.456 33.5185 118.456 40.6662Z" stroke="black" stroke-opacity="0.2"/>
<path d="M100.198 39.0769L100.154 39.0585L100.107 39.0488C100.084 39.0439 100.033 39.0183 99.993 38.935C99.9538 38.853 99.9492 38.7588 99.9781 38.6835L99.9879 38.6577L99.9949 38.631C100.681 35.9998 103.042 34.0964 105.769 34.0964C107.363 34.0964 108.879 34.7299 110.019 35.9226L110.751 36.6882L110.877 35.6364L110.958 34.9585C110.983 34.8137 111.05 34.7117 111.116 34.6556C111.182 34.5997 111.234 34.5958 111.267 34.6025L111.275 34.6042L111.283 34.6057C111.556 34.6532 111.639 34.861 111.619 34.9664L111.615 34.9853L111.613 35.0044L111.289 37.8816C111.24 38.0305 111.197 38.1157 111.139 38.1891C111.039 38.2387 110.977 38.26 110.895 38.2628L108.227 38.0092C107.967 37.9564 107.888 37.7548 107.907 37.6515L107.909 37.6439L107.91 37.6363C107.934 37.4871 108.002 37.3822 108.069 37.3251C108.135 37.2691 108.188 37.2653 108.22 37.272L108.249 37.2781L108.279 37.2807L109.267 37.3668L110.82 37.5021L109.635 36.4888L109.622 36.4774C108.71 35.6968 107.683 34.8187 105.769 34.8187C103.219 34.8187 101.233 36.5368 100.517 38.7835L100.505 38.8195L100.5 38.8567C100.465 39.0729 100.293 39.1167 100.198 39.0769Z" fill="#212121"/>
<path d="M100.198 39.0769L100.154 39.0585L100.107 39.0488C100.084 39.0439 100.033 39.0183 99.993 38.935C99.9538 38.853 99.9492 38.7588 99.9781 38.6835L99.9879 38.6577L99.9949 38.631C100.681 35.9998 103.042 34.0964 105.769 34.0964C107.363 34.0964 108.879 34.7299 110.019 35.9226L110.751 36.6882L110.877 35.6364L110.958 34.9585C110.983 34.8137 111.05 34.7117 111.116 34.6556C111.182 34.5997 111.234 34.5958 111.267 34.6025L111.275 34.6042L111.283 34.6057C111.556 34.6532 111.639 34.861 111.619 34.9664L111.615 34.9853L111.613 35.0044L111.289 37.8816C111.24 38.0305 111.197 38.1157 111.139 38.1891C111.039 38.2387 110.977 38.26 110.895 38.2628L108.227 38.0092C107.967 37.9564 107.888 37.7548 107.907 37.6515L107.909 37.6439L107.91 37.6363C107.934 37.4871 108.002 37.3822 108.069 37.3251C108.135 37.2691 108.188 37.2653 108.22 37.272L108.249 37.2781L108.279 37.2807L109.267 37.3668L110.82 37.5021L109.635 36.4888L109.622 36.4774C108.71 35.6968 107.683 34.8187 105.769 34.8187C103.219 34.8187 101.233 36.5368 100.517 38.7835L100.505 38.8195L100.5 38.8567C100.465 39.0729 100.293 39.1167 100.198 39.0769Z" fill="black" fill-opacity="0.2"/>
<path d="M100.198 39.0769L100.154 39.0585L100.107 39.0488C100.084 39.0439 100.033 39.0183 99.993 38.935C99.9538 38.853 99.9492 38.7588 99.9781 38.6835L99.9879 38.6577L99.9949 38.631C100.681 35.9998 103.042 34.0964 105.769 34.0964C107.363 34.0964 108.879 34.7299 110.019 35.9226L110.751 36.6882L110.877 35.6364L110.958 34.9585C110.983 34.8137 111.05 34.7117 111.116 34.6556C111.182 34.5997 111.234 34.5958 111.267 34.6025L111.275 34.6042L111.283 34.6057C111.556 34.6532 111.639 34.861 111.619 34.9664L111.615 34.9853L111.613 35.0044L111.289 37.8816C111.24 38.0305 111.197 38.1157 111.139 38.1891C111.039 38.2387 110.977 38.26 110.895 38.2628L108.227 38.0092C107.967 37.9564 107.888 37.7548 107.907 37.6515L107.909 37.6439L107.91 37.6363C107.934 37.4871 108.002 37.3822 108.069 37.3251C108.135 37.2691 108.188 37.2653 108.22 37.272L108.249 37.2781L108.279 37.2807L109.267 37.3668L110.82 37.5021L109.635 36.4888L109.622 36.4774C108.71 35.6968 107.683 34.8187 105.769 34.8187C103.219 34.8187 101.233 36.5368 100.517 38.7835L100.505 38.8195L100.5 38.8567C100.465 39.0729 100.293 39.1167 100.198 39.0769Z" stroke="#212121"/>
<path d="M100.198 39.0769L100.154 39.0585L100.107 39.0488C100.084 39.0439 100.033 39.0183 99.993 38.935C99.9538 38.853 99.9492 38.7588 99.9781 38.6835L99.9879 38.6577L99.9949 38.631C100.681 35.9998 103.042 34.0964 105.769 34.0964C107.363 34.0964 108.879 34.7299 110.019 35.9226L110.751 36.6882L110.877 35.6364L110.958 34.9585C110.983 34.8137 111.05 34.7117 111.116 34.6556C111.182 34.5997 111.234 34.5958 111.267 34.6025L111.275 34.6042L111.283 34.6057C111.556 34.6532 111.639 34.861 111.619 34.9664L111.615 34.9853L111.613 35.0044L111.289 37.8816C111.24 38.0305 111.197 38.1157 111.139 38.1891C111.039 38.2387 110.977 38.26 110.895 38.2628L108.227 38.0092C107.967 37.9564 107.888 37.7548 107.907 37.6515L107.909 37.6439L107.91 37.6363C107.934 37.4871 108.002 37.3822 108.069 37.3251C108.135 37.2691 108.188 37.2653 108.22 37.272L108.249 37.2781L108.279 37.2807L109.267 37.3668L110.82 37.5021L109.635 36.4888L109.622 36.4774C108.71 35.6968 107.683 34.8187 105.769 34.8187C103.219 34.8187 101.233 36.5368 100.517 38.7835L100.505 38.8195L100.5 38.8567C100.465 39.0729 100.293 39.1167 100.198 39.0769Z" stroke="black" stroke-opacity="0.2"/>
<path d="M111.339 41.8936L111.383 41.9119L111.43 41.9217C111.453 41.9266 111.504 41.9521 111.544 42.0355C111.583 42.1175 111.588 42.2117 111.559 42.287L111.549 42.3128L111.542 42.3395C110.855 44.9744 108.573 46.874 105.768 46.874C104.175 46.874 102.658 46.2406 101.518 45.0479L100.786 44.2823L100.66 45.3341L100.579 46.012C100.554 46.1567 100.487 46.2588 100.421 46.3149C100.355 46.3708 100.303 46.3746 100.271 46.3679L100.262 46.3662L100.254 46.3648C99.9815 46.3173 99.8981 46.1095 99.9183 46.004L99.9219 45.9851L99.924 45.966L100.248 43.0889C100.311 42.9009 100.362 42.8144 100.447 42.7251C100.452 42.7205 100.455 42.7176 100.457 42.7157C100.465 42.714 100.482 42.7111 100.517 42.7093C100.55 42.7077 100.587 42.7074 100.639 42.7073L103.31 42.9613C103.57 43.014 103.65 43.2156 103.63 43.3189L103.628 43.3265L103.627 43.3342C103.603 43.4834 103.535 43.5882 103.468 43.6454C103.402 43.7013 103.35 43.7052 103.317 43.6985L103.288 43.6924L103.258 43.6898L102.27 43.6037L100.835 43.4786L101.884 44.4659C102.744 45.2749 103.85 46.1518 105.768 46.1518C108.319 46.1518 110.304 44.4336 111.02 42.1869L111.032 42.151L111.038 42.1138C111.072 41.8976 111.244 41.8538 111.339 41.8936Z" fill="#212121"/>
<path d="M111.339 41.8936L111.383 41.9119L111.43 41.9217C111.453 41.9266 111.504 41.9521 111.544 42.0355C111.583 42.1175 111.588 42.2117 111.559 42.287L111.549 42.3128L111.542 42.3395C110.855 44.9744 108.573 46.874 105.768 46.874C104.175 46.874 102.658 46.2406 101.518 45.0479L100.786 44.2823L100.66 45.3341L100.579 46.012C100.554 46.1567 100.487 46.2588 100.421 46.3149C100.355 46.3708 100.303 46.3746 100.271 46.3679L100.262 46.3662L100.254 46.3648C99.9815 46.3173 99.8981 46.1095 99.9183 46.004L99.9219 45.9851L99.924 45.966L100.248 43.0889C100.311 42.9009 100.362 42.8144 100.447 42.7251C100.452 42.7205 100.455 42.7176 100.457 42.7157C100.465 42.714 100.482 42.7111 100.517 42.7093C100.55 42.7077 100.587 42.7074 100.639 42.7073L103.31 42.9613C103.57 43.014 103.65 43.2156 103.63 43.3189L103.628 43.3265L103.627 43.3342C103.603 43.4834 103.535 43.5882 103.468 43.6454C103.402 43.7013 103.35 43.7052 103.317 43.6985L103.288 43.6924L103.258 43.6898L102.27 43.6037L100.835 43.4786L101.884 44.4659C102.744 45.2749 103.85 46.1518 105.768 46.1518C108.319 46.1518 110.304 44.4336 111.02 42.1869L111.032 42.151L111.038 42.1138C111.072 41.8976 111.244 41.8538 111.339 41.8936Z" fill="black" fill-opacity="0.2"/>
<path d="M111.339 41.8936L111.383 41.9119L111.43 41.9217C111.453 41.9266 111.504 41.9521 111.544 42.0355C111.583 42.1175 111.588 42.2117 111.559 42.287L111.549 42.3128L111.542 42.3395C110.855 44.9744 108.573 46.874 105.768 46.874C104.175 46.874 102.658 46.2406 101.518 45.0479L100.786 44.2823L100.66 45.3341L100.579 46.012C100.554 46.1567 100.487 46.2588 100.421 46.3149C100.355 46.3708 100.303 46.3746 100.271 46.3679L100.262 46.3662L100.254 46.3648C99.9815 46.3173 99.8981 46.1095 99.9183 46.004L99.9219 45.9851L99.924 45.966L100.248 43.0889C100.311 42.9009 100.362 42.8144 100.447 42.7251C100.452 42.7205 100.455 42.7176 100.457 42.7157C100.465 42.714 100.482 42.7111 100.517 42.7093C100.55 42.7077 100.587 42.7074 100.639 42.7073L103.31 42.9613C103.57 43.014 103.65 43.2156 103.63 43.3189L103.628 43.3265L103.627 43.3342C103.603 43.4834 103.535 43.5882 103.468 43.6454C103.402 43.7013 103.35 43.7052 103.317 43.6985L103.288 43.6924L103.258 43.6898L102.27 43.6037L100.835 43.4786L101.884 44.4659C102.744 45.2749 103.85 46.1518 105.768 46.1518C108.319 46.1518 110.304 44.4336 111.02 42.1869L111.032 42.151L111.038 42.1138C111.072 41.8976 111.244 41.8538 111.339 41.8936Z" stroke="#212121"/>
<path d="M111.339 41.8936L111.383 41.9119L111.43 41.9217C111.453 41.9266 111.504 41.9521 111.544 42.0355C111.583 42.1175 111.588 42.2117 111.559 42.287L111.549 42.3128L111.542 42.3395C110.855 44.9744 108.573 46.874 105.768 46.874C104.175 46.874 102.658 46.2406 101.518 45.0479L100.786 44.2823L100.66 45.3341L100.579 46.012C100.554 46.1567 100.487 46.2588 100.421 46.3149C100.355 46.3708 100.303 46.3746 100.271 46.3679L100.262 46.3662L100.254 46.3648C99.9815 46.3173 99.8981 46.1095 99.9183 46.004L99.9219 45.9851L99.924 45.966L100.248 43.0889C100.311 42.9009 100.362 42.8144 100.447 42.7251C100.452 42.7205 100.455 42.7176 100.457 42.7157C100.465 42.714 100.482 42.7111 100.517 42.7093C100.55 42.7077 100.587 42.7074 100.639 42.7073L103.31 42.9613C103.57 43.014 103.65 43.2156 103.63 43.3189L103.628 43.3265L103.627 43.3342C103.603 43.4834 103.535 43.5882 103.468 43.6454C103.402 43.7013 103.35 43.7052 103.317 43.6985L103.288 43.6924L103.258 43.6898L102.27 43.6037L100.835 43.4786L101.884 44.4659C102.744 45.2749 103.85 46.1518 105.768 46.1518C108.319 46.1518 110.304 44.4336 111.02 42.1869L111.032 42.151L111.038 42.1138C111.072 41.8976 111.244 41.8538 111.339 41.8936Z" stroke="black" stroke-opacity="0.2"/>
<line x1="106.159" y1="24.9504" x2="106.159" y2="20.5798" stroke="#212121" stroke-linecap="round" stroke-linejoin="round"/>
<line x1="106.159" y1="24.9504" x2="106.159" y2="20.5798" stroke="black" stroke-opacity="0.2" stroke-linecap="round" stroke-linejoin="round"/>
<line x1="121.229" y1="41.7944" x2="125.5" y2="41.7944" stroke="#212121" stroke-linecap="round" stroke-linejoin="round"/>
<line x1="121.229" y1="41.7944" x2="125.5" y2="41.7944" stroke="black" stroke-opacity="0.2" stroke-linecap="round" stroke-linejoin="round"/>
<line x1="0.5" y1="-0.5" x2="4.82415" y2="-0.5" transform="matrix(0.675101 -0.737725 0.724909 0.688845 117.179 30.8323)" stroke="#212121" stroke-linecap="round" stroke-linejoin="round"/>
<line x1="0.5" y1="-0.5" x2="4.82415" y2="-0.5" transform="matrix(0.675101 -0.737725 0.724909 0.688845 117.179 30.8323)" stroke="black" stroke-opacity="0.2" stroke-linecap="round" stroke-linejoin="round"/>
<line x1="0.5" y1="-0.5" x2="4.87066" y2="-0.5" transform="matrix(3.74492e-08 -1 -1 -5.10267e-08 105.341 25.4504)" stroke="#212121" stroke-linecap="round" stroke-linejoin="round"/>
<line x1="0.5" y1="-0.5" x2="4.87066" y2="-0.5" transform="matrix(3.74492e-08 -1 -1 -5.10267e-08 105.341 25.4504)" stroke="black" stroke-opacity="0.2" stroke-linecap="round" stroke-linejoin="round"/>
<line x1="0.5" y1="-0.5" x2="4.77012" y2="-0.5" transform="matrix(-1 0 0 1 91.27 42.2944)" stroke="#212121" stroke-linecap="round" stroke-linejoin="round"/>
<line x1="0.5" y1="-0.5" x2="4.77012" y2="-0.5" transform="matrix(-1 0 0 1 91.27 42.2944)" stroke="black" stroke-opacity="0.2" stroke-linecap="round" stroke-linejoin="round"/>
<line x1="0.5" y1="-0.5" x2="4.82414" y2="-0.5" transform="matrix(-0.675099 -0.737727 -0.724907 0.688846 94.822 30.8323)" stroke="#212121" stroke-linecap="round" stroke-linejoin="round"/>
<line x1="0.5" y1="-0.5" x2="4.82414" y2="-0.5" transform="matrix(-0.675099 -0.737727 -0.724907 0.688846 94.822 30.8323)" stroke="black" stroke-opacity="0.2" stroke-linecap="round" stroke-linejoin="round"/>
<line x1="0.5" y1="-0.5" x2="4.87066" y2="-0.5" transform="matrix(-3.74492e-08 1 1 5.10267e-08 106.659 57.8516)" stroke="#212121" stroke-linecap="round" stroke-linejoin="round"/>
<line x1="0.5" y1="-0.5" x2="4.87066" y2="-0.5" transform="matrix(-3.74492e-08 1 1 5.10267e-08 106.659 57.8516)" stroke="black" stroke-opacity="0.2" stroke-linecap="round" stroke-linejoin="round"/>
<line x1="0.5" y1="-0.5" x2="4.77014" y2="-0.5" transform="matrix(1 0 0 -1 120.73 41.0073)" stroke="#212121" stroke-linecap="round" stroke-linejoin="round"/>
<line x1="0.5" y1="-0.5" x2="4.77014" y2="-0.5" transform="matrix(1 0 0 -1 120.73 41.0073)" stroke="black" stroke-opacity="0.2" stroke-linecap="round" stroke-linejoin="round"/>
<line x1="0.5" y1="-0.5" x2="4.82415" y2="-0.5" transform="matrix(0.675101 0.737725 0.724909 -0.688845 117.179 52.4695)" stroke="#212121" stroke-linecap="round" stroke-linejoin="round"/>
<line x1="0.5" y1="-0.5" x2="4.82415" y2="-0.5" transform="matrix(0.675101 0.737725 0.724909 -0.688845 117.179 52.4695)" stroke="black" stroke-opacity="0.2" stroke-linecap="round" stroke-linejoin="round"/>
<line x1="105.842" y1="58.3516" x2="105.842" y2="62.7222" stroke="#212121" stroke-linecap="round" stroke-linejoin="round"/>
<line x1="105.842" y1="58.3516" x2="105.842" y2="62.7222" stroke="black" stroke-opacity="0.2" stroke-linecap="round" stroke-linejoin="round"/>
<line x1="90.7711" y1="41.5073" x2="86.501" y2="41.5073" stroke="#212121" stroke-linecap="round" stroke-linejoin="round"/>
<line x1="90.7711" y1="41.5073" x2="86.501" y2="41.5073" stroke="black" stroke-opacity="0.2" stroke-linecap="round" stroke-linejoin="round"/>
<line x1="0.5" y1="-0.5" x2="4.82414" y2="-0.5" transform="matrix(-0.675099 0.737727 -0.724907 -0.688846 94.8224 52.4695)" stroke="#212121" stroke-linecap="round" stroke-linejoin="round"/>
<line x1="0.5" y1="-0.5" x2="4.82414" y2="-0.5" transform="matrix(-0.675099 0.737727 -0.724907 -0.688846 94.8224 52.4695)" stroke="black" stroke-opacity="0.2" stroke-linecap="round" stroke-linejoin="round"/>
<path d="M380.415 482.826C380.415 488.973 375.461 493.952 369.355 493.952C363.25 493.952 358.295 488.973 358.295 482.826C358.295 476.679 363.25 471.701 369.355 471.701C375.461 471.701 380.415 476.679 380.415 482.826Z" fill="#FDB714"/>
<path d="M380.415 482.826C380.415 488.973 375.461 493.952 369.355 493.952C363.25 493.952 358.295 488.973 358.295 482.826C358.295 476.679 363.25 471.701 369.355 471.701C375.461 471.701 380.415 476.679 380.415 482.826Z" stroke="#212121"/>
<path d="M380.415 482.826C380.415 488.973 375.461 493.952 369.355 493.952C363.25 493.952 358.295 488.973 358.295 482.826C358.295 476.679 363.25 471.701 369.355 471.701C375.461 471.701 380.415 476.679 380.415 482.826Z" stroke="black" stroke-opacity="0.2"/>
<path d="M363.945 483.619L367.361 487.054L369.988 484.412L371.302 483.091L371.958 482.43L372.615 481.77L375.242 479.127" stroke="#212121" stroke-linecap="round" stroke-linejoin="round"/>
<path d="M363.945 483.619L367.361 487.054L369.988 484.412L371.302 483.091L371.958 482.43L372.615 481.77L375.242 479.127" stroke="black" stroke-opacity="0.2" stroke-linecap="round" stroke-linejoin="round"/>
<line x1="369.63" y1="469.151" x2="369.63" y2="465.5" stroke="#212121" stroke-linecap="round" stroke-linejoin="round"/>
<line x1="369.63" y1="469.151" x2="369.63" y2="465.5" stroke="black" stroke-opacity="0.2" stroke-linecap="round" stroke-linejoin="round"/>
<line x1="382.975" y1="483.736" x2="386.599" y2="483.736" stroke="#212121" stroke-linecap="round" stroke-linejoin="round"/>
<line x1="382.975" y1="483.736" x2="386.599" y2="483.736" stroke="black" stroke-opacity="0.2" stroke-linecap="round" stroke-linejoin="round"/>
<line x1="0.5" y1="-0.5" x2="4.13813" y2="-0.5" transform="matrix(0.679938 -0.733269 0.729432 0.684054 379.359 474.311)" stroke="#212121" stroke-linecap="round" stroke-linejoin="round"/>
<line x1="0.5" y1="-0.5" x2="4.13813" y2="-0.5" transform="matrix(0.679938 -0.733269 0.729432 0.684054 379.359 474.311)" stroke="black" stroke-opacity="0.2" stroke-linecap="round" stroke-linejoin="round"/>
<line x1="0.5" y1="-0.5" x2="4.15038" y2="-0.5" transform="matrix(3.99438e-08 -1 -1 -4.78399e-08 368.971 469.65)" stroke="#212121" stroke-linecap="round" stroke-linejoin="round"/>
<line x1="0.5" y1="-0.5" x2="4.15038" y2="-0.5" transform="matrix(3.99438e-08 -1 -1 -4.78399e-08 368.971 469.65)" stroke="black" stroke-opacity="0.2" stroke-linecap="round" stroke-linejoin="round"/>
<line x1="0.5" y1="-0.5" x2="4.124" y2="-0.5" transform="matrix(-1 0 0 1 356.626 484.236)" stroke="#212121" stroke-linecap="round" stroke-linejoin="round"/>
<line x1="0.5" y1="-0.5" x2="4.124" y2="-0.5" transform="matrix(-1 0 0 1 356.626 484.236)" stroke="black" stroke-opacity="0.2" stroke-linecap="round" stroke-linejoin="round"/>
<line x1="0.5" y1="-0.5" x2="4.13813" y2="-0.5" transform="matrix(-0.679938 -0.733269 -0.729432 0.684054 359.741 474.311)" stroke="#212121" stroke-linecap="round" stroke-linejoin="round"/>
<line x1="0.5" y1="-0.5" x2="4.13813" y2="-0.5" transform="matrix(-0.679938 -0.733269 -0.729432 0.684054 359.741 474.311)" stroke="black" stroke-opacity="0.2" stroke-linecap="round" stroke-linejoin="round"/>
<line x1="0.5" y1="-0.5" x2="4.15038" y2="-0.5" transform="matrix(-3.99438e-08 1 1 4.78399e-08 370.129 497.707)" stroke="#212121" stroke-linecap="round" stroke-linejoin="round"/>
<line x1="0.5" y1="-0.5" x2="4.15038" y2="-0.5" transform="matrix(-3.99438e-08 1 1 4.78399e-08 370.129 497.707)" stroke="black" stroke-opacity="0.2" stroke-linecap="round" stroke-linejoin="round"/>
<line x1="0.5" y1="-0.5" x2="4.12398" y2="-0.5" transform="matrix(1 0 0 -1 382.474 483.121)" stroke="#212121" stroke-linecap="round" stroke-linejoin="round"/>
<line x1="0.5" y1="-0.5" x2="4.12398" y2="-0.5" transform="matrix(1 0 0 -1 382.474 483.121)" stroke="black" stroke-opacity="0.2" stroke-linecap="round" stroke-linejoin="round"/>
<line x1="0.5" y1="-0.5" x2="4.13813" y2="-0.5" transform="matrix(0.679938 0.733269 0.729432 -0.684054 379.359 493.046)" stroke="#212121" stroke-linecap="round" stroke-linejoin="round"/>
<line x1="0.5" y1="-0.5" x2="4.13813" y2="-0.5" transform="matrix(0.679938 0.733269 0.729432 -0.684054 379.359 493.046)" stroke="black" stroke-opacity="0.2" stroke-linecap="round" stroke-linejoin="round"/>
<line x1="356.124" y1="483.621" x2="352.5" y2="483.621" stroke="#212121" stroke-linecap="round" stroke-linejoin="round"/>
<line x1="356.124" y1="483.621" x2="352.5" y2="483.621" stroke="black" stroke-opacity="0.2" stroke-linecap="round" stroke-linejoin="round"/>
<line x1="0.5" y1="-0.5" x2="4.13814" y2="-0.5" transform="matrix(-0.679918 0.733288 -0.729412 -0.684074 359.74 493.046)" stroke="#212121" stroke-linecap="round" stroke-linejoin="round"/>
<line x1="0.5" y1="-0.5" x2="4.13814" y2="-0.5" transform="matrix(-0.679918 0.733288 -0.729412 -0.684074 359.74 493.046)" stroke="black" stroke-opacity="0.2" stroke-linecap="round" stroke-linejoin="round"/>
<rect x="96.5" y="186.329" width="143" height="59" rx="4.5" fill="white"/>
<rect x="96.5" y="186.329" width="143" height="59" rx="4.5" stroke="#212121"/>
<rect x="96.5" y="186.329" width="143" height="59" rx="4.5" stroke="black" stroke-opacity="0.2"/>
<path d="M138.455 200.349C138.095 199.909 137.515 199.489 136.755 199.489C136.435 199.489 136.235 199.629 136.235 199.849C136.235 200.149 136.495 200.789 136.495 202.809C136.495 205.349 136.115 207.629 136.115 209.229C136.115 210.649 136.475 211.009 137.055 211.009C137.475 211.009 137.975 210.809 137.975 210.529C137.975 210.329 137.575 209.969 137.575 208.309C137.575 206.729 137.855 204.529 137.935 202.849C139.355 205.089 140.615 208.329 141.695 210.029C142.155 210.749 142.555 210.949 143.135 210.949C143.475 210.949 143.895 210.729 143.895 210.349C143.895 210.129 143.715 209.529 143.715 208.089C143.715 205.889 144.195 202.409 144.195 201.169C144.195 200.229 143.935 199.489 142.855 199.489C142.475 199.489 142.035 199.609 142.035 199.829C142.035 200.109 142.635 200.629 142.635 203.049C142.635 205.029 142.435 206.509 142.395 207.949C141.255 205.749 139.515 201.649 138.455 200.349ZM148.282 211.069C150.342 211.069 151.062 209.469 151.062 208.969C151.062 208.489 150.782 208.429 150.762 208.429C150.602 208.429 150.162 209.889 148.602 209.889C147.482 209.889 147.002 209.029 146.842 208.129C148.522 208.049 151.022 207.449 151.022 205.389C151.022 204.129 150.022 203.429 148.902 203.429C146.902 203.429 145.262 205.389 145.262 207.769C145.262 209.689 146.342 211.069 148.282 211.069ZM148.682 204.509C149.242 204.509 149.642 204.909 149.642 205.509C149.642 206.529 148.402 207.209 146.802 207.309C146.882 205.709 147.782 204.509 148.682 204.509ZM158.085 204.309C158.085 203.829 157.565 203.429 157.025 203.429C156.785 203.429 156.525 203.509 156.525 203.629C156.525 203.689 156.545 203.749 156.545 203.849C156.545 204.529 155.945 205.369 155.185 206.229C154.565 204.869 153.865 203.569 152.725 203.569C152.325 203.569 151.905 203.849 151.905 204.089C151.905 204.289 152.065 204.229 152.405 204.569C152.645 204.809 152.965 205.269 153.365 205.969C153.625 206.469 153.845 206.949 154.045 207.449C152.925 208.589 151.865 209.649 151.865 210.329C151.865 210.929 152.505 211.049 152.945 211.049C153.185 211.049 153.285 210.969 153.285 210.889C153.285 210.829 153.265 210.789 153.265 210.609C153.265 210.049 153.785 209.289 154.485 208.489C154.965 209.509 155.865 211.069 157.185 211.069C157.845 211.069 158.385 210.449 158.385 209.989C158.385 209.749 158.305 209.609 158.205 209.609C158.145 209.609 158.025 209.689 157.865 209.689C157.045 209.689 156.285 208.669 155.645 207.269C156.865 206.049 158.085 204.889 158.085 204.309ZM158.976 204.029C158.896 204.089 158.816 204.149 158.816 204.289C158.816 204.509 159.076 204.849 159.616 204.989C159.496 205.909 159.396 207.029 159.396 208.089C159.396 210.049 160.196 211.049 161.556 211.049C162.676 211.049 163.276 210.269 163.276 209.649C163.276 209.489 163.236 209.269 163.056 209.269C162.896 209.269 162.696 209.869 161.996 209.869C161.136 209.869 160.876 209.109 160.876 207.849C160.876 207.009 160.976 205.949 161.096 205.089C162.316 205.089 163.376 204.929 163.376 204.149C163.376 203.809 163.236 203.449 163.016 203.449C162.916 203.449 162.336 203.789 161.336 203.889C161.516 202.969 161.816 202.169 161.816 201.669C161.816 201.249 161.236 200.729 160.876 200.729C160.736 200.729 160.616 200.909 160.576 201.149C160.396 202.229 159.676 203.569 158.976 204.029ZM168.344 206.289C167.624 206.289 166.784 207.009 166.784 208.249C166.784 209.809 168.084 211.129 170.384 211.129C172.964 211.129 174.324 209.449 174.324 207.629C174.324 204.029 169.104 204.349 169.104 202.069C169.104 201.349 169.664 200.669 170.684 200.669C171.824 200.669 172.464 201.469 172.584 202.489C172.604 202.649 172.704 202.769 172.824 202.769C173.424 202.769 173.984 202.489 173.984 201.649C173.984 200.509 172.784 199.489 171.004 199.489C169.164 199.489 167.624 200.669 167.624 202.489C167.624 205.889 172.764 205.509 172.764 208.189C172.764 209.289 171.904 209.969 170.764 209.969C169.504 209.969 168.584 209.129 168.584 207.869C168.584 207.049 168.984 206.869 168.984 206.669C168.984 206.489 168.744 206.289 168.344 206.289ZM175.265 204.029C175.185 204.089 175.105 204.149 175.105 204.289C175.105 204.509 175.365 204.849 175.905 204.989C175.785 205.909 175.685 207.029 175.685 208.089C175.685 210.049 176.485 211.049 177.845 211.049C178.965 211.049 179.565 210.269 179.565 209.649C179.565 209.489 179.525 209.269 179.345 209.269C179.185 209.269 178.985 209.869 178.285 209.869C177.425 209.869 177.165 209.109 177.165 207.849C177.165 207.009 177.265 205.949 177.385 205.089C178.605 205.089 179.665 204.929 179.665 204.149C179.665 203.809 179.525 203.449 179.305 203.449C179.205 203.449 178.625 203.789 177.625 203.889C177.805 202.969 178.105 202.169 178.105 201.669C178.105 201.249 177.525 200.729 177.165 200.729C177.025 200.729 176.905 200.909 176.865 201.149C176.685 202.229 175.965 203.569 175.265 204.029ZM183.349 203.429C181.569 203.429 180.009 205.329 180.009 207.749C180.009 209.809 181.229 211.089 182.889 211.089C184.869 211.089 186.209 209.289 186.209 206.749C186.209 205.109 185.469 204.069 184.609 203.849C184.309 203.569 183.849 203.429 183.349 203.429ZM184.809 207.029C184.809 208.669 184.129 209.949 183.149 209.949C182.189 209.949 181.609 208.889 181.609 207.589C181.609 205.929 182.389 204.449 183.289 204.449C184.049 204.449 183.949 205.369 184.249 205.369C184.309 205.369 184.409 205.349 184.509 205.309C184.689 205.789 184.809 206.389 184.809 207.029ZM190.163 211.029C192.103 211.029 193.543 208.849 193.543 206.469C193.543 204.409 192.403 203.429 191.263 203.429C190.323 203.429 189.483 204.009 188.883 204.929C188.683 204.169 188.143 203.609 187.583 203.609C187.363 203.609 187.243 203.709 187.243 203.889C187.243 204.089 187.543 204.289 187.543 205.369C187.543 209.969 186.883 211.909 186.883 213.809C186.883 214.549 187.283 215.129 188.263 215.129C188.663 215.129 188.863 214.949 188.863 214.769C188.863 214.569 188.523 214.469 188.523 212.949C188.523 211.929 188.583 211.209 188.623 210.449C188.963 210.809 189.483 211.029 190.163 211.029ZM189.083 208.429C189.083 208.189 189.083 208.089 188.943 208.089H188.903C189.103 206.149 190.003 204.729 190.923 204.729C191.603 204.729 192.063 205.449 192.063 206.809C192.063 208.389 191.343 209.969 190.183 209.969C189.623 209.969 189.083 209.289 189.083 208.429ZM197.064 205.029C197.064 204.389 196.664 204.029 196.104 204.029C195.424 204.029 194.944 204.629 194.944 205.309C194.944 205.809 195.264 206.229 195.864 206.229C196.464 206.229 197.064 205.749 197.064 205.029ZM196.864 209.729C196.864 209.089 196.464 208.729 195.904 208.729C195.224 208.729 194.744 209.329 194.744 210.009C194.744 210.509 195.064 210.929 195.664 210.929C196.264 210.929 196.864 210.449 196.864 209.729ZM121.491 220.909C121.491 221.449 121.651 222.209 121.651 223.609C121.651 225.329 121.311 227.709 121.311 229.289C121.311 230.709 122.671 231.069 124.491 231.069C127.071 231.069 128.851 229.629 128.851 227.449C128.851 226.049 127.911 225.269 126.871 224.849C127.791 224.269 128.471 223.409 128.471 222.229C128.471 220.109 126.591 219.489 125.051 219.489C122.791 219.489 121.491 220.089 121.491 220.909ZM124.711 224.429C124.011 224.429 123.571 224.529 123.331 224.669C123.391 223.849 123.451 223.049 123.451 222.329C123.451 221.849 123.431 221.369 123.391 220.909C123.731 220.769 124.191 220.669 124.731 220.669C125.911 220.669 126.811 221.229 126.811 222.469C126.811 223.489 126.211 224.129 125.411 224.489C125.151 224.449 124.911 224.429 124.711 224.429ZM123.951 225.669C124.371 225.669 124.811 225.609 125.251 225.509C126.271 225.789 127.031 226.549 127.031 227.709C127.031 229.229 125.931 229.949 124.491 229.949C123.991 229.949 123.491 229.849 123.031 229.649C123.011 229.529 123.011 229.369 123.011 229.169C123.011 228.109 123.131 226.809 123.251 225.509C123.471 225.629 123.771 225.669 123.951 225.669ZM132.677 231.069C134.737 231.069 135.457 229.469 135.457 228.969C135.457 228.489 135.177 228.429 135.157 228.429C134.997 228.429 134.557 229.889 132.997 229.889C131.877 229.889 131.397 229.029 131.237 228.129C132.917 228.049 135.417 227.449 135.417 225.389C135.417 224.129 134.417 223.429 133.297 223.429C131.297 223.429 129.657 225.389 129.657 227.769C129.657 229.689 130.737 231.069 132.677 231.069ZM133.077 224.509C133.637 224.509 134.037 224.909 134.037 225.509C134.037 226.529 132.797 227.209 131.197 227.309C131.277 225.709 132.177 224.509 133.077 224.509ZM142.98 223.849C143.24 222.389 143.44 221.809 143.44 221.569C143.44 221.149 142.86 220.729 142.5 220.729C142.36 220.729 142.16 220.869 142.06 221.089C141.84 221.609 141.56 223.329 141.44 224.069C141.12 224.089 140.78 224.089 140.4 224.089C139.88 224.089 139.28 224.069 138.64 224.029C138.82 223.109 139.16 222.169 139.16 221.669C139.16 221.249 138.58 220.729 138.22 220.729C138.08 220.729 137.96 220.909 137.92 221.149C137.74 222.229 137.02 223.569 136.32 224.029C136.24 224.089 136.16 224.149 136.16 224.289C136.16 224.509 136.42 224.869 136.96 225.009C136.84 225.909 136.74 227.049 136.74 228.089C136.74 230.049 137.54 231.049 138.9 231.049C140.02 231.049 140.62 230.269 140.62 229.649C140.62 229.489 140.58 229.269 140.4 229.269C140.24 229.269 140.04 229.869 139.34 229.869C138.48 229.869 138.22 229.109 138.22 227.849C138.22 227.009 138.32 225.949 138.44 225.109C139.56 225.169 140.5 225.209 141.28 225.209C141.16 226.089 141.08 227.129 141.08 228.089C141.08 230.049 141.88 231.049 143.24 231.049C144.36 231.049 144.96 230.269 144.96 229.649C144.96 229.489 144.92 229.269 144.74 229.269C144.58 229.269 144.38 229.869 143.68 229.869C142.82 229.869 142.56 229.109 142.56 227.849C142.56 227.029 142.66 226.009 142.78 225.169C144.64 225.049 145.06 224.669 145.06 224.149C145.06 223.809 144.92 223.449 144.7 223.449C144.64 223.449 144.12 223.729 142.96 223.909L142.98 223.849ZM148.419 231.069C150.479 231.069 151.199 229.469 151.199 228.969C151.199 228.489 150.919 228.429 150.899 228.429C150.739 228.429 150.299 229.889 148.739 229.889C147.619 229.889 147.139 229.029 146.979 228.129C148.659 228.049 151.159 227.449 151.159 225.389C151.159 224.129 150.159 223.429 149.039 223.429C147.039 223.429 145.399 225.389 145.399 227.769C145.399 229.689 146.479 231.069 148.419 231.069ZM148.819 224.509C149.379 224.509 149.779 224.909 149.779 225.509C149.779 226.529 148.539 227.209 146.939 227.309C147.019 225.709 147.919 224.509 148.819 224.509ZM152.762 223.609C152.502 223.609 152.322 223.709 152.322 223.889C152.322 224.209 152.622 224.449 152.622 225.469C152.622 226.309 152.262 228.509 152.262 229.369C152.262 230.449 152.902 231.049 153.502 231.049C153.802 231.049 154.002 230.889 154.002 230.609C154.002 230.449 153.902 230.049 153.902 229.469C153.902 226.909 155.002 224.869 155.882 224.869C156.162 224.869 156.322 225.109 156.322 225.469C156.322 225.669 156.262 225.809 156.262 225.969C156.262 226.129 156.422 226.249 156.662 226.249C157.242 226.249 157.942 225.729 157.942 224.829C157.942 223.989 157.342 223.429 156.502 223.429C155.362 223.429 154.622 224.469 154.122 225.629C154.022 224.369 153.462 223.609 152.762 223.609ZM164.435 226.689C167.195 226.689 169.675 225.509 169.675 222.649C169.675 220.689 167.915 219.489 165.855 219.489C164.415 219.489 162.135 219.969 162.135 221.049C162.135 221.369 162.315 221.909 162.315 223.749C162.315 225.729 161.955 227.569 161.955 229.169C161.955 230.389 162.455 231.009 163.095 231.009C163.555 231.009 164.035 230.769 164.035 230.509C164.035 230.289 163.735 230.169 163.735 228.629C163.735 228.069 163.775 227.369 163.835 226.609C164.075 226.669 164.315 226.689 164.435 226.689ZM165.375 220.709C167.155 220.709 167.875 221.729 167.875 222.969C167.875 224.669 166.395 225.569 164.555 225.569C164.315 225.569 164.115 225.589 163.935 225.589C164.035 224.489 164.135 223.349 164.135 222.369C164.135 221.749 164.115 221.289 164.055 220.949C164.475 220.809 164.915 220.709 165.375 220.709ZM170.946 223.609C170.686 223.609 170.506 223.709 170.506 223.889C170.506 224.209 170.806 224.449 170.806 225.469C170.806 226.309 170.446 228.509 170.446 229.369C170.446 230.449 171.086 231.049 171.686 231.049C171.986 231.049 172.186 230.889 172.186 230.609C172.186 230.449 172.086 230.049 172.086 229.469C172.086 226.909 173.186 224.869 174.066 224.869C174.346 224.869 174.506 225.109 174.506 225.469C174.506 225.669 174.446 225.809 174.446 225.969C174.446 226.129 174.606 226.249 174.846 226.249C175.426 226.249 176.126 225.729 176.126 224.829C176.126 223.989 175.526 223.429 174.686 223.429C173.546 223.429 172.806 224.469 172.306 225.629C172.206 224.369 171.646 223.609 170.946 223.609ZM179.716 223.429C177.936 223.429 176.376 225.329 176.376 227.749C176.376 229.809 177.596 231.089 179.256 231.089C181.236 231.089 182.576 229.289 182.576 226.749C182.576 225.109 181.836 224.069 180.976 223.849C180.676 223.569 180.216 223.429 179.716 223.429ZM181.176 227.029C181.176 228.669 180.496 229.949 179.516 229.949C178.556 229.949 177.976 228.889 177.976 227.589C177.976 225.929 178.756 224.449 179.656 224.449C180.416 224.449 180.316 225.369 180.616 225.369C180.676 225.369 180.776 225.349 180.876 225.309C181.056 225.789 181.176 226.389 181.176 227.029ZM189.188 227.989C189.188 225.409 189.888 222.789 189.888 220.549C189.888 219.529 189.388 218.769 188.268 218.769C187.948 218.769 187.728 218.889 187.728 219.109C187.728 219.369 188.168 219.669 188.168 222.669C188.168 223.049 188.148 223.429 188.128 223.789C187.828 223.569 187.408 223.429 186.908 223.429C185.088 223.429 183.348 225.509 183.348 228.089C183.348 230.189 184.608 231.029 185.788 231.029C186.808 231.029 187.468 230.569 187.908 229.869C188.128 230.529 188.628 230.989 189.388 230.989C189.828 230.989 190.148 230.769 190.148 230.489C190.148 230.249 189.188 230.249 189.188 227.989ZM187.628 225.269C187.628 225.809 187.468 225.929 187.468 226.109C187.468 226.309 187.648 226.429 187.908 226.429C187.808 228.769 187.008 229.829 186.168 229.829C185.468 229.829 184.868 229.109 184.868 227.789C184.868 226.049 185.808 224.509 186.828 224.509C187.308 224.509 187.628 224.809 187.628 225.269ZM195.112 227.529C195.112 227.869 195.112 228.189 195.132 228.469C194.792 229.289 194.192 229.829 193.592 229.829C192.852 229.829 192.592 229.209 192.592 228.409C192.592 227.449 192.992 225.969 192.992 225.109C192.992 224.389 192.572 223.589 191.552 223.589C191.212 223.589 190.992 223.749 190.992 223.929C190.992 224.069 191.352 224.309 191.352 225.429C191.352 226.369 191.052 227.829 191.052 228.689C191.052 230.069 191.692 231.049 193.252 231.049C194.172 231.049 194.892 230.449 195.392 229.749C195.692 230.649 196.232 230.989 196.892 230.989C197.312 230.989 197.612 230.809 197.612 230.569C197.612 230.329 196.572 230.129 196.552 227.849C196.552 227.849 197.052 226.609 197.052 225.129C197.052 224.169 196.612 223.589 196.092 223.589C195.772 223.589 195.472 223.949 195.292 224.789C195.172 225.429 195.112 226.309 195.112 227.529ZM201.653 224.569C202.313 224.569 202.713 225.069 202.793 225.969C202.793 226.069 202.893 226.129 202.993 226.129C203.493 226.129 204.033 225.709 204.033 225.089C204.033 224.189 203.173 223.429 201.853 223.429C200.073 223.429 198.173 225.149 198.173 227.769C198.173 229.609 199.233 231.069 201.193 231.069C203.253 231.069 203.973 229.489 203.973 228.969C203.973 228.509 203.713 228.429 203.653 228.429C203.533 228.429 203.033 229.909 201.513 229.909C200.393 229.909 199.713 228.849 199.713 227.529C199.713 225.829 200.613 224.569 201.653 224.569ZM204.836 224.029C204.756 224.089 204.676 224.149 204.676 224.289C204.676 224.509 204.936 224.849 205.476 224.989C205.356 225.909 205.256 227.029 205.256 228.089C205.256 230.049 206.056 231.049 207.416 231.049C208.536 231.049 209.136 230.269 209.136 229.649C209.136 229.489 209.096 229.269 208.916 229.269C208.756 229.269 208.556 229.869 207.856 229.869C206.996 229.869 206.736 229.109 206.736 227.849C206.736 227.009 206.836 225.949 206.956 225.089C208.176 225.089 209.236 224.929 209.236 224.149C209.236 223.809 209.096 223.449 208.876 223.449C208.776 223.449 208.196 223.789 207.196 223.889C207.376 222.969 207.676 222.169 207.676 221.669C207.676 221.249 207.096 220.729 206.736 220.729C206.596 220.729 206.476 220.909 206.436 221.149C206.256 222.229 205.536 223.569 204.836 224.029ZM210.756 227.849C210.236 227.849 209.676 228.309 209.676 228.969C209.676 230.149 210.656 231.069 212.316 231.069C214.076 231.069 215.076 230.049 215.076 228.749C215.076 226.289 211.556 226.569 211.556 225.209C211.556 224.769 211.936 224.449 212.436 224.449C212.956 224.449 213.656 224.869 213.716 225.749C213.736 225.829 213.836 225.869 213.896 225.869C214.296 225.869 214.756 225.549 214.756 224.989C214.756 224.009 213.676 223.429 212.656 223.429C211.116 223.429 210.216 224.409 210.216 225.489C210.216 227.809 213.636 227.429 213.636 229.049C213.636 229.589 213.216 230.009 212.516 230.009C211.596 230.009 210.996 229.309 210.996 228.429C210.996 228.229 211.036 228.129 211.036 228.029C211.036 227.909 210.936 227.849 210.756 227.849Z" fill="#313336"/>
<path d="M155.773 186.179L167.5 171.471L179.227 186.179H155.773Z" stroke="#212121" stroke-width="0.8"/>
<path d="M155.773 186.179L167.5 171.471L179.227 186.179H155.773Z" stroke="black" stroke-opacity="0.2" stroke-width="0.8"/>
</g>
<defs>
<clipPath id="clip0_7148_546">
<rect width="424" height="502" fill="white"/>
</clipPath>
</defs>
</svg>
