<svg fill="none" viewBox="0 0 358 360" xmlns="http://www.w3.org/2000/svg" xmlns:xlink="http://www.w3.org/1999/xlink"><mask id="a" height="360" maskUnits="userSpaceOnUse" width="358" x="0" y="0"><path d="m358 179.45c0 204.74-79.99 178.66-178.66 178.66s-178.66-80.01-178.66-178.66c0-98.67 80-178.66 178.66-178.66 98.67.01 178.66 79.99 178.66 178.66z" fill="#e4f3f3"/></mask><mask id="b" height="105" maskUnits="userSpaceOnUse" width="105" x="85" y="110"><rect fill="#dcf4f3" height="103.86" rx="12.79" width="103.86" x="85.81" y="110.57"/></mask><circle cx="179.34" cy="179.45" fill="#e4f3f3" r="178.66"/><path d="m46.44 328h263.2m-278.84 10.43h307.52" stroke="#7790a3" stroke-linecap="round" stroke-linejoin="round" stroke-width="2.84"/><g mask="url(#a)"><path d="m-97.43 186.06h411.37v109.86h-102.84v-76.9h-308.54z" fill="#8fc1bf"/><path d="m86.44 306.94h-226.6l73.24-272.24h237.7c38.18 0 57.84 8.82 84.7 17.9 14.23.97 20.27 3.08 29.23 8.31 18.28 10.68 39.58 66.68 39.58 151v55.58l6.86 4.84a12.36 12.36 0 0 1 5.27 11.54c-1 8.15-2.73 13.46-8.35 19.29-5.3 3.15-8.95 3.78-17.27 3.78h-117.98s9.2-78.4-52.94-78.4-53.44 78.4-53.44 78.4z" fill="#e5e9ec"/><path d="m-101.1 261.75h175.8c-4.68 16.68-6.44 26.22-6.1 43.94h-169.7z" fill="#fab34d"/><path d="m-51.04 34.7h239.86c.06 19.44-21.1 25.92-92.16 30.51h-147.7z" fill="#fff" opacity=".8"/><rect fill="#7790a3" height="103.86" rx="12.79" width="152.25" x="-77.53" y="110.57"/><g fill="#323a45" opacity=".2"><circle cx="2.19" cy="116.48" r="1.22"/><circle cx="2.19" cy="125.53" r="1.22"/><circle cx="2.19" cy="134.57" r="1.22"/><circle cx="2.19" cy="143.61" r="1.22"/><circle cx="2.19" cy="152.65" r="1.22"/><circle cx="2.19" cy="161.69" r="1.22"/><circle cx="2.19" cy="170.73" r="1.22"/><circle cx="2.19" cy="179.78" r="1.22"/><circle cx="2.19" cy="188.82" r="1.22"/><circle cx="2.19" cy="197.86" r="1.22"/><circle cx="2.19" cy="206.4" r="1.22"/><circle cx="12.24" cy="116.48" r="1.22"/><circle cx="12.24" cy="125.53" r="1.22"/><circle cx="12.24" cy="134.57" r="1.22"/><circle cx="12.24" cy="143.61" r="1.22"/><circle cx="12.24" cy="152.65" r="1.22"/><circle cx="12.24" cy="161.69" r="1.22"/><circle cx="12.24" cy="170.73" r="1.22"/><circle cx="12.24" cy="179.78" r="1.22"/><circle cx="12.24" cy="188.82" r="1.22"/><circle cx="12.24" cy="197.86" r="1.22"/><circle cx="12.23" cy="206.4" r="1.22"/><circle cx="22.28" cy="116.48" r="1.22"/><circle cx="22.28" cy="125.53" r="1.22"/><circle cx="22.28" cy="134.57" r="1.22"/><circle cx="22.28" cy="143.61" r="1.22"/><circle cx="22.28" cy="152.65" r="1.22"/><circle cx="22.28" cy="161.69" r="1.22"/><circle cx="22.28" cy="170.73" r="1.22"/><circle cx="22.28" cy="179.78" r="1.22"/><circle cx="22.28" cy="188.82" r="1.22"/><circle cx="22.28" cy="197.86" r="1.22"/><circle cx="22.28" cy="206.4" r="1.22"/><circle cx="32.33" cy="116.48" r="1.22"/><circle cx="32.33" cy="125.53" r="1.22"/><circle cx="32.33" cy="134.57" r="1.22"/><circle cx="32.33" cy="143.61" r="1.22"/><circle cx="32.33" cy="152.65" r="1.22"/><circle cx="32.33" cy="161.69" r="1.22"/><circle cx="32.33" cy="170.73" r="1.22"/><circle cx="32.33" cy="179.78" r="1.22"/><circle cx="32.33" cy="188.82" r="1.22"/><circle cx="32.33" cy="197.86" r="1.22"/><circle cx="32.33" cy="206.4" r="1.22"/><circle cx="42.37" cy="116.48" r="1.22"/><circle cx="53.36" cy="116.48" r="1.22"/><circle cx="64.35" cy="116.48" r="1.22"/><circle cx="64.35" cy="125.03" r="1.22"/><circle cx="64.35" cy="134.79" r="1.22"/><circle cx="42.37" cy="125.53" r="1.22"/><circle cx="42.37" cy="134.57" r="1.22"/><circle cx="42.37" cy="143.61" r="1.22"/><circle cx="53.36" cy="143.61" r="1.22"/><circle cx="64.35" cy="143.61" r="1.22"/><circle cx="42.37" cy="152.65" r="1.22"/><circle cx="53.36" cy="152.65" r="1.22"/><circle cx="64.35" cy="152.65" r="1.22"/><circle cx="42.37" cy="161.69" r="1.22"/><circle cx="53.36" cy="161.69" r="1.22"/><circle cx="64.35" cy="161.69" r="1.22"/><circle cx="42.37" cy="170.73" r="1.22"/><circle cx="53.36" cy="170.73" r="1.22"/><circle cx="64.35" cy="170.73" r="1.22"/><circle cx="42.37" cy="179.78" r="1.22"/><circle cx="53.36" cy="179.78" r="1.22"/><circle cx="64.35" cy="179.78" r="1.22"/><circle cx="42.37" cy="188.82" r="1.22"/><circle cx="53.36" cy="188.82" r="1.22"/><circle cx="64.35" cy="188.82" r="1.22"/><circle cx="42.37" cy="197.86" r="1.22"/><circle cx="42.37" cy="206.4" r="1.22"/><circle cx="53.36" cy="197.86" r="1.22"/><circle cx="53.36" cy="206.4" r="1.22"/><circle cx="64.35" cy="197.86" r="1.22"/><circle cx="64.35" cy="206.4" r="1.22"/></g><rect fill="#7790a3" height="103.86" rx="12.79" width="103.86" x="85.81" y="110.57"/><g fill="#323a45" mask="url(#b)" opacity=".2"><circle cx="94.22" cy="116.48" r="1.22"/><circle cx="94.22" cy="125.52" r="1.22"/><circle cx="94.22" cy="134.57" r="1.22"/><circle cx="94.22" cy="143.61" r="1.22"/><circle cx="94.22" cy="152.65" r="1.22"/><circle cx="94.22" cy="161.69" r="1.22"/><circle cx="94.22" cy="170.73" r="1.22"/><circle cx="94.22" cy="179.77" r="1.22"/><circle cx="94.22" cy="188.82" r="1.22"/><circle cx="94.22" cy="197.86" r="1.22"/><circle cx="94.22" cy="206.4" r="1.22"/><circle cx="104.26" cy="116.48" r="1.22"/><circle cx="104.26" cy="125.52" r="1.22"/><circle cx="104.26" cy="134.57" r="1.22"/><circle cx="104.26" cy="143.61" r="1.22"/><circle cx="104.26" cy="152.65" r="1.22"/><circle cx="104.26" cy="161.69" r="1.22"/><circle cx="104.26" cy="170.73" r="1.22"/><circle cx="104.26" cy="179.77" r="1.22"/><circle cx="104.26" cy="188.82" r="1.22"/><circle cx="104.26" cy="197.86" r="1.22"/><circle cx="104.26" cy="206.4" r="1.22"/><circle cx="114.31" cy="116.48" r="1.22"/><circle cx="114.31" cy="125.52" r="1.22"/><circle cx="114.31" cy="134.57" r="1.22"/><circle cx="114.31" cy="143.61" r="1.22"/><circle cx="114.31" cy="152.65" r="1.22"/><circle cx="114.31" cy="161.69" r="1.22"/><circle cx="114.31" cy="170.73" r="1.22"/><circle cx="114.31" cy="179.77" r="1.22"/><circle cx="114.31" cy="188.82" r="1.22"/><circle cx="114.31" cy="197.86" r="1.22"/><circle cx="114.31" cy="206.4" r="1.22"/><circle cx="124.36" cy="116.48" r="1.22"/><circle cx="124.36" cy="125.52" r="1.22"/><circle cx="124.36" cy="134.57" r="1.22"/><circle cx="124.36" cy="143.61" r="1.22"/><circle cx="124.36" cy="152.65" r="1.22"/><circle cx="124.36" cy="161.69" r="1.22"/><circle cx="124.36" cy="170.73" r="1.22"/><circle cx="124.36" cy="179.77" r="1.22"/><circle cx="124.36" cy="188.82" r="1.22"/><circle cx="124.36" cy="197.86" r="1.22"/><circle cx="124.35" cy="206.4" r="1.22"/><circle cx="134.4" cy="116.48" r="1.22"/><circle cx="134.4" cy="125.52" r="1.22"/><circle cx="134.4" cy="134.57" r="1.22"/><circle cx="134.4" cy="143.61" r="1.22"/><circle cx="134.4" cy="152.65" r="1.22"/><circle cx="134.4" cy="161.69" r="1.22"/><circle cx="134.4" cy="170.73" r="1.22"/><circle cx="134.4" cy="179.77" r="1.22"/><circle cx="134.4" cy="188.82" r="1.22"/><circle cx="134.4" cy="197.86" r="1.22"/><circle cx="134.4" cy="206.4" r="1.22"/><circle cx="144.45" cy="116.48" r="1.22"/><circle cx="144.45" cy="125.52" r="1.22"/><circle cx="144.45" cy="134.57" r="1.22"/><circle cx="144.45" cy="143.61" r="1.22"/><circle cx="144.45" cy="152.65" r="1.22"/><circle cx="144.45" cy="161.69" r="1.22"/><circle cx="144.45" cy="170.73" r="1.22"/><circle cx="144.45" cy="179.77" r="1.22"/><circle cx="144.45" cy="188.82" r="1.22"/><circle cx="144.45" cy="197.86" r="1.22"/><circle cx="144.45" cy="206.4" r="1.22"/><circle cx="154.49" cy="116.48" r="1.22"/><circle cx="154.49" cy="125.52" r="1.22"/><circle cx="154.49" cy="134.57" r="1.22"/><circle cx="154.49" cy="143.61" r="1.22"/><circle cx="154.49" cy="152.65" r="1.22"/><circle cx="154.49" cy="161.69" r="1.22"/><circle cx="154.49" cy="170.73" r="1.22"/><circle cx="154.49" cy="179.77" r="1.22"/><circle cx="154.49" cy="188.82" r="1.22"/><circle cx="154.49" cy="197.86" r="1.22"/><circle cx="154.49" cy="206.4" r="1.22"/><circle cx="164.54" cy="116.48" r="1.22"/><circle cx="164.54" cy="125.52" r="1.22"/><circle cx="164.54" cy="134.57" r="1.22"/><circle cx="164.54" cy="143.61" r="1.22"/><circle cx="164.54" cy="152.65" r="1.22"/><circle cx="164.54" cy="161.69" r="1.22"/><circle cx="164.54" cy="170.73" r="1.22"/><circle cx="164.54" cy="179.77" r="1.22"/><circle cx="164.54" cy="188.82" r="1.22"/><circle cx="164.54" cy="197.86" r="1.22"/><circle cx="164.54" cy="206.4" r="1.22"/><circle cx="174.59" cy="116.48" r="1.22"/><circle cx="174.59" cy="125.52" r="1.22"/><circle cx="174.59" cy="134.57" r="1.22"/><circle cx="174.59" cy="143.61" r="1.22"/><circle cx="174.59" cy="152.65" r="1.22"/><circle cx="174.59" cy="161.69" r="1.22"/><circle cx="174.59" cy="170.73" r="1.22"/><circle cx="174.59" cy="179.77" r="1.22"/><circle cx="174.59" cy="188.82" r="1.22"/><circle cx="174.59" cy="197.86" r="1.22"/><circle cx="174.59" cy="206.4" r="1.22"/><circle cx="184.63" cy="116.48" r="1.22"/><circle cx="184.63" cy="125.52" r="1.22"/><circle cx="184.63" cy="134.57" r="1.22"/><circle cx="184.63" cy="143.61" r="1.22"/><circle cx="184.63" cy="152.65" r="1.22"/><circle cx="184.63" cy="161.69" r="1.22"/><circle cx="184.63" cy="170.73" r="1.22"/><circle cx="184.63" cy="179.77" r="1.22"/><circle cx="184.63" cy="188.82" r="1.22"/><circle cx="184.63" cy="197.86" r="1.22"/><circle cx="184.63" cy="206.4" r="1.22"/></g><path d="m-127.95 306.94h214.4s-8.7-78.4 53.44-78.4c62.13 0 52.93 78.4 52.93 78.4h117.98c8.32 0 11.98-.63 17.27-3.78 5.62-5.83 7.34-11.14 8.35-19.29a12.36 12.36 0 0 0 -5.27-11.54l-6.86-4.84v-55.58c0-84.32-21.3-140.32-39.58-151-8.96-5.23-15-7.34-29.24-8.32-26.84-9.07-46.5-17.9-84.7-17.9h-244.57" stroke="#323a45" stroke-width="1.5"/><path d="m314.2 306.94v-34.03a4.26 4.26 0 0 1 3.88-4.25l6.2-.54" stroke="#323a45" stroke-width="1.5"/><path d="m314.2 306.9c6.03-.2 9.35-1.06 13.86-3.74 5.31-5.51 7.14-10.55 8.18-17.96.74-5.32-1.8-10.54-6.2-13.64l-5.76-4.07-5.48 1.11c-2.6.23-4.6 2.4-4.6 5.02z" fill="#404853"/><g stroke="#323a45"><path d="m314.2 306.9c6.03-.2 9.35-1.06 13.86-3.74 5.31-5.51 7.14-10.55 8.18-17.96.74-5.32-1.8-10.54-6.2-13.64l-5.76-4.07-5.48 1.11c-2.6.23-4.6 2.4-4.6 5.02zm0 0v.04h-3.4c1.22 0 2.35-.01 3.4-.05z" stroke-width="1.5"/><path d="m316.73 235.12c2.25-2.38 4.61-1.8 7.53.83v22.89c-5.9-4.6-11.7-17.44-7.53-23.72z" fill="#fff" stroke-width="1.5"/><rect height="102.36" rx="12.04" stroke-width="1.5" width="102.36" x="86.56" y="111.32"/><rect height="102.36" rx="12.04" stroke-width="1.5" width="150.75" x="-76.78" y="111.32"/><path d="m-77.53 146.25h152.26m11.13.75h102.97" opacity=".5" stroke-width="1.5"/><circle cx="138.88" cy="281.36" fill="#323a45" r="41.47" stroke-width="1.5"/></g><circle cx="138.87" cy="281.36" fill="#747c87" r="29.11"/><g fill="#323a45"><circle cx="139" cy="257.03" r="2.77"/><circle cx="115.06" cy="281.48" r="2.77"/><circle cx="118.08" cy="269.38" r="2.77"/><circle cx="126.91" cy="260.31" r="2.77"/><circle r="2.77" transform="matrix(-1 0 0 1 162.95 281.48)"/><circle r="2.77" transform="matrix(-1 0 0 1 159.93 269.38)"/><circle r="2.77" transform="matrix(-1 0 0 1 151.1 260.3)"/><circle r="2.77" transform="matrix(1 0 0 -1 139 305.93)"/><circle r="2.77" transform="matrix(1 0 0 -1 118.08 293.58)"/><circle r="2.77" transform="matrix(1 0 0 -1 126.9 302.66)"/><circle cx="159.93" cy="293.58" r="2.77" transform="matrix(-1 0 0 -1 319.86 587.16)"/><circle cx="151.1" cy="302.66" r="2.77" transform="matrix(-1 0 0 -1 302.2 605.32)"/></g><circle cx="138.77" cy="281.89" fill="#404853" r="18.17" stroke="#323a45" stroke-width="1.5"/><path d="m295.98 297.87h-80.78a10.66 10.66 0 0 1 -10.66-10.66v-167.62c0-5.88 4.77-10.66 10.66-10.66h70.29c4.88 0 9.14 3.3 10.3 8.04 6.38 25.85 10.84 49.49 10.84 91.79v78.45c0 5.88-4.77 10.66-10.66 10.66z" stroke="#7790a3" stroke-width="1.5"/><path d="m214.37 134.74c0-3 0-5.19.2-6.88.2-1.67.58-2.76 1.28-3.6.26-.32.55-.6.87-.87.84-.7 1.93-1.08 3.6-1.28 1.69-.2 3.88-.2 6.88-.2h5.35c3 0 5.2 0 6.88.2s2.76.58 3.6 1.28c.32.26.61.55.87.87.7.84 1.08 1.93 1.28 3.6.2 1.7.2 3.88.2 6.88v137.44c0 3 0 5.2-.2 6.88s-.58 2.76-1.28 3.6c-.26.32-.55.61-.86.87-.85.7-1.93 1.09-3.6 1.28-1.7.2-3.88.2-6.89.2h-5.35c-3 0-5.2 0-6.88-.2-1.67-.2-2.76-.58-3.6-1.28-.32-.26-.6-.55-.87-.86-.7-.85-1.08-1.93-1.28-3.6-.2-1.7-.2-3.88-.2-6.89zm50.66 0c0-3 0-5.19.2-6.88.2-1.67.59-2.76 1.29-3.6.26-.32.55-.6.86-.87.85-.7 1.93-1.08 3.6-1.28 1.7-.2 3.88-.2 6.89-.2h1.61c3.84 0 5.48.02 6.97.9.23.15.56.37.77.55 1.35 1.1 1.85 2.39 2.99 5.46 5.63 15.26 6.6 35.34 6.6 59.4v83.96c0 3 0 5.2-.2 6.88s-.59 2.76-1.29 3.6c-.26.32-.55.61-.86.87-.85.7-1.93 1.09-3.6 1.28-1.7.2-3.88.2-6.89.2h-6.1c-3 0-5.2 0-6.88-.2s-2.76-.58-3.6-1.28a6.5 6.5 0 0 1 -.87-.86c-.7-.85-1.09-1.93-1.28-3.6-.2-1.7-.2-3.88-.2-6.89z" fill="#7790a3" stroke="#323a45" stroke-width="1.5"/><path d="m-63.04 65.45h145.45c30 0 60.63-3.02 100.83-11.1 27.61-5.53 72.1-1.5 72.1-1.5" stroke="#838c98" stroke-width="1.5"/><path d="m265.62 71.75h-257.06c1 15.25-1.82 21.47-8.44 31.51h287.7c2.25 0 3.8-2.28 2.95-4.38-6.18-15.33-8.63-18.75-18.32-25.12-2.03-1.33-4.41-2-6.83-2z" fill="#fab34d"/><path d="m-64.68 71.75h330.3c2.42 0 4.8.67 6.82 2.02 9.89 6.63 13.62 11.55 18.6 25.27a3.16 3.16 0 0 1 -2.99 4.22h-361.17" stroke="#b17114" stroke-width="1.5"/><path d="m85.81 261.31h-200.9" opacity=".5" stroke="#323a45" stroke-width="1.5"/><path d="m296.72 74.15c-2.52 6.3-1.68 9.14 0 16.38 11.8 42.47 15.91 65.95 21.93 107.64a11.08 11.08 0 0 0 5.68 7.18" stroke="#323a45" stroke-width="1.5"/><path d="m296.78 74.09c-2.46 6.14-1.78 9.05-.18 15.9l.13.54c11.8 42.47 15.9 65.95 21.93 107.64.74 3.24 3.09 5.86 5.58 7.14-.84-62.67-13.5-108.87-27.46-131.22z" fill="#404853"/><path d="m296.73 90.53c11.8 42.47 15.9 65.95 21.93 107.64.74 3.24 3.09 5.86 5.58 7.14m-27.51-114.78-.13-.54m.13.54-.13-.54m27.64 115.32c-.84-62.67-13.5-108.87-27.46-131.22-2.46 6.14-1.78 9.05-.18 15.9m27.64 115.32c.03.01-.03-.02 0 0z" stroke="#323a45" stroke-width="1.5"/><path d="m255.96 108.8v189.2" stroke="#7790a3" stroke-width="1.5"/></g></svg>
