<svg width="357" height="357" viewBox="0 0 357 357" fill="none" xmlns="http://www.w3.org/2000/svg">
<path d="M155.5 15.5H43.3571C42.6076 15.5 42 16.1076 42 16.8571C42 18.0467 40.1146 18.2701 39.4109 19.2293C39.3696 19.2855 39.3288 19.3474 39.2883 19.4151C39.0751 19.7707 39.0972 20.2168 39.2968 20.5802C39.8715 21.627 40.5443 22.4244 41.5109 23.2306C43.0343 24.5014 44.3763 26.0035 45.0729 27.8609L45.7044 29.5451C46.5548 31.8128 46.8287 34.2563 46.5015 36.656L45.8117 41.7142C45.6073 43.2135 44.7325 44.7319 44.2915 46.1794C43.4085 49.0775 44.7995 52.1894 43.6391 54.988L38.5575 67.2437C37.5656 69.6358 37.7503 72.1612 38.4226 74.6619C39.1231 77.2673 40.2719 79.9056 42.2781 81.7095C43.895 83.1634 45.2688 84.6687 47 87L50.0031 90.2533C51.9461 92.3582 53.018 95.2418 53.7258 98.0175C54.4225 100.75 54.409 103.433 53.9621 106.217C53.1988 110.971 54.2775 114.152 55.9071 118.256C56.593 119.983 56.1092 121.874 55.9163 123.722C55.7951 124.882 56.4206 125.959 57.2088 126.819L61.5 131.5C67.4286 137.678 70.8897 141.724 75.6938 149.151C76.809 150.875 76.5178 153.015 76.0068 155.004C75.9368 155.277 75.889 155.548 75.8619 155.826C75.7307 157.173 76.7938 158.43 78.1464 158.432C79.6213 158.434 81.1262 158.704 82.106 159.807L83.2332 161.075C84.0601 162.005 85.1862 162.587 86.268 163.202C86.7205 163.46 87.1112 163.765 87.4675 164.137C89.2383 165.986 89.0375 168.844 88.9597 171.403C88.9482 171.78 88.9472 172.166 88.9541 172.577C88.9699 173.523 89.1092 174.464 89.3261 175.386L90.4792 180.287C90.8256 181.759 91.2826 183.211 91.9891 184.549C93.5047 187.418 94.8572 188.679 97 190.5L99.9437 192.708C101.925 194.194 103.36 196.294 104.023 198.681L105.157 202.767C105.373 203.544 105.216 204.378 104.732 205.024C104.268 205.642 104.104 206.435 104.283 207.187L105.696 213.123C106.225 215.347 107.105 217.478 108.847 218.958C111.032 220.816 113.096 222.911 114.663 225.314C116.126 227.558 117.826 229.566 120.283 232.205C121.085 233.066 121.749 234.047 122.235 235.118L123.263 237.378C123.736 238.419 124.593 239.237 125.654 239.662C126.212 239.885 126.719 240.219 127.144 240.644L131.522 245.022C131.836 245.336 132.22 245.573 132.642 245.714C133.995 246.165 134.81 247.542 134.555 248.946L134.298 250.36C134.106 251.419 134.249 252.556 134.991 253.335C135.394 253.759 135.869 254.153 136.484 254.617C136.824 254.874 137.203 255.076 137.602 255.226C139.6 255.975 140.835 257.986 140.599 260.107L140.578 260.299C140.526 260.764 140.541 261.234 140.623 261.695L141.247 265.233C141.743 268.044 140.785 271.16 142.012 273.737C142.36 274.469 142.951 275.171 143.84 275.95C144.266 276.323 144.644 276.753 144.926 277.245C145.869 278.895 147.75 279.751 149.626 279.45C153.61 278.81 156.669 278.698 160.81 280.137C162.287 280.651 163.776 281.151 165.317 281.413L165.508 281.445C171.233 282.41 176.712 285.007 180.553 289.36C181.506 290.44 182.535 291.515 183.814 292.178C184.676 292.626 185.545 292.912 186.602 293.147C187.856 293.426 189.146 293.5 190.431 293.5H196.848C198.247 293.5 199.657 293.887 200.688 294.832C201.317 295.409 201.855 296.049 202.414 296.96C202.799 297.588 202.746 298.381 202.338 298.993C202.118 299.324 202 299.712 202 300.11V300.475C202 301.44 202.382 302.413 203.126 303.029C203.503 303.341 203.95 303.569 204.993 303.803C205.635 303.948 206.305 303.796 206.853 303.431C207.275 303.15 207.771 303 208.278 303H209.094C210.326 303 211.518 303.432 212.464 304.22L226 315.5C228.806 318.213 230.503 319.993 233.07 327.248C233.709 329.056 233.89 330.983 233.933 332.9C233.987 335.267 234.432 336.788 235.864 338.016C236.252 338.35 236.556 338.781 236.657 339.284C236.852 340.26 237.751 340.933 238.743 340.845L302.467 335.181C303.819 335.06 305.169 334.845 306.449 334.392C307.031 334.186 307.52 333.982 307.967 333.762C309.388 333.062 310.677 331.88 310.961 330.321C311.091 329.607 311.003 328.938 310.752 328.199C310.362 327.053 309.431 326.19 308.368 325.61C306.067 324.355 305.17 321.753 305.004 319.137C304.963 318.497 304.853 317.819 304.651 317.04C304.557 316.68 304.5 316.311 304.5 315.94V315.165C304.5 313.886 305.308 312.867 306.414 312.223C307.082 311.833 307.509 311.046 307.802 310.33C307.939 309.994 308.121 309.676 308.361 309.34C309.028 308.41 309.591 307.391 309.719 306.254C310.07 303.148 310.094 300.812 309.759 297.631C309.617 296.286 310.061 294.939 311.018 293.982L311.188 293.812C311.716 293.284 312.066 292.604 312.189 291.867C312.384 290.699 313.149 289.711 314.209 289.184C316.136 288.226 317.497 287.38 318.451 286.348C319.868 284.814 319.525 282.339 317.959 280.956C317.334 280.405 316.631 279.949 315.781 279.513C314.439 278.826 313.5 277.512 313.5 276.004C313.5 275.669 313.454 275.336 313.366 275.014C312.94 273.442 312.668 272.327 311.889 270.916C311.351 269.943 309.829 268.388 309.105 267.544C305.581 263.441 305.12 258.272 301.17 254.577L167.101 129.113C162.252 124.575 159.5 118.231 159.5 111.59V19.5C159.5 17.2909 157.709 15.5 155.5 15.5Z" fill="#F3F3F4" stroke="black" stroke-width="1.4"/>
<circle cx="178.5" cy="178.5" r="178.5" fill="#F3F3F4"/>
<mask id="mask0" mask-type="alpha" maskUnits="userSpaceOnUse" x="0" y="0" width="357" height="357">
<circle cx="178.5" cy="178.5" r="178.5" fill="#F3F3F4"/>
</mask>
<g mask="url(#mask0)">
<path d="M155.5 15.5H43.3571C42.6076 15.5 42 16.1076 42 16.8571C42 18.0467 40.1146 18.2701 39.4109 19.2293C39.3696 19.2855 39.3288 19.3474 39.2883 19.4151C39.0751 19.7707 39.0972 20.2168 39.2968 20.5802C39.8715 21.627 40.5443 22.4244 41.5109 23.2306C43.0343 24.5014 44.3763 26.0035 45.0729 27.8609L45.7044 29.5451C46.5548 31.8128 46.8287 34.2563 46.5015 36.656L45.8117 41.7142C45.6073 43.2135 44.7325 44.7319 44.2915 46.1794C43.4085 49.0775 44.7995 52.1894 43.6391 54.988L38.5575 67.2437C37.5656 69.6358 37.7503 72.1612 38.4226 74.6619C39.1231 77.2673 40.2719 79.9056 42.2781 81.7095C43.895 83.1634 45.2688 84.6687 47 87L50.0031 90.2533C51.9461 92.3582 53.018 95.2418 53.7258 98.0175C54.4225 100.75 54.409 103.433 53.9621 106.217C53.1988 110.971 54.2775 114.152 55.9071 118.256C56.593 119.983 56.1092 121.874 55.9163 123.722C55.7951 124.882 56.4206 125.959 57.2088 126.819L61.5 131.5C67.4286 137.678 70.8897 141.724 75.6938 149.151C76.809 150.875 76.5178 153.015 76.0068 155.004C75.9368 155.277 75.889 155.548 75.8619 155.826C75.7307 157.173 76.7938 158.43 78.1464 158.432C79.6213 158.434 81.1262 158.704 82.106 159.807L83.2332 161.075C84.0601 162.005 85.1862 162.587 86.268 163.202C86.7205 163.46 87.1112 163.765 87.4675 164.137C89.2383 165.986 89.0375 168.844 88.9597 171.403C88.9482 171.78 88.9472 172.166 88.9541 172.577C88.9699 173.523 89.1092 174.464 89.3261 175.386L90.4792 180.287C90.8256 181.759 91.2826 183.211 91.9891 184.549C93.5047 187.418 94.8572 188.679 97 190.5L99.9437 192.708C101.925 194.194 103.36 196.294 104.023 198.681L105.157 202.767C105.373 203.544 105.216 204.378 104.732 205.024C104.268 205.642 104.104 206.435 104.283 207.187L105.696 213.123C106.225 215.347 107.105 217.478 108.847 218.958C111.032 220.816 113.096 222.911 114.663 225.314C116.126 227.558 117.826 229.566 120.283 232.205C121.085 233.066 121.749 234.047 122.235 235.118L123.263 237.378C123.736 238.419 124.593 239.237 125.654 239.662C126.212 239.885 126.719 240.219 127.144 240.644L131.522 245.022C131.836 245.336 132.22 245.573 132.642 245.714C133.995 246.165 134.81 247.542 134.555 248.946L134.298 250.36C134.106 251.419 134.249 252.556 134.991 253.335C135.394 253.759 135.869 254.153 136.484 254.617C136.824 254.874 137.203 255.076 137.602 255.226C139.6 255.975 140.835 257.986 140.599 260.107L140.578 260.299C140.526 260.764 140.541 261.234 140.623 261.695L141.247 265.233C141.743 268.044 140.785 271.16 142.012 273.737C142.36 274.469 142.951 275.171 143.84 275.95C144.266 276.323 144.644 276.753 144.926 277.245C145.869 278.895 147.75 279.751 149.626 279.45C153.61 278.81 156.669 278.698 160.81 280.137C162.287 280.651 163.776 281.151 165.317 281.413L165.508 281.445C171.233 282.41 176.712 285.007 180.553 289.36C181.506 290.44 182.535 291.515 183.814 292.178C184.676 292.626 185.545 292.912 186.602 293.147C187.856 293.426 189.146 293.5 190.431 293.5H196.848C198.247 293.5 199.657 293.887 200.688 294.832C201.317 295.409 201.855 296.049 202.414 296.96C202.799 297.588 202.746 298.381 202.338 298.993C202.118 299.324 202 299.712 202 300.11V300.475C202 301.44 202.382 302.413 203.126 303.029C203.503 303.341 203.95 303.569 204.993 303.803C205.635 303.948 206.305 303.796 206.853 303.431C207.275 303.15 207.771 303 208.278 303H209.094C210.326 303 211.518 303.432 212.464 304.22L226 315.5C228.806 318.213 230.503 319.993 233.07 327.248C233.709 329.056 233.89 330.983 233.933 332.9C233.987 335.267 234.432 336.788 235.864 338.016C236.252 338.35 236.556 338.781 236.657 339.284C236.852 340.26 237.751 340.933 238.743 340.845L302.467 335.181C303.819 335.06 305.169 334.845 306.449 334.392C307.031 334.186 307.52 333.982 307.967 333.762C309.388 333.062 310.677 331.88 310.961 330.321C311.091 329.607 311.003 328.938 310.752 328.199C310.362 327.053 309.431 326.19 308.368 325.61C306.067 324.355 305.17 321.753 305.004 319.137C304.963 318.497 304.853 317.819 304.651 317.04C304.557 316.68 304.5 316.311 304.5 315.94V315.165C304.5 313.886 305.308 312.867 306.414 312.223C307.082 311.833 307.509 311.046 307.802 310.33C307.939 309.994 308.121 309.676 308.361 309.34C309.028 308.41 309.591 307.391 309.719 306.254C310.07 303.148 310.094 300.812 309.759 297.631C309.617 296.286 310.061 294.939 311.018 293.982L311.188 293.812C311.716 293.284 312.066 292.604 312.189 291.867C312.384 290.699 313.149 289.711 314.209 289.184C316.136 288.226 317.497 287.38 318.451 286.348C319.868 284.814 319.525 282.339 317.959 280.956C317.334 280.405 316.631 279.949 315.781 279.513C314.439 278.826 313.5 277.512 313.5 276.004C313.5 275.669 313.454 275.336 313.366 275.014C312.94 273.442 312.668 272.327 311.889 270.916C311.351 269.943 309.829 268.388 309.105 267.544C305.581 263.441 305.12 258.272 301.17 254.577L167.101 129.113C162.252 124.575 159.5 118.231 159.5 111.59V19.5C159.5 17.2909 157.709 15.5 155.5 15.5Z" stroke="black" stroke-width="1.4"/>
<mask id="mask1" mask-type="alpha" maskUnits="userSpaceOnUse" x="37" y="15" width="283" height="326">
<path d="M155.5 15.5H43.3571C42.6076 15.5 42 16.1076 42 16.8571C42 18.0467 40.1146 18.2701 39.4109 19.2293C39.3696 19.2855 39.3288 19.3474 39.2883 19.4151C39.0751 19.7707 39.0972 20.2168 39.2968 20.5802C39.8715 21.627 40.5443 22.4244 41.5109 23.2306C43.0343 24.5014 44.3763 26.0035 45.0729 27.8609L45.7044 29.5451C46.5548 31.8128 46.8287 34.2563 46.5015 36.656L45.8117 41.7142C45.6073 43.2135 44.7325 44.7319 44.2915 46.1794C43.4085 49.0775 44.7995 52.1894 43.6391 54.988L38.5575 67.2437C37.5656 69.6358 37.7503 72.1612 38.4226 74.6619C39.1231 77.2673 40.2719 79.9056 42.2781 81.7095C43.895 83.1634 45.2688 84.6687 47 87L50.0031 90.2533C51.9461 92.3582 53.018 95.2418 53.7258 98.0175C54.4225 100.75 54.409 103.433 53.9621 106.217C53.1988 110.971 54.2775 114.152 55.9071 118.256C56.593 119.983 56.1092 121.874 55.9163 123.722C55.7951 124.882 56.4206 125.959 57.2088 126.819L61.5 131.5C67.4286 137.678 70.8897 141.724 75.6938 149.151C76.809 150.875 76.5178 153.015 76.0068 155.004C75.9368 155.277 75.889 155.548 75.8619 155.826C75.7307 157.173 76.7938 158.43 78.1464 158.432C79.6213 158.434 81.1262 158.704 82.106 159.807L83.2332 161.075C84.0601 162.005 85.1862 162.587 86.268 163.202C86.7205 163.46 87.1112 163.765 87.4675 164.137C89.2383 165.986 89.0375 168.844 88.9597 171.403C88.9482 171.78 88.9472 172.166 88.9541 172.577C88.9699 173.523 89.1092 174.464 89.3261 175.386L90.4792 180.287C90.8256 181.759 91.2826 183.211 91.9891 184.549C93.5047 187.418 94.8572 188.679 97 190.5L99.9437 192.708C101.925 194.194 103.36 196.294 104.023 198.681L105.157 202.767C105.373 203.544 105.216 204.378 104.732 205.024C104.268 205.642 104.104 206.435 104.283 207.187L105.696 213.123C106.225 215.347 107.105 217.478 108.847 218.958C111.032 220.816 113.096 222.911 114.663 225.314C116.126 227.558 117.826 229.566 120.283 232.205C121.085 233.066 121.749 234.047 122.235 235.118L123.263 237.378C123.736 238.419 124.593 239.237 125.654 239.662C126.212 239.885 126.719 240.219 127.144 240.644L131.522 245.022C131.836 245.336 132.22 245.573 132.642 245.714C133.995 246.165 134.81 247.542 134.555 248.946L134.298 250.36C134.106 251.419 134.249 252.556 134.991 253.335C135.394 253.759 135.869 254.153 136.484 254.617C136.824 254.874 137.203 255.076 137.602 255.226C139.6 255.975 140.835 257.986 140.599 260.107L140.578 260.299C140.526 260.764 140.541 261.234 140.623 261.695L141.247 265.233C141.743 268.044 140.785 271.16 142.012 273.737C142.36 274.469 142.951 275.171 143.84 275.95C144.266 276.323 144.644 276.753 144.926 277.245C145.869 278.895 147.75 279.751 149.626 279.45C153.61 278.81 156.669 278.698 160.81 280.137C162.287 280.651 163.776 281.151 165.317 281.413L165.508 281.445C171.233 282.41 176.712 285.007 180.553 289.36C181.506 290.44 182.535 291.515 183.814 292.178C184.676 292.626 185.545 292.912 186.602 293.147C187.856 293.426 189.146 293.5 190.431 293.5H196.848C198.247 293.5 199.657 293.887 200.688 294.832C201.317 295.409 201.855 296.049 202.414 296.96C202.799 297.588 202.746 298.381 202.338 298.993C202.118 299.324 202 299.712 202 300.11V300.475C202 301.44 202.382 302.413 203.126 303.029C203.503 303.341 203.95 303.569 204.993 303.803C205.635 303.948 206.305 303.796 206.853 303.431C207.275 303.15 207.771 303 208.278 303H209.094C210.326 303 211.518 303.432 212.464 304.22L226 315.5C228.806 318.213 230.503 319.993 233.07 327.248C233.709 329.056 233.89 330.983 233.933 332.9C233.987 335.267 234.432 336.788 235.864 338.016C236.252 338.35 236.556 338.781 236.657 339.284C236.852 340.26 237.751 340.933 238.743 340.845L302.467 335.181C303.819 335.06 305.169 334.845 306.449 334.392C307.031 334.186 307.52 333.982 307.967 333.762C309.388 333.062 310.677 331.88 310.961 330.321C311.091 329.607 311.003 328.938 310.752 328.199C310.362 327.053 309.431 326.19 308.368 325.61C306.067 324.355 305.17 321.753 305.004 319.137C304.963 318.497 304.853 317.819 304.651 317.04C304.557 316.68 304.5 316.311 304.5 315.94V315.165C304.5 313.886 305.308 312.867 306.414 312.223C307.082 311.833 307.509 311.046 307.802 310.33C307.939 309.994 308.121 309.676 308.361 309.34C309.028 308.41 309.591 307.391 309.719 306.254C310.07 303.148 310.094 300.812 309.759 297.631C309.617 296.286 310.061 294.939 311.018 293.982L311.188 293.812C311.716 293.284 312.066 292.604 312.189 291.867C312.384 290.699 313.149 289.711 314.209 289.184C316.136 288.226 317.497 287.38 318.451 286.348C319.868 284.814 319.525 282.339 317.959 280.956C317.334 280.405 316.631 279.949 315.781 279.513C314.439 278.826 313.5 277.512 313.5 276.004C313.5 275.669 313.454 275.336 313.366 275.014C312.94 273.442 312.668 272.327 311.889 270.916C311.351 269.943 309.829 268.388 309.105 267.544C305.581 263.441 305.12 258.272 301.17 254.577L167.101 129.113C162.252 124.575 159.5 118.231 159.5 111.59V19.5C159.5 17.2909 157.709 15.5 155.5 15.5Z" fill="#C4C4C4"/>
</mask>
<g mask="url(#mask1)">
<path d="M94.9453 165.165C94.9043 165.107 94.8695 165.045 94.8416 164.98L92.7224 160.02C92.4767 159.445 92.8131 158.788 93.4233 158.651L94.9422 158.311C95.2275 158.247 95.5265 158.311 95.7605 158.486L103.67 164.412C103.923 164.601 104.251 164.66 104.555 164.57L114.347 161.658C114.988 161.467 115.631 161.947 115.632 162.615L115.64 170.441C115.64 170.727 115.764 171 115.978 171.189L118.066 173.032C118.052 173.023 118.037 173.019 118.02 173.019L101.14 173.166C100.813 173.169 100.505 173.011 100.315 172.744L94.9453 165.165Z" fill="#463087" stroke="black" stroke-width="1.4"/>
<path d="M158.131 130.547C158.131 130.29 158.231 130.042 158.409 129.856L163.462 124.583C163.611 124.428 163.661 124.204 163.593 124.001C163.409 123.448 164.069 123.001 164.514 123.378L171.596 129.377C171.887 129.623 172.012 130.013 171.92 130.383L171.205 133.242C171.143 133.492 171.179 133.757 171.307 133.98L172.947 136.853C173.104 137.128 173.122 137.462 172.994 137.752L171.109 142.036C170.829 142.673 170 142.836 169.5 142.353L167.798 140.71C167.479 140.403 166.996 140.341 166.611 140.56L164.053 142.008C163.717 142.198 163.302 142.178 162.986 141.956L159.819 139.734C159.696 139.648 159.595 139.535 159.521 139.404L158.257 137.149C158.173 137 158.129 136.831 158.129 136.66L158.131 130.547Z" fill="#B6C8D9" stroke="black" stroke-width="1.4"/>
<path d="M130.786 137.716C130.786 137.277 131.072 136.889 131.491 136.759L136.314 135.27C136.52 135.206 136.741 135.211 136.944 135.283L141.951 137.064C142.12 137.124 142.302 137.138 142.478 137.104L152.077 135.232C152.249 135.198 152.409 135.12 152.542 135.005L156.468 131.588C157.116 131.025 158.125 131.485 158.125 132.343L158.123 136.102C158.123 136.579 157.787 136.989 157.32 137.083L146.023 139.344C145.846 139.379 145.682 139.462 145.548 139.583L141.827 142.953C141.735 143.036 141.629 143.101 141.514 143.145L132.669 146.542C132.14 146.745 131.549 146.469 131.365 145.934L130.851 144.442C130.816 144.338 130.797 144.228 130.797 144.118L130.786 137.716Z" fill="#B6C8D9" stroke="black" stroke-width="1.4"/>
<path d="M101.722 91.9009C101.656 91.7615 101.622 91.6087 101.625 91.4543L101.652 89.646C101.66 89.1008 102.104 88.6628 102.649 88.6612L108.225 88.6449C108.443 88.6443 108.655 88.5724 108.828 88.4401L112.869 85.3594C113.01 85.2519 113.119 85.1089 113.187 84.945L114.634 81.4315C114.734 81.1877 114.927 80.9934 115.17 80.8909L117.951 79.7184C118.531 79.4737 119.19 79.8197 119.318 80.4361L121.182 89.3941C121.218 89.5669 121.299 89.7272 121.417 89.8585L128.44 97.6789C128.9 98.1914 128.716 99.0047 128.081 99.2699L123.201 101.306C122.97 101.402 122.784 101.581 122.679 101.808L120.112 107.339C119.985 107.613 119.741 107.815 119.448 107.888L113.859 109.288C113.768 109.311 113.674 109.321 113.58 109.317L106.737 109.074C106.126 109.052 105.678 108.492 105.789 107.891L106.1 106.223L106.843 102.055C106.954 101.432 106.465 100.863 105.832 100.88L104.269 100.922C103.663 100.938 103.182 100.415 103.249 99.8119L103.641 96.2636C103.662 96.0781 103.63 95.8906 103.55 95.7222L101.722 91.9009Z" fill="#959CC1" stroke="black" stroke-width="1.4"/>
<path d="M157.412 137.065C157.837 136.979 158.268 137.178 158.48 137.556L159.103 138.666C159.387 139.173 159.181 139.814 158.656 140.061L155.4 141.591C155.232 141.67 155.09 141.793 154.989 141.948L145.505 156.398C145.474 156.444 145.44 156.488 145.402 156.529L142.241 159.937C141.842 160.367 141.161 160.363 140.767 159.929L133.806 152.251C133.723 152.159 133.657 152.051 133.613 151.935L132.057 147.845C131.862 147.33 132.119 146.754 132.634 146.556L141.516 143.145C141.631 143.101 141.737 143.036 141.828 142.953L145.55 139.583C145.683 139.462 145.848 139.379 146.025 139.344L157.412 137.065Z" fill="#B6C8D9" stroke="black" stroke-width="1.4"/>
<path d="M104.897 106.224C105.523 106.223 105.995 106.791 105.881 107.407L105.579 109.032L104.604 113.015C104.545 113.256 104.577 113.509 104.695 113.727L107.957 119.787C108.069 119.994 108.104 120.234 108.056 120.464L107.827 121.562C107.731 122.026 107.323 122.358 106.849 122.359L93.6885 122.366C93.3889 122.366 93.105 122.232 92.915 122L89.2666 117.555C89.1584 117.423 89.0857 117.266 89.0554 117.098L88.3139 112.982C88.2452 112.601 87.9619 112.293 87.5872 112.193L83.7103 111.161C83.3704 111.07 83.1031 110.808 83.0063 110.47L82.1615 107.518C81.9787 106.879 82.4578 106.243 83.122 106.243L104.897 106.224Z" fill="#B6C8D9" stroke="black" stroke-width="1.4"/>
<path d="M92.7867 158.796C92.4583 158.87 92.1149 158.773 91.8729 158.539L91.1054 157.797C90.7953 157.497 90.7124 157.032 90.8996 156.644L92.6755 152.959C92.8746 152.546 93.3291 152.322 93.7782 152.414L99.241 153.54C99.3537 153.563 99.4697 153.567 99.5837 153.551L106.638 152.547C106.808 152.523 106.981 152.543 107.141 152.605L110.04 153.73C110.31 153.834 110.612 153.817 110.868 153.682L113.622 152.231C114.262 151.893 115.037 152.326 115.086 153.048L115.587 160.478C115.619 160.944 115.323 161.37 114.875 161.504L104.565 164.569C104.262 164.66 103.934 164.601 103.681 164.411L95.771 158.486C95.5371 158.311 95.2381 158.247 94.9528 158.31L92.7867 158.796Z" fill="#463087" stroke="black" stroke-width="1.4"/>
<path d="M57.2454 14.3332C58.1126 14.3226 58.5812 15.3456 58.0068 15.9954L54.4133 20.0606C54.264 20.2295 54.1762 20.4439 54.164 20.669L53.7557 28.2328C53.745 28.4305 53.7932 28.6268 53.8942 28.797L56.4922 33.1754C56.6794 33.4908 56.6788 33.8833 56.4909 34.1982L56.0255 34.9779C55.7001 35.5232 54.9554 35.631 54.4887 35.2004L52.5555 33.4167C52.371 33.2465 52.1293 33.1519 51.8783 33.1517L42.5474 33.1435C42.1001 33.1432 41.7075 32.8458 41.5859 32.4155L39.73 25.8472C39.6718 25.6412 39.5491 25.4593 39.3798 25.3283L34.7116 21.7153C34.0611 21.2119 34.2627 20.1823 35.0549 19.9613L36.7033 19.5014C37.1839 19.3674 37.4921 18.8997 37.4258 18.4052L37.0629 15.7005C36.9831 15.1056 37.4416 14.5749 38.0418 14.5676L57.2454 14.3332Z" fill="#B6C8D9" stroke="black" stroke-width="1.4"/>
<path d="M127.702 130.206C127.59 129.962 127.582 129.683 127.678 129.432L129.908 123.624C130.009 123.363 130.214 123.155 130.475 123.052L138.806 119.764C139.117 119.641 139.47 119.682 139.744 119.874L143.128 122.23C143.529 122.509 144.072 122.458 144.414 122.109L147.497 118.964C147.659 118.799 147.872 118.695 148.101 118.67L159.496 117.407C159.885 117.364 160.264 117.552 160.465 117.889L162.889 121.955C162.926 122.017 162.956 122.083 162.979 122.151L163.515 123.76C163.632 124.112 163.545 124.5 163.288 124.767L158.134 130.146L152.55 135.004C152.417 135.12 152.257 135.198 152.085 135.232L142.486 137.104C142.31 137.138 142.128 137.124 141.959 137.064L136.952 135.283C136.749 135.211 136.528 135.206 136.322 135.27L131.633 136.718C131.153 136.866 130.637 136.635 130.428 136.178L127.702 130.206Z" fill="#B6C8D9" stroke="black" stroke-width="1.4"/>
<path d="M187.631 169.929C187.957 169.607 188.461 169.548 188.853 169.787L194.942 173.492C195.151 173.62 195.307 173.82 195.378 174.054L198.57 184.503C198.661 184.799 198.884 185.037 199.174 185.146L202.709 186.481C202.929 186.564 203.114 186.723 203.229 186.929L206.996 193.671C207.079 193.82 207.123 193.987 207.123 194.157L207.129 197.924C207.129 198.474 206.685 198.922 206.135 198.925L190.301 199.023C189.76 199.026 189.32 199.459 189.307 200L189.285 201.006C189.272 201.555 188.82 201.991 188.272 201.984L180.46 201.88C180.231 201.877 180.009 201.952 179.829 202.093L172.419 207.909L170.01 210.127C169.844 210.28 169.632 210.372 169.407 210.389L162.293 210.925C161.772 210.964 161.368 211.399 161.369 211.922L161.369 218.276C161.369 218.551 161.256 218.814 161.056 219.003L151.79 227.764C151.439 228.096 150.899 228.129 150.509 227.841L141.962 221.531C141.749 221.374 141.607 221.139 141.567 220.877L140.857 216.217C140.807 215.887 140.924 215.554 141.171 215.329L142.783 213.853C143 213.655 143.118 213.372 143.108 213.079L142.935 208.327C142.925 208.072 142.818 207.83 142.636 207.65L134.626 199.784C134.228 199.393 134.227 198.752 134.623 198.36L143.745 189.332C144.219 188.862 145.012 188.98 145.329 189.568L149.271 196.892C149.47 197.262 149.879 197.468 150.295 197.408L165.108 195.27C165.379 195.231 165.623 195.082 165.781 194.857L172.53 185.311C172.709 185.058 172.995 184.902 173.304 184.889L177.05 184.732C177.476 184.714 177.844 184.428 177.966 184.019L179.817 177.811C179.865 177.65 179.953 177.503 180.073 177.385L187.631 169.929Z" fill="#6D65A3" stroke="black" stroke-width="1.4"/>
<path d="M76.3386 92.8646C76.2178 92.2467 76.6912 91.6723 77.3207 91.6727L100.986 91.6893C101.371 91.6895 101.721 91.9107 101.888 92.2579L103.544 95.7229C103.625 95.8913 103.657 96.0788 103.636 96.2643L103.243 99.8126C103.177 100.415 103.658 100.938 104.264 100.922L105.827 100.881C106.46 100.864 106.949 101.432 106.838 102.056L106.241 105.4C106.156 105.876 105.742 106.224 105.258 106.224L82.8053 106.244C82.2472 106.244 81.7967 105.788 81.8046 105.229L81.8738 100.33C81.8817 99.7702 81.4289 99.3131 80.8693 99.3156L78.4299 99.3268C77.9499 99.329 77.536 98.9898 77.4439 98.5187L76.3386 92.8646Z" fill="#B6C8D9" stroke="black" stroke-width="1.4"/>
<path d="M41.6918 34.0337C41.7487 33.5274 42.177 33.1449 42.6864 33.1453L51.8785 33.1533C52.1295 33.1535 52.3713 33.2481 52.5557 33.4183L55.1502 35.8122C55.3087 35.9584 55.5103 36.0495 55.7248 36.0718L60.0845 36.5259C60.4899 36.5682 60.8291 36.8522 60.9419 37.2439L62.5802 42.9346C62.6188 43.0684 62.6289 43.2089 62.61 43.3469L61.5981 50.7402C61.5411 51.1564 61.23 51.4927 60.8194 51.5818L57.7891 52.2394C57.2068 52.3658 56.8636 52.97 57.0531 53.5348L58.709 58.4696C58.7435 58.5724 58.7611 58.6801 58.761 58.7885L58.7416 83.5142C58.7412 84.0666 58.2929 84.514 57.7405 84.5134L42.2491 84.4958C41.9867 84.4955 41.7348 84.392 41.548 84.2077L34.6293 77.3827C34.5164 77.2712 34.4315 77.1345 34.3819 76.9837L32.0881 70.0234C32.0305 69.8486 32.0222 69.6613 32.0642 69.4822L32.8577 66.097C32.8764 66.017 32.905 65.9396 32.9427 65.8666L39.0011 54.1283C39.0283 54.0757 39.0507 54.0207 39.0681 53.9641L40.3423 49.8299C40.4244 49.5634 40.3915 49.2747 40.2515 49.0335L38.8513 46.6207C38.7034 46.3658 38.6754 46.0586 38.7749 45.7812L41.0612 39.4067C41.0874 39.3337 41.105 39.2579 41.1136 39.1808L41.6918 34.0337Z" fill="#959CC1" stroke="black" stroke-width="1.4"/>
<path d="M272.776 343.753C272.183 343.805 271.675 343.331 271.688 342.735L272.245 316.463C272.256 315.922 272.697 315.488 273.238 315.484L312.779 315.231C313.411 315.226 313.889 315.802 313.767 316.423L311.838 326.274C311.751 326.719 311.974 327.167 312.381 327.365L317.077 329.653C317.321 329.772 317.506 329.986 317.59 330.244L318.599 333.366C318.666 333.573 318.664 333.795 318.593 334L317.05 338.467C316.939 338.789 316.673 339.031 316.343 339.112L311.432 340.312C311.383 340.324 311.333 340.332 311.283 340.337L272.776 343.753Z" fill="#B6C8D9" stroke="black" stroke-width="1.4"/>
<path d="M207.207 199.1C207.158 198.98 207.133 198.852 207.132 198.723L207.126 194.157C207.126 193.987 207.082 193.819 206.999 193.671L203.231 186.928C203.116 186.723 202.932 186.564 202.711 186.481L199.176 185.146C198.886 185.037 198.664 184.799 198.573 184.503L195.663 174.979C195.467 174.337 195.946 173.688 196.617 173.687L221.853 173.625C222.104 173.624 222.345 173.718 222.53 173.887L253.21 201.953L283.396 230.48C283.98 231.032 283.707 232.012 282.922 232.184L282.372 232.304C282.301 232.319 282.229 232.327 282.156 232.327L249.783 232.266L227.96 232.2L218.472 232.451C217.832 232.468 217.341 231.888 217.464 231.259L217.908 228.984C217.94 228.823 217.931 228.656 217.883 228.499L213.802 215.231L207.207 199.1Z" fill="#8D90BA" stroke="black" stroke-width="1.4"/>
<path d="M154.646 233.482C154.645 232.93 155.092 232.482 155.645 232.481L173.424 232.469L217.222 232.483L226.933 232.226C227.495 232.211 227.959 232.663 227.959 233.225L227.986 265.435C227.986 265.991 227.533 266.44 226.977 266.436L193.471 266.615C193.176 266.617 192.897 266.748 192.709 266.974L192.555 267.159C192.347 267.408 192.031 267.541 191.708 267.515L182.062 266.745C181.924 266.734 181.79 266.695 181.668 266.629L176.32 263.753C176.218 263.698 176.105 263.67 175.989 263.67C175.606 263.672 175.295 263.362 175.295 262.979L175.296 257.87C175.296 257.632 175.211 257.402 175.057 257.221L170.04 251.328C169.852 251.108 169.577 250.979 169.287 250.977L166.374 250.95C165.945 250.946 165.567 250.669 165.433 250.262L163.741 245.1C163.673 244.891 163.538 244.71 163.356 244.586L155.085 238.921C154.814 238.734 154.651 238.426 154.65 238.097L154.646 233.482Z" fill="#463087" stroke="black" stroke-width="1.4"/>
<path d="M171.681 208.589C172.088 208.214 172.724 208.241 173.097 208.651L174.837 210.559C175.082 210.828 175.161 211.209 175.045 211.554L173.725 215.451C173.692 215.55 173.674 215.653 173.672 215.757L173.439 231.485C173.431 232.031 172.986 232.47 172.44 232.47L154.645 232.482L154.596 232.482C154.271 232.48 153.967 232.321 153.78 232.055L151.678 229.045C151.394 228.639 151.45 228.086 151.81 227.746L161.057 219.002C161.257 218.814 161.37 218.551 161.37 218.276L161.37 211.922C161.37 211.399 161.773 210.964 162.295 210.925L169.408 210.389C169.633 210.372 169.845 210.28 170.011 210.127L171.681 208.589Z" fill="#8D90BA" stroke="black" stroke-width="1.4"/>
<path d="M77.3874 99.4449C77.53 99.3696 77.6887 99.3298 77.85 99.3291L80.8712 99.3152C81.4308 99.3127 81.8836 99.7698 81.8757 100.329L81.7942 106.097C81.7928 106.194 81.8058 106.292 81.8327 106.386L83.0015 110.47C83.0983 110.808 83.3656 111.071 83.7055 111.161L87.5824 112.194C87.9572 112.294 88.2404 112.601 88.3092 112.983L89.0507 117.098C89.0809 117.266 89.1536 117.423 89.2618 117.555L92.7141 121.762C93.0057 122.117 93.0175 122.626 92.7428 122.994L91.7302 124.352C91.67 124.433 91.6223 124.523 91.5889 124.617L89.8413 129.572C89.7333 129.878 89.4831 130.113 89.1705 130.201L85.6002 131.212C85.227 131.317 84.8263 131.197 84.5723 130.904L79.5648 125.126C79.4756 125.023 79.3664 124.939 79.2439 124.88L76.0265 123.327C75.8692 123.251 75.7345 123.135 75.6359 122.991L71.9609 117.617C71.7729 117.342 71.7341 116.992 71.8574 116.682L73.858 111.663C73.924 111.497 73.9445 111.317 73.9174 111.141L72.6224 102.723C72.5576 102.302 72.7668 101.886 73.1436 101.687L77.3874 99.4449Z" fill="#B6C8D9" stroke="black" stroke-width="1.4"/>
<path d="M122.086 44.0035C122.084 43.4495 122.532 42.9992 123.086 42.9991L159.213 42.9962C159.763 42.9961 160.211 43.4413 160.213 43.992L160.328 71.3814L160.18 93.4542C160.177 93.9564 159.802 94.3782 159.303 94.4399L157.28 94.6908C156.629 94.7714 156.078 94.2145 156.166 93.5646L157.047 87.0382C157.076 86.8231 157.034 86.6044 156.928 86.4151L154.409 81.9266C154.278 81.6928 154.058 81.5215 153.8 81.4511L150.658 80.5958C150.51 80.5554 150.373 80.4812 150.258 80.3791L143.895 74.7361C143.763 74.6186 143.602 74.5384 143.428 74.5036L138.798 73.5775C138.498 73.5175 138.188 73.5981 137.955 73.7961L135.572 75.8211C135.366 75.996 135.098 76.0802 134.829 76.0545L130.724 75.6622C130.211 75.6132 129.819 75.182 129.82 74.6664L129.821 69.9037C129.821 69.3492 129.37 68.9004 128.816 68.9034L123.196 68.9336C122.644 68.9366 122.193 68.4907 122.191 67.938L122.086 44.0035Z" fill="#B6C8D9" stroke="black" stroke-width="1.4"/>
<path d="M192.454 268.11C192.318 267.769 192.379 267.38 192.615 267.098L192.718 266.974C192.907 266.748 193.186 266.617 193.48 266.615L226.012 266.441C226.554 266.438 227 266.867 227.017 267.409L227.579 284.994C227.583 285.11 227.566 285.226 227.531 285.336L223.89 296.52C223.756 296.93 223.373 297.209 222.941 297.21L218.757 297.22C218.376 297.22 218.029 297.438 217.861 297.78L214.078 305.513C213.94 305.796 213.675 305.998 213.365 306.056L207.959 307.075C207.712 307.122 207.456 307.074 207.243 306.94L204.659 305.32C204.317 305.106 204.138 304.708 204.204 304.31L204.692 301.35C204.732 301.111 204.683 300.865 204.555 300.659L201.865 296.334C201.649 295.987 201.244 295.806 200.841 295.877L194.141 297.064C193.951 297.098 193.754 297.076 193.576 297L190.902 295.866C190.496 295.694 190.251 295.277 190.298 294.839L190.481 293.129C190.51 292.854 190.652 292.603 190.873 292.437L194.613 289.619C194.786 289.488 194.997 289.418 195.215 289.418L197.521 289.418C197.996 289.418 198.405 289.085 198.501 288.621L199.173 285.371C199.213 285.179 199.195 284.98 199.122 284.798L192.454 268.11ZM199.009 314.426C198.663 313.89 198.901 313.17 199.499 312.946L201.971 312.021C202.291 311.901 202.649 311.953 202.922 312.159L209.31 316.965C209.68 317.243 209.811 317.738 209.626 318.162L208.432 320.912C208.228 321.381 207.703 321.62 207.215 321.467L202.978 320.139C202.755 320.069 202.564 319.923 202.437 319.727L199.009 314.426ZM198.58 330.112C198.302 329.559 198.588 328.889 199.18 328.707L201.324 328.049C201.701 327.933 202.111 328.05 202.371 328.347L208.282 335.122C208.651 335.544 208.6 336.187 208.171 336.546L205.577 338.718C205.219 339.018 204.703 339.03 204.331 338.749L202.241 337.167C202.119 337.074 202.02 336.955 201.952 336.819L198.58 330.112Z" fill="#463087" stroke="black" stroke-width="1.4"/>
<path d="M158.442 183.589C158.616 183.545 158.775 183.456 158.902 183.33L166.727 175.589C166.912 175.406 167.162 175.302 167.422 175.3L169.503 175.283C169.913 175.28 170.28 175.027 170.428 174.644L172.039 170.477C172.091 170.342 172.171 170.221 172.274 170.12L179.207 163.377C179.624 162.972 180.296 163.006 180.67 163.45L180.841 163.654C181.021 163.868 181.282 163.996 181.561 164.009L184.709 164.15C185.054 164.165 185.367 164.358 185.536 164.66L187.81 168.715C188.03 169.108 187.961 169.6 187.64 169.916L180.069 177.385C179.949 177.503 179.861 177.649 179.813 177.811L177.962 184.018C177.841 184.427 177.472 184.714 177.046 184.732L173.301 184.889C172.991 184.902 172.705 185.058 172.526 185.311L165.778 194.857C165.619 195.081 165.376 195.23 165.104 195.27L150.291 197.408C149.875 197.468 149.467 197.262 149.268 196.892L145.048 189.053C144.837 188.661 144.91 188.176 145.229 187.865L146.358 186.758C146.485 186.634 146.643 186.546 146.815 186.502L158.442 183.589Z" fill="#959CC1" stroke="black" stroke-width="1.4"/>
<path d="M71.3763 145.793C70.9623 145.169 71.3566 144.328 72.1014 144.247L76.7103 143.744C76.9802 143.715 77.2504 143.796 77.4589 143.97L81.5611 147.389C81.6947 147.501 81.855 147.575 82.0263 147.606L86.2173 148.351C86.3339 148.372 86.446 148.413 86.5482 148.473L92.2038 151.791C92.653 152.055 92.8247 152.619 92.5986 153.088L90.6719 157.085C90.6053 157.224 90.5077 157.345 90.3867 157.439L85.8583 160.977C85.5847 161.19 85.2197 161.247 84.8942 161.126L81.5739 159.891C81.4624 159.85 81.3444 159.829 81.2254 159.829H78.3246C78.1136 159.829 77.908 159.762 77.7373 159.638L72.5149 155.848C72.1602 155.59 72.0145 155.132 72.1554 154.717L73.7375 150.057C73.8371 149.764 73.7952 149.441 73.624 149.183L71.3763 145.793Z" fill="#6D65A3" stroke="black" stroke-width="1.4"/>
<path d="M149.105 167.716C149.103 167.711 149.102 167.705 149.103 167.7C149.103 167.697 149.104 167.695 149.104 167.693L150.143 164.941C150.249 164.66 150.476 164.442 150.761 164.346L159.141 161.537C159.334 161.473 159.542 161.468 159.738 161.525L165.328 163.146C165.606 163.227 165.906 163.183 166.15 163.025L172.981 158.601C173.318 158.383 173.755 158.388 174.087 158.614L178.967 161.939C179.49 162.295 179.555 163.041 179.101 163.482L172.275 170.121C172.172 170.221 172.092 170.343 172.04 170.477L170.429 174.645C170.281 175.027 169.914 175.281 169.504 175.284L167.423 175.301C167.163 175.303 166.913 175.406 166.728 175.59L159.498 182.742C159.076 183.16 158.386 183.12 158.014 182.657L152.67 175.991C152.613 175.92 152.566 175.841 152.53 175.757L149.105 167.716Z" fill="#B6C8D9" stroke="black" stroke-width="1.4"/>
<path d="M43.2565 86.1466C42.7024 85.4971 43.1647 84.4966 44.0184 84.4976L58.7489 84.5143L75.255 85.3037C75.7945 85.3295 76.216 85.779 76.2071 86.319L76.1206 91.5663C76.1195 91.6362 76.1257 91.706 76.1391 91.7747L77.4735 98.6012C77.5582 99.034 77.3492 99.4712 76.9593 99.6772L73.1551 101.687C72.7783 101.886 72.5691 102.302 72.6339 102.723L73.929 111.141C73.9561 111.317 73.9356 111.497 73.8695 111.663L71.869 116.682C71.7457 116.992 71.7845 117.342 71.9725 117.617L75.6698 123.023C75.7538 123.146 75.8685 123.245 76.0025 123.309C76.8222 123.705 76.5331 124.938 75.6229 124.928L72.1249 124.89C72.0523 124.889 71.9798 124.896 71.9087 124.911L56.7871 128.085C56.4411 128.157 56.0824 128.042 55.8438 127.781L52.1845 123.78C51.9866 123.563 51.8937 123.271 51.9302 122.98L52.4928 118.501C52.5125 118.344 52.4948 118.185 52.4413 118.037L48.8682 108.126C48.8037 107.947 48.7916 107.753 48.8333 107.567L50.3826 100.681C50.4216 100.507 50.4137 100.327 50.3597 100.158L47.528 91.2738C47.4876 91.1471 47.4223 91.0297 47.336 90.9285L43.2565 86.1466Z" fill="#B6C8D9" stroke="black" stroke-width="1.4"/>
<path d="M148.155 168.162C148.669 167.915 149.285 168.146 149.509 168.671L152.527 175.757C152.563 175.841 152.61 175.919 152.667 175.991L157.73 182.306C158.186 182.875 157.9 183.725 157.193 183.902L146.813 186.503C146.641 186.546 146.483 186.634 146.357 186.758L144.69 188.391L134.419 198.556C134.108 198.864 133.634 198.934 133.247 198.729L127.809 195.845C127.621 195.745 127.469 195.588 127.377 195.397L125.492 191.496C125.434 191.377 125.401 191.247 125.394 191.115L125.102 185.67C125.087 185.384 125.195 185.105 125.399 184.904L131.985 178.42C132.211 178.197 132.318 177.88 132.273 177.565L132.14 176.643C132.078 176.211 132.303 175.789 132.696 175.599L148.155 168.162Z" fill="#959CC1" stroke="black" stroke-width="1.4"/>
<path d="M118.767 15.426C118.766 14.8725 119.215 14.4238 119.769 14.425L159.225 14.5093C159.777 14.5105 160.224 14.9582 160.223 15.5099L160.206 41.9967C160.206 42.5487 159.758 42.996 159.206 42.9961L122.079 42.9991L119.799 43.0089C119.245 43.0113 118.795 42.5635 118.794 42.0099L118.767 15.426Z" fill="#B6C8D9" stroke="black" stroke-width="1.4"/>
<path d="M170.646 143.703C170.577 143.474 170.592 143.229 170.688 143.011L173.002 137.752C173.129 137.462 173.112 137.129 172.955 136.854L171.315 133.98C171.187 133.757 171.15 133.492 171.213 133.242L171.685 131.353C171.865 130.631 172.743 130.352 173.307 130.837L197.018 151.244L220.286 171.882C220.974 172.492 220.544 173.628 219.625 173.631L195.559 173.689C195.374 173.69 195.194 173.639 195.036 173.544L188.42 169.517C188.274 169.428 188.152 169.302 188.068 169.152L185.55 164.66C185.381 164.359 185.068 164.166 184.722 164.15L182.526 164.052C181.843 164.021 181.392 163.33 181.638 162.692L182.828 159.614C182.993 159.186 182.846 158.701 182.472 158.436L180.315 156.914C180.118 156.775 179.977 156.569 179.92 156.334L178.945 152.33C178.868 152.014 178.641 151.754 178.337 151.636L172.787 149.469C172.501 149.358 172.282 149.121 172.193 148.827L170.646 143.703Z" fill="#8D90BA" stroke="black" stroke-width="1.4"/>
<path d="M101.496 197.119C101.48 196.639 101.808 196.215 102.277 196.11L112.586 193.803C112.932 193.725 113.293 193.837 113.535 194.096L122.128 203.29C122.336 203.512 122.431 203.817 122.387 204.118L122.244 205.092C122.197 205.407 122.304 205.726 122.532 205.95L130.196 213.487C130.336 213.626 130.515 213.719 130.708 213.756L140.086 215.556C140.502 215.636 140.822 215.969 140.886 216.387L141.571 220.877C141.61 221.139 141.752 221.374 141.965 221.531L151.054 228.241C151.141 228.306 151.217 228.384 151.279 228.473L152.97 230.893C153.435 231.559 152.955 232.472 152.143 232.466L119.495 232.224C119.204 232.222 118.928 232.093 118.74 231.871L113.075 225.186C113.041 225.147 113.011 225.105 112.984 225.061L109.607 219.534C109.548 219.437 109.473 219.351 109.385 219.28L104.396 215.214C104.221 215.072 104.099 214.874 104.051 214.654L101.75 204.212C101.737 204.153 101.729 204.092 101.727 204.031L101.496 197.119Z" fill="#8D90BA" stroke="black" stroke-width="1.4"/>
<path d="M91.3399 125.356C91.5149 124.86 92.0445 124.584 92.5513 124.726L94.2695 125.204C94.5523 125.283 94.7863 125.482 94.9092 125.749L99.8179 136.398C99.9358 136.654 99.9404 136.947 99.8306 137.207L97.1533 143.528C97.0939 143.669 97.0674 143.82 97.0755 143.972L97.3097 148.328C97.3406 148.902 96.8824 149.384 96.3076 149.382L92.9412 149.37C92.1959 149.367 91.7153 148.579 92.054 147.915L92.4273 147.184C92.5714 146.901 92.5729 146.567 92.4313 146.283L85.5387 132.465C85.259 131.904 85.5582 131.227 86.1614 131.056L89.1819 130.202C89.4945 130.113 89.7447 129.879 89.8528 129.572L91.3399 125.356Z" fill="#B6C8D9" stroke="black" stroke-width="1.4"/>
<path d="M159.08 104.071C159.637 104.073 160.086 104.53 160.077 105.087L160.036 107.608C160.027 108.153 159.584 108.591 159.039 108.592L142.035 108.636C141.827 108.636 141.624 108.702 141.455 108.823L132.735 115.078C132.611 115.167 132.509 115.282 132.437 115.416L130.704 118.63C130.511 118.988 130.121 119.193 129.717 119.15L124.507 118.59C123.983 118.534 123.592 118.08 123.615 117.553L123.912 110.703C123.927 110.368 124.108 110.062 124.396 109.889L130.861 106.003C130.916 105.97 130.974 105.942 131.035 105.92L142.987 101.582C143.398 101.433 143.86 101.569 144.124 101.918L145.434 103.642C145.622 103.891 145.916 104.037 146.228 104.038L159.08 104.071Z" fill="#959CC1" stroke="black" stroke-width="1.4"/>
<path d="M214.426 306.468C214.083 306.171 213.983 305.68 214.182 305.272L217.847 297.781C218.014 297.438 218.362 297.221 218.743 297.22L223.286 297.21C223.522 297.209 223.75 297.292 223.931 297.444L226.705 299.774C226.771 299.83 226.829 299.893 226.879 299.963L230.647 305.302C230.739 305.432 230.861 305.539 231.003 305.612L233.37 306.844C233.858 307.098 234.049 307.697 233.799 308.187L231.482 312.712L229.148 317.544C228.862 318.137 228.091 318.296 227.594 317.865L214.426 306.468Z" fill="#463087" stroke="black" stroke-width="1.4"/>
<path d="M159.031 108.591C159.58 108.59 160.027 109.03 160.034 109.579L160.12 116.428C160.127 116.943 159.742 117.378 159.231 117.435L148.098 118.669C147.869 118.694 147.655 118.798 147.494 118.963L144.41 122.108C144.069 122.457 143.525 122.508 143.125 122.229L139.741 119.873C139.466 119.681 139.114 119.64 138.802 119.763L130.471 123.051C130.211 123.154 130.005 123.362 129.905 123.623L127.792 129.125C127.633 129.539 127.22 129.799 126.778 129.763L118.849 129.12C118.246 129.071 117.825 128.502 117.953 127.911L119.585 120.379C119.659 120.038 119.905 119.76 120.235 119.646L123.364 118.563C123.503 118.515 123.651 118.498 123.798 118.513L129.718 119.149C130.122 119.193 130.512 118.987 130.705 118.63L132.438 115.415C132.51 115.282 132.612 115.166 132.736 115.078L141.456 108.823C141.625 108.701 141.828 108.636 142.036 108.635L159.031 108.591Z" fill="#6D65A3" stroke="black" stroke-width="1.4"/>
<path d="M119.158 79.6439C119.105 79.3888 119.153 79.1231 119.293 78.9033L121.24 75.8434C121.453 75.5089 121.448 75.0802 121.228 74.7506L118.378 70.4896C117.934 69.8245 118.411 68.9324 119.211 68.9337L122.197 68.9385L128.817 68.9029C129.372 68.8999 129.823 69.3487 129.822 69.9032L129.821 74.6659C129.821 75.1815 130.213 75.6127 130.726 75.6617L134.83 76.054C135.099 76.0797 135.367 75.9955 135.573 75.8206L137.956 73.7956C138.189 73.5976 138.5 73.517 138.8 73.577L143.429 74.5031C143.603 74.5379 143.764 74.6181 143.897 74.7356L150.259 80.3786C150.374 80.4807 150.511 80.5549 150.66 80.5953L153.801 81.4506C154.06 81.521 154.279 81.6923 154.41 81.9261L156.929 86.4146C157.035 86.6039 157.077 86.8226 157.048 87.0377L156.111 93.9857C156.044 94.4809 155.622 94.8508 155.122 94.852L141.67 94.8855C141.544 94.8858 141.418 94.8621 141.301 94.8157L135.937 92.6985C135.533 92.539 135.073 92.6585 134.797 92.9944L131.382 97.157C131.334 97.2157 131.279 97.2687 131.219 97.315L130.12 98.1615C129.706 98.4807 129.115 98.4266 128.766 98.0374L121.421 89.8585C121.303 89.7272 121.222 89.5669 121.186 89.3941L119.158 79.6439Z" fill="#B6C8D9" stroke="black" stroke-width="1.4"/>
<path d="M227.177 300.38C226.952 300.061 226.933 299.641 227.128 299.304L229.77 294.716C229.968 294.373 230.35 294.179 230.743 294.221L239.511 295.163C239.587 295.171 239.664 295.17 239.741 295.161L248.094 294.129L293.507 294.129C293.932 294.129 294.277 293.785 294.278 293.36C294.28 292.935 294.623 292.592 295.047 292.591L317.836 292.531C318.588 292.529 319.073 293.326 318.726 293.992L316.809 297.673C316.714 297.856 316.678 298.064 316.705 298.268L317.722 305.828C317.735 305.924 317.733 306.021 317.718 306.117L316.983 310.796C316.96 310.946 316.902 311.09 316.814 311.215L314.298 314.8C314.112 315.065 313.809 315.224 313.486 315.226L272.265 315.49L239.33 315.278C239.225 315.278 239.12 315.26 239.02 315.227L232.59 313.081C232.009 312.887 231.738 312.222 232.016 311.677L233.803 308.187C234.053 307.697 233.862 307.098 233.374 306.844L231.007 305.612C230.865 305.539 230.743 305.432 230.651 305.302L227.177 300.38Z" fill="#463087" stroke="black" stroke-width="1.4"/>
<path d="M126.945 129.776C127.306 129.806 127.623 130.028 127.773 130.358L130.705 136.78C130.765 136.91 130.796 137.051 130.796 137.193L130.806 143.523C130.807 143.973 130.508 144.368 130.075 144.488L122.017 146.734C121.833 146.785 121.638 146.783 121.456 146.727L118.887 145.941C118.43 145.802 117.939 146.004 117.713 146.424L115.124 151.245C115.03 151.42 114.885 151.563 114.709 151.656L110.83 153.701C110.596 153.824 110.321 153.84 110.075 153.745C109.206 153.407 109.345 152.136 110.267 151.995L110.598 151.944C110.939 151.892 111.229 151.668 111.366 151.351L114.6 143.833L116.976 139.713C117.11 139.481 117.145 139.205 117.074 138.947L114.679 130.267C114.502 129.625 114.99 128.993 115.656 129.001L117.717 129.028L126.945 129.776Z" fill="#6D65A3" stroke="black" stroke-width="1.4"/>
<path d="M114.169 194.782C113.746 194.329 114.025 193.588 114.641 193.525C114.827 193.507 114.999 193.419 115.124 193.28L117.237 190.923C117.45 190.686 117.762 190.564 118.079 190.595L124.847 191.26C125.194 191.294 125.498 191.507 125.65 191.82L127.378 195.396C127.47 195.588 127.622 195.745 127.81 195.845L133.769 199.005C133.855 199.05 133.933 199.107 134.002 199.175L142.631 207.65C142.814 207.829 142.921 208.071 142.93 208.327L143.103 213.078C143.114 213.371 142.995 213.654 142.779 213.852L141.143 215.35C140.909 215.563 140.589 215.654 140.279 215.594L130.701 213.756C130.507 213.719 130.329 213.625 130.188 213.487L122.524 205.949C122.297 205.726 122.19 205.407 122.236 205.091L122.379 204.117C122.423 203.816 122.328 203.511 122.12 203.289L114.169 194.782Z" fill="#B6C8D9" stroke="black" stroke-width="1.4"/>
<path d="M226.997 266.948C226.988 266.669 227.214 266.438 227.493 266.44C227.767 266.443 227.99 266.221 227.99 265.948L227.963 233.203C227.963 232.649 228.412 232.201 228.966 232.202L249.785 232.265L282.159 232.327C282.231 232.327 282.303 232.319 282.374 232.304L284.247 231.894C284.575 231.823 284.918 231.921 285.159 232.156L313.537 259.858C313.722 260.039 313.83 260.284 313.838 260.543L313.963 264.644C313.97 264.87 314.053 265.087 314.199 265.26L318.356 270.164C318.423 270.243 318.478 270.333 318.518 270.43L322.15 279.26C322.207 279.398 322.294 279.522 322.404 279.622L327.331 284.072C327.711 284.415 327.77 284.99 327.469 285.403L324.794 289.068C324.721 289.169 324.629 289.255 324.524 289.322L319.738 292.37C319.578 292.472 319.393 292.526 319.204 292.527L295.052 292.59C294.628 292.591 294.284 292.935 294.283 293.359C294.282 293.784 293.937 294.128 293.512 294.128L248.098 294.128L239.745 295.16C239.669 295.17 239.592 295.171 239.516 295.162L230.748 294.221C230.354 294.179 229.973 294.373 229.775 294.716L227.409 298.823C227.098 299.362 226.376 299.49 225.899 299.089L224.177 297.642C223.865 297.38 223.743 296.955 223.869 296.567L227.525 285.336C227.561 285.226 227.577 285.11 227.574 284.994L226.997 266.948Z" fill="#463087" stroke="black" stroke-width="1.4"/>
<path d="M228.59 318.948C228.59 318.797 228.624 318.649 228.689 318.513L231.109 313.504C231.327 313.051 231.849 312.831 232.326 312.99L239.025 315.227C239.125 315.26 239.229 315.277 239.335 315.278L271.255 315.483C271.813 315.487 272.26 315.947 272.248 316.504L271.687 342.96C271.677 343.468 271.287 343.887 270.781 343.934L235.826 347.224C235.439 347.261 235.067 347.07 234.87 346.735L232.006 341.859C231.918 341.708 231.87 341.536 231.869 341.361L231.805 334.297C231.805 334.193 231.787 334.089 231.754 333.99L228.641 324.654C228.607 324.552 228.59 324.445 228.59 324.337V318.948Z" fill="#6D65A3" stroke="black" stroke-width="1.4"/>
<path d="M85.5976 161.965C85.4889 161.575 85.6262 161.158 85.9453 160.908L89.8852 157.83C90.2782 157.523 90.8374 157.553 91.1959 157.9L92.1001 158.774C92.1959 158.866 92.2722 158.977 92.3246 159.1L94.2878 163.695C94.5686 164.352 94.0892 165.083 93.3745 165.088L87.2443 165.126C86.7931 165.129 86.3958 164.83 86.2747 164.395L85.5976 161.965ZM70.4056 163.731C69.8966 163.24 70.0433 162.391 70.6873 162.1L71.7314 161.627C72.0802 161.469 72.4885 161.524 72.7829 161.769L75.1666 163.751C75.5121 164.038 75.6237 164.52 75.4393 164.93L74.8763 166.182C74.5924 166.813 73.7687 166.972 73.2705 166.491L70.4056 163.731Z" fill="#6D65A3" stroke="black" stroke-width="1.4"/>
<path d="M129.901 144.537C130.411 144.395 130.943 144.675 131.115 145.175L131.713 146.913L133.626 151.944C133.668 152.055 133.69 152.171 133.691 152.289L133.802 162.815C133.808 163.315 133.443 163.743 132.948 163.815L127.429 164.626C127.229 164.655 127.043 164.744 126.895 164.881L118.738 172.419C118.361 172.767 117.782 172.774 117.398 172.434L115.987 171.19C115.772 171 115.649 170.727 115.649 170.441L115.64 161.276L115 151.801C114.987 151.614 115.028 151.426 115.117 151.261L117.714 146.425C117.94 146.004 118.431 145.802 118.888 145.942L121.457 146.727C121.639 146.783 121.834 146.786 122.018 146.734L129.901 144.537Z" fill="#463087" stroke="black" stroke-width="1.4"/>
<path d="M154.07 232.48C154.384 232.481 154.638 232.736 154.639 233.05L154.644 238.097C154.644 238.427 154.807 238.735 155.079 238.921L163.35 244.587C163.531 244.711 163.666 244.892 163.735 245.1L165.427 250.262C165.56 250.67 165.939 250.947 166.368 250.951L169.281 250.977C169.571 250.98 169.845 251.108 170.033 251.329L175.051 257.222C175.205 257.403 175.289 257.633 175.289 257.87L175.288 262.296C175.288 262.976 174.625 263.457 173.978 263.247L167.479 261.127L157.928 256.594C157.613 256.444 157.243 256.47 156.951 256.661L151.033 260.544C150.901 260.63 150.75 260.685 150.592 260.702L142.425 261.582C142.179 261.608 141.932 261.543 141.732 261.398L140.173 260.272C140.11 260.227 140.052 260.173 140.001 260.114L133.006 251.992C132.817 251.772 132.733 251.481 132.775 251.193L133.355 247.256C133.427 246.768 133.132 246.3 132.66 246.155L130.674 245.542C130.481 245.482 130.311 245.367 130.186 245.209L125.961 239.903C125.856 239.77 125.719 239.667 125.563 239.602L122.636 238.386C122.425 238.299 122.25 238.142 122.141 237.941L119.839 233.711C119.474 233.042 119.962 232.228 120.724 232.233L154.07 232.48Z" fill="#6D65A3" stroke="black" stroke-width="1.4"/>
<path d="M86.4853 166.126C86.4848 165.576 86.9288 165.128 87.4789 165.125L94.3623 165.081C94.6888 165.079 94.9958 165.237 95.1845 165.503L99.9551 172.236C100.305 172.73 100.139 173.42 99.6021 173.701L98.1729 174.447C97.7746 174.655 97.564 175.103 97.6579 175.542L98.4553 179.275C98.5375 179.659 98.3866 180.056 98.0698 180.289L94.2751 183.079C94.0122 183.273 93.8601 183.582 93.8677 183.908L93.9055 185.525C93.9265 186.429 92.8339 186.894 92.1967 186.254L89.9512 183.996C89.767 183.811 89.6626 183.561 89.6603 183.3L89.6159 178.225C89.6145 178.056 89.5706 177.891 89.4884 177.745L86.6182 172.621C86.5347 172.472 86.4908 172.304 86.4906 172.133L86.4853 166.126Z" fill="#6D65A3" stroke="black" stroke-width="1.4"/>
<path d="M140.292 262.261C140.211 261.465 141.109 260.946 141.759 261.415C141.944 261.549 142.173 261.61 142.401 261.585L150.596 260.702C150.754 260.685 150.905 260.631 151.038 260.544L156.955 256.662C157.247 256.47 157.617 256.445 157.933 256.594L167.483 261.128L175.178 263.637C175.254 263.662 175.333 263.674 175.413 263.674C175.826 263.672 176.163 264.007 176.163 264.421L176.166 279.134C176.166 279.253 176.145 279.371 176.104 279.482L174.755 283.118C174.596 283.545 174.168 283.812 173.715 283.765L163.26 282.686C163.157 282.675 163.057 282.649 162.962 282.607L159.139 280.937C158.993 280.873 158.834 280.845 158.675 280.856L147.687 281.562C147.432 281.578 147.18 281.496 146.984 281.333L140.309 275.791C139.999 275.534 139.874 275.115 139.992 274.73L141.114 271.062C141.153 270.934 141.166 270.8 141.152 270.668L140.292 262.261ZM174.375 292.922C174.944 293.024 175.309 293.585 175.17 294.147L174.854 295.427C174.778 295.735 174.56 295.988 174.267 296.11L168.744 298.404C168.631 298.451 168.51 298.476 168.388 298.48L162.435 298.642C162.305 298.646 162.177 298.674 162.058 298.727L157.773 300.619C157.433 300.769 157.038 300.718 156.747 300.487L151.89 296.632C151.728 296.504 151.531 296.429 151.325 296.417L147.435 296.199C147.068 296.179 146.741 295.958 146.585 295.624L144.77 291.734C144.47 291.09 144.917 290.348 145.626 290.312L149.389 290.124C149.675 290.11 149.953 290.218 150.153 290.423L152.63 292.95C152.84 293.164 153.136 293.273 153.435 293.246L159.841 292.659C160.056 292.64 160.259 292.551 160.419 292.406L161.875 291.092C162.104 290.885 162.416 290.796 162.72 290.85L174.375 292.922Z" fill="#6D65A3" stroke="black" stroke-width="1.4"/>
<path d="M98.7662 180.101C98.6566 179.974 98.5807 179.821 98.5456 179.657L97.6666 175.543C97.5728 175.103 97.7834 174.655 98.1816 174.447L100.412 173.282C100.553 173.209 100.708 173.17 100.867 173.169L117.202 173.026C117.693 173.022 118.114 173.374 118.196 173.858L119.879 183.759C119.951 184.186 120.291 184.518 120.72 184.581L124.281 185.102C124.752 185.171 125.109 185.563 125.135 186.038L125.355 190.153C125.388 190.765 124.868 191.262 124.259 191.202L118.091 190.596C117.774 190.565 117.462 190.686 117.249 190.923L115.664 192.692C115.274 193.126 114.598 193.136 114.196 192.715L110.007 188.327C109.934 188.25 109.849 188.186 109.756 188.136L102.375 184.183C102.266 184.125 102.17 184.048 102.089 183.955L98.7662 180.101Z" fill="#463087" stroke="black" stroke-width="1.4"/>
<path d="M97.8409 180.455C98.2616 180.146 98.8495 180.212 99.1905 180.608L102.077 183.955C102.157 184.048 102.254 184.125 102.362 184.183L109.743 188.136C109.837 188.186 109.921 188.25 109.994 188.327L113.685 192.193C114.191 192.723 113.866 193.604 113.136 193.678L102.439 196.072C101.899 196.193 101.363 195.852 101.244 195.311L100.839 193.472C100.787 193.238 100.653 193.03 100.46 192.886L94.3498 188.322C94.1037 188.138 93.9557 187.852 93.9485 187.544L93.8637 183.909C93.8561 183.583 94.0082 183.273 94.2711 183.08L97.8409 180.455Z" fill="#B6C8D9" stroke="black" stroke-width="1.4"/>
<path d="M88.4542 43.7177C88.5923 43.3132 88.9722 43.0413 89.3996 43.0409L118.796 43.0131L121.079 43.0033C121.631 43.0009 122.081 43.4467 122.083 43.9989L122.188 67.9329C122.19 68.4875 121.741 68.9381 121.186 68.9372L117.332 68.931L102.745 69.5954C102.686 69.5981 102.627 69.6061 102.569 69.6192L94.2404 71.509C94.1248 71.5352 94.0055 71.5407 93.8879 71.5251L88.2505 70.7788C88.1289 70.7627 88.0052 70.7692 87.8859 70.7978L74.9917 73.893C74.1 74.107 73.4144 73.108 73.935 72.353L76.1905 69.0815C76.2586 68.9827 76.3439 68.8971 76.4423 68.8285L82.4359 64.654C82.8282 64.3808 82.9722 63.8682 82.7797 63.4306L81.6684 60.9051C81.5184 60.5642 81.5703 60.1682 81.803 59.8774L83.6678 57.5475C83.74 57.4573 83.796 57.3552 83.8334 57.2459L88.4542 43.7177Z" fill="#959CC1" stroke="black" stroke-width="1.4"/>
<path d="M155.995 94.8497L159.044 94.4716C159.644 94.3973 160.172 94.8677 160.167 95.472L160.107 103.079C160.102 103.629 159.654 104.072 159.104 104.071L146.233 104.037C145.921 104.037 145.628 103.89 145.439 103.642L144.13 101.917C143.865 101.568 143.404 101.432 142.992 101.582L132.351 105.444C131.683 105.686 130.982 105.173 131.011 104.462L131.296 97.5794C131.305 97.3625 131.385 97.1544 131.522 96.9865L134.798 92.9942C135.073 92.6584 135.534 92.5388 135.938 92.6983L141.301 94.8155C141.419 94.862 141.544 94.8857 141.671 94.8854L155.995 94.8497Z" fill="#B6C8D9" stroke="black" stroke-width="1.4"/>
<path d="M117.785 14.4072C118.33 14.4159 118.768 14.8604 118.769 15.406L118.796 42.0131C118.797 42.5654 118.35 43.0136 117.797 43.0141L89.2916 43.041C88.9199 43.0414 88.5786 42.8355 88.4056 42.5065L86.4973 38.878C86.2439 38.3961 85.6516 38.2055 85.1647 38.4492L77.5425 42.2636C77.3676 42.3511 77.2222 42.488 77.1243 42.6572L73.7758 48.4479C73.499 48.9267 72.886 49.0898 72.4078 48.812L62.9879 43.3393C62.7649 43.2098 62.6006 42.9991 62.5292 42.7513L60.9436 37.2438C60.8308 36.8521 60.4916 36.5681 60.0862 36.5258L56.9539 36.1996C56.2272 36.1239 55.8244 35.3198 56.1988 34.6924L56.4929 34.1998C56.6808 33.8849 56.6813 33.4924 56.4942 33.177L53.8962 28.7986C53.7952 28.6284 53.747 28.432 53.7577 28.2344L54.166 20.6705C54.1781 20.4454 54.266 20.231 54.4153 20.0621L59.2077 14.6407C59.3954 14.4284 59.6642 14.3057 59.9475 14.303L92.1314 14L117.785 14.4072Z" fill="#B6C8D9" stroke="black" stroke-width="1.4"/>
<path d="M99.7385 137.39C99.891 137.03 100.239 136.792 100.63 136.781L110.647 136.485C111.209 136.469 111.674 136.918 111.676 137.48L111.7 142.797C111.702 143.339 112.136 143.781 112.678 143.792L113.104 143.802C113.813 143.817 114.282 144.545 114.001 145.197L111.353 151.352C111.217 151.668 110.927 151.893 110.586 151.945L106.882 152.511L99.5686 153.551C99.4547 153.568 99.3387 153.564 99.2259 153.541L93.4346 152.347C93.1574 152.29 92.9174 152.118 92.7741 151.874L92.1886 150.877C91.7965 150.209 92.28 149.368 93.0546 149.37L96.2933 149.382C96.8681 149.384 97.3263 148.902 97.2955 148.328L97.0613 143.972C97.0531 143.82 97.0797 143.669 97.139 143.528L99.7385 137.39Z" fill="#463087" stroke="black" stroke-width="1.4"/>
<path d="M71.1852 144.347C70.7634 144.393 70.3585 144.168 70.1751 143.785L68.1588 139.579C68.0736 139.401 67.9378 139.253 67.7685 139.152L64.1325 136.988C64.0449 136.936 63.9658 136.871 63.8979 136.795L57.3778 129.491C56.8657 128.917 57.1658 128.004 57.9184 127.846L71.9065 124.911C71.9776 124.896 72.0501 124.889 72.1227 124.89L78.9889 124.965C79.2751 124.968 79.5463 125.093 79.7338 125.31L84.9152 131.289C84.9701 131.352 85.0168 131.422 85.0543 131.497L92.4292 146.282C92.5708 146.566 92.5693 146.9 92.4252 147.183L91.5033 148.99C91.3847 149.223 91.3929 149.5 91.525 149.725C91.9239 150.404 91.1585 151.17 90.4789 150.771L86.5607 148.472C86.4585 148.412 86.3464 148.371 86.2297 148.35L82.0387 147.605C81.8675 147.574 81.7072 147.5 81.5736 147.389L77.4714 143.969C77.2629 143.796 76.9927 143.714 76.7228 143.743L71.1852 144.347Z" fill="#6D65A3" stroke="black" stroke-width="1.4"/>
<path d="M133.698 154.744C133.688 153.825 134.821 153.381 135.439 154.062L141.49 160.736L149.09 167.692C149.093 167.695 149.094 167.699 149.094 167.702C149.093 167.706 149.091 167.709 149.087 167.711L132.691 175.6C132.297 175.789 132.072 176.212 132.134 176.644L132.267 177.565C132.313 177.88 132.206 178.198 131.979 178.421L125.427 184.872C125.204 185.092 124.89 185.194 124.58 185.149L120.701 184.581C120.272 184.518 119.933 184.186 119.86 183.759L118.038 173.037C118.037 173.03 118.045 173.025 118.051 173.029C118.054 173.031 118.058 173.031 118.06 173.028L126.876 164.881C127.024 164.744 127.21 164.655 127.41 164.626L132.929 163.816C133.424 163.743 133.789 163.316 133.783 162.816L133.698 154.744Z" fill="#6D65A3" stroke="black" stroke-width="1.4"/>
<path d="M105.392 109.824C105.505 109.363 105.925 109.045 106.399 109.062L112.942 109.295C113.404 109.312 113.795 109.643 113.887 110.096L115.829 119.671C115.941 120.222 116.485 120.572 117.033 120.446L118.178 120.184C118.892 120.02 119.534 120.654 119.379 121.37L117.892 128.23C117.792 128.695 117.378 129.024 116.902 129.018L114.732 128.99C114.473 128.987 114.224 128.883 114.04 128.699L108.053 122.741C107.813 122.503 107.711 122.16 107.779 121.829L108.063 120.466C108.111 120.235 108.076 119.995 107.964 119.788L104.702 113.728C104.584 113.51 104.552 113.257 104.611 113.016L105.392 109.824Z" fill="#B6C8D9" stroke="black" stroke-width="1.4"/>
<path d="M116.768 68.9563C117.118 68.9404 117.451 69.1084 117.645 69.3994L121.224 74.7506C121.444 75.0802 121.449 75.5089 121.236 75.8434L119.238 78.9829C119.129 79.1543 118.97 79.2884 118.783 79.3674L115.17 80.891C114.927 80.9934 114.734 81.1877 114.634 81.4316L113.187 84.9451C113.119 85.109 113.009 85.252 112.868 85.3595L108.828 88.4402C108.655 88.5724 108.443 88.6443 108.225 88.645L102.649 88.6612C102.104 88.6628 101.66 89.1009 101.652 89.646L101.636 90.7036C101.628 91.2502 101.182 91.6888 100.635 91.6884L77.1265 91.6719C76.5681 91.6716 76.1182 91.2139 76.1274 90.6555L76.2133 85.4399C76.2143 85.3799 76.2099 85.32 76.2002 85.2608L74.7061 76.1941C74.6645 75.9415 74.5131 75.7202 74.2927 75.5899C73.6232 75.194 73.775 74.1847 74.5312 74.0032L87.8859 70.7975C88.0052 70.7688 88.1289 70.7624 88.2505 70.7785L93.8879 71.5248C94.0055 71.5404 94.1248 71.5349 94.2404 71.5087L102.569 69.6189C102.627 69.6058 102.686 69.5978 102.745 69.5951L116.768 68.9563Z" fill="#B6C8D9" stroke="black" stroke-width="1.4"/>
<path d="M62.4298 44.6166C62.5263 43.9115 63.3076 43.53 63.9229 43.8875L72.3996 48.8122C72.8778 49.09 73.4908 48.9269 73.7676 48.4481L77.1161 42.6574C77.214 42.4881 77.3594 42.3513 77.5343 42.2637L85.1565 38.4493C85.6434 38.2057 86.2357 38.3963 86.4891 38.8781L88.4784 42.6606C88.6063 42.9039 88.6285 43.1892 88.5396 43.4493L83.8271 57.246C83.7897 57.3554 83.7337 57.4575 83.6615 57.5477L81.7967 59.8776C81.564 60.1684 81.5121 60.5644 81.6621 60.9053L82.7734 63.4308C82.9659 63.8684 82.8219 64.381 82.4296 64.6542L76.436 68.8287C76.3376 68.8972 76.2523 68.9829 76.1842 69.0817L73.0554 73.6199C72.7264 74.0971 72.8707 74.7532 73.3696 75.0483L74.2323 75.5584C74.487 75.709 74.6619 75.9647 74.71 76.2566L76.0074 84.1297C76.1109 84.7579 75.6089 85.3216 74.9729 85.2912L59.6874 84.5602C59.1539 84.5347 58.7347 84.0946 58.7351 83.5605L58.7545 58.7886C58.7546 58.6802 58.7371 58.5725 58.7026 58.4697L57.0466 53.5349C56.8571 52.9701 57.2004 52.3659 57.7826 52.2395L60.813 51.5819C61.2236 51.4928 61.5347 51.1565 61.5917 50.7402L62.4298 44.6166Z" fill="#B6C8D9" stroke="black" stroke-width="1.4"/>
<path d="M174.433 232.47C173.875 232.47 173.425 232.013 173.433 231.455L173.667 215.757C173.668 215.653 173.686 215.55 173.719 215.451L175.039 211.554C175.156 211.209 175.076 210.828 174.831 210.56L173.139 208.704C172.748 208.275 172.804 207.603 173.261 207.244L179.824 202.093C180.004 201.952 180.226 201.877 180.455 201.88L188.267 201.984C188.816 201.991 189.268 201.555 189.28 201.006L189.303 200C189.315 199.459 189.755 199.026 190.296 199.023L206.449 198.923C206.858 198.921 207.227 199.167 207.381 199.545L213.795 215.231L217.875 228.499C217.924 228.656 217.932 228.823 217.901 228.985L217.375 231.675C217.283 232.145 216.872 232.484 216.393 232.484L174.433 232.47Z" fill="#6D65A3" stroke="black" stroke-width="1.4"/>
<path d="M159.112 139.85C159.437 139.698 159.818 139.731 160.112 139.937L162.99 141.957C163.306 142.179 163.721 142.199 164.057 142.009L166.615 140.56C167 140.342 167.483 140.403 167.802 140.711L170.348 143.168C170.471 143.287 170.562 143.435 170.611 143.599L172.19 148.827C172.279 149.121 172.498 149.358 172.784 149.47L178.334 151.636C178.638 151.754 178.865 152.014 178.942 152.331L179.917 156.334C179.974 156.569 180.114 156.775 180.312 156.914L182.469 158.437C182.843 158.701 182.99 159.186 182.825 159.614L181.727 162.455C181.46 163.145 180.551 163.297 180.074 162.731C180.017 162.663 179.951 162.603 179.878 162.553L174.096 158.614C173.764 158.388 173.328 158.383 172.99 158.601L166.159 163.025C165.916 163.183 165.616 163.227 165.337 163.147L159.747 161.525C159.551 161.469 159.343 161.473 159.15 161.537L150.77 164.346C150.485 164.442 150.258 164.66 150.152 164.941L149.634 166.315C149.384 166.977 148.545 167.177 148.023 166.699L142.25 161.416C141.841 161.041 141.815 160.405 142.192 159.998L145.41 156.529C145.448 156.488 145.483 156.444 145.513 156.398L154.997 141.947C155.099 141.793 155.241 141.67 155.408 141.591L159.112 139.85Z" fill="#B6C8D9" stroke="black" stroke-width="1.4"/>
<path d="M175.152 284.282C174.766 284.025 174.607 283.536 174.768 283.101L176.111 279.481C176.153 279.37 176.174 279.252 176.174 279.133L176.171 265.344C176.17 264.587 176.978 264.104 177.644 264.463L181.673 266.63C181.795 266.695 181.929 266.735 182.067 266.746L191.61 267.507C191.989 267.537 192.318 267.78 192.459 268.133L199.118 284.798C199.191 284.98 199.209 285.179 199.169 285.371L198.497 288.621C198.401 289.085 197.992 289.419 197.517 289.419L195.21 289.418C194.993 289.418 194.782 289.489 194.608 289.619L190.869 292.437C190.648 292.604 190.506 292.854 190.476 293.129L190.345 294.356C190.278 294.986 189.649 295.396 189.045 295.202L182.972 293.253C182.728 293.175 182.524 293.006 182.401 292.782L179.335 287.199C179.257 287.058 179.146 286.937 179.012 286.848L175.152 284.282ZM171.074 321.43C170.823 320.96 170.984 320.375 171.442 320.101L173.242 319.021C173.579 318.819 174.003 318.832 174.326 319.056L177.626 321.342C178.1 321.67 178.198 322.331 177.841 322.784L176.785 324.12C176.558 324.407 176.193 324.547 175.833 324.486L172.879 323.983C172.574 323.931 172.311 323.741 172.165 323.469L171.074 321.43Z" fill="#6D65A3" stroke="black" stroke-width="1.4"/>
<path d="M93.0613 124.866C92.3846 124.677 92.1082 123.868 92.528 123.305L92.9276 122.769C93.1162 122.516 93.4132 122.367 93.7288 122.366L107.261 122.359C107.526 122.358 107.779 122.463 107.967 122.65L114.144 128.797C114.267 128.92 114.356 129.072 114.403 129.24L117.081 138.947C117.152 139.205 117.117 139.481 116.983 139.712L114.903 143.32C114.721 143.636 114.381 143.828 114.016 143.82L112.698 143.792C112.156 143.78 111.722 143.339 111.72 142.797L111.696 137.48C111.693 136.918 111.228 136.468 110.666 136.485L100.669 136.78C100.269 136.791 99.8995 136.563 99.7316 136.199L94.9146 125.749C94.7917 125.482 94.5578 125.283 94.2749 125.204L93.0613 124.866Z" fill="#959CC1" stroke="black" stroke-width="1.4"/>
<path d="M113.917 110.26C113.81 109.736 114.135 109.221 114.654 109.091L119.453 107.889C119.746 107.816 119.99 107.614 120.117 107.34L122.684 101.809C122.789 101.582 122.976 101.403 123.206 101.307L129.265 98.7787C129.346 98.7451 129.421 98.7012 129.49 98.648L129.612 98.5541C130.285 98.0358 131.257 98.5392 131.222 99.3877L130.972 105.415C130.958 105.751 130.776 106.058 130.488 106.231L124.402 109.89C124.114 110.062 123.933 110.368 123.918 110.703L123.61 117.811C123.592 118.221 123.326 118.579 122.938 118.713L119.709 119.831L117.029 120.446C116.481 120.572 115.937 120.221 115.826 119.67L113.917 110.26Z" fill="#B6C8D9" stroke="black" stroke-width="1.4"/>
</g>
<path d="M155.5 15.5H43.3571C42.6076 15.5 42 16.1076 42 16.8571C42 18.0467 40.1146 18.2701 39.4109 19.2293C39.3696 19.2855 39.3288 19.3474 39.2883 19.4151C39.0751 19.7707 39.0972 20.2168 39.2968 20.5802C39.8715 21.627 40.5443 22.4244 41.5109 23.2306C43.0343 24.5014 44.3763 26.0035 45.0729 27.8609L45.7044 29.5451C46.5548 31.8128 46.8287 34.2563 46.5015 36.656L45.8117 41.7142C45.6073 43.2135 44.7325 44.7319 44.2915 46.1794C43.4085 49.0775 44.7995 52.1894 43.6391 54.988L38.5575 67.2437C37.5656 69.6358 37.7503 72.1612 38.4226 74.6619C39.1231 77.2673 40.2719 79.9056 42.2781 81.7095C43.895 83.1634 45.2688 84.6687 47 87L50.0031 90.2533C51.9461 92.3582 53.018 95.2418 53.7258 98.0175C54.4225 100.75 54.409 103.433 53.9621 106.217C53.1988 110.971 54.2775 114.152 55.9071 118.256C56.593 119.983 56.1092 121.874 55.9163 123.722C55.7951 124.882 56.4206 125.959 57.2088 126.819L61.5 131.5C67.4286 137.678 70.8897 141.724 75.6938 149.151C76.809 150.875 76.5178 153.015 76.0068 155.004C75.9368 155.277 75.889 155.548 75.8619 155.826C75.7307 157.173 76.7938 158.43 78.1464 158.432C79.6213 158.434 81.1262 158.704 82.106 159.807L83.2332 161.075C84.0601 162.005 85.1862 162.587 86.268 163.202C86.7205 163.46 87.1112 163.765 87.4675 164.137C89.2383 165.986 89.0375 168.844 88.9597 171.403C88.9482 171.78 88.9472 172.166 88.9541 172.577C88.9699 173.523 89.1092 174.464 89.3261 175.386L90.4792 180.287C90.8256 181.759 91.2826 183.211 91.9891 184.549C93.5047 187.418 94.8572 188.679 97 190.5L99.9437 192.708C101.925 194.194 103.36 196.294 104.023 198.681L105.157 202.767C105.373 203.544 105.216 204.378 104.732 205.024C104.268 205.642 104.104 206.435 104.283 207.187L105.696 213.123C106.225 215.347 107.105 217.478 108.847 218.958C111.032 220.816 113.096 222.911 114.663 225.314C116.126 227.558 117.826 229.566 120.283 232.205C121.085 233.066 121.749 234.047 122.235 235.118L123.263 237.378C123.736 238.419 124.593 239.237 125.654 239.662C126.212 239.885 126.719 240.219 127.144 240.644L131.522 245.022C131.836 245.336 132.22 245.573 132.642 245.714C133.995 246.165 134.81 247.542 134.555 248.946L134.298 250.36C134.106 251.419 134.249 252.556 134.991 253.335C135.394 253.759 135.869 254.153 136.484 254.617C136.824 254.874 137.203 255.076 137.602 255.226C139.6 255.975 140.835 257.986 140.599 260.107L140.578 260.299C140.526 260.764 140.541 261.234 140.623 261.695L141.247 265.233C141.743 268.044 140.785 271.16 142.012 273.737C142.36 274.469 142.951 275.171 143.84 275.95C144.266 276.323 144.644 276.753 144.926 277.245C145.869 278.895 147.75 279.751 149.626 279.45C153.61 278.81 156.669 278.698 160.81 280.137C162.287 280.651 163.776 281.151 165.317 281.413L165.508 281.445C171.233 282.41 176.712 285.007 180.553 289.36C181.506 290.44 182.535 291.515 183.814 292.178C184.676 292.626 185.545 292.912 186.602 293.147C187.856 293.426 189.146 293.5 190.431 293.5H196.848C198.247 293.5 199.657 293.887 200.688 294.832C201.317 295.409 201.855 296.049 202.414 296.96C202.799 297.588 202.746 298.381 202.338 298.993C202.118 299.324 202 299.712 202 300.11V300.475C202 301.44 202.382 302.413 203.126 303.029C203.503 303.341 203.95 303.569 204.993 303.803C205.635 303.948 206.305 303.796 206.853 303.431C207.275 303.15 207.771 303 208.278 303H209.094C210.326 303 211.518 303.432 212.464 304.22L226 315.5C228.806 318.213 230.503 319.993 233.07 327.248C233.709 329.056 233.89 330.983 233.933 332.9C233.987 335.267 234.432 336.788 235.864 338.016C236.252 338.35 236.556 338.781 236.657 339.284C236.852 340.26 237.751 340.933 238.743 340.845L302.467 335.181C303.819 335.06 305.169 334.845 306.449 334.392C307.031 334.186 307.52 333.982 307.967 333.762C309.388 333.062 310.677 331.88 310.961 330.321C311.091 329.607 311.003 328.938 310.752 328.199C310.362 327.053 309.431 326.19 308.368 325.61C306.067 324.355 305.17 321.753 305.004 319.137C304.963 318.497 304.853 317.819 304.651 317.04C304.557 316.68 304.5 316.311 304.5 315.94V315.165C304.5 313.886 305.308 312.867 306.414 312.223C307.082 311.833 307.509 311.046 307.802 310.33C307.939 309.994 308.121 309.676 308.361 309.34C309.028 308.41 309.591 307.391 309.719 306.254C310.07 303.148 310.094 300.812 309.759 297.631C309.617 296.286 310.061 294.939 311.018 293.982L311.188 293.812C311.716 293.284 312.066 292.604 312.189 291.867C312.384 290.699 313.149 289.711 314.209 289.184C316.136 288.226 317.497 287.38 318.451 286.348C319.868 284.814 319.525 282.339 317.959 280.956C317.334 280.405 316.631 279.949 315.781 279.513C314.439 278.826 313.5 277.512 313.5 276.004C313.5 275.669 313.454 275.336 313.366 275.014C312.94 273.442 312.668 272.327 311.889 270.916C311.351 269.943 309.829 268.388 309.105 267.544C305.581 263.441 305.12 258.272 301.17 254.577L167.101 129.113C162.252 124.575 159.5 118.231 159.5 111.59V19.5C159.5 17.2909 157.709 15.5 155.5 15.5Z" stroke="black" stroke-width="1.4"/>
</g>
</svg>
