<svg width="75" height="75" viewBox="0 0 75 75" fill="none" xmlns="http://www.w3.org/2000/svg">
<path d="M33.1699 38.7144C33.6247 38.5628 34.0889 38.4586 34.5532 38.3639C35.1567 38.2407 35.7162 38.148 36.1733 38.2407C36.827 38.3733 37.2912 38.8376 37.4239 39.5481C37.5091 39.9934 37.3954 40.4198 37.1207 40.7608C36.6348 41.1293 36.3244 41.3014 35.6806 41.5283C34.79 41.7556 33.8805 41.9262 32.9994 42.1915C32.6678 42.2862 32.3457 42.343 32.0425 42.343C31.3414 42.343 30.7351 42.0588 30.214 41.3956C30.0719 41.2156 29.8634 41.083 29.5603 40.8177C29.5603 42.0304 29.5129 43.0915 29.5887 44.1337C29.5981 44.3611 29.9771 44.6548 30.2519 44.759C31.6351 45.318 33.0089 45.9148 34.4395 46.3222C35.5764 46.6538 36.1638 47.4212 36.6186 48.3687C37.367 49.9319 38.0776 51.5046 38.7692 53.0868C39.2998 54.309 38.8829 55.4838 37.7934 56.0144C37.4712 56.1754 37.1396 56.2512 36.8175 56.2512C36.0122 56.2512 35.2637 55.7775 34.8374 54.8964C34.231 53.6553 33.71 52.3668 33.0847 51.1351C32.8762 50.7277 32.5541 50.2635 32.1657 50.1024C31.0856 49.6382 29.9487 49.3256 28.6602 48.8992C28.8118 49.7045 28.935 50.3488 29.0676 50.9836C29.3329 52.2531 29.4087 53.4847 29.0107 54.7732C28.4707 56.4976 28.0917 58.2598 27.637 60.003C27.3054 61.282 26.4622 62.04 25.4579 62.04C25.2589 62.04 25.0505 62.0116 24.8421 61.9547C24.6715 61.8979 24.52 61.841 24.3778 61.7652C24.2263 61.6894 24.0936 61.6042 23.9799 61.5C23.3546 60.9504 23.1462 60.0504 23.4304 58.9514C23.7336 57.7766 23.9231 56.5544 24.3684 55.4364C25.4769 52.6794 24.3399 50.1214 23.8473 47.5065C23.6104 46.2654 23.2409 45.0432 23.1083 43.7926C22.9757 42.561 23.0799 41.3104 23.0799 40.0029C21.5356 40.524 21.2892 40.8556 21.3082 42.2388C21.3271 43.2715 21.384 44.3137 21.3745 45.3559C21.3745 46.578 20.7113 47.3928 19.8018 47.3928H19.7734C18.6554 47.3739 18.0585 46.6917 18.0491 45.3938C18.0301 43.8021 18.0491 42.2009 18.0017 40.6093C17.9733 39.6903 18.3049 39.0365 19.0628 38.4965C20.7397 37.3122 22.3409 36.0332 24.0273 34.8773C24.681 34.4226 25.4958 34.1952 25.979 33.9773L27.4001 34.1099C29.3691 34.5268 30.3424 36.5595 31.8056 38.307C32.1088 38.6007 32.3836 38.7902 32.7341 38.7902C32.8668 38.7902 33.0089 38.7713 33.1699 38.7144Z" fill="#323A45"/>
<path d="M36 16.5298C36 14.3567 37.2351 12.3959 39.3233 11.816C42.3384 10.9787 47.4726 10 55 10C62.5274 10 67.6616 10.9787 70.6767 11.816C72.7649 12.3959 74 14.3567 74 16.5298V51.8566C74 55.0487 71.4197 57.6364 68.2368 57.6364H41.7632C38.5803 57.6364 36 55.0487 36 51.8566V16.5298Z" fill="#323A45"/>
<path d="M42 57.5H49V58.5C49 60.433 47.433 62 45.5 62C43.567 62 42 60.433 42 58.5V57.5Z" fill="#323A45"/>
<path d="M61 57.5H68V58.5C68 60.433 66.433 62 64.5 62C62.567 62 61 60.433 61 58.5V57.5Z" fill="#323A45"/>
<rect x="44" y="15" width="22" height="3" rx="1.5" fill="white"/>
<rect x="39.4043" y="22.5" width="31.2957" height="20" rx="2.36555" fill="white" stroke="#323A45"/>
<rect x="54.3203" y="24.5" width="2" height="16" rx="1" fill="#323A45"/>
<rect x="43" y="47" width="5.5" height="5.5" rx="2.75" fill="white"/>
<rect x="62" y="47" width="5.5" height="5.5" rx="2.75" fill="white"/>
<circle cx="27" cy="30" r="4" fill="#323A45"/>
<line x1="13.75" y1="34.25" x2="4.25" y2="34.25" stroke="#323A45" stroke-width="2.5" stroke-linecap="round" stroke-linejoin="round"/>
<line x1="13.75" y1="54.25" x2="4.25" y2="54.25" stroke="#323A45" stroke-width="2.5" stroke-linecap="round" stroke-linejoin="round"/>
<line x1="10.75" y1="44.25" x2="1.25" y2="44.25" stroke="#323A45" stroke-width="2.5" stroke-linecap="round" stroke-linejoin="round"/>
</svg>
