<svg width="75" height="75" viewBox="0 0 75 75" fill="none" xmlns="http://www.w3.org/2000/svg">
<g clip-path="url(#clip0)">
<path d="M41.7241 39.0969C41.4674 39.5552 40.7843 39.6824 40.323 39.4313C39.8964 39.172 39.3721 38.9301 38.75 38.7054C38.1457 38.4807 37.5058 38.3338 36.8304 38.2647V42.7496C36.9192 42.7669 37.0081 42.7928 37.097 42.8274C37.2036 42.8446 37.3103 42.8706 37.4169 42.9051C38.6611 43.2162 39.7365 43.5792 40.643 43.994C41.5495 44.4087 42.2515 44.9618 42.7492 45.6531C43.2469 46.3272 43.4958 47.2259 43.4958 48.3493C43.4958 49.5936 43.2025 50.6133 42.6159 51.4083C42.0294 52.1861 41.2473 52.765 40.2697 53.1453C39.7073 53.368 39.1114 53.5345 38.4819 53.6445C37.7139 53.7788 37.097 54.4075 37.097 55.1872V55.7519C37.097 56.2452 36.6971 56.6451 36.2038 56.6451C35.7105 56.6451 35.3106 56.2452 35.3106 55.7519V55.1455C35.3106 54.3664 34.7119 53.7251 33.9446 53.5893C33.1897 53.4556 32.4453 53.2644 31.7113 53.0156C31.012 52.7684 30.3537 52.4812 29.7365 52.154C29.033 51.7812 28.8194 50.9017 29.1906 50.1974L29.5554 49.5055C29.8599 48.928 30.6724 48.7637 31.2314 49.1011C31.7647 49.3949 32.4045 49.6887 33.1511 49.9825C33.8976 50.259 34.6974 50.4491 35.5506 50.5528V46.0938C35.4084 46.042 35.2573 45.9988 35.0974 45.9642C34.9552 45.9296 34.813 45.8864 34.6708 45.8346C33.4621 45.5062 32.4579 45.1433 31.658 44.7458C30.8759 44.331 30.2805 43.8211 29.8717 43.2162C29.4806 42.594 29.2851 41.8077 29.2851 40.8571C29.2851 39.6991 29.5517 38.714 30.085 37.9017C30.6182 37.0721 31.3381 36.424 32.2446 35.9574C32.8104 35.6661 33.4212 35.4456 34.0771 35.2957C34.7671 35.138 35.3106 34.56 35.3106 33.8523V33.3767C35.3106 32.8834 35.7105 32.4835 36.2038 32.4835C36.6971 32.4835 37.097 32.8834 37.097 33.3767V33.8431C37.097 34.5535 37.6465 35.134 38.344 35.268C39.0043 35.3949 39.6373 35.5815 40.243 35.8278C40.7555 36.0235 41.2326 36.233 41.6743 36.4562C42.3464 36.7958 42.5449 37.6316 42.1769 38.2886L41.7241 39.0969ZM33.0977 40.2868C33.0977 40.8571 33.3021 41.2978 33.711 41.6089C34.1198 41.9027 34.733 42.1706 35.5506 42.4126V38.2387C33.9154 38.377 33.0977 39.0597 33.0977 40.2868ZM39.5765 48.7122C39.5765 48.1246 39.3277 47.6666 38.83 47.3382C38.3501 47.0098 37.6835 46.716 36.8304 46.4568V50.6047C38.6611 50.5355 39.5765 49.9047 39.5765 48.7122Z" fill="#323A45"/>
<path d="M36.0158 24.4297C47.1358 24.4297 56.1504 33.4443 56.1504 44.5643C56.1504 55.6844 47.1358 64.6989 36.0158 64.6989C24.8958 64.6989 15.8812 55.6844 15.8812 44.5643C15.8812 33.4443 24.8958 24.4297 36.0158 24.4297Z" stroke="#323A45" stroke-width="4.6022"/>
<path d="M64.0516 12.5235L54.9932 24.6314L69.7857 25.6658L64.0516 12.5235Z" fill="#323A45"/>
<path fill-rule="evenodd" clip-rule="evenodd" d="M23.7818 12.8042C12.3445 17.3933 6.16641 27.648 6.16641 41.5815L6.16767 41.581C6.16768 29.5644 15.3486 20.7531 25.3595 16.7362C35.4122 12.7026 48.4577 13.5276 60.0879 21.1123L62.4023 17.5635C49.6705 9.2604 35.1772 8.23183 23.7818 12.8042Z" fill="#323A45"/>
</g>
<defs>
<clipPath id="clip0">
<rect width="75" height="75" fill="white"/>
</clipPath>
</defs>
</svg>
